<?xml version="1.0" standalone="no"?>
<!DOCTYPE svg PUBLIC "-//W3C//DTD SVG 20010904//EN"
 "http://www.w3.org/TR/2001/REC-SVG-20010904/DTD/svg10.dtd">
<svg version="1.0" xmlns="http://www.w3.org/2000/svg"
 width="215.000000pt" height="253.000000pt" viewBox="0 0 215.000000 253.000000"
 preserveAspectRatio="xMidYMid meet">
<metadata>
Created by potrace 1.16, written by Peter Selinger 2001-2019
</metadata>
<g transform="translate(0.000000,253.000000) scale(0.100000,-0.100000)" stroke="none">
<path d="M318 2351 c-269 -287 -303 -603 -94 -895 56 -79 183 -209 199 -203
19 6 95 126 118 186 14 38 19 69 16 96 -6 41 -9 45 -107 117 -177 132 -202
376 -72 711 16 42 29 77 27 77 -2 0 -41 -40 -87 -89z"/>
<path d="M1750 2435 c0 -3 15 -52 34 -109 52 -155 69 -251 64 -369 -3 -85 -9
-112 -32 -164 -30 -65 -90 -130 -177 -189 -58 -40 -67 -73 -38 -147 46 -117
114 -217 139 -202 6 4 56 57 111 118 113 126 157 203 190 337 45 176 12 335
-105 508 -56 83 -186 234 -186 217z"/>
<path d="M1030 1801 c-19 -16 -102 -74 -185 -129 -172 -115 -205 -146 -235
-222 -12 -30 -37 -84 -57 -120 -94 -176 -108 -403 -36 -603 13 -38 22 -71 19
-74 -13 -13 -163 155 -199 222 -33 64 -36 67 -37 38 0 -43 25 -160 48 -220 41
-107 146 -244 263 -342 37 -31 114 -96 171 -146 57 -49 112 -97 122 -105 18
-14 19 -8 12 238 -9 319 -5 309 -136 385 -63 37 -115 100 -131 160 -10 38 -7
163 5 174 3 3 19 -11 36 -31 18 -20 70 -59 117 -87 101 -61 148 -106 177 -168
18 -39 21 -69 24 -201 4 -153 4 -155 34 -196 l30 -43 26 31 c31 36 40 91 41
234 2 180 42 253 183 330 40 21 95 61 122 87 26 27 51 46 54 43 3 -3 5 -43 5
-88 0 -71 -4 -91 -26 -135 -28 -55 -59 -82 -147 -131 -93 -50 -94 -55 -101
-352 -3 -140 -4 -257 -2 -260 2 -2 7 0 11 5 4 6 84 76 177 157 94 80 189 165
211 189 130 137 203 288 217 447 2 28 3 52 1 52 -1 0 -13 -24 -27 -53 -13 -28
-42 -75 -65 -103 -42 -53 -129 -130 -137 -122 -3 2 6 37 20 77 38 114 49 218
37 349 -11 106 -14 117 -65 216 -30 58 -61 126 -68 152 -17 58 -73 110 -243
226 -67 45 -140 97 -164 115 -24 18 -49 33 -55 33 -7 -1 -28 -13 -47 -29z"/>
</g>
</svg>
