<?xml version="1.0" standalone="no"?>
<!DOCTYPE svg PUBLIC "-//W3C//DTD SVG 20010904//EN"
 "http://www.w3.org/TR/2001/REC-SVG-20010904/DTD/svg10.dtd">
<svg version="1.0" xmlns="http://www.w3.org/2000/svg"
 width="207.000000pt" height="217.000000pt" viewBox="0 0 207.000000 217.000000"
 preserveAspectRatio="xMidYMid meet">
<metadata>
Created by potrace 1.16, written by Peter Selinger 2001-2019
</metadata>
<g transform="translate(0.000000,217.000000) scale(0.100000,-0.100000)" stroke="none">
<path d="M1890 2041 c0 -62 -28 -185 -56 -249 l-25 -56 41 -41 c22 -22 40 -45
40 -51 0 -6 6 -18 13 -28 12 -17 16 -14 51 33 37 50 38 54 31 109 -10 82 -32
174 -61 250 -31 82 -34 85 -34 33z"/>
<path d="M161 2025 c-32 -70 -71 -228 -71 -289 0 -43 5 -58 31 -89 17 -20 34
-37 38 -37 4 0 15 15 24 34 9 19 31 47 50 62 l34 27 -23 57 c-20 50 -47 170
-57 255 -3 29 -4 29 -26 -20z"/>
<path d="M1030 1863 c-7 -26 -40 -124 -72 -216 -33 -93 -58 -170 -56 -171 1
-1 24 -18 51 -36 26 -18 47 -36 47 -40 0 -12 -45 -28 -96 -35 -79 -11 -80 -11
-41 -54 51 -56 115 -154 150 -229 l31 -66 14 34 c26 64 94 172 148 236 l54 63
-48 7 c-63 9 -115 31 -110 46 3 7 24 28 49 46 l45 34 -71 208 c-38 115 -73
211 -76 214 -4 4 -12 -15 -19 -41z"/>
<path d="M626 1708 c-37 -57 -69 -147 -73 -209 -5 -65 -5 -66 34 -107 43 -45
63 -53 63 -24 0 9 7 29 15 45 12 24 12 32 -2 70 -11 28 -16 77 -17 144 -1 57
-2 103 -3 103 -2 0 -9 -10 -17 -22z"/>
<path d="M1443 1638 c1 -66 -4 -108 -16 -145 -14 -39 -16 -57 -8 -72 6 -11 11
-33 11 -50 0 -17 3 -31 6 -31 16 0 65 44 84 75 20 33 21 40 11 101 -12 64 -46
154 -74 195 -13 18 -15 10 -14 -73z"/>
<path d="M238 1670 c-29 -16 -39 -28 -44 -56 -5 -28 -10 -35 -25 -31 -25 7
-24 5 12 -85 31 -79 77 -141 131 -179 l31 -22 -7 36 c-8 41 1 46 32 20 23 -20
78 -113 67 -113 -26 0 -85 25 -85 37 0 7 -8 13 -17 13 -10 0 -56 14 -102 30
-47 16 -86 28 -88 26 -8 -8 89 -126 140 -170 52 -44 59 -47 94 -41 34 5 48 0
122 -45 60 -37 89 -49 104 -44 36 11 122 108 150 168 15 31 27 60 27 64 0 4
-24 19 -52 34 -54 29 -67 26 -68 -14 0 -25 -8 -23 -65 16 -37 25 -82 78 -175
205 -69 94 -129 170 -135 170 -5 0 -27 -9 -47 -19z"/>
<path d="M1700 1567 c-154 -208 -169 -227 -217 -257 -26 -17 -50 -30 -54 -30
-4 0 -9 15 -11 34 l-3 35 -52 -32 c-29 -18 -52 -36 -53 -42 0 -5 11 -34 25
-63 24 -51 128 -172 148 -172 5 0 43 21 85 47 64 40 83 47 127 48 45 0 58 5
99 39 43 35 150 165 143 172 -6 6 -191 -61 -217 -78 -14 -9 -38 -20 -54 -24
l-29 -7 26 44 c29 49 64 89 79 89 5 0 6 -16 2 -37 l-7 -37 42 33 c23 18 52 47
65 65 22 28 86 165 86 181 0 4 -11 5 -24 3 -22 -4 -25 -1 -31 33 -7 41 -17 53
-58 68 -27 11 -30 8 -117 -112z"/>
<path d="M816 1146 c-19 -44 -44 -80 -81 -115 -30 -28 -59 -51 -64 -51 -25 0
-8 -16 34 -33 25 -11 72 -37 105 -58 34 -21 66 -39 73 -39 7 0 19 -21 26 -47
7 -27 16 -56 18 -66 4 -13 -19 -2 -80 38 -94 61 -210 119 -228 113 -14 -5 50
-127 93 -177 18 -21 70 -67 115 -104 l81 -65 7 34 c5 30 25 49 25 25 0 -5 23
-44 51 -86 l51 -76 54 82 c30 45 54 86 54 93 0 25 20 -21 20 -47 l0 -29 42 34
c124 98 228 220 253 296 6 22 5 23 -17 17 -50 -15 -132 -58 -209 -111 -45 -30
-79 -48 -76 -40 4 9 9 38 13 64 3 27 11 49 18 49 6 0 37 17 69 37 32 21 81 48
107 60 l49 23 -46 38 c-51 43 -98 111 -115 168 -6 20 -14 37 -18 37 -12 0
-142 -280 -170 -368 -16 -48 -30 -80 -33 -72 -33 124 -167 440 -186 440 -4 0
-19 -29 -35 -64z"/>
<path d="M1722 994 c-50 -104 -91 -162 -111 -157 -15 4 -19 -3 -25 -43 -7 -52
-42 -161 -58 -181 -35 -43 76 26 139 88 58 57 85 142 81 258 l-3 83 -23 -48z"/>
<path d="M330 944 c0 -157 34 -222 161 -308 29 -19 54 -34 55 -33 2 2 -8 33
-21 70 -14 37 -28 92 -31 121 -6 47 -9 52 -28 49 -25 -4 -44 20 -98 122 l-37
70 -1 -91z"/>
<path d="M828 498 c-5 -72 -5 -74 33 -129 60 -88 142 -215 162 -250 l18 -33
41 70 c23 38 61 96 84 129 98 142 92 128 87 202 -3 38 -7 70 -9 72 -2 3 -15
-6 -29 -19 -19 -18 -25 -34 -25 -67 0 -39 -2 -44 -19 -38 -15 5 -31 -8 -72
-57 -28 -35 -55 -64 -58 -65 -7 -2 -89 100 -97 122 -6 14 -10 13 -32 -7 l-25
-23 5 52 c5 48 3 54 -27 83 l-33 32 -4 -74z"/>
</g>
</svg>
