<?xml version="1.0" encoding="UTF-8" ?>
<!DOCTYPE svg PUBLIC "-//W3C//DTD SVG 1.1//EN" "http://www.w3.org/Graphics/SVG/1.1/DTD/svg11.dtd">
<svg width="930pt" height="652pt" viewBox="0 0 930 652" version="1.1" xmlns="http://www.w3.org/2000/svg">
<g id="#fefefeff">
<path fill="#fefefe" opacity="1.00" d=" M 265.78 0.00 L 273.44 0.00 C 286.99 2.20 300.31 9.66 306.78 22.15 C 310.67 29.74 310.39 38.52 309.70 46.78 C 307.34 61.77 293.80 73.13 279.01 74.71 C 267.85 76.39 255.40 74.77 245.73 81.71 C 241.13 84.47 237.47 89.44 237.86 95.00 C 238.67 106.00 249.33 113.77 248.95 125.04 C 248.77 133.80 242.49 140.52 238.81 147.99 C 238.44 147.47 237.69 146.42 237.32 145.90 C 232.24 141.74 225.21 142.02 219.06 140.97 C 210.11 139.08 202.58 146.87 193.59 145.32 C 191.88 137.68 198.49 132.69 203.96 128.88 C 209.02 125.47 210.42 119.46 212.77 114.24 C 215.78 118.00 216.29 122.97 218.90 126.95 C 222.09 123.87 223.38 118.93 221.19 114.91 C 218.68 108.80 212.15 106.36 207.04 102.95 C 195.02 96.05 188.68 80.52 192.27 67.18 C 195.64 53.76 207.13 44.39 218.46 37.51 C 233.10 30.55 251.44 26.84 266.24 35.38 C 255.87 43.44 240.45 43.56 232.03 54.65 C 241.79 50.36 252.82 50.27 262.40 45.46 C 267.06 43.10 272.55 40.77 274.78 35.68 C 277.03 28.56 272.84 20.50 265.76 18.18 C 254.86 14.09 242.73 14.32 231.30 15.64 C 241.40 7.76 253.04 2.01 265.78 0.00 Z" />
<path fill="#fefefe" opacity="1.00" d=" M 387.68 79.13 C 397.05 66.29 414.51 64.40 429.05 66.97 C 438.15 68.42 446.02 75.02 449.59 83.43 C 455.02 97.76 446.48 115.42 431.59 119.52 C 421.23 123.26 409.65 120.48 399.63 125.54 C 392.60 128.18 387.49 136.70 390.94 143.92 C 393.80 150.93 399.89 157.97 397.02 166.00 C 396.28 170.20 392.65 172.78 389.13 174.61 C 385.62 173.36 381.79 173.89 378.26 172.74 C 377.04 172.38 375.84 172.02 374.64 171.64 C 377.11 166.41 383.09 161.15 379.23 155.05 C 379.04 158.60 378.50 162.21 376.42 165.19 C 375.61 162.72 374.92 160.22 374.25 157.72 C 370.17 165.36 361.59 168.50 354.52 172.66 C 359.74 164.80 367.81 158.73 370.07 149.01 C 363.14 144.48 355.39 139.28 353.46 130.64 C 349.69 119.81 356.75 108.60 365.62 102.71 C 375.50 96.25 387.07 91.84 399.00 92.09 C 404.47 91.96 410.50 92.04 414.93 95.72 C 409.73 100.10 403.24 102.48 397.77 106.46 C 404.75 104.97 411.54 102.32 417.69 98.69 C 423.64 94.94 424.14 84.76 417.29 81.68 C 408.32 77.01 397.42 77.61 387.68 79.13 Z" />
<path fill="#fefefe" opacity="1.00" d=" M 168.99 78.99 C 172.92 73.95 177.89 69.31 184.31 67.85 C 179.52 76.23 178.77 87.45 184.20 95.71 C 186.94 101.51 193.11 104.20 197.26 108.76 C 201.53 112.71 203.17 119.60 201.00 124.99 C 193.74 119.01 183.43 119.63 175.81 114.18 C 163.63 107.49 161.18 89.89 168.99 78.99 Z" />
<path fill="#fefefe" opacity="1.00" d=" M 251.15 106.05 C 249.45 95.95 259.41 87.61 268.97 88.06 C 276.29 87.25 283.18 90.24 290.43 90.45 C 282.65 95.09 274.24 100.10 268.45 107.40 C 264.64 112.52 263.73 119.31 264.64 125.48 C 258.67 120.38 252.95 113.89 251.15 106.05 Z" />
<path fill="#fefefe" opacity="1.00" d=" M 489.95 111.12 C 490.95 111.86 491.94 112.61 492.95 113.36 C 493.93 113.00 494.92 112.63 495.91 112.26 C 510.94 131.90 524.93 152.33 539.82 172.05 C 540.18 189.19 539.43 206.38 538.09 223.42 C 543.28 227.10 548.71 230.45 553.81 234.27 C 553.73 239.19 553.74 244.12 553.77 249.04 C 567.82 255.21 581.02 263.34 594.69 270.26 C 595.49 276.41 594.72 282.64 594.87 288.83 C 603.10 293.10 610.88 298.32 619.72 301.34 C 638.24 308.10 656.39 315.97 675.01 322.43 C 674.97 324.55 674.95 326.67 674.96 328.80 C 677.02 330.64 679.24 332.30 681.46 333.96 C 680.28 336.85 682.70 338.93 683.89 341.30 C 683.47 346.76 676.02 348.49 675.86 354.00 C 676.95 359.53 676.76 365.21 677.88 370.74 C 681.05 371.49 684.17 372.45 687.37 373.12 C 682.87 373.76 678.34 373.32 673.85 372.92 C 672.23 364.07 670.69 355.19 669.77 346.24 C 671.41 345.39 673.07 344.57 674.71 343.72 C 672.95 337.65 672.83 331.30 672.35 325.04 C 664.48 322.42 656.47 320.23 648.78 317.10 C 629.55 309.26 608.27 304.67 592.06 290.94 C 589.30 285.68 590.29 279.27 589.54 273.50 C 576.30 266.15 563.13 258.48 549.08 252.75 C 548.87 247.56 548.79 242.36 548.78 237.16 C 543.28 233.75 537.81 230.28 532.48 226.60 C 533.24 208.81 534.48 190.95 533.82 173.17 C 519.63 155.02 506.37 136.06 492.49 117.65 C 478.47 135.61 467.07 155.45 453.97 174.07 C 453.19 175.22 452.60 176.52 452.65 177.94 C 452.60 193.90 453.92 209.87 453.93 225.82 C 448.81 229.49 442.58 231.35 437.06 234.41 C 436.78 239.90 436.87 245.39 436.94 250.89 C 428.18 253.08 419.74 256.29 411.16 259.05 C 411.21 245.20 408.16 231.14 409.99 217.45 C 411.12 230.02 411.31 242.69 412.67 255.21 C 419.10 252.43 425.66 249.97 432.34 247.85 C 432.31 242.64 432.30 237.44 432.15 232.23 C 437.07 228.34 442.50 225.14 448.21 222.55 C 448.38 206.34 446.49 190.22 446.98 174.00 C 462.31 153.75 474.35 131.19 489.95 111.12 Z" />
<path fill="#fefefe" opacity="1.00" d=" M 329.81 130.86 C 333.38 121.41 342.98 116.16 351.95 112.81 C 344.46 119.38 339.98 131.63 346.71 140.26 C 351.84 147.45 364.52 151.08 361.75 161.99 C 353.80 160.19 345.71 158.24 338.40 154.55 C 329.96 150.40 326.00 139.41 329.81 130.86 Z" />
<path fill="#fefefe" opacity="1.00" d=" M 463.39 175.43 C 473.85 161.20 483.14 146.17 493.05 131.56 C 504.66 145.87 514.63 161.50 526.88 175.31 C 526.43 195.90 525.53 216.50 523.22 236.98 C 522.39 243.27 522.69 249.62 522.67 255.94 C 518.54 255.42 514.40 255.03 510.24 254.90 C 515.67 232.92 519.67 210.28 520.00 187.59 C 513.78 193.17 508.45 199.65 502.28 205.30 C 499.81 208.14 495.72 210.68 496.13 214.95 C 496.59 228.05 497.65 241.13 497.73 254.25 C 494.47 254.35 491.21 254.49 487.96 254.30 C 487.25 240.88 487.20 227.41 486.34 213.99 C 486.30 209.89 482.31 207.76 479.56 205.43 C 474.49 201.86 470.24 197.10 464.47 194.61 C 464.02 214.85 468.26 234.88 473.09 254.43 C 470.32 254.96 467.55 255.46 464.79 255.98 C 461.90 231.34 460.30 206.54 459.74 181.73 C 460.22 179.32 462.10 177.46 463.39 175.43 M 466.79 191.05 C 475.80 195.99 484.41 201.61 493.34 206.67 C 493.72 188.81 491.00 171.08 489.83 153.30 C 480.90 165.00 473.50 177.95 466.79 191.05 Z" />
<path fill="#fefefe" opacity="1.00" d=" M 399.02 142.91 C 399.23 137.73 404.16 134.01 408.92 133.09 C 416.14 132.54 423.56 132.79 430.40 135.41 C 419.40 139.73 407.57 148.45 407.66 161.49 C 403.90 155.86 398.04 150.27 399.02 142.91 Z" />
<path fill="#fefefe" opacity="1.00" d=" M 171.58 164.37 C 184.92 159.51 198.37 154.89 212.14 151.43 C 230.50 154.55 249.34 155.41 267.11 161.52 C 267.11 161.91 267.11 162.71 267.11 163.10 C 253.01 159.11 238.51 156.96 224.00 155.10 C 205.83 152.15 189.38 163.18 171.58 164.37 Z" />
<path fill="#fefefe" opacity="1.00" d=" M 207.78 160.01 C 225.59 160.89 243.55 162.22 260.93 166.47 C 261.83 173.86 261.90 181.33 262.14 188.77 C 243.88 187.57 225.64 186.04 207.38 184.81 C 207.42 176.54 207.15 168.26 207.78 160.01 Z" />
<path fill="#fefefe" opacity="1.00" d=" M 355.59 184.64 C 361.43 181.21 368.43 179.38 375.18 180.67 C 388.57 182.07 401.80 184.61 414.96 187.43 C 414.76 196.80 415.14 206.15 415.85 215.49 C 412.98 206.99 415.11 197.84 414.29 189.07 C 397.71 185.19 380.44 179.85 363.32 183.13 C 354.09 186.66 344.63 189.42 335.02 191.73 C 335.03 191.42 335.05 190.81 335.06 190.51 C 341.95 188.76 348.90 187.04 355.59 184.64 Z" />
<path fill="#fefefe" opacity="1.00" d=" M 368.43 187.22 C 382.01 186.68 395.34 189.88 408.78 191.24 C 408.93 197.82 409.22 204.40 409.10 210.98 C 396.09 209.58 382.97 208.20 370.16 205.55 C 369.66 205.36 368.65 204.98 368.15 204.78 C 367.83 198.93 367.89 193.06 368.43 187.22 Z" />
<path fill="#fefefe" opacity="1.00" d=" M 206.95 196.35 C 222.83 196.65 238.67 197.97 254.47 199.47 C 255.63 217.61 257.59 235.70 258.23 253.87 C 252.66 254.64 246.85 254.67 241.65 257.07 C 247.17 258.82 253.07 257.79 258.70 258.97 C 260.00 277.62 261.75 296.27 261.93 314.98 C 254.40 316.92 246.54 317.53 239.23 320.28 C 239.17 328.46 239.37 336.63 239.17 344.81 C 240.07 345.62 240.97 346.43 241.87 347.25 C 241.65 352.63 242.29 358.09 241.49 363.42 C 230.22 370.52 220.16 380.75 206.92 383.92 C 206.03 353.94 207.64 323.91 205.91 293.95 C 205.91 289.46 203.34 284.79 205.58 280.50 C 211.79 280.58 218.00 280.52 224.20 280.94 C 224.66 278.93 225.10 276.92 225.34 274.88 C 218.73 273.97 212.06 273.85 205.41 273.52 C 205.73 255.02 206.01 236.53 206.38 218.04 C 213.89 217.67 221.37 218.73 228.87 218.96 C 228.93 217.00 228.99 215.03 229.10 213.08 C 221.65 212.53 214.21 211.86 206.81 210.79 C 206.39 205.98 206.39 201.15 206.95 196.35 Z" />
<path fill="#fefefe" opacity="1.00" d=" M 260.31 200.98 C 260.33 199.10 260.63 197.26 260.89 195.41 C 263.16 220.38 264.97 245.38 267.13 270.35 C 271.55 270.54 275.56 268.16 279.93 268.21 C 286.04 269.00 292.16 270.04 298.03 271.98 C 302.44 270.65 306.89 269.43 311.40 268.43 C 318.18 266.10 325.12 269.27 331.91 270.10 C 333.72 277.69 332.81 285.58 332.91 293.30 C 331.29 286.69 333.91 279.42 330.79 273.17 C 321.69 269.80 311.26 270.71 302.18 274.08 C 293.28 277.88 284.79 269.66 275.77 271.50 C 272.48 272.12 269.25 273.00 265.99 273.76 C 263.89 249.51 262.02 225.24 260.31 200.98 Z" />
<path fill="#fefefe" opacity="1.00" d=" M 368.82 214.82 C 380.51 214.58 392.18 215.51 403.76 217.15 C 404.00 231.70 405.19 246.21 405.67 260.75 C 393.28 265.65 380.73 270.13 368.41 275.19 C 368.21 260.90 368.27 246.60 368.44 232.31 C 374.06 231.11 380.78 233.02 385.32 228.60 C 379.49 227.67 373.57 227.53 367.68 227.67 C 367.66 223.38 366.77 218.80 368.82 214.82 Z" />
<path fill="#fefefe" opacity="1.00" d=" M 443.58 244.07 C 442.72 238.06 450.27 236.70 454.29 234.48 C 455.59 242.19 455.00 250.08 455.65 257.87 C 451.80 259.22 447.86 260.32 443.88 261.22 C 443.60 255.51 443.90 249.79 443.58 244.07 Z" />
<path fill="#fefefe" opacity="1.00" d=" M 532.32 234.61 C 536.48 236.24 540.05 238.96 543.85 241.25 C 544.07 248.88 544.29 256.51 544.07 264.14 C 539.98 262.12 535.22 260.98 531.74 258.02 C 531.57 250.22 532.11 242.41 532.32 234.61 Z" />
<path fill="#fefefe" opacity="1.00" d=" M 394.10 273.27 C 404.43 267.65 415.71 264.24 426.59 259.89 C 426.80 270.19 426.92 280.49 426.92 290.80 C 415.98 294.51 405.72 299.86 395.06 304.23 C 394.00 293.94 394.79 283.58 394.10 273.27 Z" />
<path fill="#fefefe" opacity="1.00" d=" M 464.76 263.78 C 470.80 261.19 477.55 261.16 484.02 260.88 C 496.99 260.90 510.13 261.04 522.82 263.94 C 522.68 270.32 522.59 276.70 522.68 283.09 C 503.46 281.68 484.00 280.12 464.88 283.72 C 464.67 277.10 463.95 270.34 464.76 263.78 Z" />
<path fill="#fefefe" opacity="1.00" d=" M 556.42 261.78 C 566.09 265.57 575.01 270.99 583.86 276.34 C 585.26 276.99 584.76 278.72 584.95 279.94 C 584.87 288.62 585.69 297.32 585.04 306.00 C 575.34 302.57 566.65 296.91 557.28 292.74 C 557.91 282.43 557.55 272.04 556.42 261.78 Z" />
<path fill="#fefefe" opacity="1.00" d=" M 530.35 266.57 C 535.44 267.88 540.18 270.17 544.93 272.37 C 545.22 280.69 544.88 289.43 540.74 296.89 C 534.34 308.57 524.84 318.12 515.64 327.61 C 514.03 329.42 511.86 331.26 512.14 333.95 C 512.07 343.50 512.54 353.08 511.86 362.62 C 508.92 365.15 504.25 367.36 504.68 371.93 C 504.97 410.64 504.96 449.36 504.98 488.07 C 504.53 491.70 508.27 493.27 510.70 495.04 C 509.89 486.70 510.31 478.32 510.05 469.96 C 509.44 464.39 516.12 462.10 517.21 457.03 C 518.88 449.18 518.16 440.76 514.25 433.66 C 516.69 434.29 519.35 434.88 521.00 436.97 C 529.34 446.05 530.88 460.18 526.21 471.37 C 524.37 474.98 527.06 479.05 530.26 480.79 C 533.82 482.69 537.97 481.45 541.77 482.27 C 546.81 483.69 549.57 489.68 548.64 494.54 C 546.21 497.65 542.36 499.20 539.32 501.64 C 544.52 505.89 550.53 500.89 555.83 499.45 C 557.98 501.16 560.13 502.89 562.28 504.62 C 563.66 503.80 565.05 502.99 566.44 502.17 C 565.06 500.96 563.68 499.75 562.30 498.55 C 564.09 494.32 568.93 493.95 572.70 492.50 C 574.20 494.33 575.72 496.16 577.24 497.98 C 571.91 506.96 559.42 504.52 552.63 511.62 C 547.98 516.05 546.95 522.84 547.08 528.99 C 547.25 541.99 546.90 555.00 547.22 567.99 C 547.20 576.36 554.19 585.04 563.00 584.52 C 597.33 584.76 631.66 583.67 666.00 584.21 C 700.67 584.11 735.33 585.98 770.01 585.04 C 809.53 583.84 849.07 583.28 888.61 584.01 C 885.72 579.27 884.58 573.43 880.58 569.43 C 871.58 562.57 859.83 561.71 848.95 560.83 C 846.95 550.76 845.02 540.66 841.97 530.84 C 839.03 530.30 836.07 529.83 833.12 529.38 C 833.25 528.05 833.38 526.72 833.55 525.40 C 837.29 527.76 844.23 526.19 845.52 531.43 C 848.02 539.82 850.00 548.36 852.13 556.86 C 863.77 560.11 876.65 562.61 885.35 571.68 C 890.06 574.69 896.19 575.45 899.70 580.24 C 896.64 581.69 893.36 582.54 890.17 583.59 C 902.71 588.77 916.83 587.34 929.88 590.63 C 903.35 593.10 877.17 598.97 850.73 602.28 C 850.30 602.11 849.44 601.77 849.02 601.61 C 866.87 597.67 885.42 596.62 902.92 591.16 C 898.97 590.65 894.99 590.53 891.02 590.71 C 860.42 591.60 829.80 591.25 799.21 590.91 C 806.10 594.14 814.17 594.59 820.31 599.40 C 804.36 602.02 788.15 602.69 772.04 603.70 C 763.51 603.58 754.83 604.86 746.43 602.89 C 751.97 598.47 758.99 596.83 765.40 594.13 C 719.60 594.79 673.81 596.19 628.01 596.90 C 613.68 597.47 599.30 597.02 585.00 598.20 C 618.19 610.36 651.84 621.41 684.69 634.55 C 684.38 634.72 683.76 635.08 683.46 635.26 C 671.14 632.78 658.59 632.15 646.15 630.61 C 598.83 631.21 551.35 630.96 503.97 630.76 C 489.46 629.57 474.88 629.91 460.33 629.80 C 463.64 628.06 467.11 626.65 470.31 624.71 C 454.60 623.34 438.98 628.45 423.38 630.27 C 422.70 630.19 421.35 630.04 420.67 629.96 C 447.94 620.97 475.91 614.25 503.22 605.39 C 511.21 602.79 519.55 601.65 527.67 599.57 C 461.53 595.94 395.21 595.96 328.99 594.34 C 318.92 594.08 308.79 592.72 298.75 593.92 C 307.31 595.48 316.11 595.37 324.56 597.64 C 317.17 600.93 308.87 600.07 300.99 600.30 C 278.08 600.44 255.15 600.15 232.26 600.95 C 239.29 605.05 247.60 606.34 254.33 611.03 C 240.85 613.48 227.09 612.65 213.47 613.34 C 200.31 610.80 186.92 610.33 173.63 608.93 C 190.58 607.43 208.57 611.20 224.54 603.42 C 205.20 602.37 185.81 602.29 166.47 601.30 C 171.87 598.61 177.57 596.62 182.93 593.86 C 172.27 593.65 161.61 593.52 150.96 593.16 C 146.10 592.72 142.79 596.89 138.70 598.73 C 132.83 602.23 125.74 602.17 119.60 604.99 C 111.44 604.80 103.31 603.99 95.17 603.52 C 103.28 602.75 111.48 602.03 119.38 600.00 C 100.76 594.65 81.06 596.97 61.98 595.19 C 41.21 594.52 20.56 591.59 0.00 588.63 L 0.00 588.22 C 12.45 585.53 24.40 580.89 36.50 576.99 C 39.56 577.57 42.71 578.33 44.85 580.78 C 35.70 585.42 25.13 584.72 15.54 587.76 C 30.27 590.11 45.22 590.30 60.07 591.42 C 85.28 593.23 110.83 595.29 135.86 590.59 C 131.94 588.80 127.24 587.89 124.66 584.11 C 169.71 584.29 214.79 590.72 259.92 587.37 C 281.57 585.53 303.28 584.83 325.00 584.97 C 389.97 584.74 454.97 586.09 519.94 585.81 C 520.15 567.24 522.22 547.93 516.04 530.05 C 512.64 519.47 503.60 511.29 493.20 507.78 C 483.96 504.92 474.16 506.32 464.66 505.55 C 463.75 504.24 462.85 502.94 461.95 501.64 C 468.45 497.97 480.21 500.81 481.70 490.99 C 478.07 484.13 483.96 477.94 483.33 470.99 C 483.20 437.53 483.63 404.08 483.54 370.63 C 479.88 366.95 473.23 364.21 473.98 358.06 C 473.74 349.20 474.39 340.27 473.53 331.46 C 463.38 319.42 450.99 308.95 442.87 295.25 C 439.08 289.11 440.24 281.63 440.24 274.79 C 445.48 272.79 450.59 270.47 455.71 268.17 C 456.26 275.41 455.03 283.07 458.16 289.88 C 463.26 300.95 471.48 310.87 482.32 316.68 C 484.66 318.30 488.53 319.48 488.31 322.96 C 488.53 335.46 488.53 347.99 489.32 360.48 C 490.24 361.21 491.16 361.94 492.09 362.68 C 494.31 361.44 496.53 360.19 498.73 358.90 C 498.66 346.31 498.51 333.73 498.25 321.14 C 510.67 313.99 521.34 303.43 527.59 290.44 C 531.32 283.04 530.22 274.55 530.35 266.57 Z" />
<path fill="#fefefe" opacity="1.00" d=" M 311.21 275.23 C 315.99 275.65 320.77 276.12 325.55 276.54 C 325.98 284.64 325.78 292.76 325.93 300.87 C 321.12 302.35 316.18 303.33 311.22 304.09 C 311.07 294.47 310.68 284.84 311.21 275.23 Z" />
<path fill="#fefefe" opacity="1.00" d=" M 277.36 276.18 C 281.95 276.80 286.48 277.80 291.06 278.58 C 291.77 288.40 291.58 298.28 291.35 308.12 C 287.01 309.40 282.62 310.52 278.14 311.14 C 277.32 299.51 277.42 287.84 277.36 276.18 Z" />
<path fill="#fefefe" opacity="1.00" d=" M 355.28 298.90 C 359.08 294.87 365.54 294.41 370.72 292.88 C 370.81 298.42 371.30 303.96 370.90 309.50 C 366.56 310.54 362.33 311.99 358.00 313.05 C 357.50 312.97 356.50 312.80 356.00 312.71 C 355.37 308.14 355.19 303.51 355.28 298.90 Z" />
<path fill="#fefefe" opacity="1.00" d=" M 386.09 318.15 C 397.63 309.65 410.58 303.24 423.86 297.93 C 426.75 301.18 429.88 304.22 433.03 307.24 C 424.45 311.70 415.92 316.30 407.56 321.19 C 411.23 326.03 415.23 330.62 419.26 335.16 C 429.27 330.57 438.90 325.21 448.83 320.49 C 452.74 324.69 456.76 328.82 460.12 333.50 C 435.61 342.36 412.52 356.62 396.51 377.52 C 377.97 402.22 367.63 434.07 372.04 465.00 C 373.95 478.83 378.16 492.28 384.01 504.95 C 379.13 504.91 374.26 504.83 369.40 504.80 C 362.95 486.59 358.82 467.40 359.60 447.99 C 351.77 447.47 343.93 447.04 336.08 446.74 C 335.68 453.94 335.98 461.16 336.46 468.35 C 339.76 470.69 343.43 472.89 345.34 476.62 C 342.52 477.78 339.79 479.18 337.14 480.70 C 339.05 483.88 341.02 487.03 343.10 490.11 C 347.69 487.27 352.04 484.07 356.65 481.26 C 359.36 489.13 361.71 497.12 364.46 504.99 C 357.91 505.18 351.36 505.17 344.81 505.01 C 343.53 514.72 348.75 524.06 351.68 533.14 C 348.21 534.27 344.63 534.97 341.00 535.32 C 328.27 513.15 322.52 487.39 321.13 462.01 C 316.85 407.06 343.29 352.10 386.09 318.15 M 384.45 336.78 C 386.33 344.05 387.50 351.63 387.27 359.15 C 381.53 358.52 376.22 356.18 371.04 353.80 C 368.50 355.88 364.23 357.97 365.61 361.97 C 367.24 370.29 368.75 378.69 370.97 386.88 C 373.50 386.14 376.28 385.92 378.53 384.47 C 378.46 376.61 374.74 369.31 372.95 361.74 C 378.36 362.69 383.21 365.37 388.20 367.53 C 390.55 365.83 393.05 364.07 394.41 361.42 C 393.98 354.46 391.38 347.69 391.83 340.66 C 396.99 342.54 400.95 346.49 405.62 349.25 C 407.06 347.47 408.51 345.69 409.97 343.93 C 404.14 339.37 398.33 334.75 393.10 329.50 C 390.08 331.75 387.18 334.17 384.45 336.78 M 346.09 392.51 C 344.62 395.58 343.31 398.72 342.18 401.93 C 348.04 403.35 353.95 404.58 359.90 405.58 C 358.44 411.59 357.31 417.68 355.53 423.62 C 352.01 423.08 348.52 422.40 345.07 421.52 C 345.26 419.01 345.49 416.51 345.74 414.01 C 343.85 413.73 341.96 413.44 340.07 413.15 C 338.79 417.66 338.03 422.29 337.60 426.96 C 345.45 428.04 353.05 430.47 360.93 431.26 C 363.02 421.03 365.77 410.97 368.78 400.98 C 361.52 397.43 353.78 394.97 346.09 392.51 Z" />
<path fill="#fefefe" opacity="1.00" d=" M 553.32 308.14 C 554.49 304.77 555.95 301.49 557.78 298.43 C 565.94 302.58 574.49 305.90 582.35 310.63 C 610.00 325.60 632.46 349.53 646.26 377.72 C 655.39 398.10 662.63 419.67 664.21 442.09 C 666.68 473.99 662.60 506.98 649.09 536.19 C 645.12 536.29 641.15 536.34 637.20 536.04 C 639.41 525.63 643.59 515.76 645.79 505.36 C 638.48 505.36 631.16 505.47 623.86 504.99 C 627.01 496.75 628.83 488.11 631.33 479.68 C 636.07 482.54 640.08 486.48 645.19 488.76 C 646.56 486.39 647.28 483.74 647.80 481.08 C 644.97 478.84 642.19 476.55 639.68 473.96 C 642.60 471.29 646.43 470.19 650.15 469.15 C 650.50 461.53 651.17 453.89 650.70 446.27 C 650.75 444.37 648.40 445.33 647.33 445.32 C 641.00 446.30 634.60 446.43 628.24 446.86 C 628.28 466.56 626.67 486.76 619.07 505.15 C 614.94 505.27 610.81 505.30 606.69 505.11 C 613.66 485.14 617.93 463.80 615.51 442.61 C 612.13 406.19 591.66 371.88 561.06 351.78 C 549.97 343.36 536.86 338.54 524.16 333.18 C 527.90 328.83 531.29 324.09 535.83 320.49 C 546.98 324.46 557.62 329.77 567.80 335.77 C 572.16 331.48 575.77 326.51 578.94 321.29 C 570.74 316.29 562.10 311.99 553.32 308.14 M 575.82 346.59 C 580.26 351.23 585.55 354.96 590.09 359.52 C 591.70 358.02 593.31 356.51 594.92 355.01 C 592.52 352.51 589.98 350.14 587.32 347.93 C 588.93 345.73 590.59 343.56 592.28 341.40 C 595.87 343.92 599.25 346.77 602.07 350.14 C 604.00 348.62 605.69 346.83 607.35 345.04 C 601.99 340.55 596.45 336.28 590.64 332.40 C 585.88 337.31 581.32 342.45 575.82 346.59 M 600.02 368.89 C 606.50 375.54 612.05 383.06 616.11 391.43 C 622.41 387.98 629.13 385.06 634.65 380.39 C 629.34 371.91 624.48 363.15 618.72 354.96 C 612.11 359.07 606.06 364.01 600.02 368.89 M 618.51 402.99 C 621.94 412.27 624.92 421.72 627.04 431.39 C 633.91 429.12 641.01 427.45 647.68 424.58 C 645.89 414.03 643.18 403.65 639.87 393.47 C 632.47 395.94 625.42 399.41 618.51 402.99 Z" />
<path fill="#fefefe" opacity="1.00" d=" M 594.43 301.76 C 598.76 302.52 602.37 305.09 606.02 307.34 C 606.70 310.50 607.14 313.70 607.42 316.92 C 607.17 317.10 606.65 317.46 606.40 317.65 C 603.75 315.31 601.09 312.94 597.95 311.30 C 597.64 307.81 595.56 304.97 594.43 301.76 Z" />
<path fill="#fefefe" opacity="1.00" d=" M 616.65 311.14 C 633.49 316.58 650.06 322.82 666.85 328.40 C 667.00 332.00 667.01 335.61 666.85 339.21 C 650.34 335.66 634.20 330.49 618.40 324.55 C 617.55 320.12 616.92 315.65 616.65 311.14 Z" />
<path fill="#fefefe" opacity="1.00" d=" M 418.94 321.14 C 421.67 319.36 424.43 317.62 427.18 315.87 C 428.61 317.55 430.04 319.24 431.47 320.93 C 428.76 323.54 425.65 325.67 422.23 327.22 C 421.15 325.18 420.05 323.15 418.94 321.14 Z" />
<path fill="#fefefe" opacity="1.00" d=" M 551.37 320.14 C 553.24 318.72 555.10 317.27 556.95 315.80 C 560.56 317.20 564.16 318.67 567.51 320.63 C 565.88 322.78 564.26 324.93 562.68 327.11 C 558.79 324.98 555.01 322.67 551.37 320.14 Z" />
<path fill="#fefefe" opacity="1.00" d=" M 332.79 331.31 C 342.54 329.28 352.34 327.19 362.31 326.78 C 354.65 335.96 346.87 345.06 339.65 354.60 C 338.21 356.63 336.19 358.20 333.57 358.04 C 332.94 349.14 333.82 340.19 332.79 331.31 Z" />
<path fill="#fefefe" opacity="1.00" d=" M 629.52 336.95 C 641.35 338.59 652.71 342.74 664.61 344.15 C 665.11 354.15 665.86 364.18 668.02 373.98 C 662.80 374.09 657.57 374.17 652.36 373.87 C 646.73 360.41 637.90 348.76 629.52 336.95 Z" />
<path fill="#fefefe" opacity="1.00" d=" M 439.21 356.35 C 446.69 351.89 454.67 348.29 462.94 345.57 C 463.29 351.64 463.42 357.72 463.69 363.80 C 458.36 365.37 453.11 367.24 448.11 369.65 C 444.56 365.63 441.90 360.96 439.21 356.35 Z" />
<path fill="#fefefe" opacity="1.00" d=" M 521.80 346.10 C 526.77 347.82 531.76 349.51 536.51 351.78 C 534.16 357.15 532.47 362.78 530.08 368.13 C 526.88 366.64 523.71 365.11 520.57 363.53 C 521.22 357.74 521.40 351.91 521.80 346.10 Z" />
<path fill="#fefefe" opacity="1.00" d=" M 532.29 368.78 C 537.05 365.31 537.47 358.95 540.88 354.46 C 549.53 358.70 557.46 364.40 564.65 370.79 C 560.50 374.41 556.57 378.25 552.68 382.14 C 546.37 376.96 539.13 373.17 532.29 368.78 Z" />
<path fill="#fefefe" opacity="1.00" d=" M 410.08 380.04 C 417.00 372.27 424.53 364.75 433.74 359.71 C 436.71 364.43 440.42 368.59 443.98 372.86 C 436.31 377.93 429.21 383.71 422.84 390.34 C 418.50 387.00 414.26 383.56 410.08 380.04 Z" />
<path fill="#fefefe" opacity="1.00" d=" M 610.28 371.11 C 612.68 369.46 615.10 367.84 617.55 366.24 C 619.42 369.51 621.87 372.41 624.73 374.87 C 622.69 377.03 620.50 379.04 618.15 380.86 C 615.44 377.67 613.12 374.18 610.28 371.11 Z" />
<path fill="#fefefe" opacity="1.00" d=" M 280.38 377.44 C 289.07 375.73 297.64 372.72 306.61 373.07 C 278.19 387.87 249.90 403.46 219.38 413.57 C 218.96 421.46 219.71 429.40 218.66 437.25 C 217.70 429.51 217.90 421.70 217.10 413.95 C 206.06 413.31 195.13 415.46 184.15 416.32 C 162.81 418.80 141.37 420.41 120.02 422.88 C 111.22 423.76 102.54 425.70 93.67 425.81 C 111.47 418.44 128.90 410.14 146.75 402.85 C 156.60 398.88 165.95 392.31 176.94 392.45 C 211.90 391.63 246.30 384.73 280.38 377.44 Z" />
<path fill="#fefefe" opacity="1.00" d=" M 555.93 384.77 C 560.37 381.75 563.92 377.66 568.21 374.45 C 578.80 383.26 585.90 395.21 592.43 407.13 C 587.96 409.91 583.22 412.22 578.28 414.02 C 572.06 403.38 564.98 393.21 555.93 384.77 Z" />
<path fill="#fefefe" opacity="1.00" d=" M 678.66 379.35 C 692.44 378.56 706.21 380.36 719.97 380.96 C 726.20 381.73 732.90 380.36 738.73 383.23 C 758.01 391.88 777.53 400.13 796.45 409.55 C 785.31 409.54 774.24 408.18 763.13 408.02 C 774.94 412.16 787.61 413.25 799.97 414.90 C 809.51 415.77 818.92 417.94 828.52 418.13 C 828.91 418.11 829.70 418.08 830.09 418.06 C 830.36 423.62 830.43 429.18 830.04 434.74 C 793.72 432.00 757.44 428.40 721.08 426.37 C 721.21 420.38 721.02 414.38 720.48 408.41 C 719.89 408.04 719.30 407.67 718.72 407.32 C 705.18 398.31 690.79 390.24 678.66 379.35 Z" />
<path fill="#fefefe" opacity="1.00" d=" M 407.10 384.14 C 411.23 388.25 416.00 391.63 420.59 395.22 C 409.71 408.49 403.18 424.77 400.53 441.64 C 395.27 441.47 390.01 441.20 384.75 440.84 C 385.49 420.11 393.73 399.92 407.10 384.14 Z" />
<path fill="#fefefe" opacity="1.00" d=" M 656.80 384.52 C 661.39 384.39 665.99 384.28 670.59 384.12 C 671.83 393.78 673.56 403.39 674.16 413.11 C 672.84 413.08 671.52 413.04 670.21 413.01 C 666.19 403.30 660.75 394.27 656.80 384.52 Z" />
<path fill="#fefefe" opacity="1.00" d=" M 458.90 388.86 C 459.92 387.53 460.96 386.21 461.98 384.89 C 467.13 387.18 473.68 394.36 466.37 398.39 C 464.94 394.95 463.67 391.45 462.29 388.00 C 461.15 388.28 460.03 388.57 458.90 388.86 Z" />
<path fill="#fefefe" opacity="1.00" d=" M 290.01 390.00 C 296.91 388.23 304.24 389.34 311.31 389.08 C 308.49 396.87 306.22 404.84 303.59 412.70 C 298.39 414.56 292.86 415.09 287.54 416.48 C 293.33 418.59 299.57 418.56 305.60 419.46 C 305.30 426.75 305.24 434.05 304.99 441.34 C 279.85 440.16 254.73 438.42 229.58 437.45 C 229.41 430.64 229.46 423.83 229.71 417.02 C 250.33 409.20 269.98 399.17 290.01 390.00 Z" />
<path fill="#fefefe" opacity="1.00" d=" M 522.31 407.77 C 525.98 404.46 528.80 400.34 532.59 397.15 C 533.29 398.19 534.01 399.24 534.72 400.30 C 533.06 404.28 535.26 408.33 539.71 408.63 C 536.54 411.04 534.86 414.70 532.58 417.84 C 530.93 419.57 529.55 417.71 529.39 416.00 C 528.85 412.05 525.00 410.16 522.31 407.77 Z" />
<path fill="#fefefe" opacity="1.00" d=" M 436.91 410.84 C 441.47 408.38 445.06 404.60 448.88 401.18 C 450.67 403.80 452.42 406.45 454.11 409.15 C 451.92 412.27 450.24 415.70 448.79 419.21 C 446.16 414.80 442.47 410.76 436.91 410.84 Z" />
<path fill="#fefefe" opacity="1.00" d=" M 470.76 453.84 C 462.53 437.14 468.24 417.54 477.62 402.60 C 478.87 429.04 477.98 455.55 479.02 482.01 C 479.79 486.03 474.89 491.02 478.91 494.12 C 470.34 498.14 461.11 495.70 452.08 496.09 C 451.05 497.07 450.02 498.04 449.00 499.03 C 449.73 500.44 450.48 501.85 451.21 503.28 C 442.54 497.48 433.69 490.21 432.68 479.01 C 431.09 473.68 436.41 470.63 439.56 467.39 C 443.49 470.65 449.85 477.52 454.18 471.08 C 450.55 465.30 446.49 459.17 446.93 452.01 C 446.58 442.13 452.90 433.95 458.79 426.69 C 459.02 432.84 458.27 439.11 459.61 445.18 C 461.00 450.19 466.62 451.77 470.76 453.84 Z" />
<path fill="#fefefe" opacity="1.00" d=" M 627.14 407.84 C 629.87 406.58 632.71 405.57 635.63 404.82 C 637.35 409.29 639.01 413.80 639.96 418.51 C 637.29 419.74 634.59 420.89 631.87 421.97 C 630.10 417.33 628.74 412.54 627.14 407.84 Z" />
<path fill="#fefefe" opacity="1.00" d=" M 579.39 418.08 C 584.22 416.11 589.07 414.18 594.02 412.53 C 598.06 421.44 601.00 430.95 602.08 440.70 C 596.88 440.93 591.68 441.05 586.49 440.85 C 584.91 433.04 582.50 425.41 579.39 418.08 Z" />
<path fill="#fefefe" opacity="1.00" d=" M 528.67 435.30 C 533.20 433.93 538.35 434.33 542.10 430.73 C 545.42 432.81 548.20 435.62 551.57 437.64 C 549.13 438.17 546.66 438.64 544.32 439.52 C 543.39 442.35 542.50 445.23 540.80 447.72 C 539.80 445.32 538.67 442.98 537.42 440.71 C 536.14 440.28 534.88 439.86 533.62 439.44 C 533.37 438.41 533.13 437.37 532.89 436.35 C 531.47 436.02 530.06 435.67 528.67 435.30 Z" />
<path fill="#fefefe" opacity="1.00" d=" M 720.58 437.19 C 754.68 439.00 788.76 441.33 822.86 443.00 C 823.41 460.50 824.40 478.00 824.08 495.50 C 814.13 495.17 804.17 495.26 794.23 494.73 C 794.22 484.52 794.85 474.31 794.36 464.11 C 782.92 463.36 771.48 462.59 760.04 462.14 C 757.45 462.01 757.25 465.07 757.32 466.95 C 757.40 476.85 757.40 486.75 757.65 496.65 C 745.39 495.90 733.03 496.92 720.85 495.58 C 720.29 476.13 720.43 456.65 720.58 437.19 Z" />
<path fill="#fefefe" opacity="1.00" d=" M 417.57 449.16 C 419.43 445.93 421.13 442.54 423.93 440.01 C 427.35 444.78 430.57 449.69 433.97 454.48 C 427.91 459.60 421.33 454.31 417.57 449.16 Z" />
<path fill="#fefefe" opacity="1.00" d=" M 383.75 446.03 C 389.11 446.00 394.47 446.02 399.82 446.23 C 399.28 460.49 400.29 475.35 407.13 488.19 C 402.54 491.85 397.15 494.34 391.46 495.74 C 383.88 480.39 382.85 462.86 383.75 446.03 Z" />
<path fill="#fefefe" opacity="1.00" d=" M 587.95 447.49 C 593.23 447.38 598.51 447.26 603.80 447.29 C 604.37 455.15 603.46 462.99 602.73 470.80 C 597.55 470.77 592.39 470.34 587.25 469.77 C 588.00 462.36 588.07 454.92 587.95 447.49 Z" />
<path fill="#fefefe" opacity="1.00" d=" M 230.98 448.11 C 245.26 447.39 259.61 448.72 273.92 448.89 C 274.63 463.87 274.96 478.88 274.91 493.87 C 264.01 493.57 253.12 493.31 242.23 492.71 C 238.42 492.55 234.61 492.32 230.80 492.05 C 230.62 477.41 230.36 462.75 230.98 448.11 Z" />
<path fill="#fefefe" opacity="1.00" d=" M 280.39 449.46 C 288.44 450.06 296.51 450.03 304.58 450.41 C 304.31 465.35 304.61 480.30 304.23 495.24 C 296.68 495.11 289.12 494.86 281.58 494.47 C 280.51 479.49 280.41 464.46 280.39 449.46 Z" />
<path fill="#fefefe" opacity="1.00" d=" M 635.10 453.28 C 637.71 453.25 640.32 453.23 642.95 453.19 C 643.00 456.94 642.86 460.70 642.52 464.44 C 639.56 465.27 636.52 465.78 633.46 466.02 C 633.87 461.75 634.37 457.50 635.10 453.28 Z" />
<path fill="#fefefe" opacity="1.00" d=" M 549.28 455.14 C 552.38 454.42 555.56 454.12 558.74 454.08 C 559.41 455.02 560.08 455.97 560.76 456.92 C 559.08 460.75 556.64 464.17 553.65 467.09 C 551.33 464.04 548.87 460.98 547.91 457.19 C 548.25 456.68 548.94 455.65 549.28 455.14 Z" />
<path fill="#fefefe" opacity="1.00" d=" M 343.34 456.35 C 345.93 453.75 349.86 455.27 353.07 455.29 C 354.43 460.16 353.24 464.86 349.95 468.65 C 348.03 466.82 346.20 464.89 344.57 462.80 C 344.57 460.58 343.93 458.45 343.34 456.35 Z" />
<path fill="#fefefe" opacity="1.00" d=" M 417.50 466.13 C 419.71 468.31 421.89 470.52 424.04 472.76 C 421.98 474.98 421.46 479.34 418.30 480.02 C 415.21 475.86 416.13 470.73 417.50 466.13 Z" />
<path fill="#fefefe" opacity="1.00" d=" M 531.72 476.18 C 533.25 472.53 535.32 469.13 538.02 466.22 C 539.93 468.46 541.71 470.80 543.37 473.24 C 543.08 475.03 542.82 476.82 542.58 478.63 C 538.99 477.65 535.02 478.04 531.72 476.18 Z" />
<path fill="#fefefe" opacity="1.00" d=" M 767.09 468.03 C 772.89 468.04 778.69 468.22 784.50 468.53 C 784.64 477.21 784.84 485.92 784.03 494.58 C 778.64 494.32 773.22 494.83 767.86 494.18 C 766.60 485.69 767.60 476.70 767.09 468.03 Z" />
<path fill="#fefefe" opacity="1.00" d=" M 587.03 475.29 C 592.04 475.29 597.03 475.81 602.00 476.49 C 601.09 484.05 599.27 491.50 596.68 498.66 C 592.48 497.71 588.24 496.94 583.97 496.46 C 584.51 489.34 585.99 482.34 587.03 475.29 Z" />
<path fill="#fefefe" opacity="1.00" d=" M 552.48 480.65 C 554.16 478.56 556.49 477.23 558.88 476.11 C 559.80 476.45 560.73 476.78 561.67 477.11 C 561.86 478.32 562.07 479.55 562.28 480.77 C 561.04 482.42 559.83 484.10 558.63 485.78 C 556.51 484.15 554.44 482.46 552.48 480.65 Z" />
<path fill="#fefefe" opacity="1.00" d=" M 415.16 499.12 C 419.02 492.96 428.96 491.75 433.94 497.14 C 436.74 499.93 440.95 501.68 442.30 505.63 C 435.53 506.20 428.70 506.32 421.93 505.71 C 418.49 505.20 416.35 502.13 415.16 499.12 Z" />
<path fill="#fefefe" opacity="1.00" d=" M 397.17 502.39 C 399.74 500.88 402.31 499.36 404.88 497.83 C 407.60 500.17 410.19 502.68 412.29 505.61 C 407.25 505.77 402.19 505.61 397.22 504.70 C 397.21 504.12 397.18 502.97 397.17 502.39 Z" />
<path fill="#fefefe" opacity="1.00" d=" M 161.25 502.61 C 186.40 499.87 211.83 502.19 237.01 500.13 C 256.95 500.49 276.91 500.29 296.85 501.15 C 297.24 510.34 297.48 519.55 297.15 528.74 C 275.00 528.40 252.83 528.97 230.71 527.91 C 230.52 519.38 230.69 510.85 230.64 502.33 C 211.42 502.83 192.21 503.48 173.00 503.95 C 169.06 503.91 164.84 504.64 161.25 502.61 Z" />
<path fill="#fefefe" opacity="1.00" d=" M 765.66 502.34 C 766.75 501.01 768.05 499.64 769.97 499.93 C 780.36 499.90 790.76 499.62 801.14 500.18 C 801.98 509.88 801.87 519.66 801.43 529.38 C 772.97 529.58 744.51 529.43 716.05 528.87 C 715.81 520.17 715.81 511.47 715.91 502.77 C 732.49 502.08 749.10 503.28 765.66 502.34 Z" />
<path fill="#fefefe" opacity="1.00" d=" M 807.16 500.45 C 813.48 500.44 819.80 500.40 826.12 500.73 C 827.59 510.37 828.05 520.12 828.80 529.84 C 821.77 529.63 814.74 529.78 807.71 529.41 C 806.80 519.79 806.81 510.10 807.16 500.45 Z" />
<path fill="#fefefe" opacity="1.00" d=" M 574.90 506.60 C 579.21 500.22 587.42 500.48 593.44 504.25 C 589.32 510.18 580.90 505.74 574.90 506.60 Z" />
<path fill="#fefefe" opacity="1.00" d=" M 356.13 512.00 C 397.41 511.55 438.69 513.16 479.97 513.70 C 492.67 513.32 505.46 521.43 509.12 533.87 C 513.19 543.09 510.71 553.25 512.50 562.87 C 511.03 563.35 509.50 563.46 507.97 563.29 C 507.44 552.76 505.87 541.81 500.01 532.80 C 495.40 528.11 490.17 522.39 482.98 522.77 C 458.97 522.35 434.96 521.33 410.95 520.85 C 394.71 518.05 378.17 519.49 361.78 519.18 C 359.97 516.72 358.05 514.36 356.13 512.00 Z" />
<path fill="#fefefe" opacity="1.00" d=" M 559.78 515.80 C 568.37 512.22 577.94 513.66 587.00 513.36 C 601.62 513.57 616.25 513.38 630.86 513.88 C 628.47 520.23 626.27 526.66 623.48 532.85 C 622.92 532.80 621.82 532.69 621.27 532.63 C 619.20 532.45 617.13 532.17 615.07 531.97 C 617.07 528.42 618.87 524.76 620.45 521.02 C 605.42 521.12 590.38 520.90 575.36 521.38 C 568.83 521.33 563.73 526.61 560.95 532.05 C 559.12 537.66 558.66 543.59 557.23 549.30 C 553.88 544.65 554.84 538.42 554.43 533.00 C 554.54 527.11 554.32 519.51 559.78 515.80 Z" />
<path fill="#fefefe" opacity="1.00" d=" M 82.56 532.43 C 97.04 532.30 111.56 532.91 126.01 533.73 C 125.36 546.17 124.49 558.62 122.93 570.98 C 121.53 570.95 120.12 570.93 118.72 570.92 C 119.00 559.25 121.34 547.77 121.92 536.13 C 109.16 535.38 96.37 535.25 83.61 534.54 C 83.35 534.01 82.82 532.96 82.56 532.43 Z" />
<path fill="#fefefe" opacity="1.00" d=" M 133.20 534.33 C 152.08 534.62 170.95 535.33 189.84 535.43 C 190.32 548.66 189.98 561.99 189.16 575.19 C 186.75 575.08 184.34 574.97 181.93 574.89 C 181.49 562.61 182.34 550.34 182.66 538.06 C 166.42 537.57 150.17 537.08 133.93 537.12 C 133.51 547.47 133.10 557.83 132.51 568.18 C 132.26 565.05 132.05 561.92 132.04 558.79 C 132.49 550.64 132.77 542.48 133.20 534.33 Z" />
<path fill="#fefefe" opacity="1.00" d=" M 198.14 535.41 C 220.40 536.30 242.65 534.94 264.92 535.42 C 268.13 549.70 270.66 564.33 271.25 578.94 C 258.26 578.59 245.23 579.08 232.28 577.93 C 232.20 575.74 232.10 573.56 232.02 571.37 C 221.19 571.33 210.35 570.97 199.52 571.30 C 199.02 572.99 198.52 574.69 198.00 576.39 C 196.48 562.84 198.04 549.04 198.14 535.41 M 199.72 537.86 C 199.58 548.14 199.43 558.44 199.83 568.71 C 210.79 568.29 221.80 569.19 232.72 568.09 C 233.22 558.09 232.79 548.08 232.74 538.09 C 221.74 537.75 210.72 537.93 199.72 537.86 Z" />
<path fill="#fefefe" opacity="1.00" d=" M 272.87 535.36 C 285.56 535.34 298.26 534.91 310.94 535.12 C 313.63 535.33 313.44 538.92 312.83 540.84 C 309.62 553.43 305.57 565.79 302.26 578.36 C 295.77 578.38 288.93 579.51 282.64 578.36 C 279.10 564.14 274.66 549.91 272.87 535.36 Z" />
<path fill="#fefefe" opacity="1.00" d=" M 710.04 534.89 C 719.66 535.09 729.29 534.95 738.92 535.23 C 740.97 548.73 743.87 562.13 745.04 575.75 C 734.18 575.77 723.32 575.65 712.46 575.53 L 712.43 574.73 C 712.29 571.13 712.23 567.52 712.23 563.91 C 716.92 563.79 721.61 563.73 726.30 563.41 C 721.67 562.25 716.88 562.15 712.14 562.11 C 711.33 553.04 711.13 543.93 710.04 534.89 Z" />
<path fill="#fefefe" opacity="1.00" d=" M 744.87 535.25 C 763.13 535.25 781.39 535.22 799.65 535.41 C 801.35 548.94 804.48 562.25 805.89 575.81 C 787.58 576.09 769.27 575.92 750.96 575.95 C 747.95 562.60 744.67 548.99 744.87 535.25 Z" />
<path fill="#fefefe" opacity="1.00" d=" M 804.03 535.38 C 815.21 535.26 826.40 535.14 837.58 535.30 C 840.87 548.44 843.96 561.63 847.06 574.82 C 834.97 575.10 822.87 574.70 810.79 575.35 C 808.54 562.04 805.19 548.84 804.03 535.38 Z" />
<path fill="#fefefe" opacity="1.00" d=" M 575.59 538.49 C 590.43 538.02 605.28 538.67 620.12 538.44 C 618.18 547.05 614.37 555.09 611.06 563.23 C 608.81 568.51 606.51 574.55 600.87 577.05 C 606.01 565.17 608.95 552.44 611.52 539.81 C 600.33 540.44 589.02 539.43 577.92 540.84 C 573.44 544.98 571.37 551.42 569.24 557.10 C 568.46 556.32 567.68 555.54 566.92 554.77 C 569.98 549.43 572.52 543.82 575.59 538.49 Z" />
<path fill="#fefefe" opacity="1.00" d=" M 321.20 553.07 C 334.95 554.02 349.33 552.40 362.59 556.50 C 354.70 556.99 346.84 556.06 339.00 555.30 C 338.69 561.77 338.86 568.24 339.09 574.72 C 333.20 575.06 327.29 575.50 321.39 575.12 C 321.23 567.77 321.24 560.42 321.20 553.07 Z" />
<path fill="#fefefe" opacity="1.00" d=" M 69.35 553.76 C 69.11 555.72 68.95 557.69 68.78 559.67 C 59.49 562.21 50.07 564.28 40.55 565.78 C 40.73 565.46 41.08 564.83 41.25 564.52 C 50.34 561.32 59.68 558.89 68.72 555.56 C 68.88 555.11 69.19 554.21 69.35 553.76 Z" />
<path fill="#fefefe" opacity="1.00" d=" M 560.45 558.48 C 563.51 557.25 566.16 561.04 567.49 563.43 C 569.77 567.36 565.54 571.96 561.49 571.60 C 556.46 569.16 555.38 561.50 560.45 558.48 Z" />
<path fill="#fefefe" opacity="1.00" d=" M 849.95 566.06 C 860.03 566.58 876.01 566.46 877.22 579.79 C 869.97 579.60 862.72 579.39 855.46 579.45 C 852.37 575.60 850.87 570.84 849.95 566.06 Z" />
<path fill="#fefefe" opacity="1.00" d=" M 502.41 579.27 C 504.52 575.21 507.45 570.06 512.87 572.31 C 512.91 574.61 512.95 576.92 513.01 579.23 C 509.48 579.62 505.93 579.75 502.41 579.27 Z" />
<path fill="#fefefe" opacity="1.00" d=" M 58.08 579.32 C 73.07 579.11 88.06 579.64 103.02 580.48 C 105.53 580.62 107.73 581.94 109.91 583.08 C 92.68 586.59 74.72 585.34 57.26 584.62 C 57.54 582.85 57.81 581.08 58.08 579.32 Z" />
<path fill="#fefefe" opacity="1.00" d=" M 826.58 605.76 C 831.11 603.33 836.33 603.68 841.30 603.64 C 838.91 604.15 836.62 605.03 834.38 605.95 C 837.48 606.12 840.61 606.02 843.74 606.17 C 823.09 610.54 802.09 612.88 781.29 616.36 C 785.66 620.02 792.29 619.01 797.67 620.19 C 781.05 625.75 763.39 627.95 747.12 634.48 C 754.73 636.04 762.63 635.69 770.15 637.71 C 763.48 637.49 756.93 638.79 750.46 640.22 C 749.81 640.24 748.51 640.27 747.85 640.28 C 748.76 639.80 750.57 638.84 751.48 638.35 C 746.28 636.53 740.94 635.19 735.67 633.64 C 750.20 624.21 768.53 627.17 784.46 621.66 C 777.44 618.51 769.49 619.95 762.16 618.03 C 784.85 613.31 808.09 611.95 830.80 607.37 C 829.74 606.97 827.64 606.16 826.58 605.76 Z" />
<path fill="#fefefe" opacity="1.00" d=" M 329.28 609.67 C 347.43 603.93 366.96 604.78 385.40 608.68 C 367.12 612.97 347.86 611.66 329.28 609.67 Z" />
<path fill="#fefefe" opacity="1.00" d=" M 229.43 617.70 C 245.64 617.21 261.83 620.02 278.06 620.40 C 294.59 621.38 311.42 621.27 327.56 625.46 C 315.46 633.79 300.22 629.51 286.58 630.30 C 281.10 629.22 275.67 627.79 270.59 625.44 C 257.12 621.68 243.17 620.15 229.43 617.70 Z" />
<path fill="#fefefe" opacity="1.00" d=" M 695.73 620.53 C 710.02 618.13 724.85 617.09 739.22 619.20 C 727.32 629.88 709.51 624.32 695.73 620.53 Z" />
<path fill="#fefefe" opacity="1.00" d=" M 505.22 650.52 C 511.93 647.63 518.26 642.35 526.01 643.33 C 543.42 644.30 560.92 644.16 578.33 643.75 C 584.27 645.57 589.77 648.59 595.64 650.63 C 592.14 651.30 588.57 651.57 585.01 651.41 C 558.43 650.57 531.79 651.65 505.22 650.52 Z" />
</g>
<g id="#989897ff">
<path fill="#989897" opacity="1.00" d=" M 453.97 174.07 C 467.07 155.45 478.47 135.61 492.49 117.65 C 506.37 136.06 519.63 155.02 533.82 173.17 C 534.48 190.95 533.24 208.81 532.48 226.60 C 537.81 230.28 543.28 233.75 548.78 237.16 C 548.79 242.36 548.87 247.56 549.08 252.75 C 563.13 258.48 576.30 266.15 589.54 273.50 C 590.29 279.27 589.30 285.68 592.06 290.94 C 608.27 304.67 629.55 309.26 648.78 317.10 C 656.47 320.23 664.48 322.42 672.35 325.04 C 672.83 331.30 672.95 337.65 674.71 343.72 C 673.07 344.57 671.41 345.39 669.77 346.24 C 670.69 355.19 672.23 364.07 673.85 372.92 C 678.34 373.32 682.87 373.76 687.37 373.12 C 701.90 374.46 716.25 377.88 730.91 378.21 C 735.81 377.98 739.82 381.17 744.26 382.75 C 757.48 388.10 770.62 393.67 783.72 399.31 C 798.35 406.26 814.35 410.21 828.52 418.13 C 818.92 417.94 809.51 415.77 799.97 414.90 C 787.61 413.25 774.94 412.16 763.13 408.02 C 774.24 408.18 785.31 409.54 796.45 409.55 C 777.53 400.13 758.01 391.88 738.73 383.23 C 732.90 380.36 726.20 381.73 719.97 380.96 C 706.21 380.36 692.44 378.56 678.66 379.35 C 690.79 390.24 705.18 398.31 718.72 407.32 C 707.29 409.08 695.62 408.11 684.20 409.92 C 684.55 415.85 684.94 421.78 685.47 427.70 C 697.34 427.56 709.19 426.45 721.08 426.37 C 757.44 428.40 793.72 432.00 830.04 434.74 C 830.43 429.18 830.36 423.62 830.09 418.06 C 831.48 417.96 832.87 417.86 834.27 417.76 C 834.69 425.50 834.08 433.25 834.05 441.01 C 832.36 441.44 830.67 441.85 829.00 442.27 C 829.06 452.64 828.62 463.03 829.57 473.37 C 830.63 483.90 829.04 494.55 830.65 505.05 C 831.13 511.40 832.33 517.72 831.91 524.12 C 832.43 524.56 832.98 524.99 833.55 525.40 C 833.38 526.72 833.25 528.05 833.12 529.38 C 836.07 529.83 839.03 530.30 841.97 530.84 C 845.02 540.66 846.95 550.76 848.95 560.83 C 859.83 561.71 871.58 562.57 880.58 569.43 C 884.58 573.43 885.72 579.27 888.61 584.01 C 849.07 583.28 809.53 583.84 770.01 585.04 C 735.33 585.98 700.67 584.11 666.00 584.21 C 631.66 583.67 597.33 584.76 563.00 584.52 C 554.19 585.04 547.20 576.36 547.22 567.99 C 546.90 555.00 547.25 541.99 547.08 528.99 C 546.95 522.84 547.98 516.05 552.63 511.62 C 559.42 504.52 571.91 506.96 577.24 497.98 C 575.72 496.16 574.20 494.33 572.70 492.50 C 568.93 493.95 564.09 494.32 562.30 498.55 C 563.68 499.75 565.06 500.96 566.44 502.17 C 565.05 502.99 563.66 503.80 562.28 504.62 C 560.13 502.89 557.98 501.16 555.83 499.45 C 550.53 500.89 544.52 505.89 539.32 501.64 C 542.36 499.20 546.21 497.65 548.64 494.54 C 549.57 489.68 546.81 483.69 541.77 482.27 C 537.97 481.45 533.82 482.69 530.26 480.79 C 527.06 479.05 524.37 474.98 526.21 471.37 C 530.88 460.18 529.34 446.05 521.00 436.97 C 519.35 434.88 516.69 434.29 514.25 433.66 C 518.16 440.76 518.88 449.18 517.21 457.03 C 516.12 462.10 509.44 464.39 510.05 469.96 C 510.31 478.32 509.89 486.70 510.70 495.04 C 508.27 493.27 504.53 491.70 504.98 488.07 C 504.96 449.36 504.97 410.64 504.68 371.93 C 504.25 367.36 508.92 365.15 511.86 362.62 C 512.54 353.08 512.07 343.50 512.14 333.95 C 511.86 331.26 514.03 329.42 515.64 327.61 C 524.84 318.12 534.34 308.57 540.74 296.89 C 544.88 289.43 545.22 280.69 544.93 272.37 C 540.18 270.17 535.44 267.88 530.35 266.57 C 530.22 274.55 531.32 283.04 527.59 290.44 C 521.34 303.43 510.67 313.99 498.25 321.14 C 498.51 333.73 498.66 346.31 498.73 358.90 C 496.53 360.19 494.31 361.44 492.09 362.68 C 491.16 361.94 490.24 361.21 489.32 360.48 C 488.53 347.99 488.53 335.46 488.31 322.96 C 488.53 319.48 484.66 318.30 482.32 316.68 C 471.48 310.87 463.26 300.95 458.16 289.88 C 455.03 283.07 456.26 275.41 455.71 268.17 C 450.59 270.47 445.48 272.79 440.24 274.79 C 440.24 281.63 439.08 289.11 442.87 295.25 C 450.99 308.95 463.38 319.42 473.53 331.46 C 474.39 340.27 473.74 349.20 473.98 358.06 C 473.23 364.21 479.88 366.95 483.54 370.63 C 483.63 404.08 483.20 437.53 483.33 470.99 C 483.96 477.94 478.07 484.13 481.70 490.99 C 480.21 500.81 468.45 497.97 461.95 501.64 C 462.85 502.94 463.75 504.24 464.66 505.55 C 474.16 506.32 483.96 504.92 493.20 507.78 C 503.60 511.29 512.64 519.47 516.04 530.05 C 522.22 547.93 520.15 567.24 519.94 585.81 C 454.97 586.09 389.97 584.74 325.00 584.97 C 303.28 584.83 281.57 585.53 259.92 587.37 C 214.79 590.72 169.71 584.29 124.66 584.11 C 127.24 587.89 131.94 588.80 135.86 590.59 C 110.83 595.29 85.28 593.23 60.07 591.42 C 45.22 590.30 30.27 590.11 15.54 587.76 C 25.13 584.72 35.70 585.42 44.85 580.78 C 42.71 578.33 39.56 577.57 36.50 576.99 C 36.38 575.94 36.25 574.89 36.12 573.86 C 37.82 571.29 39.20 568.54 40.55 565.78 C 50.07 564.28 59.49 562.21 68.78 559.67 C 68.95 557.69 69.11 555.72 69.35 553.76 C 71.25 545.22 74.52 536.96 75.30 528.20 C 79.63 527.91 83.91 527.06 88.07 525.79 C 88.10 516.94 87.84 508.08 88.10 499.23 C 90.29 497.47 93.33 497.53 95.93 496.78 C 97.77 482.58 96.71 468.25 97.11 453.99 C 93.57 452.12 89.64 451.26 85.91 449.89 C 85.53 441.41 85.37 432.92 85.23 424.43 C 93.36 422.57 100.80 418.80 108.39 415.48 C 128.66 406.94 148.58 397.57 168.76 388.85 C 173.64 324.38 176.44 259.76 181.07 195.26 C 177.75 194.20 174.38 193.31 170.96 192.65 C 171.03 183.25 171.11 173.85 171.00 164.45 L 171.58 164.37 C 189.38 163.18 205.83 152.15 224.00 155.10 C 238.51 156.96 253.01 159.11 267.11 163.10 C 266.88 173.02 266.93 182.93 267.02 192.85 C 265.02 193.34 263.02 193.83 261.01 194.26 C 260.98 194.55 260.92 195.13 260.89 195.41 C 260.63 197.26 260.33 199.10 260.31 200.98 C 262.02 225.24 263.89 249.51 265.99 273.76 C 269.25 273.00 272.48 272.12 275.77 271.50 C 284.79 269.66 293.28 277.88 302.18 274.08 C 311.26 270.71 321.69 269.80 330.79 273.17 C 333.91 279.42 331.29 286.69 332.91 293.30 C 334.91 292.99 336.91 292.58 338.93 292.26 C 339.90 267.61 341.77 242.83 341.06 218.23 C 339.05 217.75 337.03 217.27 335.02 216.77 C 335.09 208.42 335.03 200.08 335.02 191.73 C 344.63 189.42 354.09 186.66 363.32 183.13 C 380.44 179.85 397.71 185.19 414.29 189.07 C 415.11 197.84 412.98 206.99 415.85 215.49 L 415.89 215.74 C 413.88 216.17 411.88 216.66 409.99 217.45 C 408.16 231.14 411.21 245.20 411.16 259.05 C 419.74 256.29 428.18 253.08 436.94 250.89 C 436.87 245.39 436.78 239.90 437.06 234.41 C 442.58 231.35 448.81 229.49 453.93 225.82 C 453.92 209.87 452.60 193.90 452.65 177.94 C 452.60 176.52 453.19 175.22 453.97 174.07 M 463.39 175.43 C 462.10 177.46 460.22 179.32 459.74 181.73 C 460.30 206.54 461.90 231.34 464.79 255.98 C 467.55 255.46 470.32 254.96 473.09 254.43 C 485.40 252.88 497.82 255.60 510.24 254.90 C 514.40 255.03 518.54 255.42 522.67 255.94 C 522.69 249.62 522.39 243.27 523.22 236.98 C 525.53 216.50 526.43 195.90 526.88 175.31 C 514.63 161.50 504.66 145.87 493.05 131.56 C 483.14 146.17 473.85 161.20 463.39 175.43 M 207.78 160.01 C 207.15 168.26 207.42 176.54 207.38 184.81 C 225.64 186.04 243.88 187.57 262.14 188.77 C 261.90 181.33 261.83 173.86 260.93 166.47 C 243.55 162.22 225.59 160.89 207.78 160.01 M 339.96 194.07 C 339.52 199.64 339.68 205.24 339.91 210.83 C 349.90 208.61 359.91 206.17 370.16 205.55 C 382.97 208.20 396.09 209.58 409.10 210.98 C 409.22 204.40 408.93 197.82 408.78 191.24 C 395.34 189.88 382.01 186.68 368.43 187.22 C 359.07 190.01 349.51 192.05 339.96 194.07 M 206.95 196.35 C 206.39 201.15 206.39 205.98 206.81 210.79 C 214.21 211.86 221.65 212.53 229.10 213.08 C 228.99 215.03 228.93 217.00 228.87 218.96 C 221.37 218.73 213.89 217.67 206.38 218.04 C 206.01 236.53 205.73 255.02 205.41 273.52 C 212.06 273.85 218.73 273.97 225.34 274.88 C 225.10 276.92 224.66 278.93 224.20 280.94 C 218.00 280.52 211.79 280.58 205.58 280.50 C 203.34 284.79 205.91 289.46 205.91 293.95 C 207.64 323.91 206.03 353.94 206.92 383.92 C 220.16 380.75 230.22 370.52 241.49 363.42 C 242.29 358.09 241.65 352.63 241.87 347.25 C 240.97 346.43 240.07 345.62 239.17 344.81 C 239.37 336.63 239.17 328.46 239.23 320.28 C 246.54 317.53 254.40 316.92 261.93 314.98 C 261.75 296.27 260.00 277.62 258.70 258.97 C 253.07 257.79 247.17 258.82 241.65 257.07 C 246.85 254.67 252.66 254.64 258.23 253.87 C 257.59 235.70 255.63 217.61 254.47 199.47 C 238.67 197.97 222.83 196.65 206.95 196.35 M 368.82 214.82 C 366.77 218.80 367.66 223.38 367.68 227.67 C 373.57 227.53 379.49 227.67 385.32 228.60 C 380.78 233.02 374.06 231.11 368.44 232.31 C 368.27 246.60 368.21 260.90 368.41 275.19 C 380.73 270.13 393.28 265.65 405.67 260.75 C 405.19 246.21 404.00 231.70 403.76 217.15 C 392.18 215.51 380.51 214.58 368.82 214.82 M 443.58 244.07 C 443.90 249.79 443.60 255.51 443.88 261.22 C 447.86 260.32 451.80 259.22 455.65 257.87 C 455.00 250.08 455.59 242.19 454.29 234.48 C 450.27 236.70 442.72 238.06 443.58 244.07 M 532.32 234.61 C 532.11 242.41 531.57 250.22 531.74 258.02 C 535.22 260.98 539.98 262.12 544.07 264.14 C 544.29 256.51 544.07 248.88 543.85 241.25 C 540.05 238.96 536.48 236.24 532.32 234.61 M 394.10 273.27 C 394.79 283.58 394.00 293.94 395.06 304.23 C 405.72 299.86 415.98 294.51 426.92 290.80 C 426.92 280.49 426.80 270.19 426.59 259.89 C 415.71 264.24 404.43 267.65 394.10 273.27 M 464.76 263.78 C 463.95 270.34 464.67 277.10 464.88 283.72 C 484.00 280.12 503.46 281.68 522.68 283.09 C 522.59 276.70 522.68 270.32 522.82 263.94 C 510.13 261.04 496.99 260.90 484.02 260.88 C 477.55 261.16 470.80 261.19 464.76 263.78 M 556.42 261.78 C 557.55 272.04 557.91 282.43 557.28 292.74 C 566.65 296.91 575.34 302.57 585.04 306.00 C 585.69 297.32 584.87 288.62 584.95 279.94 C 584.76 278.72 585.26 276.99 583.86 276.34 C 575.01 270.99 566.09 265.57 556.42 261.78 M 311.21 275.23 C 310.68 284.84 311.07 294.47 311.22 304.09 C 316.18 303.33 321.12 302.35 325.93 300.87 C 325.78 292.76 325.98 284.64 325.55 276.54 C 320.77 276.12 315.99 275.65 311.21 275.23 M 277.36 276.18 C 277.42 287.84 277.32 299.51 278.14 311.14 C 282.62 310.52 287.01 309.40 291.35 308.12 C 291.58 298.28 291.77 288.40 291.06 278.58 C 286.48 277.80 281.95 276.80 277.36 276.18 M 355.28 298.90 C 348.76 300.74 342.54 303.57 335.85 304.85 C 306.00 311.59 275.92 317.23 245.88 322.98 C 245.40 326.88 245.27 330.81 245.35 334.73 C 282.91 327.63 320.93 322.48 358.00 313.05 C 362.33 311.99 366.56 310.54 370.90 309.50 C 371.30 303.96 370.81 298.42 370.72 292.88 C 365.54 294.41 359.08 294.87 355.28 298.90 M 386.09 318.15 C 343.29 352.10 316.85 407.06 321.13 462.01 C 322.52 487.39 328.27 513.15 341.00 535.32 C 344.63 534.97 348.21 534.27 351.68 533.14 C 348.75 524.06 343.53 514.72 344.81 505.01 C 351.36 505.17 357.91 505.18 364.46 504.99 C 361.71 497.12 359.36 489.13 356.65 481.26 C 352.04 484.07 347.69 487.27 343.10 490.11 C 341.02 487.03 339.05 483.88 337.14 480.70 C 339.79 479.18 342.52 477.78 345.34 476.62 C 343.43 472.89 339.76 470.69 336.46 468.35 C 335.98 461.16 335.68 453.94 336.08 446.74 C 343.93 447.04 351.77 447.47 359.60 447.99 C 358.82 467.40 362.95 486.59 369.40 504.80 C 374.26 504.83 379.13 504.91 384.01 504.95 C 378.16 492.28 373.95 478.83 372.04 465.00 C 367.63 434.07 377.97 402.22 396.51 377.52 C 412.52 356.62 435.61 342.36 460.12 333.50 C 456.76 328.82 452.74 324.69 448.83 320.49 C 438.90 325.21 429.27 330.57 419.26 335.16 C 415.23 330.62 411.23 326.03 407.56 321.19 C 415.92 316.30 424.45 311.70 433.03 307.24 C 429.88 304.22 426.75 301.18 423.86 297.93 C 410.58 303.24 397.63 309.65 386.09 318.15 M 553.32 308.14 C 562.10 311.99 570.74 316.29 578.94 321.29 C 575.77 326.51 572.16 331.48 567.80 335.77 C 557.62 329.77 546.98 324.46 535.83 320.49 C 531.29 324.09 527.90 328.83 524.16 333.18 C 536.86 338.54 549.97 343.36 561.06 351.78 C 591.66 371.88 612.13 406.19 615.51 442.61 C 617.93 463.80 613.66 485.14 606.69 505.11 C 610.81 505.30 614.94 505.27 619.07 505.15 C 626.67 486.76 628.28 466.56 628.24 446.86 C 634.60 446.43 641.00 446.30 647.33 445.32 C 648.40 445.33 650.75 444.37 650.70 446.27 C 651.17 453.89 650.50 461.53 650.15 469.15 C 646.43 470.19 642.60 471.29 639.68 473.96 C 642.19 476.55 644.97 478.84 647.80 481.08 C 647.28 483.74 646.56 486.39 645.19 488.76 C 640.08 486.48 636.07 482.54 631.33 479.68 C 628.83 488.11 627.01 496.75 623.86 504.99 C 631.16 505.47 638.48 505.36 645.79 505.36 C 643.59 515.76 639.41 525.63 637.20 536.04 C 641.15 536.34 645.12 536.29 649.09 536.19 C 662.60 506.98 666.68 473.99 664.21 442.09 C 662.63 419.67 655.39 398.10 646.26 377.72 C 632.46 349.53 610.00 325.60 582.35 310.63 C 574.49 305.90 565.94 302.58 557.78 298.43 C 555.95 301.49 554.49 304.77 553.32 308.14 M 594.43 301.76 C 595.56 304.97 597.64 307.81 597.95 311.30 C 601.09 312.94 603.75 315.31 606.40 317.65 C 606.65 317.46 607.17 317.10 607.42 316.92 C 607.14 313.70 606.70 310.50 606.02 307.34 C 602.37 305.09 598.76 302.52 594.43 301.76 M 616.65 311.14 C 616.92 315.65 617.55 320.12 618.40 324.55 C 634.20 330.49 650.34 335.66 666.85 339.21 C 667.01 335.61 667.00 332.00 666.85 328.40 C 650.06 322.82 633.49 316.58 616.65 311.14 M 418.94 321.14 C 420.05 323.15 421.15 325.18 422.23 327.22 C 425.65 325.67 428.76 323.54 431.47 320.93 C 430.04 319.24 428.61 317.55 427.18 315.87 C 424.43 317.62 421.67 319.36 418.94 321.14 M 551.37 320.14 C 555.01 322.67 558.79 324.98 562.68 327.11 C 564.26 324.93 565.88 322.78 567.51 320.63 C 564.16 318.67 560.56 317.20 556.95 315.80 C 555.10 317.27 553.24 318.72 551.37 320.14 M 332.79 331.31 C 329.64 331.67 326.49 332.08 323.35 332.50 C 323.18 341.49 323.24 350.48 323.20 359.48 C 326.66 359.07 330.11 358.52 333.57 358.04 C 336.19 358.20 338.21 356.63 339.65 354.60 C 346.87 345.06 354.65 335.96 362.31 326.78 C 352.34 327.19 342.54 329.28 332.79 331.31 M 295.22 336.39 C 294.95 345.23 295.26 354.07 295.26 362.92 C 302.12 362.58 308.91 361.46 315.72 360.60 C 316.08 351.71 315.84 342.82 316.00 333.93 C 308.97 333.76 302.22 336.06 295.22 336.39 M 629.52 336.95 C 637.90 348.76 646.73 360.41 652.36 373.87 C 657.57 374.17 662.80 374.09 668.02 373.98 C 665.86 364.18 665.11 354.15 664.61 344.15 C 652.71 342.74 641.35 338.59 629.52 336.95 M 262.14 342.00 C 262.01 350.04 261.97 358.08 262.06 366.13 C 270.61 366.09 279.18 365.36 287.60 363.87 C 287.76 355.30 287.66 346.73 287.70 338.16 C 279.16 339.29 270.56 340.16 262.14 342.00 M 439.21 356.35 C 441.90 360.96 444.56 365.63 448.11 369.65 C 453.11 367.24 458.36 365.37 463.69 363.80 C 463.42 357.72 463.29 351.64 462.94 345.57 C 454.67 348.29 446.69 351.89 439.21 356.35 M 521.80 346.10 C 521.40 351.91 521.22 357.74 520.57 363.53 C 523.71 365.11 526.88 366.64 530.08 368.13 C 532.47 362.78 534.16 357.15 536.51 351.78 C 531.76 349.51 526.77 347.82 521.80 346.10 M 532.29 368.78 C 539.13 373.17 546.37 376.96 552.68 382.14 C 556.57 378.25 560.50 374.41 564.65 370.79 C 557.46 364.40 549.53 358.70 540.88 354.46 C 537.47 358.95 537.05 365.31 532.29 368.78 M 410.08 380.04 C 414.26 383.56 418.50 387.00 422.84 390.34 C 429.21 383.71 436.31 377.93 443.98 372.86 C 440.42 368.59 436.71 364.43 433.74 359.71 C 424.53 364.75 417.00 372.27 410.08 380.04 M 280.38 377.44 C 246.30 384.73 211.90 391.63 176.94 392.45 C 165.95 392.31 156.60 398.88 146.75 402.85 C 128.90 410.14 111.47 418.44 93.67 425.81 C 92.61 425.94 91.60 426.29 90.57 426.53 C 90.22 433.62 90.33 440.72 90.32 447.82 C 95.87 448.24 101.43 447.86 106.95 447.24 C 144.18 443.91 181.39 440.05 218.70 437.68 L 218.66 437.25 C 219.71 429.40 218.96 421.46 219.38 413.57 C 249.90 403.46 278.19 387.87 306.61 373.07 C 297.64 372.72 289.07 375.73 280.38 377.44 M 555.93 384.77 C 564.98 393.21 572.06 403.38 578.28 414.02 C 583.22 412.22 587.96 409.91 592.43 407.13 C 585.90 395.21 578.80 383.26 568.21 374.45 C 563.92 377.66 560.37 381.75 555.93 384.77 M 407.10 384.14 C 393.73 399.92 385.49 420.11 384.75 440.84 C 390.01 441.20 395.27 441.47 400.53 441.64 C 403.18 424.77 409.71 408.49 420.59 395.22 C 416.00 391.63 411.23 388.25 407.10 384.14 M 656.80 384.52 C 660.75 394.27 666.19 403.30 670.21 413.01 C 671.52 413.04 672.84 413.08 674.16 413.11 C 673.56 403.39 671.83 393.78 670.59 384.12 C 665.99 384.28 661.39 384.39 656.80 384.52 M 458.90 388.86 C 460.03 388.57 461.15 388.28 462.29 388.00 C 463.67 391.45 464.94 394.95 466.37 398.39 C 473.68 394.36 467.13 387.18 461.98 384.89 C 460.96 386.21 459.92 387.53 458.90 388.86 M 290.01 390.00 C 269.98 399.17 250.33 409.20 229.71 417.02 C 229.46 423.83 229.41 430.64 229.58 437.45 C 254.73 438.42 279.85 440.16 304.99 441.34 C 305.24 434.05 305.30 426.75 305.60 419.46 C 299.57 418.56 293.33 418.59 287.54 416.48 C 292.86 415.09 298.39 414.56 303.59 412.70 C 306.22 404.84 308.49 396.87 311.31 389.08 C 304.24 389.34 296.91 388.23 290.01 390.00 M 522.31 407.77 C 525.00 410.16 528.85 412.05 529.39 416.00 C 529.55 417.71 530.93 419.57 532.58 417.84 C 534.86 414.70 536.54 411.04 539.71 408.63 C 535.26 408.33 533.06 404.28 534.72 400.30 C 534.01 399.24 533.29 398.19 532.59 397.15 C 528.80 400.34 525.98 404.46 522.31 407.77 M 436.91 410.84 C 442.47 410.76 446.16 414.80 448.79 419.21 C 450.24 415.70 451.92 412.27 454.11 409.15 C 452.42 406.45 450.67 403.80 448.88 401.18 C 445.06 404.60 441.47 408.38 436.91 410.84 M 470.76 453.84 C 466.62 451.77 461.00 450.19 459.61 445.18 C 458.27 439.11 459.02 432.84 458.79 426.69 C 452.90 433.95 446.58 442.13 446.93 452.01 C 446.49 459.17 450.55 465.30 454.18 471.08 C 449.85 477.52 443.49 470.65 439.56 467.39 C 436.41 470.63 431.09 473.68 432.68 479.01 C 433.69 490.21 442.54 497.48 451.21 503.28 C 450.48 501.85 449.73 500.44 449.00 499.03 C 450.02 498.04 451.05 497.07 452.08 496.09 C 461.11 495.70 470.34 498.14 478.91 494.12 C 474.89 491.02 479.79 486.03 479.02 482.01 C 477.98 455.55 478.87 429.04 477.62 402.60 C 468.24 417.54 462.53 437.14 470.76 453.84 M 579.39 418.08 C 582.50 425.41 584.91 433.04 586.49 440.85 C 591.68 441.05 596.88 440.93 602.08 440.70 C 601.00 430.95 598.06 421.44 594.02 412.53 C 589.07 414.18 584.22 416.11 579.39 418.08 M 528.67 435.30 C 530.06 435.67 531.47 436.02 532.89 436.35 C 533.13 437.37 533.37 438.41 533.62 439.44 C 534.88 439.86 536.14 440.28 537.42 440.71 C 538.67 442.98 539.80 445.32 540.80 447.72 C 542.50 445.23 543.39 442.35 544.32 439.52 C 546.66 438.64 549.13 438.17 551.57 437.64 C 548.20 435.62 545.42 432.81 542.10 430.73 C 538.35 434.33 533.20 433.93 528.67 435.30 M 680.33 438.29 C 679.98 457.17 680.00 476.05 679.90 494.93 C 693.53 495.61 707.30 493.87 720.85 495.58 C 733.03 496.92 745.39 495.90 757.65 496.65 C 757.40 486.75 757.40 476.85 757.32 466.95 C 757.25 465.07 757.45 462.01 760.04 462.14 C 771.48 462.59 782.92 463.36 794.36 464.11 C 794.85 474.31 794.22 484.52 794.23 494.73 C 804.17 495.26 814.13 495.17 824.08 495.50 C 824.40 478.00 823.41 460.50 822.86 443.00 C 788.76 441.33 754.68 439.00 720.58 437.19 C 707.16 437.49 693.75 438.05 680.33 438.29 M 417.57 449.16 C 421.33 454.31 427.91 459.60 433.97 454.48 C 430.57 449.69 427.35 444.78 423.93 440.01 C 421.13 442.54 419.43 445.93 417.57 449.16 M 383.75 446.03 C 382.85 462.86 383.88 480.39 391.46 495.74 C 397.15 494.34 402.54 491.85 407.13 488.19 C 400.29 475.35 399.28 460.49 399.82 446.23 C 394.47 446.02 389.11 446.00 383.75 446.03 M 587.95 447.49 C 588.07 454.92 588.00 462.36 587.25 469.77 C 592.39 470.34 597.55 470.77 602.73 470.80 C 603.46 462.99 604.37 455.15 603.80 447.29 C 598.51 447.26 593.23 447.38 587.95 447.49 M 206.61 452.69 C 206.13 465.71 206.32 478.76 206.24 491.79 C 218.26 491.47 230.22 492.73 242.23 492.71 C 253.12 493.31 264.01 493.57 274.91 493.87 C 274.96 478.88 274.63 463.87 273.92 448.89 C 259.61 448.72 245.26 447.39 230.98 448.11 C 223.58 452.30 214.71 451.25 206.61 452.69 M 280.39 449.46 C 280.41 464.46 280.51 479.49 281.58 494.47 C 289.12 494.86 296.68 495.11 304.23 495.24 C 304.61 480.30 304.31 465.35 304.58 450.41 C 296.51 450.03 288.44 450.06 280.39 449.46 M 635.10 453.28 C 634.37 457.50 633.87 461.75 633.46 466.02 C 636.52 465.78 639.56 465.27 642.52 464.44 C 642.86 460.70 643.00 456.94 642.95 453.19 C 640.32 453.23 637.71 453.25 635.10 453.28 M 179.08 455.91 C 178.94 462.93 178.96 469.96 178.97 476.99 C 185.65 476.87 192.36 477.06 199.01 476.22 C 198.99 468.77 199.00 461.33 199.00 453.88 C 192.33 454.16 185.68 454.91 179.08 455.91 M 549.28 455.14 C 548.94 455.65 548.25 456.68 547.91 457.19 C 548.87 460.98 551.33 464.04 553.65 467.09 C 556.64 464.17 559.08 460.75 560.76 456.92 C 560.08 455.97 559.41 455.02 558.74 454.08 C 555.56 454.12 552.38 454.42 549.28 455.14 M 343.34 456.35 C 343.93 458.45 344.57 460.58 344.57 462.80 C 346.20 464.89 348.03 466.82 349.95 468.65 C 353.24 464.86 354.43 460.16 353.07 455.29 C 349.86 455.27 345.93 453.75 343.34 456.35 M 102.03 464.32 C 101.38 475.11 101.41 485.92 101.30 496.73 C 109.88 496.69 118.47 496.05 126.98 495.05 C 127.07 491.42 127.14 487.79 127.12 484.16 C 131.55 483.28 136.61 483.88 140.62 481.78 C 141.29 474.85 140.89 467.85 140.95 460.90 C 127.91 461.11 114.95 462.69 102.03 464.32 M 417.50 466.13 C 416.13 470.73 415.21 475.86 418.30 480.02 C 421.46 479.34 421.98 474.98 424.04 472.76 C 421.89 470.52 419.71 468.31 417.50 466.13 M 531.72 476.18 C 535.02 478.04 538.99 477.65 542.58 478.63 C 542.82 476.82 543.08 475.03 543.37 473.24 C 541.71 470.80 539.93 468.46 538.02 466.22 C 535.32 469.13 533.25 472.53 531.72 476.18 M 767.09 468.03 C 767.60 476.70 766.60 485.69 767.86 494.18 C 773.22 494.83 778.64 494.32 784.03 494.58 C 784.84 485.92 784.64 477.21 784.50 468.53 C 778.69 468.22 772.89 468.04 767.09 468.03 M 587.03 475.29 C 585.99 482.34 584.51 489.34 583.97 496.46 C 588.24 496.94 592.48 497.71 596.68 498.66 C 599.27 491.50 601.09 484.05 602.00 476.49 C 597.03 475.81 592.04 475.29 587.03 475.29 M 552.48 480.65 C 554.44 482.46 556.51 484.15 558.63 485.78 C 559.83 484.10 561.04 482.42 562.28 480.77 C 562.07 479.55 561.86 478.32 561.67 477.11 C 560.73 476.78 559.80 476.45 558.88 476.11 C 556.49 477.23 554.16 478.56 552.48 480.65 M 415.16 499.12 C 416.35 502.13 418.49 505.20 421.93 505.71 C 428.70 506.32 435.53 506.20 442.30 505.63 C 440.95 501.68 436.74 499.93 433.94 497.14 C 428.96 491.75 419.02 492.96 415.16 499.12 M 397.17 502.39 C 397.18 502.97 397.21 504.12 397.22 504.70 C 402.19 505.61 407.25 505.77 412.29 505.61 C 410.19 502.68 407.60 500.17 404.88 497.83 C 402.31 499.36 399.74 500.88 397.17 502.39 M 161.25 502.61 L 160.89 502.45 C 161.54 510.66 161.00 518.89 161.19 527.10 C 184.32 528.31 207.54 527.42 230.71 527.91 C 252.83 528.97 275.00 528.40 297.15 528.74 C 297.48 519.55 297.24 510.34 296.85 501.15 C 276.91 500.29 256.95 500.49 237.01 500.13 C 211.83 502.19 186.40 499.87 161.25 502.61 M 765.66 502.34 C 746.73 502.69 727.71 501.55 708.84 502.82 C 708.79 511.45 709.01 520.09 709.30 528.71 C 711.55 528.76 713.79 528.81 716.05 528.87 C 744.51 529.43 772.97 529.58 801.43 529.38 C 801.87 519.66 801.98 509.88 801.14 500.18 C 790.76 499.62 780.36 499.90 769.97 499.93 C 768.05 499.64 766.75 501.01 765.66 502.34 M 807.16 500.45 C 806.81 510.10 806.80 519.79 807.71 529.41 C 814.74 529.78 821.77 529.63 828.80 529.84 C 828.05 520.12 827.59 510.37 826.12 500.73 C 819.80 500.40 813.48 500.44 807.16 500.45 M 574.90 506.60 C 580.90 505.74 589.32 510.18 593.44 504.25 C 587.42 500.48 579.21 500.22 574.90 506.60 M 102.96 502.99 C 101.21 503.09 98.18 502.68 97.97 505.14 C 97.42 511.94 97.92 518.80 98.17 525.62 C 116.34 525.53 134.46 527.33 152.62 526.81 C 152.58 518.64 152.63 510.47 152.80 502.31 C 136.20 503.03 119.58 503.10 102.96 502.99 M 679.27 503.06 C 679.31 510.96 679.23 518.87 679.30 526.78 C 686.83 527.22 694.39 527.26 701.93 526.95 C 701.90 518.84 702.44 510.67 701.33 502.61 C 693.98 502.83 686.62 502.78 679.27 503.06 M 356.13 512.00 C 358.05 514.36 359.97 516.72 361.78 519.18 C 364.87 524.50 368.73 529.53 373.43 533.53 C 377.61 534.17 381.86 533.62 386.07 533.52 C 383.96 528.56 380.30 524.53 377.84 519.77 C 384.22 519.47 390.61 519.70 397.00 519.58 C 406.22 518.51 406.72 533.31 415.93 532.96 C 443.95 532.86 471.99 533.23 500.01 532.80 C 505.87 541.81 507.44 552.76 507.97 563.29 C 509.50 563.46 511.03 563.35 512.50 562.87 C 510.71 553.25 513.19 543.09 509.12 533.87 C 505.46 521.43 492.67 513.32 479.97 513.70 C 438.69 513.16 397.41 511.55 356.13 512.00 M 559.78 515.80 C 554.32 519.51 554.54 527.11 554.43 533.00 C 554.84 538.42 553.88 544.65 557.23 549.30 C 558.66 543.59 559.12 537.66 560.95 532.05 C 581.03 532.88 601.18 533.11 621.27 532.63 C 621.82 532.69 622.92 532.80 623.48 532.85 C 626.27 526.66 628.47 520.23 630.86 513.88 C 616.25 513.38 601.62 513.57 587.00 513.36 C 577.94 513.66 568.37 512.22 559.78 515.80 M 82.37 532.06 C 80.81 544.74 76.72 556.96 75.23 569.67 C 89.71 570.28 104.22 570.65 118.72 570.92 C 120.12 570.93 121.53 570.95 122.93 570.98 C 124.49 558.62 125.36 546.17 126.01 533.73 C 111.56 532.91 97.04 532.30 82.56 532.43 L 82.37 532.06 M 133.20 534.33 C 132.77 542.48 132.49 550.64 132.04 558.79 C 130.75 563.62 130.93 568.65 131.13 573.60 C 148.08 573.51 164.98 575.11 181.93 574.89 C 184.34 574.97 186.75 575.08 189.16 575.19 C 189.98 561.99 190.32 548.66 189.84 535.43 C 170.95 535.33 152.08 534.62 133.20 534.33 M 670.23 534.40 C 670.46 536.94 670.62 539.50 671.21 541.99 C 671.85 545.10 675.82 546.62 675.61 549.99 C 675.43 557.92 675.35 565.86 675.35 573.80 C 687.68 574.68 700.07 575.11 712.43 574.73 L 712.46 575.53 C 723.32 575.65 734.18 575.77 745.04 575.75 C 743.87 562.13 740.97 548.73 738.92 535.23 C 729.29 534.95 719.66 535.09 710.04 534.89 C 696.80 533.88 683.49 534.52 670.23 534.40 M 198.14 535.41 C 198.04 549.04 196.48 562.84 198.00 576.39 L 197.93 576.59 C 209.38 577.20 220.81 577.89 232.28 577.93 C 245.23 579.08 258.26 578.59 271.25 578.94 C 270.66 564.33 268.13 549.70 264.92 535.42 C 242.65 534.94 220.40 536.30 198.14 535.41 M 272.87 535.36 C 274.66 549.91 279.10 564.14 282.64 578.36 C 288.93 579.51 295.77 578.38 302.26 578.36 C 305.57 565.79 309.62 553.43 312.83 540.84 C 313.44 538.92 313.63 535.33 310.94 535.12 C 298.26 534.91 285.56 535.34 272.87 535.36 M 744.87 535.25 C 744.67 548.99 747.95 562.60 750.96 575.95 C 769.27 575.92 787.58 576.09 805.89 575.81 C 804.48 562.25 801.35 548.94 799.65 535.41 C 781.39 535.22 763.13 535.25 744.87 535.25 M 804.03 535.38 C 805.19 548.84 808.54 562.04 810.79 575.35 C 822.87 574.70 834.97 575.10 847.06 574.82 C 843.96 561.63 840.87 548.44 837.58 535.30 C 826.40 535.14 815.21 535.26 804.03 535.38 M 575.59 538.49 C 572.52 543.82 569.98 549.43 566.92 554.77 C 567.68 555.54 568.46 556.32 569.24 557.10 C 574.73 562.29 573.36 569.66 570.87 575.96 C 580.77 577.72 590.87 576.70 600.87 577.05 C 606.51 574.55 608.81 568.51 611.06 563.23 C 614.37 555.09 618.18 547.05 620.12 538.44 C 605.28 538.67 590.43 538.02 575.59 538.49 M 378.87 539.40 C 382.25 552.11 388.49 563.81 393.31 576.00 C 394.86 575.94 396.42 575.90 397.99 575.85 C 396.66 563.38 392.01 551.52 389.66 539.21 C 386.06 539.02 382.45 539.06 378.87 539.40 M 429.90 539.21 C 433.62 551.11 436.00 563.72 442.42 574.57 C 444.73 579.35 450.58 578.40 454.97 578.65 C 468.77 578.62 482.58 578.98 496.37 578.54 C 497.99 575.29 500.52 572.49 501.69 569.05 C 503.10 559.27 500.03 549.67 498.63 540.08 C 475.76 538.47 452.80 539.65 429.90 539.21 M 639.57 552.42 C 634.65 552.63 632.38 557.71 629.46 560.94 C 633.28 560.96 637.11 561.05 640.93 561.21 C 642.08 565.66 640.23 572.00 643.68 575.22 C 650.58 575.18 657.83 576.03 664.55 575.50 C 667.43 568.25 665.50 559.91 665.83 552.23 C 657.09 551.93 648.30 551.72 639.57 552.42 M 321.20 553.07 C 321.24 560.42 321.23 567.77 321.39 575.12 C 327.29 575.50 333.20 575.06 339.09 574.72 C 350.37 574.47 361.69 575.16 372.94 574.13 C 370.25 567.96 367.89 560.80 362.59 556.50 C 349.33 552.40 334.95 554.02 321.20 553.07 M 560.45 558.48 C 555.38 561.50 556.46 569.16 561.49 571.60 C 565.54 571.96 569.77 567.36 567.49 563.43 C 566.16 561.04 563.51 557.25 560.45 558.48 M 849.95 566.06 C 850.87 570.84 852.37 575.60 855.46 579.45 C 862.72 579.39 869.97 579.60 877.22 579.79 C 876.01 566.46 860.03 566.58 849.95 566.06 M 502.41 579.27 C 505.93 579.75 509.48 579.62 513.01 579.23 C 512.95 576.92 512.91 574.61 512.87 572.31 C 507.45 570.06 504.52 575.21 502.41 579.27 M 58.08 579.32 C 57.81 581.08 57.54 582.85 57.26 584.62 C 74.72 585.34 92.68 586.59 109.91 583.08 C 107.73 581.94 105.53 580.62 103.02 580.48 C 88.06 579.64 73.07 579.11 58.08 579.32 Z" />
<path fill="#989897" opacity="1.00" d=" M 193.59 145.32 C 202.58 146.87 210.11 139.08 219.06 140.97 C 225.21 142.02 232.24 141.74 237.32 145.90 C 232.99 149.01 227.64 146.37 222.86 146.18 C 213.74 144.80 205.00 148.33 196.22 150.19 C 195.17 148.66 194.15 147.10 193.59 145.32 Z" />
<path fill="#989897" opacity="1.00" d=" M 379.23 155.05 C 383.09 161.15 377.11 166.41 374.64 171.64 C 375.84 172.02 377.04 172.38 378.26 172.74 C 377.45 172.82 375.84 172.99 375.04 173.08 C 375.69 173.71 376.34 174.36 377.00 175.00 C 369.49 175.23 362.40 176.87 355.39 179.08 C 354.72 178.31 354.05 177.54 353.38 176.79 C 353.77 175.42 354.14 174.04 354.52 172.66 C 361.59 168.50 370.17 165.36 374.25 157.72 C 374.92 160.22 375.61 162.72 376.42 165.19 C 378.50 162.21 379.04 158.60 379.23 155.05 Z" />
<path fill="#989897" opacity="1.00" d=" M 384.45 336.78 C 387.18 334.17 390.08 331.75 393.10 329.50 C 398.33 334.75 404.14 339.37 409.97 343.93 C 408.51 345.69 407.06 347.47 405.62 349.25 C 400.95 346.49 396.99 342.54 391.83 340.66 C 391.38 347.69 393.98 354.46 394.41 361.42 C 393.05 364.07 390.55 365.83 388.20 367.53 C 383.21 365.37 378.36 362.69 372.95 361.74 C 374.74 369.31 378.46 376.61 378.53 384.47 C 376.28 385.92 373.50 386.14 370.97 386.88 C 368.75 378.69 367.24 370.29 365.61 361.97 C 364.23 357.97 368.50 355.88 371.04 353.80 C 376.22 356.18 381.53 358.52 387.27 359.15 C 387.50 351.63 386.33 344.05 384.45 336.78 Z" />
<path fill="#989897" opacity="1.00" d=" M 575.82 346.59 C 581.32 342.45 585.88 337.31 590.64 332.40 C 596.45 336.28 601.99 340.55 607.35 345.04 C 605.69 346.83 604.00 348.62 602.07 350.14 C 599.25 346.77 595.87 343.92 592.28 341.40 C 590.59 343.56 588.93 345.73 587.32 347.93 C 589.98 350.14 592.52 352.51 594.92 355.01 C 593.31 356.51 591.70 358.02 590.09 359.52 C 585.55 354.96 580.26 351.23 575.82 346.59 Z" />
<path fill="#989897" opacity="1.00" d=" M 600.02 368.89 C 606.06 364.01 612.11 359.07 618.72 354.96 C 624.48 363.15 629.34 371.91 634.65 380.39 C 629.13 385.06 622.41 387.98 616.11 391.43 C 612.05 383.06 606.50 375.54 600.02 368.89 M 610.28 371.11 C 613.12 374.18 615.44 377.67 618.15 380.86 C 620.50 379.04 622.69 377.03 624.73 374.87 C 621.87 372.41 619.42 369.51 617.55 366.24 C 615.10 367.84 612.68 369.46 610.28 371.11 Z" />
<path fill="#989897" opacity="1.00" d=" M 346.09 392.51 C 353.78 394.97 361.52 397.43 368.78 400.98 C 365.77 410.97 363.02 421.03 360.93 431.26 C 353.05 430.47 345.45 428.04 337.60 426.96 C 338.03 422.29 338.79 417.66 340.07 413.15 C 341.96 413.44 343.85 413.73 345.74 414.01 C 345.49 416.51 345.26 419.01 345.07 421.52 C 348.52 422.40 352.01 423.08 355.53 423.62 C 357.31 417.68 358.44 411.59 359.90 405.58 C 353.95 404.58 348.04 403.35 342.18 401.93 C 343.31 398.72 344.62 395.58 346.09 392.51 Z" />
<path fill="#989897" opacity="1.00" d=" M 618.51 402.99 C 625.42 399.41 632.47 395.94 639.87 393.47 C 643.18 403.65 645.89 414.03 647.68 424.58 C 641.01 427.45 633.91 429.12 627.04 431.39 C 624.92 421.72 621.94 412.27 618.51 402.99 M 627.14 407.84 C 628.74 412.54 630.10 417.33 631.87 421.97 C 634.59 420.89 637.29 419.74 639.96 418.51 C 639.01 413.80 637.35 409.29 635.63 404.82 C 632.71 405.57 629.87 406.58 627.14 407.84 Z" />
<path fill="#989897" opacity="1.00" d=" M 799.21 590.91 C 829.80 591.25 860.42 591.60 891.02 590.71 C 894.99 590.53 898.97 590.65 902.92 591.16 C 885.42 596.62 866.87 597.67 849.02 601.61 C 849.44 601.77 850.30 602.11 850.73 602.28 C 847.60 602.87 844.45 603.29 841.30 603.64 C 836.33 603.68 831.11 603.33 826.58 605.76 C 827.64 606.16 829.74 606.97 830.80 607.37 C 808.09 611.95 784.85 613.31 762.16 618.03 C 769.49 619.95 777.44 618.51 784.46 621.66 C 768.53 627.17 750.20 624.21 735.67 633.64 C 740.94 635.19 746.28 636.53 751.48 638.35 C 750.57 638.84 748.76 639.80 747.85 640.28 C 748.51 640.27 749.81 640.24 750.46 640.22 C 740.63 642.65 730.52 643.89 720.84 646.91 C 708.64 642.41 696.66 635.90 683.46 635.26 C 683.76 635.08 684.38 634.72 684.69 634.55 C 651.84 621.41 618.19 610.36 585.00 598.20 C 599.30 597.02 613.68 597.47 628.01 596.90 C 673.81 596.19 719.60 594.79 765.40 594.13 C 758.99 596.83 751.97 598.47 746.43 602.89 C 754.83 604.86 763.51 603.58 772.04 603.70 C 788.15 602.69 804.36 602.02 820.31 599.40 C 814.17 594.59 806.10 594.14 799.21 590.91 M 695.73 620.53 C 709.51 624.32 727.32 629.88 739.22 619.20 C 724.85 617.09 710.02 618.13 695.73 620.53 Z" />
<path fill="#989897" opacity="1.00" d=" M 138.70 598.73 C 142.79 596.89 146.10 592.72 150.96 593.16 C 161.61 593.52 172.27 593.65 182.93 593.86 C 177.57 596.62 171.87 598.61 166.47 601.30 C 185.81 602.29 205.20 602.37 224.54 603.42 C 208.57 611.20 190.58 607.43 173.63 608.93 C 155.65 607.51 137.46 607.37 119.60 604.99 C 125.74 602.17 132.83 602.23 138.70 598.73 Z" />
<path fill="#989897" opacity="1.00" d=" M 298.75 593.92 C 308.79 592.72 318.92 594.08 328.99 594.34 C 395.21 595.96 461.53 595.94 527.67 599.57 C 519.55 601.65 511.21 602.79 503.22 605.39 C 475.91 614.25 447.94 620.97 420.67 629.96 C 421.35 630.04 422.70 630.19 423.38 630.27 C 412.37 633.19 401.10 635.03 390.13 638.11 C 378.55 641.79 366.91 645.46 355.02 647.98 C 332.23 642.06 309.16 637.00 286.58 630.30 C 300.22 629.51 315.46 633.79 327.56 625.46 C 311.42 621.27 294.59 621.38 278.06 620.40 C 261.83 620.02 245.64 617.21 229.43 617.70 C 225.24 617.15 221.09 616.30 217.00 615.23 C 220.63 614.91 224.28 615.05 227.90 614.61 C 223.17 613.31 218.22 614.51 213.47 613.34 C 227.09 612.65 240.85 613.48 254.33 611.03 C 247.60 606.34 239.29 605.05 232.26 600.95 C 255.15 600.15 278.08 600.44 300.99 600.30 C 308.87 600.07 317.17 600.93 324.56 597.64 C 316.11 595.37 307.31 595.48 298.75 593.92 M 329.28 609.67 C 347.86 611.66 367.12 612.97 385.40 608.68 C 366.96 604.78 347.43 603.93 329.28 609.67 Z" />
<path fill="#989897" opacity="1.00" d=" M 502.22 652.00 C 503.22 651.50 504.22 651.01 505.22 650.52 C 531.79 651.65 558.43 650.57 585.01 651.41 C 588.57 651.57 592.14 651.30 595.64 650.63 C 596.70 651.07 597.74 651.53 598.82 652.00 L 502.22 652.00 Z" />
</g>
<g id="#bfbebdff">
<path fill="#bfbebd" opacity="1.00" d=" M 466.79 191.05 C 473.50 177.95 480.90 165.00 489.83 153.30 C 491.00 171.08 493.72 188.81 493.34 206.67 C 484.41 201.61 475.80 195.99 466.79 191.05 Z" />
<path fill="#bfbebd" opacity="1.00" d=" M 339.96 194.07 C 349.51 192.05 359.07 190.01 368.43 187.22 C 367.89 193.06 367.83 198.93 368.15 204.78 C 368.65 204.98 369.66 205.36 370.16 205.55 C 359.91 206.17 349.90 208.61 339.91 210.83 C 339.68 205.24 339.52 199.64 339.96 194.07 Z" />
<path fill="#bfbebd" opacity="1.00" d=" M 502.28 205.30 C 508.45 199.65 513.78 193.17 520.00 187.59 C 519.67 210.28 515.67 232.92 510.24 254.90 C 497.82 255.60 485.40 252.88 473.09 254.43 C 468.26 234.88 464.02 214.85 464.47 194.61 C 470.24 197.10 474.49 201.86 479.56 205.43 C 482.31 207.76 486.30 209.89 486.34 213.99 C 487.20 227.41 487.25 240.88 487.96 254.30 C 491.21 254.49 494.47 254.35 497.73 254.25 C 497.65 241.13 496.59 228.05 496.13 214.95 C 495.72 210.68 499.81 208.14 502.28 205.30 Z" />
<path fill="#bfbebd" opacity="1.00" d=" M 335.85 304.85 C 342.54 303.57 348.76 300.74 355.28 298.90 C 355.19 303.51 355.37 308.14 356.00 312.71 C 356.50 312.80 357.50 312.97 358.00 313.05 C 320.93 322.48 282.91 327.63 245.35 334.73 C 245.27 330.81 245.40 326.88 245.88 322.98 C 275.92 317.23 306.00 311.59 335.85 304.85 Z" />
<path fill="#bfbebd" opacity="1.00" d=" M 323.35 332.50 C 326.49 332.08 329.64 331.67 332.79 331.31 C 333.82 340.19 332.94 349.14 333.57 358.04 C 330.11 358.52 326.66 359.07 323.20 359.48 C 323.24 350.48 323.18 341.49 323.35 332.50 Z" />
<path fill="#bfbebd" opacity="1.00" d=" M 295.22 336.39 C 302.22 336.06 308.97 333.76 316.00 333.93 C 315.84 342.82 316.08 351.71 315.72 360.60 C 308.91 361.46 302.12 362.58 295.26 362.92 C 295.26 354.07 294.95 345.23 295.22 336.39 Z" />
<path fill="#bfbebd" opacity="1.00" d=" M 262.14 342.00 C 270.56 340.16 279.16 339.29 287.70 338.16 C 287.66 346.73 287.76 355.30 287.60 363.87 C 279.18 365.36 270.61 366.09 262.06 366.13 C 261.97 358.08 262.01 350.04 262.14 342.00 Z" />
<path fill="#bfbebd" opacity="1.00" d=" M 718.72 407.32 C 719.30 407.67 719.89 408.04 720.48 408.41 C 721.02 414.38 721.21 420.38 721.08 426.37 C 709.19 426.45 697.34 427.56 685.47 427.70 C 684.94 421.78 684.55 415.85 684.20 409.92 C 695.62 408.11 707.29 409.08 718.72 407.32 Z" />
<path fill="#bfbebd" opacity="1.00" d=" M 184.15 416.32 C 195.13 415.46 206.06 413.31 217.10 413.95 C 217.90 421.70 217.70 429.51 218.66 437.25 L 218.70 437.68 C 181.39 440.05 144.18 443.91 106.95 447.24 C 101.43 447.86 95.87 448.24 90.32 447.82 C 90.33 440.72 90.22 433.62 90.57 426.53 C 91.60 426.29 92.61 425.94 93.67 425.81 C 102.54 425.70 111.22 423.76 120.02 422.88 C 141.37 420.41 162.81 418.80 184.15 416.32 Z" />
<path fill="#bfbebd" opacity="1.00" d=" M 680.33 438.29 C 693.75 438.05 707.16 437.49 720.58 437.19 C 720.43 456.65 720.29 476.13 720.85 495.58 C 707.30 493.87 693.53 495.61 679.90 494.93 C 680.00 476.05 679.98 457.17 680.33 438.29 Z" />
<path fill="#bfbebd" opacity="1.00" d=" M 206.61 452.69 C 214.71 451.25 223.58 452.30 230.98 448.11 C 230.36 462.75 230.62 477.41 230.80 492.05 C 234.61 492.32 238.42 492.55 242.23 492.71 C 230.22 492.73 218.26 491.47 206.24 491.79 C 206.32 478.76 206.13 465.71 206.61 452.69 Z" />
<path fill="#bfbebd" opacity="1.00" d=" M 179.08 455.91 C 185.68 454.91 192.33 454.16 199.00 453.88 C 199.00 461.33 198.99 468.77 199.01 476.22 C 192.36 477.06 185.65 476.87 178.97 476.99 C 178.96 469.96 178.94 462.93 179.08 455.91 Z" />
<path fill="#bfbebd" opacity="1.00" d=" M 102.03 464.32 C 114.95 462.69 127.91 461.11 140.95 460.90 C 140.89 467.85 141.29 474.85 140.62 481.78 C 136.61 483.88 131.55 483.28 127.12 484.16 C 127.14 487.79 127.07 491.42 126.98 495.05 C 118.47 496.05 109.88 496.69 101.30 496.73 C 101.41 485.92 101.38 475.11 102.03 464.32 Z" />
<path fill="#bfbebd" opacity="1.00" d=" M 102.96 502.99 C 119.58 503.10 136.20 503.03 152.80 502.31 C 152.63 510.47 152.58 518.64 152.62 526.81 C 134.46 527.33 116.34 525.53 98.17 525.62 C 97.92 518.80 97.42 511.94 97.97 505.14 C 98.18 502.68 101.21 503.09 102.96 502.99 Z" />
<path fill="#bfbebd" opacity="1.00" d=" M 160.89 502.45 L 161.25 502.61 C 164.84 504.64 169.06 503.91 173.00 503.95 C 192.21 503.48 211.42 502.83 230.64 502.33 C 230.69 510.85 230.52 519.38 230.71 527.91 C 207.54 527.42 184.32 528.31 161.19 527.10 C 161.00 518.89 161.54 510.66 160.89 502.45 Z" />
<path fill="#bfbebd" opacity="1.00" d=" M 679.27 503.06 C 686.62 502.78 693.98 502.83 701.33 502.61 C 702.44 510.67 701.90 518.84 701.93 526.95 C 694.39 527.26 686.83 527.22 679.30 526.78 C 679.23 518.87 679.31 510.96 679.27 503.06 Z" />
<path fill="#bfbebd" opacity="1.00" d=" M 708.84 502.82 C 727.71 501.55 746.73 502.69 765.66 502.34 C 749.10 503.28 732.49 502.08 715.91 502.77 C 715.81 511.47 715.81 520.17 716.05 528.87 C 713.79 528.81 711.55 528.76 709.30 528.71 C 709.01 520.09 708.79 511.45 708.84 502.82 Z" />
<path fill="#bfbebd" opacity="1.00" d=" M 361.78 519.18 C 378.17 519.49 394.71 518.05 410.95 520.85 C 434.96 521.33 458.97 522.35 482.98 522.77 C 490.17 522.39 495.40 528.11 500.01 532.80 C 471.99 533.23 443.95 532.86 415.93 532.96 C 406.72 533.31 406.22 518.51 397.00 519.58 C 390.61 519.70 384.22 519.47 377.84 519.77 C 380.30 524.53 383.96 528.56 386.07 533.52 C 381.86 533.62 377.61 534.17 373.43 533.53 C 368.73 529.53 364.87 524.50 361.78 519.18 Z" />
<path fill="#bfbebd" opacity="1.00" d=" M 575.36 521.38 C 590.38 520.90 605.42 521.12 620.45 521.02 C 618.87 524.76 617.07 528.42 615.07 531.97 C 617.13 532.17 619.20 532.45 621.27 532.63 C 601.18 533.11 581.03 532.88 560.95 532.05 C 563.73 526.61 568.83 521.33 575.36 521.38 Z" />
<path fill="#bfbebd" opacity="1.00" d=" M 82.37 532.06 L 82.56 532.43 C 82.82 532.96 83.35 534.01 83.61 534.54 C 96.37 535.25 109.16 535.38 121.92 536.13 C 121.34 547.77 119.00 559.25 118.72 570.92 C 104.22 570.65 89.71 570.28 75.23 569.67 C 76.72 556.96 80.81 544.74 82.37 532.06 Z" />
<path fill="#bfbebd" opacity="1.00" d=" M 670.23 534.40 C 683.49 534.52 696.80 533.88 710.04 534.89 C 711.13 543.93 711.33 553.04 712.14 562.11 C 716.88 562.15 721.67 562.25 726.30 563.41 C 721.61 563.73 716.92 563.79 712.23 563.91 C 712.23 567.52 712.29 571.13 712.43 574.73 C 700.07 575.11 687.68 574.68 675.35 573.80 C 675.35 565.86 675.43 557.92 675.61 549.99 C 675.82 546.62 671.85 545.10 671.21 541.99 C 670.62 539.50 670.46 536.94 670.23 534.40 Z" />
<path fill="#bfbebd" opacity="1.00" d=" M 133.93 537.12 C 150.17 537.08 166.42 537.57 182.66 538.06 C 182.34 550.34 181.49 562.61 181.93 574.89 C 164.98 575.11 148.08 573.51 131.13 573.60 C 130.93 568.65 130.75 563.62 132.04 558.79 C 132.05 561.92 132.26 565.05 132.51 568.18 C 133.10 557.83 133.51 547.47 133.93 537.12 Z" />
<path fill="#bfbebd" opacity="1.00" d=" M 199.72 537.86 C 210.72 537.93 221.74 537.75 232.74 538.09 C 232.79 548.08 233.22 558.09 232.72 568.09 C 221.80 569.19 210.79 568.29 199.83 568.71 C 199.43 558.44 199.58 548.14 199.72 537.86 Z" />
<path fill="#bfbebd" opacity="1.00" d=" M 378.87 539.40 C 382.45 539.06 386.06 539.02 389.66 539.21 C 392.01 551.52 396.66 563.38 397.99 575.85 C 396.42 575.90 394.86 575.94 393.31 576.00 C 388.49 563.81 382.25 552.11 378.87 539.40 Z" />
<path fill="#bfbebd" opacity="1.00" d=" M 429.90 539.21 C 452.80 539.65 475.76 538.47 498.63 540.08 C 500.03 549.67 503.10 559.27 501.69 569.05 C 500.52 572.49 497.99 575.29 496.37 578.54 C 482.58 578.98 468.77 578.62 454.97 578.65 C 450.58 578.40 444.73 579.35 442.42 574.57 C 436.00 563.72 433.62 551.11 429.90 539.21 Z" />
<path fill="#bfbebd" opacity="1.00" d=" M 577.92 540.84 C 589.02 539.43 600.33 540.44 611.52 539.81 C 608.95 552.44 606.01 565.17 600.87 577.05 C 590.87 576.70 580.77 577.72 570.87 575.96 C 573.36 569.66 574.73 562.29 569.24 557.10 C 571.37 551.42 573.44 544.98 577.92 540.84 Z" />
<path fill="#bfbebd" opacity="1.00" d=" M 639.57 552.42 C 648.30 551.72 657.09 551.93 665.83 552.23 C 665.50 559.91 667.43 568.25 664.55 575.50 C 657.83 576.03 650.58 575.18 643.68 575.22 C 640.23 572.00 642.08 565.66 640.93 561.21 C 637.11 561.05 633.28 560.96 629.46 560.94 C 632.38 557.71 634.65 552.63 639.57 552.42 Z" />
<path fill="#bfbebd" opacity="1.00" d=" M 339.00 555.30 C 346.84 556.06 354.70 556.99 362.59 556.50 C 367.89 560.80 370.25 567.96 372.94 574.13 C 361.69 575.16 350.37 574.47 339.09 574.72 C 338.86 568.24 338.69 561.77 339.00 555.30 Z" />
<path fill="#bfbebd" opacity="1.00" d=" M 199.52 571.30 C 210.35 570.97 221.19 571.33 232.02 571.37 C 232.10 573.56 232.20 575.74 232.28 577.93 C 220.81 577.89 209.38 577.20 197.93 576.59 L 198.00 576.39 C 198.52 574.69 199.02 572.99 199.52 571.30 Z" />
</g>
</svg>
