<?xml version="1.0" encoding="UTF-8" standalone="no"?>
<svg
   width="560.54999pt"
   height="635.51123pt"
   viewBox="0 0 560.54999 635.51123"
   version="1.1"
   id="svg14"
   sodipodi:docname="wizardTower.svg"
   inkscape:version="1.4.3 (0d15f75, 2025-12-25)"
   xmlns:inkscape="http://www.inkscape.org/namespaces/inkscape"
   xmlns:sodipodi="http://sodipodi.sourceforge.net/DTD/sodipodi-0.dtd"
   xmlns="http://www.w3.org/2000/svg"
   xmlns:svg="http://www.w3.org/2000/svg">
  <defs
     id="defs14" />
  <sodipodi:namedview
     id="namedview14"
     pagecolor="#505050"
     bordercolor="#ffffff"
     borderopacity="1"
     inkscape:showpageshadow="0"
     inkscape:pageopacity="0"
     inkscape:pagecheckerboard="1"
     inkscape:deskcolor="#505050"
     inkscape:document-units="pt"
     inkscape:zoom="0.77167171"
     inkscape:cx="309.7172"
     inkscape:cy="425.05122"
     inkscape:window-width="1920"
     inkscape:window-height="996"
     inkscape:window-x="-9"
     inkscape:window-y="-9"
     inkscape:window-maximized="1"
     inkscape:current-layer="svg14" />
  <g
     id="#fdfdfdfe"
     transform="translate(-230.7,-148.44)">
    <path
       fill="#fdfdfd"
       opacity="1"
       d="m 510.5,149.73 c 0.67,-0.32 2.01,-0.97 2.68,-1.29 6.05,2.9 6.41,11.34 12.59,14.04 9.74,-2.55 19.13,-6.23 28.84,-8.85 8.95,-2.6 19.12,0.6 25.87,6.71 -7.24,0.85 -16,1.99 -20.11,8.88 3.84,7.66 13.8,10.82 17.86,18.5 -20.09,-7.15 -38.97,12.94 -58.97,3.66 1.45,11.19 4.62,22.15 8.65,32.68 15.71,42.22 38.45,81.95 68.09,115.94 0.86,0.99 1.47,2.17 2.09,3.33 -7.69,4.1 -15.34,8.42 -23.69,11.07 0.27,6.55 -0.01,13.1 -0.67,19.62 3.36,3.99 10.4,3.52 12.63,8.76 0.61,9.76 0.57,19.61 -0.03,29.37 0.02,4.59 -5.06,5.83 -7.01,9.09 2.48,20.61 5.03,41.26 7.25,61.9 -0.66,7.67 9.11,6.94 14,9.43 6.81,1.72 7.49,9.63 7.19,15.44 0.12,10.29 3.92,23.24 -4.95,30.99 -0.7,5.77 1.22,11.44 1.81,17.14 4.09,23.02 6.97,46.3 11.85,69.15 10.81,1.2 24.34,4 29.07,15.14 2.85,9.23 5.61,18.5 8.43,27.74 7.9,0.56 15.42,3.26 23.18,4.67 4.52,1.16 10.14,1.98 12.25,6.79 7.2,14.34 13.91,28.97 22.29,42.68 5.88,2.13 12.36,2.79 17.64,6.39 5.1,2.71 8.32,7.65 12.62,11.35 8.18,8.53 20.08,11.29 30.03,17.08 -6.6,1.57 -13.25,-1.68 -18.31,-5.71 -4.83,-4.31 -10.27,1.63 -15.73,0.83 -4.14,-5.24 -8.55,-12.28 -15.97,-12.53 -21.93,-1.73 -40.36,-15.49 -61.29,-20.49 -6.32,-0.91 -11.68,3.32 -17.63,4.5 -4.49,-2.04 -7.66,-6.09 -11.74,-8.79 -4.11,3.64 -8.42,7.09 -11.88,11.38 7.44,5.12 19.41,2.22 23.88,11.33 3.04,4.88 6.52,9.64 7.86,15.34 -10.73,-4.39 -20.79,-10.54 -32.18,-13.22 -1.18,6.79 -1.81,13.68 -3.42,20.39 -4.74,-6.55 -8.08,-14.16 -13.56,-20.11 -6.01,0.65 -11.69,3.46 -17.81,3.18 -10.36,-1.91 -20.94,-7.43 -23.93,-18.32 0.26,-0.47 0.79,-1.41 1.06,-1.88 5.34,2.64 10.41,5.93 16.24,7.45 -5.25,-5.7 -9.53,-12.75 -15.7,-17.35 -11.9,7.26 -26.85,6.46 -38.48,14.24 -8.27,4.86 -13.69,13.09 -21.74,18.28 6.22,1.41 12.57,4.29 19.04,3.09 6.27,-2.26 12.44,-5.27 19.26,-5.42 9.76,0.17 20.86,-0.58 28.97,5.88 10.73,8.19 21.41,16.47 31.55,25.39 1.67,1.67 2.15,4.09 2.92,6.25 -3.24,0.09 -6.55,-0.23 -9.43,-1.82 -16.22,-7.62 -31.04,-18.18 -48.06,-24.06 -7.9,-2.42 -14.99,4.15 -22.86,3.84 -9.07,-0.3 -18.35,-2.51 -27.31,-0.21 -7.26,2.43 -8.21,13.37 -1.25,16.89 -14.17,-0.38 -28.27,-2.9 -42.41,-2.63 2.4,-2.71 4.97,-5.28 7.52,-7.84 -30.33,-0.59 -60.62,-2.7 -90.89,-4.79 -5.24,-1.23 -5.46,6.3 -9.92,7.42 -10.21,3.36 -20.94,4.76 -31.15,8.11 -4.08,-0.08 -8.48,0.41 -12.2,-1.64 10.51,-6.37 23.22,-7.47 34.41,-12.17 4.65,-2.27 4.01,-7.95 5.11,-12.18 8.17,-2.96 17.6,-1.37 25.29,-6.16 0.14,3.3 0.34,6.62 1.09,9.85 35.01,-0.22 70.02,0.15 105.03,0.04 0.08,-3.31 0.14,-6.61 0.22,-9.91 -35.45,0.05 -70.89,0.01 -106.34,0.02 -2.42,-2.91 -5.35,-5.34 -8.56,-7.32 -9.31,-5.84 -17.2,-13.64 -26.42,-19.61 -3.88,-2.74 -11.34,-2.27 -12.5,3.16 -1.87,6.72 -5.85,12.58 -8.08,19.13 2.48,5.77 7.56,9.9 11.45,14.72 -8.46,-3.02 -16.1,-7.84 -24.1,-11.66 -16.91,6.68 -34.03,13.15 -51.48,18.43 -5.36,1.77 -11.47,1.6 -16.13,5.12 3.3,0.43 6.63,0.7 9.96,0.92 0.18,0.51 0.55,1.55 0.73,2.07 -8.15,-0.94 -16.52,-0.32 -24.41,-2.83 12.94,-5.33 25.39,-11.89 38.72,-16.23 6.18,-1.75 10.29,-7.07 15.05,-11.04 6.46,-7.87 17.08,-9.5 25.32,-14.72 3.33,-5.97 4.57,-13.37 9.69,-18.18 14.86,-9.45 26.94,-22.43 39.56,-34.52 4.61,-4.35 10.91,-2.03 16.38,-1.46 4.62,-11.64 5.56,-24.37 10.23,-35.95 7.23,-11.47 23.96,-9.22 33.17,-17.81 2.37,-22.2 4.99,-44.43 6.46,-66.73 -13.04,-5.89 -24.99,-13.88 -34.86,-24.24 -0.47,-19.83 0.17,-39.69 0.16,-59.52 -5.03,-2.73 -10.86,-3.71 -15.61,-7.06 1.02,-4.2 4.38,-7.17 6.73,-10.62 14.97,-18.47 24.87,-40.72 30.11,-63.83 1.53,-4.99 2.15,-10.28 4.36,-15.05 2.64,0.83 4.81,2.61 5.64,5.32 12.36,28.53 25.03,58.34 48.01,80.09 -0.07,0.57 -0.2,1.71 -0.27,2.28 -4.48,3.7 -10.4,5.52 -14.38,9.76 -1.14,7 -0.45,14.36 -0.74,21.5 2.76,-0.37 5.45,-1.17 7.94,-2.44 0.68,-5.59 -2.05,-12.72 3.08,-16.82 5.55,-4.89 10.14,-11.15 11.89,-18.41 -5.71,-3.98 -11.34,-8.17 -15.84,-13.52 -3.31,-4.73 1.71,-12.44 -4.08,-15.89 -5.76,-5.07 -14.53,-9.86 -14.2,-18.6 -0.61,-6.11 -1.36,-12.32 -0.61,-18.44 1.95,-5 7.56,-7.09 12.14,-9.03 -0.2,-7.19 -0.38,-14.38 -0.37,-21.57 -7.03,-2.35 -13.83,-5.29 -20.46,-8.59 32,-37.68 57.02,-81.85 69.78,-129.77 7.01,-20.87 5.46,-43.24 6.8,-64.91 m 9.8,84.32 c -0.63,11.73 3.7,23.05 3.43,34.73 -4.14,2.38 -10.08,1.23 -13.42,5.2 5.68,0.84 12.13,0.11 17,3.67 2.55,3.25 4.92,6.89 5.8,10.98 -10.29,0.85 -21.61,0.72 -30.58,6.48 11.45,0.03 23.36,-0.16 34.15,4.17 2.43,4.33 5.18,8.7 6.48,13.55 -22.78,-3.94 -47.39,-1.61 -67.16,11.09 30.3,-6.16 61.86,-4.33 91.6,3.74 -21.62,-27.89 -34.97,-60.88 -47.3,-93.61 m -7.64,102.44 c -8.57,6.67 -5.34,18.87 -5.95,28.27 5.56,-0.15 11.13,-0.37 16.68,0.06 -0.44,-9.48 2.83,-21.7 -5.98,-28.34 -1.59,0.02 -3.17,0.02 -4.75,0.01 m -39.31,12.62 c -0.13,7.26 -0.13,14.52 -0.01,21.78 4.33,-1.33 8.63,-2.83 13.07,-3.79 -0.31,-7.44 1.6,-15.61 -2.11,-22.44 -3.39,-4.48 -11.11,-0.79 -10.95,4.45 m 70.36,17.9 c 4.26,0.24 8.5,1 12.52,2.49 0.25,-6.22 0.33,-12.45 0.27,-18.67 0.04,-4.6 -4.16,-8.56 -8.72,-8.55 -7.51,5.85 -2.84,16.65 -4.07,24.73 m -20.15,7.44 c 0.1,3.3 0.06,6.6 0.06,9.91 5.69,-0.12 11.45,0.27 16.87,2.17 -0.06,-3.27 -0.09,-6.54 -0.05,-9.81 -5.61,-0.88 -11.27,-1.37 -16.88,-2.27 m -35.92,3.01 c 0.13,3.04 0.16,6.09 0.15,9.14 5.98,-1 12.01,-1.53 18.01,-2.34 -0.13,-2.91 -0.18,-5.83 -0.19,-8.74 -6.05,0.09 -12.06,0.73 -17.97,1.94 m -27.48,6.72 c -1.1,3.53 -0.17,7.54 -0.44,11.26 3.88,-2.27 8.09,-4.14 12.66,-4.28 0.04,-3.66 -0.03,-7.32 -0.14,-10.97 -4.06,1.03 -8.77,1.28 -12.08,3.99 m 96.94,-3.77 c 0.43,6.01 1.09,12 1.44,18.01 -3.34,0.02 -6.68,0.01 -10.02,0.01 6.32,5.27 15.79,4.65 22.75,9.29 -0.33,-7.5 0.7,-15.14 -0.38,-22.55 -3.47,-3.46 -9.13,-3.85 -13.79,-4.76 m -135.37,22.92 c -0.74,5.07 1.48,9.97 0.8,15.05 -3.35,-0.23 -6.36,0.97 -8.73,3.31 6.81,-2.31 15.22,3.35 12.95,10.92 -5.61,-0.37 -11.24,0.71 -16.11,3.59 6.14,0.96 12.55,-0.6 18.53,1.54 3.92,1.02 6.36,5.01 6.67,8.88 -11.4,-1.75 -23.07,0.94 -33.68,5.15 16.05,-0.5 32.28,-1.07 48.15,1.99 -6.47,-10.5 -14.45,-20.14 -19.61,-31.45 -3.24,-6.21 -5.15,-13.1 -8.97,-18.98 m 74.7,35.06 c 4.51,-0.71 10.04,1.3 13.87,-1.19 0.06,-8.35 -0.14,-16.7 0.02,-25.05 -11.11,3.39 -12.64,16.45 -13.89,26.24 m 22.07,-26.13 c 0.17,8.69 0.15,17.38 0.19,26.08 5.04,0.02 10.07,-0.02 15.11,-0.11 -0.28,-10.07 -2.36,-25.52 -15.3,-25.97 m 38.16,4.7 c -0.5,8.87 1.59,17.63 0.87,26.5 3.76,0.84 7.6,1.2 11.38,1.98 -1.74,-10.14 -0.24,-24.34 -12.25,-28.48 m -60.21,29.5 c 0.08,8.98 0.03,17.96 0.18,26.94 4.59,-0.02 9.15,-0.5 13.71,-0.93 -0.08,-8.92 -0.04,-17.84 0,-26.76 -4.65,-0.16 -9.31,-0.14 -13.89,0.75 m 23.27,26.88 c 4.87,-0.12 9.75,-0.06 14.61,0.23 0.57,-9.23 -0.14,-18.48 0.47,-27.71 -5.14,-0.24 -10.28,-0.2 -15.41,-0.3 0.14,9.26 0.26,18.52 0.33,27.78 m 38.83,-22 c 0.19,3.02 0.15,6.05 -0.07,9.08 4.87,-0.87 8.72,2.63 12.87,4.48 -0.08,-3.33 0.11,-6.83 -1.27,-9.93 -3.33,-2.38 -7.78,-2.18 -11.53,-3.63 m -141.29,22.79 c -1.34,8.42 -0.3,17.06 -0.55,25.57 5.28,-0.97 10.36,-2.85 15.68,-3.62 -0.71,-8.87 2.41,-19.28 -3.64,-26.82 -3.7,-4.75 -11.15,-0.32 -11.49,4.87 m 144.01,-3.52 c 0.49,3.26 -0.44,6.92 0.82,9.96 3.87,0.95 7.76,1.81 11.54,3.09 -0.72,-3.32 -1.34,-6.66 -2.19,-9.95 -3.33,-1.24 -6.75,-2.18 -10.17,-3.1 m -85.03,21.3 c 0.13,3.21 0.28,6.42 0.3,9.64 8.14,-0.42 16.23,-1.39 24.32,-2.34 -0.02,-3.53 0,-7.05 -0.03,-10.57 -8.17,1.34 -16.47,1.71 -24.59,3.27 m 52.42,-3.28 c 0.06,3.72 0.07,7.44 0.19,11.16 8.26,0.98 16.55,1.71 24.77,3 -0.32,-3.68 -0.4,-7.38 -0.28,-11.07 -8.07,-2.12 -16.5,-1.71 -24.68,-3.09 m -84.38,9.81 c -0.35,3.31 -1.09,6.78 0.31,9.95 3.98,-1.28 7.97,-2.51 11.85,-4.08 -0.04,-2.93 -0.03,-5.85 0.1,-8.77 -3.98,1.39 -8.18,1.93 -12.26,2.9 m 127.23,-3.08 c 0.23,3.58 0.28,7.17 0.23,10.77 3.94,1.19 7.88,2.39 11.81,3.66 -0.38,5.25 -0.39,10.51 -0.23,15.77 3.09,1.01 6.21,2.01 9.43,2.61 -0.3,-8.97 -0.16,-18.18 -1.95,-26.89 -5.72,-3.51 -12.79,-4.44 -19.29,-5.92 m -21.69,18.29 c -1.33,2.08 -1.69,4.59 -2.49,6.89 8.39,2.48 17.32,2.35 25.98,3.33 -0.04,-2.69 -0.03,-5.38 -0.02,-8.06 -7.83,-0.55 -15.61,-2.94 -23.47,-2.16 m -92.01,19.32 c -0.99,8.93 -0.35,17.93 0.05,26.87 5.55,-1.62 11.23,-2.73 16.8,-4.25 1.43,-5.29 0.47,-11.09 0.78,-16.58 -0.1,-6.28 -1.79,-14.58 -8.64,-16.66 -4.99,0.64 -7.76,6.23 -8.99,10.62 m 94.42,8.15 c 3.11,1.2 6.36,2.03 9.62,2.73 -0.39,-2.9 -0.61,-5.82 -1.06,-8.71 -4.04,-0.32 -7,2.53 -8.56,5.98 m 17.19,-4.71 c 0.72,4.24 1.01,8.53 1.08,12.84 5.95,3.58 12.98,4.59 19.01,7.97 -0.77,-5.45 -1.34,-10.92 -1.29,-16.42 -6.06,-2.16 -12.35,-4.06 -18.8,-4.39 m -12.11,24.02 c 0.18,6.36 0.06,12.82 1.21,19.1 5.1,1.63 10.69,1.77 16.05,1.77 -0.15,-6.13 -1.18,-12.17 -1.43,-18.29 -4.81,-2.27 -10.51,-2.4 -15.83,-2.58 m -75.8,31.13 c -4.5,6.51 -6.32,14.6 -5.88,22.44 -0.27,13.63 0.85,27.2 2.09,40.76 2.91,-0.34 5.84,-0.4 8.78,-0.31 -0.29,-5.84 -1.34,-11.61 -1.23,-17.46 -0.35,-12.73 -3.1,-26.61 3.46,-38.31 6.34,-10.39 16.28,-17.81 26.33,-24.35 10.96,5.58 20.76,13.95 26.98,24.66 3.36,5.38 2.72,11.94 2.65,17.99 -0.12,12.24 0.01,24.48 -0.3,36.72 3.15,0.01 6.29,0.24 9.42,0.66 0.64,-17.4 1.55,-34.91 0.16,-52.27 -6.04,-17.7 -20.77,-31.55 -37.98,-38.39 -13.59,6.12 -26.31,15.17 -34.48,27.86 m 100.68,-27.37 c 0.24,6.07 0.55,12.13 0.41,18.21 3.75,1.77 7.97,2.05 11.86,3.42 -0.97,-6.8 -1.8,-13.61 -2.99,-20.37 -3.06,-0.67 -6.16,-1.11 -9.28,-1.26 m -5.01,44.6 c 3.88,1.67 8.17,2.26 12,4.07 3.65,4.87 1.72,11.5 3.62,17.02 3.16,2.33 6.45,4.49 10.04,6.11 -2.92,-13.67 -5.1,-27.48 -7.41,-41.25 -6.76,-0.73 -13.45,-2.01 -20.08,-3.46 0.26,5.82 0.02,11.98 1.83,17.51 m -76.88,9.18 c -0.05,12.12 0.08,24.24 0.44,36.36 9.94,0.04 19.88,0.01 29.83,0.02 0.82,-12 0.75,-24.26 0.13,-36.36 0.87,-9.75 -7.57,-17.32 -15.65,-21.08 -7.27,4.69 -14.96,11.69 -14.75,21.06 m -104.64,29.15 c 5.56,0.8 11.89,0.73 16.05,5.16 6.37,6.62 12.5,16.1 9.06,25.62 5.56,-3.19 5.76,-10.42 8.64,-15.51 3.4,-4.05 9.07,-4.62 13.79,-6.26 -2.03,-4.71 -3.3,-10.47 -7.98,-13.32 -4.13,-2.95 -8.8,-4.98 -13.25,-7.36 -8.9,3.48 -18.53,5.93 -26.31,11.67 m 223.49,-2.59 c 4.57,9.24 10.65,19.75 21.79,21.6 -3.47,-8.03 -7.9,-15.84 -14.23,-21.97 -2.25,-1.59 -5.22,-0.38 -7.56,0.37 m -45.52,0.17 c -3.72,3.05 -6.04,7.4 -8.45,11.48 5.04,0.53 10.97,-1.23 15.19,2.43 6.93,5.16 10.77,13.08 15.79,19.88 1.03,-5.5 -0.31,-11.93 2.65,-16.79 6.38,-1.55 12.64,0.97 18.43,3.41 -6.58,-10.47 -18.78,-15.76 -30.38,-18.97 -4.26,-0.94 -9.02,-4.01 -13.23,-1.44 m -120.55,13.23 c 4.96,1.31 10.06,-0.41 14.91,-1.49 -0.77,-2.21 -1.81,-4.3 -2.9,-6.36 -4.19,1.7 -14.45,0.96 -12.01,7.85 m 28.03,6.92 c 0.17,2.88 0.32,5.83 1.57,8.5 18.76,-0.7 37.54,-0.58 56.32,-0.55 3.39,-0.06 7.2,1.45 10.21,-0.79 0.46,-2.5 0.24,-5.06 -0.57,-7.45 -22.51,0.22 -45.02,-0.12 -67.53,0.29 m 138.92,13.45 c -1.72,2 -3.5,3.95 -5.2,5.96 5.82,0.73 12.96,-0.18 17.21,4.68 3.19,4.57 5.86,9.48 8.8,14.22 0.55,0.2 1.64,0.59 2.19,0.79 -0.02,-4.41 3.38,-12.46 8.81,-8.77 8.78,7.35 18.74,13.35 29.66,16.95 -5.64,-7.63 -10.56,-15.77 -16.39,-23.26 -2.52,-2.88 -6.74,-2.85 -10.17,-3.9 -11.65,-2.15 -23.19,-4.99 -34.91,-6.67 m -154.33,5.25 c -0.28,0.59 -0.84,1.79 -1.12,2.38 0.76,1.75 1.5,3.53 2.25,5.3 22.2,-1.02 44.47,-0.04 66.7,-0.68 1.64,-2.13 2.79,-4.58 2.35,-7.33 -15.24,-1.1 -30.6,-0.13 -45.88,-0.46 -8.1,0.39 -16.3,-0.76 -24.3,0.79 m 78.86,13.11 c -0.09,0.49 -0.26,1.48 -0.34,1.97 8.79,-0.72 17.58,0.72 26.27,1.99 3.17,7.84 6.97,15.64 12.64,22.01 1.6,-4.59 1.77,-11.27 7.02,-13.22 7.63,1.24 13.62,6.66 20.51,9.79 -1.34,-8.31 -7.04,-14.87 -14.57,-18.31 -8.23,-4.36 -15.01,-11 -20.88,-18.12 -9.6,6.01 -21.38,7.23 -30.65,13.89 M 365.91,684.77 c -5.34,3.02 -9.84,7.38 -15.02,10.69 5.28,-0.27 11.3,0.4 14.88,4.77 4,5.43 5.32,12.36 9.39,17.74 0.33,-4.82 1.12,-9.63 2.64,-14.22 7.8,-1.44 15.58,2.3 23.43,2.62 -5.14,-7.96 -12.31,-14.27 -18.06,-21.77 -5.75,0.03 -11.52,-0.24 -17.26,0.17 m 72.56,24.84 c 26.53,0.13 53.06,0.27 79.58,-0.05 5.32,0.89 2.89,-5.7 3.72,-8.82 -26.62,-0.15 -53.25,-0.06 -79.87,0.1 -4.87,-0.01 -5.14,5.43 -3.43,8.77 m -31.22,12.13 c 0.06,3.17 0.16,6.35 0.42,9.52 30.89,0.1 61.77,-0.04 92.66,0.08 -0.5,-3.13 1.47,-7.37 -1.2,-9.66 -30.62,0.16 -61.26,-0.16 -91.88,0.06 z"
       id="path1" />
    <path
       fill="#fdfdfd"
       opacity="1"
       d="m 386.53,312.53 c 5.03,-4.58 6.27,-11.54 7.64,-17.86 1.96,6.99 4.41,14.26 9.69,19.5 3.98,3.9 9.5,5.28 14.43,7.53 -5.18,1.69 -10.77,2.83 -14.96,6.56 -5.52,3.74 -7.35,10.42 -9.51,16.33 -2.03,-6.34 -4.33,-13.43 -10.32,-17.14 -4,-3.24 -9.23,-3.88 -13.83,-5.86 6,-2.2 12.34,-4.29 16.86,-9.06 z"
       id="path2" />
    <path
       fill="#fdfdfd"
       opacity="1"
       d="m 350.67,353.66 c 3.28,-4.34 4.05,-9.83 5.53,-14.92 1.62,4.4 2.3,9.18 4.85,13.21 3.35,6.12 10.29,8.61 16.39,11.05 -5.41,1.93 -11.31,3.77 -14.99,8.49 -3.02,4.03 -4.08,9.08 -5.89,13.69 -1.43,-4.34 -1.96,-9.14 -4.88,-12.83 -3.55,-5.51 -10.4,-6.83 -16.11,-9.02 5.2,-2.88 11.66,-4.39 15.1,-9.67 z"
       id="path3" />
    <path
       fill="#fdfdfd"
       opacity="1"
       d="m 618.26,503.17 c 15.16,-4.73 35.75,-5.79 46.67,7.88 5.64,9.56 -2.49,20.39 -10.95,24.9 -11.88,7.32 -26.05,10.34 -39.91,9.65 -2.88,0.25 -1.32,-4.01 0.81,-3.77 11.69,-2.17 25.21,-5.18 31.98,-16.02 3.95,-5.39 0.28,-12.8 -5.13,-15.51 -7.32,-3.57 -15.59,-4.63 -23.65,-4.65 0.04,-0.62 0.14,-1.86 0.18,-2.48 z"
       id="path4" />
    <path
       fill="#fdfdfd"
       opacity="1"
       d="m 327.6,508.63 c 12.69,-8.57 28.98,-8.05 43.3,-4.63 2.15,0.58 4,1.89 5.67,3.34 -9.57,-1.34 -20.35,-1.23 -28.4,4.83 -5.31,4.56 -4.63,13.65 0.8,17.87 9.81,8.75 23.87,8.81 35.6,13.57 7.03,2.56 13.36,6.93 18.68,12.14 9.22,9.2 9.35,24.61 3.04,35.42 -1.81,-9.18 -5.77,-18.43 -14.27,-23.26 -15.98,-9.87 -35.99,-5.44 -53.16,-11.75 -12.55,-3.59 -23.94,-15.49 -22.54,-29.21 0.01,-7.61 5.56,-13.91 11.28,-18.32 z"
       id="path5" />
    <path
       fill="#fdfdfd"
       opacity="1"
       d="m 648.93,545.28 c 7.16,-8.16 18.87,-10.09 29.09,-8.01 16.75,-0.48 33.27,13.12 33.52,30.36 -0.44,12.56 -11.7,21.54 -22.9,24.9 -12.6,3.34 -27.02,3.75 -37.12,13.02 -4.93,4.62 -3.95,11.53 -4.96,17.56 -7.3,-4.17 -11.17,-14.4 -6.02,-21.64 8.02,-12.72 23.65,-16.2 35.15,-24.76 -12.09,0.98 -24.7,4.15 -34.84,11.08 -7.83,5.16 -11.26,14.65 -11.9,23.65 -6.75,-7.03 -10.26,-18.54 -4.73,-27.34 7.95,-14.34 25.64,-17.38 40.43,-19.51 6.74,-0.89 16.69,-6.51 12.36,-14.55 -7.68,-6.99 -18.67,-5.76 -28.08,-4.76 z"
       id="path6" />
    <path
       fill="#fdfdfd"
       opacity="1"
       d="m 314.44,574.57 c -8.76,-7.58 -9.39,-22.42 -0.32,-30.06 -0.17,8.15 5.03,15.81 12.53,18.9 16.74,7.17 35.73,2.2 52.76,8.19 8.75,3.42 16.79,10.25 19.39,19.56 1.77,6.95 1.83,15.72 -3.22,21.33 -0.68,-5.19 -0.99,-10.64 -3.69,-15.27 -5.86,-12.77 -21.67,-18.65 -34.89,-15.43 -14.27,3.02 -31.26,3.55 -42.56,-7.22 z"
       id="path7" />
    <path
       fill="#fdfdfd"
       opacity="1"
       d="m 362.97,590.02 c 2.76,-0.16 8.14,-2.08 7.93,2.44 -4.88,1.24 -7.2,6.88 -4.55,11.14 4.05,6.1 12.01,6.08 18.21,8.45 -10.91,6.09 -28.54,4.09 -34.87,-7.74 -2.83,-8.33 6.04,-13.95 13.28,-14.29 z"
       id="path8" />
    <path
       fill="#fdfdfd"
       opacity="1"
       d="m 636,770.45 c 10.8,-3.46 22.64,-11.84 33.93,-5.36 8.86,2.69 16.88,10.27 26.66,7.87 l 0.01,0.92 -0.01,0.63 c -20.43,0.52 -40.78,3.89 -61.19,4.06 3.36,-1.29 6.99,-1.43 10.55,-1.69 -3.04,-2.55 -6.47,-4.55 -9.95,-6.43 z"
       id="path9" />
  </g>
  <g
     id="#c9c9c9fd"
     transform="translate(-230.7,-148.44)">
    <path
       fill="#c9c9c9"
       opacity="1"
       d="m 523.39,727.37 c 11.63,-7.78 26.58,-6.98 38.48,-14.24 6.17,4.6 10.45,11.65 15.7,17.35 -5.83,-1.52 -10.9,-4.81 -16.24,-7.45 -0.27,0.47 -0.8,1.41 -1.06,1.88 2.99,10.89 13.57,16.41 23.93,18.32 6.12,0.28 11.8,-2.53 17.81,-3.18 5.48,5.95 8.82,13.56 13.56,20.11 1.61,-6.71 2.24,-13.6 3.42,-20.39 11.39,2.68 21.45,8.83 32.18,13.22 -1.34,-5.7 -4.82,-10.46 -7.86,-15.34 -4.47,-9.11 -16.44,-6.21 -23.88,-11.33 3.46,-4.29 7.77,-7.74 11.88,-11.38 4.08,2.7 7.25,6.75 11.74,8.79 5.95,-1.18 11.31,-5.41 17.63,-4.5 20.93,5 39.36,18.76 61.29,20.49 7.42,0.25 11.83,7.29 15.97,12.53 0.29,0.48 0.86,1.44 1.15,1.93 -6.86,0.17 -11.22,-6.88 -18.07,-6.15 -10.36,0.63 -20.39,-3.35 -30.72,-2.68 -6.93,1.13 -14.19,0.61 -20.8,3.29 10.76,6.93 20.45,15.31 30.64,23.02 -1.19,0.44 -2.37,0.87 -3.55,1.3 -9.78,2.4 -17.8,-5.18 -26.66,-7.87 -11.29,-6.48 -23.13,1.9 -33.93,5.36 3.48,1.88 6.91,3.88 9.95,6.43 -3.56,0.26 -7.19,0.4 -10.55,1.69 -10.46,1.86 -21.2,2.04 -31.78,3.01 l -0.23,-0.74 c -0.77,-2.16 -1.25,-4.58 -2.92,-6.25 -10.14,-8.92 -20.82,-17.2 -31.55,-25.39 -8.11,-6.46 -19.21,-5.71 -28.97,-5.88 -6.82,0.15 -12.99,3.16 -19.26,5.42 -6.47,1.2 -12.82,-1.68 -19.04,-3.09 8.05,-5.19 13.47,-13.42 21.74,-18.28 z"
       id="path10" />
    <path
       fill="#c9c9c9"
       opacity="1"
       d="m 332.76,719.83 c 1.16,-5.43 8.62,-5.9 12.5,-3.16 9.22,5.97 17.11,13.77 26.42,19.61 3.21,1.98 6.14,4.41 8.56,7.32 -7.69,4.79 -17.12,3.2 -25.29,6.16 -1.1,4.23 -0.46,9.91 -5.11,12.18 -11.19,4.7 -23.9,5.8 -34.41,12.17 -20.05,-2.45 -40.23,-3.58 -60.32,-5.55 -0.18,-0.52 -0.55,-1.56 -0.73,-2.07 -3.33,-0.22 -6.66,-0.49 -9.96,-0.92 4.66,-3.52 10.77,-3.35 16.13,-5.12 17.45,-5.28 34.57,-11.75 51.48,-18.43 8,3.82 15.64,8.64 24.1,11.66 -3.89,-4.82 -8.97,-8.95 -11.45,-14.72 2.23,-6.55 6.21,-12.41 8.08,-19.13 z"
       id="path11" />
    <path
       fill="#c9c9c9"
       opacity="1"
       d="m 523.04,758.8 c 7.87,0.31 14.96,-6.26 22.86,-3.84 17.02,5.88 31.84,16.44 48.06,24.06 -9.84,-2.27 -19.97,-1.39 -29.96,-2.21 -23.18,0.07 -46.39,-0.18 -69.52,-1.33 -6.96,-3.52 -6.01,-14.46 1.25,-16.89 8.96,-2.3 18.24,-0.09 27.31,0.21 z"
       id="path12" />
    <path
       fill="#c9c9c9"
       opacity="1"
       d="m 358.78,767.64 c 4.46,-1.12 4.68,-8.65 9.92,-7.42 30.27,2.09 60.56,4.2 90.89,4.79 -2.55,2.56 -5.12,5.13 -7.52,7.84 -7.04,5.04 -14.44,12.8 -23.94,10.77 -33.46,-2.84 -67.27,-3.7 -100.5,-7.87 10.21,-3.35 20.94,-4.75 31.15,-8.11 z"
       id="path13" />
  </g>
  <g
     id="#dbdbddfe"
     transform="translate(-230.7,-148.44)">
    <path
       fill="#dbdbdd"
       opacity="1"
       d="m 669.5,748.64 c 6.61,-2.68 13.87,-2.16 20.8,-3.29 10.33,-0.67 20.36,3.31 30.72,2.68 6.85,-0.73 11.21,6.32 18.07,6.15 -0.29,-0.49 -0.86,-1.45 -1.15,-1.93 5.46,0.8 10.9,-5.14 15.73,-0.83 5.06,4.03 11.71,7.28 18.31,5.71 l 0.47,-0.09 c 6.25,2.82 12.59,5.46 18.8,8.4 -5.28,1.38 -10.76,1.69 -16.16,2.19 -26.2,1.56 -52.36,5.25 -78.49,6.25 l -0.01,-0.92 c 1.18,-0.43 2.36,-0.86 3.55,-1.3 -10.19,-7.71 -19.88,-16.09 -30.64,-23.02 z"
       id="path14" />
  </g>
  <path
     style="fill:#ffffff;stroke:#ffffff;stroke-width:0.75"
     d="m 285.74327,77.510295 c 0,0 31.3443,51.025585 31.3443,51.997495 0,0.97192 30.12939,50.53963 30.12939,50.53963 l -1.94384,8.74724 -46.40898,-8.50426 -31.83025,-4.6166 -24.2979,6.56043 -2.91574,-13.36384 12.6349,-34.01706 z"
     id="path21" />
  <path
     style="fill:#ffffff;stroke:#ffffff;stroke-width:0.75"
     d="m 320.77315,241.56778 27.06041,8.16108 c 0,0 -1.46041,13.14363 -1.46041,13.57315 0,0.42953 -22.851,-2.74899 -22.851,-2.74899 l -16.23624,-6.87248 z"
     id="path22" />
  <path
     style="fill:#ffffff;stroke:#ffffff;stroke-width:0.75"
     d="m 346.24504,359.30516 18.52715,5.64926 -1.33639,17.06927 -53.65862,-7.47335 2.40537,-10.82417 22.6792,-3.09262 z"
     id="path23" />
  <path
     style="fill:#ffffff;stroke:#ffffff;stroke-width:0.75"
     d="m 334.68993,384.85906 -2.06174,18.89933 -13.91678,-3.26443 0.34362,-19.58658 z"
     id="path24" />
  <path
     style="fill:#ffffff;stroke:#ffffff;stroke-width:0.75"
     d="m 192.07488,248.68898 25.26981,42.15685 6.56044,19.07385 -28.55004,-4.37362 -26.36322,0.12149 -0.48595,-13.12086 c 0,0 6.80341,-21.74662 7.04639,-22.23258 0.24298,-0.48596 16.52257,-21.62513 16.52257,-21.62513 z"
     id="path25" />
</svg>
