<?xml version="1.0" encoding="UTF-8" ?>
<!DOCTYPE svg PUBLIC "-//W3C//DTD SVG 1.1//EN" "http://www.w3.org/Graphics/SVG/1.1/DTD/svg11.dtd">
<svg width="1024pt" height="1024pt" viewBox="0 0 1024 1024" version="1.1" xmlns="http://www.w3.org/2000/svg">
<g id="#fefefefe">
<path fill="#fefefe" opacity="1.00" d=" M 617.60 137.58 C 624.87 128.75 631.82 119.65 639.06 110.79 C 637.92 115.07 635.88 119.02 634.49 123.21 C 630.23 134.77 626.53 146.51 622.63 158.18 C 621.19 161.68 624.08 164.62 625.58 167.51 C 628.46 172.07 630.58 177.03 632.83 181.91 C 635.35 180.53 637.56 178.62 640.13 177.32 C 647.74 174.30 655.75 172.37 663.31 169.22 C 663.98 172.39 664.57 175.59 664.59 178.85 C 665.46 185.92 666.79 192.95 667.52 200.03 C 665.04 204.20 661.50 207.68 658.04 211.06 C 656.73 202.23 653.95 193.69 652.09 184.96 C 639.77 194.06 631.51 207.30 621.73 218.85 C 616.03 226.20 611.01 234.08 604.94 241.13 C 609.60 224.86 615.34 208.92 620.76 192.89 C 613.78 182.21 605.39 172.51 598.38 161.88 C 603.51 152.86 611.38 145.82 617.60 137.58 Z" />
<path fill="#fefefe" opacity="1.00" d=" M 554.06 194.02 C 559.90 188.65 561.05 180.42 562.64 173.06 C 564.42 182.08 567.82 191.90 576.09 196.93 C 579.90 199.64 584.52 200.61 588.86 202.12 C 581.34 203.93 572.99 206.96 569.13 214.21 C 566.57 219.60 564.65 225.31 563.32 231.13 C 561.31 223.52 559.31 215.22 553.29 209.68 C 547.89 205.56 541.34 203.25 534.71 202.06 C 541.55 200.72 549.08 199.36 554.06 194.02 Z" />
<path fill="#fefefe" opacity="1.00" d=" M 717.88 192.09 C 728.80 186.37 740.30 181.86 751.15 176.01 C 748.58 181.54 745.09 186.59 742.17 191.94 C 736.05 202.10 730.75 212.82 723.46 222.23 C 722.93 216.90 724.58 211.73 724.73 206.44 C 719.18 211.54 715.73 218.37 711.22 224.32 C 706.84 231.32 701.89 238.00 698.10 245.36 C 702.46 247.19 707.09 248.19 711.58 249.61 C 719.33 252.30 727.06 255.10 734.99 257.22 C 736.94 257.62 738.66 258.65 740.25 259.82 C 733.48 263.63 727.90 269.14 721.35 273.28 C 712.12 279.59 703.11 286.43 692.96 291.21 C 700.53 280.64 710.27 271.87 718.22 261.60 C 708.17 259.34 698.12 257.12 688.21 254.33 C 688.19 245.68 689.32 237.10 689.72 228.48 C 695.78 218.32 701.80 208.08 708.04 198.01 C 710.57 195.03 714.55 193.93 717.88 192.09 Z" />
<path fill="#fefefe" opacity="1.00" d=" M 420.65 206.25 C 431.55 211.96 442.12 218.26 452.97 224.08 C 465.96 231.90 479.54 238.69 492.63 246.36 C 498.34 249.34 504.03 252.40 509.47 255.88 C 510.24 249.16 510.75 242.42 511.68 235.71 C 520.56 239.23 528.99 243.78 537.89 247.24 C 545.67 250.30 553.06 254.22 560.79 257.38 C 563.88 259.07 567.78 259.76 569.88 262.81 C 558.93 260.74 547.96 258.67 537.00 256.62 C 532.38 256.03 527.82 255.01 523.36 253.65 C 523.04 261.53 521.23 269.31 520.40 277.16 C 505.31 271.35 490.98 263.79 476.35 256.95 C 483.64 269.14 492.22 280.61 498.96 293.14 C 491.90 296.57 485.24 300.79 478.12 304.09 C 483.10 312.63 489.41 320.34 494.15 329.03 C 490.64 327.76 487.87 325.18 484.80 323.16 C 474.67 316.13 465.14 308.29 455.36 300.79 C 458.15 297.97 461.79 296.30 465.08 294.17 C 469.61 291.40 473.91 288.20 478.80 286.05 C 467.74 270.51 456.81 254.86 445.70 239.36 C 437.41 228.29 429.86 216.61 420.65 206.25 Z" />
<path fill="#fefefe" opacity="1.00" d=" M 626.48 259.26 C 641.81 251.16 657.75 244.26 673.14 236.27 C 672.68 253.89 670.90 271.46 670.34 289.08 C 669.09 295.97 669.98 303.02 669.05 309.94 C 668.37 314.44 668.73 319.02 668.35 323.54 C 667.71 325.61 665.96 327.07 664.72 328.78 C 658.87 336.24 652.62 343.36 646.94 350.95 C 642.39 355.96 638.58 362.04 632.45 365.29 C 622.60 368.82 612.83 372.62 602.80 375.60 C 595.63 377.85 588.57 380.84 581.00 381.29 C 577.68 381.08 573.68 380.19 572.61 376.54 C 569.14 367.65 568.61 357.96 566.77 348.66 C 566.00 341.91 564.76 335.22 564.11 328.46 C 563.60 325.19 562.96 321.79 563.63 318.53 C 570.53 306.28 578.39 294.62 585.56 282.54 C 586.78 280.54 588.22 278.56 590.39 277.51 C 602.33 271.24 614.26 264.96 626.48 259.26 M 632.15 277.15 C 634.70 278.81 637.25 280.53 639.54 282.56 C 640.30 283.45 641.34 285.13 640.01 286.03 C 637.17 288.52 633.98 290.60 631.29 293.27 C 625.16 299.08 618.39 304.21 612.69 310.47 C 611.83 309.66 610.73 308.97 610.41 307.78 C 607.76 300.55 606.12 292.98 603.00 285.92 C 600.77 286.27 598.64 286.96 596.60 287.89 C 598.57 297.87 599.74 308.03 600.45 318.17 C 594.61 319.73 588.93 321.82 583.13 323.53 C 584.42 337.14 586.51 350.69 588.99 364.13 C 592.89 360.39 597.67 357.78 602.89 356.39 C 602.27 350.46 600.48 344.56 600.52 338.62 C 613.32 324.11 630.08 314.08 645.28 302.38 C 646.45 307.07 646.94 311.91 648.32 316.55 C 648.49 317.89 649.19 319.69 647.72 320.57 C 644.04 323.63 641.35 327.61 638.09 331.07 C 633.51 336.74 628.36 341.99 624.71 348.35 C 628.23 347.34 630.35 344.22 633.14 342.09 C 639.98 335.80 646.86 329.55 653.25 322.79 C 655.25 308.94 653.38 294.83 655.35 280.96 C 655.96 274.64 656.88 268.35 657.59 262.05 C 649.21 267.24 640.60 272.06 632.15 277.15 Z" />
<path fill="#fefefe" opacity="1.00" d=" M 756.81 280.96 C 778.05 273.73 798.92 265.44 820.10 258.08 C 796.77 279.63 771.16 298.63 747.78 320.14 C 755.49 326.58 764.58 331.13 772.71 336.98 C 764.07 340.16 755.42 343.33 746.91 346.83 C 733.68 351.60 720.32 355.98 706.69 359.44 C 708.30 357.49 710.04 355.63 712.08 354.13 C 718.37 349.39 724.33 344.22 730.86 339.82 C 734.71 336.38 739.31 333.82 742.81 329.99 C 730.64 327.95 718.21 328.34 706.01 326.58 C 700.80 326.74 695.73 325.46 690.55 325.18 C 691.50 324.16 692.61 323.29 693.98 322.91 C 702.03 319.98 710.40 318.03 718.52 315.31 C 725.43 313.20 732.96 311.54 738.32 306.35 C 742.17 302.53 746.85 299.71 750.54 295.72 C 743.59 294.30 736.36 294.40 729.56 292.29 C 738.40 287.95 747.66 284.60 756.81 280.96 Z" />
<path fill="#fefefe" opacity="1.00" d=" M 530.07 304.06 C 541.82 295.33 553.38 286.17 566.20 279.03 C 557.96 291.37 550.00 303.90 541.79 316.27 C 540.73 317.61 541.29 319.40 541.42 320.94 C 546.36 346.42 555.62 370.84 565.78 394.64 C 570.66 393.36 575.72 393.75 580.67 393.02 C 592.18 391.43 603.88 390.60 615.12 387.46 C 627.24 384.35 639.72 382.41 651.42 377.85 C 653.40 377.20 654.64 375.38 655.89 373.83 C 663.76 362.16 672.50 351.10 680.82 339.78 C 680.64 343.60 679.45 347.26 678.72 351.00 C 675.68 363.59 672.58 376.17 669.48 388.74 C 668.37 392.80 666.60 397.68 662.05 398.84 C 647.20 403.14 632.68 408.55 617.79 412.68 C 614.51 415.45 612.85 419.78 610.07 423.06 C 607.12 426.64 605.38 431.60 601.12 433.86 C 586.98 438.09 573.16 443.38 559.05 447.76 C 556.97 442.54 554.80 437.34 553.01 432.02 C 564.66 427.89 576.62 424.61 588.23 420.38 C 591.39 417.17 594.19 413.53 597.26 410.20 C 593.60 410.27 589.89 410.28 586.32 411.19 C 575.96 413.55 565.34 414.71 555.08 417.50 C 551.14 411.01 548.20 403.98 544.90 397.16 C 541.53 390.04 538.33 382.83 535.78 375.38 C 534.50 378.55 533.58 381.85 532.44 385.07 C 531.50 387.82 532.61 390.67 533.38 393.32 C 539.20 413.74 545.94 433.87 551.73 454.31 C 553.27 459.29 555.06 464.22 555.94 469.37 C 551.41 471.37 546.96 473.56 542.42 475.55 C 530.47 481.23 521.24 491.04 513.67 501.67 C 509.82 485.01 506.58 468.21 502.86 451.52 C 501.71 445.54 500.06 439.66 499.23 433.62 C 504.22 431.02 509.47 428.95 514.81 427.17 C 518.39 440.18 521.23 453.38 524.65 466.43 C 526.22 463.83 527.68 461.09 529.91 458.97 C 531.80 456.93 534.90 454.71 533.37 451.55 C 525.50 429.38 519.94 406.52 513.55 383.90 C 516.00 376.91 520.30 370.74 523.38 364.03 C 520.92 352.03 518.85 339.95 516.56 327.91 C 516.30 324.45 515.52 321.06 514.40 317.79 C 518.79 312.34 524.67 308.42 530.07 304.06 Z" />
<path fill="#fefefe" opacity="1.00" d=" M 406.29 304.27 C 411.02 298.63 412.09 291.23 413.87 284.36 C 415.38 292.48 417.88 301.13 424.12 306.94 C 428.68 310.76 434.53 312.54 440.18 314.09 C 435.02 315.57 429.76 317.10 425.31 320.19 C 421.93 322.59 419.61 326.13 417.71 329.74 C 415.51 333.93 415.25 338.72 414.01 343.20 C 412.16 335.83 409.71 328.29 404.47 322.57 C 399.69 317.70 392.95 315.67 386.54 313.91 C 393.75 312.45 401.56 310.36 406.29 304.27 Z" />
<path fill="#fefefe" opacity="1.00" d=" M 443.02 347.13 C 455.30 349.02 467.36 351.99 479.68 353.66 C 487.63 355.11 495.60 356.50 503.52 358.11 C 496.56 360.16 489.38 361.40 482.34 363.15 C 478.14 364.08 474.03 365.46 469.72 365.84 C 471.21 368.64 472.86 371.36 474.63 374.01 C 471.28 375.14 467.91 376.25 464.41 376.77 C 444.25 381.41 424.14 386.39 403.77 390.05 C 394.09 392.04 384.33 394.06 374.48 394.78 C 376.12 393.15 378.48 392.82 380.54 392.00 C 392.21 387.77 403.85 383.52 415.47 379.15 C 423.57 376.10 431.98 373.95 440.02 370.73 C 445.36 368.72 450.58 366.34 456.19 365.16 C 452.36 358.77 447.63 352.97 443.02 347.13 Z" />
<path fill="#fefefe" opacity="1.00" d=" M 693.02 384.82 C 697.52 385.43 702.11 385.45 706.52 386.70 C 716.63 389.26 727.13 390.38 737.01 393.81 C 731.31 399.18 725.34 404.28 720.10 410.13 C 729.95 413.70 739.13 418.79 748.73 422.94 C 757.99 426.89 766.71 431.99 776.04 435.77 C 777.88 436.61 779.93 437.13 781.40 438.65 C 762.67 437.03 744.09 433.71 725.45 431.18 C 711.96 428.28 698.15 427.23 684.73 424.06 C 694.54 415.95 704.43 407.95 714.16 399.75 C 707.46 394.27 700.02 389.87 693.02 384.82 Z" />
<path fill="#fefefe" opacity="1.00" d=" M 643.77 449.78 C 647.94 444.01 648.98 436.88 650.08 430.04 C 652.59 437.41 654.03 445.58 659.39 451.58 C 664.06 456.74 670.89 458.87 677.35 460.84 C 670.06 462.13 662.71 465.15 657.99 471.09 C 654.37 476.02 652.48 481.97 650.99 487.83 C 648.43 481.97 647.13 475.26 642.53 470.49 C 638.10 464.95 630.92 463.04 624.43 461.07 C 631.50 458.79 639.67 456.58 643.77 449.78 Z" />
<path fill="#fefefe" opacity="1.00" d=" M 481.86 489.19 C 484.99 479.12 490.40 469.98 495.57 460.86 C 498.47 477.82 500.95 494.90 501.95 512.08 C 502.31 515.54 503.16 519.67 500.48 522.47 C 494.07 530.14 488.00 538.06 482.24 546.22 C 482.38 536.47 483.03 526.72 482.36 516.98 C 481.21 507.79 479.37 498.33 481.86 489.19 Z" />
<path fill="#fefefe" opacity="1.00" d=" M 469.02 508.83 C 470.57 523.83 473.28 538.95 471.57 554.04 C 471.56 558.76 469.79 563.28 467.15 567.14 C 446.37 598.01 425.39 628.75 404.40 659.48 C 402.23 662.59 399.79 665.50 397.83 668.76 C 396.00 671.32 394.72 674.83 391.36 675.70 C 379.60 679.58 368.27 684.67 356.35 688.05 C 357.86 683.66 357.99 678.74 360.51 674.74 C 377.49 649.62 394.86 624.76 411.34 599.29 C 426.19 576.20 441.66 553.52 456.35 530.32 C 460.78 523.28 465.30 516.28 469.02 508.83 Z" />
<path fill="#fefefe" opacity="1.00" d=" M 335.55 703.23 C 352.12 699.59 368.77 696.31 385.44 693.19 C 381.56 698.18 378.18 703.52 374.64 708.75 C 372.94 712.04 368.80 712.20 365.67 713.23 C 356.30 716.11 346.83 718.67 337.35 721.18 C 333.30 722.06 329.38 723.61 325.19 723.82 C 327.61 718.28 327.34 712.06 329.50 706.47 C 331.11 704.78 333.32 703.78 335.55 703.23 Z" />
<path fill="#fefefe" opacity="1.00" d=" M 322.73 735.07 C 335.18 731.10 347.77 727.14 360.87 726.13 C 353.64 735.28 347.74 745.40 340.53 754.58 C 332.29 766.59 323.80 778.43 315.02 790.05 C 312.80 793.48 308.23 792.67 304.87 791.82 C 296.93 790.13 288.49 785.95 285.32 777.99 C 284.02 774.61 282.96 770.45 285.23 767.22 C 290.12 759.31 297.98 753.95 304.58 747.59 C 310.20 742.88 315.84 737.84 322.73 735.07 Z" />
<path fill="#fefefe" opacity="1.00" d=" M 250.29 790.78 C 256.57 787.26 262.92 783.84 269.52 780.97 C 273.56 790.54 281.87 797.92 291.40 801.81 C 298.08 804.80 305.54 804.80 312.72 804.43 C 309.70 810.39 308.82 817.14 306.27 823.30 C 293.05 827.18 278.86 822.79 267.77 815.29 C 259.29 809.71 250.29 801.80 250.29 790.78 Z" />
<path fill="#fefefe" opacity="1.00" d=" M 239.37 824.18 C 243.41 821.85 247.14 818.98 251.42 817.09 C 256.65 824.67 264.64 829.59 272.79 833.52 C 272.83 837.15 272.56 840.77 272.47 844.40 C 266.12 847.92 260.38 852.40 254.37 856.46 C 245.91 862.26 237.41 868.00 228.66 873.35 C 229.36 864.97 231.07 856.71 231.81 848.33 C 233.14 841.65 233.21 834.79 234.82 828.17 C 235.73 826.28 237.72 825.32 239.37 824.18 Z" />
</g>
</svg>
