<?xml version="1.0" encoding="UTF-8" ?>
<!DOCTYPE svg PUBLIC "-//W3C//DTD SVG 1.1//EN" "http://www.w3.org/Graphics/SVG/1.1/DTD/svg11.dtd">
<svg width="1024pt" height="1024pt" viewBox="0 0 1024 1024" version="1.1" xmlns="http://www.w3.org/2000/svg">
<g id="#fefefefe">
<path fill="#fefefe" opacity="1.00" d=" M 500.05 182.86 C 503.89 170.09 507.20 157.14 512.05 144.71 C 515.45 154.89 518.01 165.36 521.19 175.63 C 528.17 198.23 534.58 220.99 540.99 243.75 C 541.37 245.92 543.04 248.10 542.43 250.32 C 538.04 254.31 533.34 257.98 528.38 261.24 C 524.83 252.59 521.00 244.06 517.93 235.23 C 515.53 229.87 514.41 224.04 511.89 218.74 C 507.52 229.03 504.17 239.74 499.90 250.08 C 498.32 254.02 496.46 257.85 495.04 261.85 C 490.31 257.42 484.01 254.51 480.38 249.03 C 481.89 245.47 483.11 241.79 483.93 238.00 C 489.47 219.67 494.38 201.16 500.05 182.86 Z" />
<path fill="#fefefe" opacity="1.00" d=" M 655.10 179.45 C 656.73 181.60 656.85 184.39 657.72 186.87 C 659.37 191.99 661.21 197.21 664.55 201.50 C 668.51 206.06 674.23 208.72 679.95 210.34 C 682.44 211.13 685.27 211.25 687.35 213.02 C 678.55 214.96 668.82 217.60 663.07 225.07 C 658.62 231.55 657.12 239.50 656.06 247.15 C 653.94 245.60 654.10 242.76 653.37 240.50 C 651.60 233.08 649.17 224.93 642.68 220.25 C 636.73 216.19 629.58 214.61 622.83 212.37 C 630.08 210.22 637.99 209.04 643.94 203.95 C 651.37 198.01 652.80 188.08 655.10 179.45 Z" />
<path fill="#fefefe" opacity="1.00" d=" M 444.51 227.47 C 456.66 216.97 470.78 209.11 485.09 201.97 C 481.93 219.21 477.03 236.11 472.76 253.09 C 476.94 256.47 480.33 260.77 484.99 263.55 C 484.63 264.57 484.35 265.68 483.36 266.28 C 475.99 272.45 466.90 275.94 458.40 280.18 C 465.66 282.45 473.12 280.78 480.28 279.07 C 478.05 284.64 472.52 287.51 468.05 291.02 C 462.89 295.15 456.39 296.97 450.20 298.95 C 440.18 302.13 428.41 298.66 422.26 289.99 C 423.01 298.67 422.33 307.72 419.02 315.85 C 409.59 334.07 398.79 351.61 390.46 370.39 C 389.40 372.60 388.73 375.18 386.51 376.55 C 385.78 362.81 387.68 349.13 389.97 335.61 C 393.52 313.63 398.93 291.71 408.65 271.57 C 417.01 254.35 429.66 239.45 444.51 227.47 Z" />
<path fill="#fefefe" opacity="1.00" d=" M 539.23 201.96 C 554.46 208.79 568.50 218.13 581.43 228.65 C 593.83 238.97 604.38 251.57 611.99 265.82 C 621.77 283.07 627.04 302.42 631.21 321.68 C 634.99 340.24 637.61 359.14 636.67 378.13 C 635.21 373.55 632.59 369.49 630.71 365.10 C 624.61 351.66 617.01 338.99 610.16 325.93 C 603.89 315.21 598.74 302.67 601.58 290.08 C 598.12 294.12 593.64 297.27 588.65 299.13 C 579.10 301.44 569.72 297.41 561.13 293.64 C 553.68 289.65 546.01 284.91 542.13 277.07 C 548.57 281.49 556.85 281.05 564.28 280.50 C 563.88 280.05 563.07 279.14 562.67 278.68 C 554.28 274.39 545.24 270.72 538.46 263.98 C 542.02 260.07 546.96 257.40 549.85 252.92 C 549.35 247.42 548.17 242.00 546.60 236.72 C 543.37 225.31 541.50 213.59 539.23 201.96 Z" />
<path fill="#fefefe" opacity="1.00" d=" M 340.89 227.89 C 343.27 236.46 344.97 245.93 351.43 252.53 C 356.49 257.30 363.26 259.46 369.79 261.37 C 369.74 261.79 369.64 262.62 369.59 263.04 C 360.77 264.69 351.10 268.17 346.77 276.70 C 343.33 281.88 344.27 288.78 340.77 293.78 C 339.06 287.78 338.17 281.40 335.14 275.87 C 331.94 270.30 326.10 266.78 320.08 264.94 C 317.77 264.11 315.11 263.85 313.28 262.03 C 321.25 259.33 330.46 256.54 334.98 248.83 C 338.68 242.46 339.46 234.98 340.89 227.89 Z" />
<path fill="#fefefe" opacity="1.00" d=" M 507.41 253.19 C 508.79 249.63 509.71 245.86 511.79 242.61 C 518.35 259.43 523.94 277.23 535.69 291.31 C 537.79 293.86 540.41 295.99 541.99 298.96 C 534.25 306.35 526.55 314.17 521.73 323.86 C 519.43 328.53 516.77 333.26 516.06 338.47 L 516.48 339.77 C 522.44 332.32 528.15 324.64 534.65 317.64 C 540.03 312.67 544.98 306.90 551.75 303.77 C 556.30 302.35 561.14 300.95 565.94 301.87 C 572.81 303.00 578.63 307.08 585.05 309.49 C 588.29 310.57 591.44 308.64 594.57 307.99 C 598.64 318.02 604.48 327.17 609.10 336.94 C 612.97 345.19 617.62 353.17 620.06 362.01 C 609.73 350.32 600.25 337.82 588.56 327.42 C 582.75 322.43 576.78 317.15 569.32 314.85 C 565.05 313.80 559.96 312.54 556.22 315.65 C 571.06 321.07 583.05 331.93 593.34 343.59 C 598.94 350.41 604.71 357.16 609.06 364.89 C 620.69 382.85 629.75 402.26 639.85 421.07 C 647.21 435.60 655.47 449.83 660.31 465.47 C 662.01 470.37 661.88 475.67 661.47 480.78 C 659.94 489.10 654.65 496.25 648.38 501.71 C 648.24 494.37 649.17 486.97 648.01 479.66 C 646.10 466.85 641.16 454.76 636.24 442.87 C 626.01 423.00 615.83 403.07 603.95 384.13 C 598.55 375.08 592.59 366.32 585.74 358.30 C 575.99 345.99 564.27 334.67 549.70 328.32 C 546.42 326.88 542.23 325.05 538.87 326.98 C 527.62 338.24 517.77 351.31 511.93 366.21 C 508.44 357.82 503.87 349.87 498.47 342.57 C 493.63 336.63 489.62 329.69 483.08 325.42 C 476.87 326.57 470.92 329.10 465.72 332.67 C 451.95 341.29 441.17 353.67 431.00 366.14 C 419.33 382.58 408.90 399.91 399.81 417.91 C 392.25 432.18 384.93 446.67 379.85 462.04 C 376.68 470.71 375.29 479.86 374.53 489.01 C 374.28 493.09 374.48 497.20 375.43 501.20 C 374.87 500.98 373.75 500.53 373.20 500.30 C 367.43 494.85 362.81 487.74 361.76 479.74 C 360.58 470.29 363.91 461.02 367.76 452.56 C 374.46 437.62 382.54 423.36 389.80 408.69 C 400.95 387.70 411.41 366.03 426.68 347.63 C 434.35 337.75 443.52 328.95 453.95 322.02 C 457.88 319.23 462.33 317.36 466.89 315.85 C 463.95 313.95 460.04 312.98 456.66 314.28 C 451.53 315.71 446.60 318.01 442.43 321.36 C 428.54 331.47 418.00 345.21 406.36 357.67 C 405.78 358.15 404.63 359.11 404.05 359.60 C 404.32 357.85 404.84 356.18 405.62 354.59 C 409.85 346.19 413.84 337.66 418.44 329.44 C 422.32 322.89 426.31 316.39 429.37 309.40 C 431.72 308.62 434.20 310.22 436.64 309.79 C 441.51 309.76 445.13 306.11 449.46 304.45 C 455.51 302.18 462.25 300.45 468.61 302.56 C 479.69 305.32 486.75 314.98 494.09 322.94 C 498.71 327.56 501.98 333.28 506.18 338.23 C 506.69 338.43 507.71 338.84 508.22 339.04 C 505.04 322.23 493.10 308.61 479.51 298.96 C 486.78 292.20 493.22 284.42 497.63 275.47 C 501.17 268.17 504.64 260.81 507.41 253.19 M 508.47 281.61 C 506.44 287.14 502.51 291.65 499.73 296.77 C 504.65 302.95 509.37 309.58 511.49 317.30 C 515.48 310.36 519.46 303.40 524.23 296.95 C 519.06 289.85 514.26 282.21 512.02 273.63 C 510.12 275.92 509.60 278.93 508.47 281.61 Z" />
<path fill="#fefefe" opacity="1.00" d=" M 685.08 259.13 C 687.49 254.93 687.23 249.86 689.26 245.55 C 690.04 251.32 691.09 257.42 695.01 261.99 C 698.95 266.91 705.13 269.17 711.02 270.78 C 706.24 272.52 701.01 273.66 697.04 277.03 C 691.61 281.56 690.64 289.05 689.13 295.53 C 686.89 291.52 687.27 286.39 684.84 282.32 C 681.49 275.31 673.48 273.10 666.70 270.89 C 673.75 269.01 681.87 266.36 685.08 259.13 Z" />
<path fill="#fefefe" opacity="1.00" d=" M 506.37 295.96 C 508.37 293.10 510.23 290.14 511.88 287.06 C 513.65 290.30 515.77 293.42 516.96 296.93 C 515.65 300.16 513.29 302.84 512.01 306.10 C 510.28 302.63 507.99 299.48 506.37 295.96 Z" />
<path fill="#fefefe" opacity="1.00" d=" M 354.02 321.17 C 356.07 323.33 355.56 326.60 356.87 329.15 C 358.73 334.09 363.52 337.62 368.80 337.92 C 368.64 338.22 368.33 338.82 368.17 339.12 C 364.14 340.22 359.98 342.09 357.68 345.76 C 356.07 348.09 355.88 351.00 355.00 353.63 C 353.26 350.73 352.50 347.34 350.54 344.58 C 347.89 341.33 343.69 340.16 339.93 338.72 C 343.29 337.36 347.08 336.44 349.56 333.59 C 352.59 330.18 353.05 325.43 354.02 321.17 Z" />
<path fill="#fefefe" opacity="1.00" d=" M 642.56 330.22 C 645.26 332.75 645.57 336.80 646.58 340.21 C 651.53 356.63 657.07 372.86 662.77 389.04 C 667.22 400.87 671.36 412.86 677.12 424.15 C 681.16 433.05 685.43 441.89 690.99 449.96 C 695.52 456.92 699.97 464.06 705.89 469.95 C 703.72 473.93 700.09 476.77 697.06 480.05 C 691.17 486.26 684.75 492.05 677.35 496.42 C 670.60 500.42 663.59 504.39 655.76 505.75 C 662.40 499.94 668.55 492.83 670.33 483.91 C 672.75 475.14 669.71 466.17 667.16 457.79 C 661.71 443.61 654.88 430.02 649.30 415.89 C 646.53 409.61 644.64 402.98 641.56 396.85 C 641.26 392.25 641.90 387.65 642.24 383.07 C 643.04 365.46 642.77 347.82 642.56 330.22 Z" />
<path fill="#fefefe" opacity="1.00" d=" M 374.63 357.49 C 376.31 353.27 377.07 348.70 379.27 344.69 C 379.46 355.48 380.66 366.20 380.68 376.99 C 380.98 385.59 383.27 394.70 379.68 402.92 C 376.76 410.23 373.91 417.58 370.87 424.84 C 364.68 438.71 357.67 452.35 353.65 467.07 C 349.45 481.05 355.26 497.25 367.33 505.46 C 364.29 505.89 361.54 504.30 358.82 503.22 C 346.36 497.50 335.19 489.14 325.82 479.16 C 323.08 476.28 319.84 473.72 318.17 470.02 C 323.74 464.57 327.88 457.86 332.48 451.61 C 351.11 422.52 362.89 389.79 374.63 357.49 Z" />
<path fill="#fefefe" opacity="1.00" d=" M 604.27 403.66 C 609.27 412.83 615.44 421.29 620.42 430.48 C 628.97 445.94 637.73 462.16 639.25 480.08 C 639.16 489.85 634.34 498.89 628.40 506.40 C 617.85 518.59 605.56 529.24 592.07 538.06 C 582.69 543.95 572.87 549.23 564.15 556.12 C 558.99 560.28 555.56 566.46 554.66 573.01 C 554.30 579.37 554.11 585.95 556.57 591.96 C 561.73 586.64 568.70 583.81 574.55 579.42 C 572.24 579.36 569.96 579.62 567.67 579.72 C 566.95 571.03 570.74 562.06 577.76 556.82 C 582.93 552.84 588.93 550.06 595.19 548.25 C 605.42 544.45 616.23 542.51 626.42 538.58 C 631.27 536.84 636.28 535.49 640.96 533.29 C 630.46 550.57 614.28 563.37 598.34 575.39 C 584.72 584.60 570.73 593.38 558.33 604.25 C 555.98 605.93 554.24 609.20 550.94 608.67 C 547.96 600.79 547.13 592.38 546.38 584.06 C 546.26 577.93 546.04 571.65 547.79 565.70 C 549.99 557.96 554.43 550.81 560.61 545.63 C 572.90 534.90 587.28 526.43 597.70 513.67 C 606.48 502.58 615.10 490.64 619.07 476.99 C 614.65 465.50 609.92 454.00 607.56 441.85 C 605.17 429.27 604.52 416.44 604.27 403.66 Z" />
<path fill="#fefefe" opacity="1.00" d=" M 410.51 417.46 C 413.48 413.25 415.63 408.45 419.09 404.60 C 418.40 423.56 417.44 442.90 410.64 460.83 C 408.45 466.23 406.76 471.89 403.81 476.94 C 410.61 495.41 422.30 511.98 437.23 524.77 C 446.54 533.57 457.79 540.07 466.70 549.30 C 474.21 556.79 476.99 567.69 477.29 578.00 C 476.47 588.46 475.79 599.11 472.33 609.11 C 471.04 608.69 469.79 608.16 468.83 607.19 C 456.18 595.48 441.18 586.80 427.39 576.55 C 413.86 567.43 401.13 557.04 390.10 544.98 C 386.74 540.81 383.33 536.62 380.78 531.90 C 398.24 539.41 416.88 543.55 434.66 550.19 C 441.30 552.59 447.05 557.09 451.42 562.59 C 455.44 567.66 455.87 574.49 455.70 580.71 C 453.55 580.08 451.42 579.31 449.21 578.97 C 453.84 584.37 461.27 586.30 466.63 590.96 C 468.57 586.93 468.40 582.35 468.55 577.99 C 468.84 570.04 465.82 561.60 459.40 556.63 C 446.60 545.54 430.49 539.28 417.36 528.64 C 405.33 519.07 393.35 508.35 387.05 493.99 C 383.77 487.00 383.84 478.96 384.92 471.47 C 389.87 451.97 400.83 434.86 410.51 417.46 Z" />
<path fill="#fefefe" opacity="1.00" d=" M 230.75 490.09 C 248.99 496.60 268.86 498.29 288.01 495.67 C 296.46 495.07 304.99 493.92 312.99 491.02 C 325.95 509.31 343.94 523.18 362.14 535.92 C 373.49 543.51 382.96 554.47 387.11 567.64 C 390.57 580.62 389.48 594.41 385.78 607.22 C 384.05 604.44 383.42 601.16 381.72 598.37 C 379.01 592.98 374.38 588.99 370.06 584.94 C 364.54 579.84 357.80 576.37 351.15 573.03 C 343.98 569.57 336.26 566.00 328.09 566.79 C 323.83 568.02 320.33 570.96 317.05 573.82 C 302.82 567.75 290.42 558.21 278.59 548.39 C 273.50 543.47 267.93 539.04 263.34 533.61 C 250.80 520.49 239.26 506.20 230.75 490.09 M 258.93 509.04 C 273.93 528.61 293.13 545.62 315.94 555.46 C 327.71 549.76 341.58 552.88 352.80 558.42 C 361.12 562.24 367.77 568.80 375.71 573.25 C 372.03 563.91 367.31 553.90 357.95 549.05 C 345.49 541.30 330.30 542.16 316.61 538.19 C 298.09 532.91 281.47 522.85 265.26 512.72 C 263.21 511.41 261.37 509.62 258.93 509.04 Z" />
<path fill="#fefefe" opacity="1.00" d=" M 668.34 531.34 C 684.37 519.43 700.34 506.72 711.92 490.25 C 721.29 494.66 731.83 495.26 741.97 496.34 C 759.01 497.31 776.45 495.75 792.65 490.18 C 789.05 496.88 784.56 503.06 780.40 509.42 C 762.98 532.72 742.22 554.28 716.40 568.23 C 712.82 570.08 709.40 572.41 705.47 573.44 C 701.28 568.98 695.48 565.89 689.19 566.65 C 674.57 568.87 661.40 576.84 650.57 586.62 C 644.58 591.84 640.86 598.99 638.05 606.30 C 637.01 602.31 635.63 598.41 634.82 594.37 C 633.34 582.23 634.00 569.13 640.61 558.46 C 646.72 546.73 657.69 538.66 668.34 531.34 M 744.38 521.32 C 728.51 530.21 711.92 539.36 693.47 541.02 C 682.61 542.51 671.24 544.51 662.19 551.12 C 654.39 556.57 649.71 565.33 647.25 574.32 C 651.76 571.64 655.48 567.82 659.90 564.96 C 667.37 558.96 676.31 554.98 685.59 552.71 C 692.88 551.64 700.46 552.17 707.11 555.60 C 722.63 549.74 735.71 538.87 747.88 527.82 C 754.47 521.89 760.37 515.20 765.72 508.14 C 758.28 511.95 751.74 517.33 744.38 521.32 Z" />
<path fill="#fefefe" opacity="1.00" d=" M 440.53 506.98 C 449.65 510.08 457.79 515.43 466.43 519.62 C 477.14 525.39 488.72 529.95 497.90 538.17 C 501.16 540.96 504.42 544.03 506.03 548.12 C 495.95 549.07 485.66 546.28 477.14 540.87 C 465.72 534.39 456.48 524.94 447.51 515.51 C 445.06 512.77 442.61 510.01 440.53 506.98 Z" />
<path fill="#fefefe" opacity="1.00" d=" M 553.81 521.00 C 563.45 516.30 572.87 511.15 582.81 507.09 C 576.97 514.74 569.71 521.15 562.98 527.99 C 553.24 535.90 543.27 544.80 530.60 547.37 C 526.10 547.96 521.54 547.79 517.02 547.72 C 521.16 542.36 525.80 537.29 531.39 533.40 C 538.43 528.53 546.24 524.96 553.81 521.00 Z" />
<path fill="#fefefe" opacity="1.00" d=" M 484.10 582.93 C 492.92 572.51 502.49 562.73 511.30 552.30 C 518.67 559.41 525.08 567.44 532.41 574.59 C 534.71 577.36 537.58 579.74 539.42 582.85 C 534.67 588.90 528.46 593.80 524.59 600.55 C 521.42 606.12 518.08 611.74 516.36 617.96 C 522.38 612.91 527.25 606.46 534.00 602.25 C 536.03 604.09 539.29 606.35 538.51 609.47 C 532.68 615.64 526.18 621.20 520.90 627.88 C 517.35 631.70 515.27 636.57 512.00 640.61 C 508.92 637.05 506.88 632.74 503.85 629.14 C 497.45 621.89 490.72 614.96 483.95 608.07 C 485.60 606.30 486.97 604.30 488.45 602.39 C 489.56 601.97 490.60 602.92 491.55 603.41 C 497.01 606.89 500.80 612.41 506.25 615.90 C 504.77 610.55 501.39 606.07 498.96 601.16 C 495.24 594.13 488.93 589.09 484.10 582.93 M 511.20 563.56 C 507.99 571.06 502.92 577.88 496.54 582.98 C 498.72 584.97 501.54 586.23 503.37 588.62 C 507.10 592.62 508.89 597.88 511.76 602.45 C 514.28 596.96 516.73 591.32 520.67 586.68 C 522.65 585.33 524.81 584.23 526.40 582.38 C 522.91 579.60 519.96 576.22 517.52 572.51 C 515.40 569.53 513.97 566.03 511.20 563.56 Z" />
<path fill="#fefefe" opacity="1.00" d=" M 506.17 582.16 C 507.37 578.74 509.71 575.89 511.68 572.89 C 513.86 575.51 515.72 578.37 517.70 581.15 C 515.77 584.64 513.87 588.16 511.90 591.64 C 509.65 588.71 507.63 585.55 506.17 582.16 Z" />
<path fill="#fefefe" opacity="1.00" d=" M 399.55 604.28 C 402.26 596.61 404.43 588.72 407.98 581.37 C 411.67 585.95 414.83 590.93 418.62 595.43 C 420.90 597.74 423.71 599.49 425.93 601.89 C 421.23 614.86 419.63 628.65 416.89 642.11 C 416.40 648.43 414.88 654.66 414.75 661.02 L 416.67 659.90 C 419.71 649.76 423.68 639.93 427.07 629.91 C 430.20 621.81 434.19 614.01 439.28 606.96 C 439.87 606.58 441.05 605.84 441.64 605.47 C 440.44 618.38 437.33 631.08 436.51 644.05 C 433.36 675.10 433.10 706.37 433.92 737.55 C 434.50 752.70 434.19 767.89 435.23 783.02 C 435.29 802.51 437.08 821.98 436.46 841.46 C 428.26 833.31 421.83 823.56 413.56 815.46 C 405.54 806.13 396.14 798.19 387.36 789.63 C 380.45 783.36 373.32 777.34 366.29 771.21 C 366.67 769.16 367.19 767.14 367.34 765.07 C 368.09 754.22 369.20 743.38 371.05 732.66 C 373.96 707.43 379.53 682.60 385.09 657.85 C 389.51 639.89 394.17 621.98 399.55 604.28 M 409.47 736.81 C 412.72 740.33 415.79 744.32 416.83 749.11 C 418.02 752.01 416.13 755.17 413.70 756.77 C 410.42 756.07 408.23 753.28 405.92 751.09 C 403.75 749.10 401.66 747.02 399.95 744.63 C 394.72 750.70 388.25 755.45 381.84 760.17 L 381.75 760.91 C 388.73 768.70 395.28 776.90 402.99 784.00 C 409.54 791.06 417.10 797.07 423.74 804.05 C 423.31 796.05 423.71 788.00 422.81 780.03 C 422.47 755.81 422.04 731.57 422.69 707.35 C 418.47 717.24 414.19 727.13 409.47 736.81 Z" />
<path fill="#fefefe" opacity="1.00" d=" M 614.81 583.25 C 615.49 583.29 616.18 583.33 616.88 583.39 C 617.25 584.80 617.60 586.23 618.13 587.61 C 626.65 609.54 632.14 632.46 637.65 655.29 C 644.33 684.58 650.37 714.10 653.52 744.01 C 654.38 752.98 656.11 761.92 656.44 770.92 C 651.64 775.66 646.24 779.74 641.12 784.13 C 629.12 794.77 617.59 805.94 606.50 817.52 C 599.30 824.96 593.30 833.48 586.19 840.98 C 586.88 808.29 589.42 775.66 589.79 742.97 C 591.37 710.73 590.40 678.38 587.03 646.30 C 585.62 633.18 583.33 620.18 581.33 607.16 C 581.96 607.26 583.23 607.47 583.86 607.58 C 587.46 611.42 589.76 616.27 592.07 620.95 C 598.59 634.32 602.57 648.70 607.14 662.80 C 608.31 661.19 607.80 659.14 607.81 657.32 C 606.33 638.47 602.87 619.76 597.12 601.74 C 604.38 597.17 611.15 591.17 614.81 583.25 M 601.43 706.24 C 601.03 709.52 601.27 712.82 601.59 716.10 C 601.69 726.40 601.90 736.70 601.67 747.00 C 601.30 755.32 601.95 763.69 600.77 771.96 C 600.74 782.78 599.64 793.54 599.58 804.36 C 614.10 790.26 628.43 775.91 641.97 760.86 C 642.38 759.44 640.37 759.10 639.63 758.32 C 633.82 754.48 628.95 749.42 624.07 744.51 C 619.45 749.11 615.09 755.27 608.18 756.23 C 607.32 754.62 605.83 753.07 606.27 751.09 C 606.87 745.21 611.61 741.05 613.88 735.86 C 610.06 725.86 603.77 716.81 601.43 706.24 Z" />
<path fill="#fefefe" opacity="1.00" d=" M 393.54 763.76 C 395.92 761.41 398.03 758.82 399.98 756.12 C 403.62 757.66 406.46 761.17 407.32 764.90 C 405.82 767.20 403.67 768.97 402.03 771.17 C 398.45 769.63 396.50 766.10 393.54 763.76 Z" />
<path fill="#fefefe" opacity="1.00" d=" M 616.13 763.86 C 616.35 760.37 619.59 758.19 622.05 756.16 C 624.77 758.37 626.89 761.16 628.91 764.00 C 626.97 766.46 625.13 770.31 621.57 770.33 C 619.23 768.79 615.82 767.17 616.13 763.86 Z" />
<path fill="#fefefe" opacity="1.00" d=" M 405.06 777.16 C 408.67 773.66 411.05 768.31 416.28 766.95 C 416.51 773.24 418.50 779.92 416.08 785.98 C 412.03 783.61 407.71 781.16 405.06 777.16 Z" />
<path fill="#fefefe" opacity="1.00" d=" M 607.43 767.45 C 611.08 767.94 612.98 771.24 615.64 773.37 C 616.77 774.57 618.61 775.77 618.32 777.68 C 615.89 781.62 611.24 783.20 607.45 785.49 C 606.61 779.53 606.19 773.38 607.43 767.45 Z" />
</g>
</svg>
