<?xml version="1.0" encoding="UTF-8" ?>
<!DOCTYPE svg PUBLIC "-//W3C//DTD SVG 1.1//EN" "http://www.w3.org/Graphics/SVG/1.1/DTD/svg11.dtd">
<svg viewBox="119.82 99.82 784.33 784.33" version="1.1" xmlns="http://www.w3.org/2000/svg">
<g id="#ffffffff">
<path fill="#ffffff" opacity="1.00" d=" M 499.06 123.92 C 510.95 120.09 524.12 122.35 535.05 128.00 C 550.61 136.19 562.21 150.27 570.81 165.33 C 574.79 171.31 577.43 178.03 580.69 184.41 C 586.83 198.19 590.92 212.81 597.48 226.41 C 602.06 237.13 608.83 246.74 616.30 255.62 C 619.72 259.49 622.12 264.74 620.77 269.97 C 618.84 276.01 614.13 280.50 609.67 284.76 C 598.70 294.83 585.88 302.56 573.00 309.90 C 566.94 313.80 560.57 317.17 554.27 320.65 C 563.13 319.77 571.81 317.54 580.48 315.57 C 599.40 310.03 618.78 302.03 632.06 286.89 C 638.15 288.03 643.99 290.22 650.08 291.37 C 667.87 294.72 685.89 297.29 704.03 297.26 C 720.44 297.32 736.82 295.40 752.86 292.00 C 747.07 308.40 736.36 322.85 722.92 333.81 C 707.67 346.71 689.20 355.12 670.34 361.28 C 651.74 367.14 632.51 370.93 613.12 372.93 C 628.05 376.87 643.64 379.28 659.09 377.58 C 671.22 376.24 683.35 373.62 694.58 368.78 C 695.95 370.19 696.38 372.14 696.97 373.95 C 702.05 390.79 708.14 407.30 713.96 423.89 C 722.46 446.84 731.70 469.56 742.74 491.42 C 748.53 503.24 755.08 514.69 762.54 525.53 C 760.08 528.22 756.77 529.85 753.70 531.74 C 733.85 543.52 711.51 550.97 692.99 564.99 C 681.72 572.84 671.98 582.66 663.00 592.99 C 660.18 596.15 657.96 599.81 654.82 602.69 C 653.28 600.18 652.29 597.40 651.47 594.59 C 644.66 574.64 640.99 553.81 637.33 533.10 C 633.58 511.38 630.05 489.63 626.56 467.87 C 623.36 447.56 619.73 427.32 616.90 406.95 C 616.59 404.73 616.04 402.55 615.59 400.36 C 612.65 425.77 607.31 450.80 602.94 475.98 C 602.36 480.02 603.78 483.97 604.47 487.91 C 609.23 511.70 614.35 535.42 620.01 559.02 C 630.02 598.46 641.78 637.47 655.20 675.88 C 665.84 705.74 677.76 735.16 691.04 763.94 C 699.00 781.21 708.58 797.67 718.32 813.98 C 714.51 816.68 709.82 817.79 705.51 819.46 C 680.63 828.41 654.26 832.44 627.92 833.59 C 627.60 833.32 626.96 832.79 626.64 832.52 C 601.08 781.83 584.43 727.16 571.92 671.94 C 569.26 660.29 567.22 648.54 565.38 636.74 C 564.00 652.81 566.14 668.95 567.06 685.00 C 570.12 721.27 575.08 757.39 582.56 793.03 C 586.31 811.72 590.49 830.35 595.97 848.63 C 563.29 859.65 528.46 863.08 494.13 861.65 C 470.17 860.35 446.12 856.71 423.37 848.90 C 428.23 828.15 431.68 807.12 434.87 786.06 C 440.01 752.17 443.86 718.10 447.01 683.98 C 449.19 661.38 450.37 638.69 451.05 615.99 C 451.13 610.44 450.85 604.87 451.58 599.36 C 450.10 599.63 450.57 601.71 450.21 602.74 C 443.70 641.94 435.30 680.83 424.78 719.15 C 414.36 757.57 402.27 795.59 387.27 832.47 C 387.08 832.80 386.71 833.47 386.53 833.80 C 372.29 832.60 358.04 830.93 344.16 827.46 C 330.77 824.24 317.44 820.30 305.08 814.16 C 315.34 799.11 323.55 782.82 331.60 766.52 C 350.81 726.22 367.03 684.54 380.80 642.09 C 394.79 597.66 406.04 552.40 415.74 506.85 C 417.57 497.22 420.25 487.70 421.18 477.94 C 417.28 454.80 412.60 431.78 409.32 408.54 C 408.93 405.57 408.77 402.56 407.90 399.69 C 402.01 437.60 396.00 475.53 389.61 513.38 C 384.41 543.52 380.88 574.38 369.41 602.96 C 365.07 599.06 362.23 593.89 358.24 589.69 C 347.87 577.95 336.14 567.22 322.63 559.20 C 302.85 547.16 280.74 539.48 261.44 526.60 C 263.55 522.42 266.36 518.66 268.78 514.67 C 279.90 496.30 288.68 476.62 296.92 456.83 C 309.15 428.15 318.77 398.46 328.29 368.80 C 344.58 375.53 362.37 378.49 379.96 378.17 C 390.21 377.51 400.49 375.81 410.24 372.49 C 400.41 372.60 390.76 370.64 381.17 368.72 C 363.26 365.29 345.88 359.39 329.34 351.74 C 316.31 345.48 303.91 337.63 293.50 327.54 C 284.69 319.01 277.52 308.85 272.12 297.85 C 271.12 295.87 270.42 293.76 269.98 291.59 C 309.15 300.57 350.37 298.59 389.03 288.11 C 390.20 287.73 391.35 287.29 392.51 286.86 C 405.63 301.06 423.77 309.37 441.99 314.91 C 450.96 317.21 459.98 319.32 469.14 320.71 C 459.92 315.86 450.87 310.67 441.97 305.26 C 431.95 299.46 422.27 292.99 413.58 285.32 C 408.77 280.80 403.79 275.71 402.27 269.08 C 401.43 263.72 404.66 258.92 407.78 254.90 C 415.51 245.88 422.06 235.83 427.04 225.05 C 431.97 214.49 435.41 203.35 439.47 192.46 C 445.71 176.77 453.79 161.71 464.36 148.49 C 473.62 137.65 485.03 127.74 499.06 123.92 M 486.29 207.28 C 474.86 218.64 464.65 231.19 455.64 244.55 C 451.71 250.24 447.42 256.02 446.07 262.95 C 445.14 269.11 448.64 274.94 452.85 279.15 C 460.32 286.69 469.92 291.53 478.50 297.64 C 491.08 306.87 503.00 317.37 511.80 330.39 C 516.54 323.12 522.40 316.63 528.79 310.78 C 535.10 305.38 541.19 299.66 548.24 295.20 C 556.48 289.97 565.24 285.21 571.84 277.86 C 575.58 274.37 577.85 269.26 577.45 264.12 C 577.05 259.28 574.12 255.25 571.78 251.17 C 561.66 235.15 550.22 219.81 536.54 206.63 C 529.53 199.94 521.10 193.20 510.93 193.10 C 501.22 194.36 493.15 200.70 486.29 207.28 M 511.69 335.97 C 507.73 353.52 503.91 371.13 499.75 388.61 C 487.69 380.57 475.47 372.73 463.12 365.15 C 469.85 377.22 477.95 388.47 484.90 400.42 C 465.70 405.44 446.10 408.91 426.70 413.03 C 445.92 417.54 465.16 421.98 484.55 425.67 C 477.13 436.72 470.64 448.38 463.49 459.60 C 466.75 458.51 469.45 456.30 472.43 454.64 C 481.35 449.17 490.39 443.93 499.30 438.44 C 503.81 457.02 507.77 475.77 511.40 494.54 L 512.64 494.61 C 512.59 495.14 512.48 496.22 512.43 496.76 C 513.04 494.92 512.83 492.95 513.19 491.08 C 516.81 473.56 520.63 456.08 524.50 438.62 C 536.19 445.90 547.91 453.15 559.92 459.89 C 553.54 448.51 546.39 437.56 539.56 426.44 C 540.59 425.75 541.71 425.16 542.98 425.03 C 561.37 421.13 579.78 417.34 598.08 413.05 C 578.17 409.26 558.23 405.48 538.58 400.44 C 544.08 392.83 548.55 384.54 553.78 376.75 C 555.92 373.17 558.47 369.80 560.20 365.99 C 548.18 373.34 536.38 381.05 524.55 388.68 C 522.21 381.62 521.01 374.23 519.12 367.04 C 516.41 356.74 514.91 346.12 511.69 335.97 M 588.25 550.95 C 587.62 559.94 587.95 569.00 588.11 578.02 C 590.45 616.30 597.67 654.65 612.62 690.11 C 625.47 720.16 643.66 749.00 670.14 768.80 C 660.14 753.62 651.92 737.33 643.93 721.03 C 626.90 687.43 613.48 652.07 603.18 615.86 C 597.22 594.46 591.86 572.88 588.25 550.95 Z" />
<path fill="#ffffff" opacity="1.00" d=" M 329.75 198.73 C 330.63 196.35 330.65 193.56 332.34 191.56 C 334.52 198.15 336.00 205.13 339.94 210.97 C 342.98 215.48 346.63 219.85 351.58 222.34 C 355.18 224.34 359.17 225.42 363.07 226.68 C 364.95 227.54 363.64 229.24 362.14 229.41 C 355.73 231.07 349.18 233.57 344.68 238.66 C 337.93 245.77 335.70 255.63 333.39 264.84 C 331.81 265.02 331.66 262.91 331.06 261.87 C 327.75 251.77 323.73 240.74 314.33 234.74 C 309.97 231.59 304.44 230.79 300.01 227.85 C 306.20 225.35 312.78 223.47 318.06 219.20 C 324.39 214.15 327.74 206.37 329.75 198.73 Z" />
<path fill="#ffffff" opacity="1.00" d=" M 681.73 211.73 C 684.73 206.76 685.44 200.87 687.98 195.72 C 690.05 199.66 690.93 204.09 692.86 208.10 C 695.51 214.24 699.37 220.22 705.18 223.78 C 709.13 226.62 714.01 227.50 718.33 229.60 C 712.69 232.75 705.74 234.07 701.62 239.47 C 694.69 246.90 692.82 257.19 688.99 266.26 C 686.88 264.11 686.62 261.02 685.73 258.29 C 683.51 250.97 680.09 243.78 674.60 238.34 C 670.41 234.80 665.25 232.70 660.19 230.77 C 659.10 230.50 658.42 229.62 657.74 228.83 C 667.60 226.76 677.22 221.05 681.73 211.73 Z" />
</g>
</svg>
