<?xml version="1.0" encoding="UTF-8" standalone="no"?>
<svg
   viewBox="0 -116 464.00101 464.00102"
   version="1.1"
   id="svg1"
   sodipodi:docname="circlet.svg"
   inkscape:version="1.4.3 (0d15f75, 2025-12-25)"
   width="464.00101"
   height="464.00101"
   xmlns:inkscape="http://www.inkscape.org/namespaces/inkscape"
   xmlns:sodipodi="http://sodipodi.sourceforge.net/DTD/sodipodi-0.dtd"
   xmlns="http://www.w3.org/2000/svg"
   xmlns:svg="http://www.w3.org/2000/svg">
  <defs
     id="defs1">
    <inkscape:path-effect
       effect="mirror_symmetry"
       start_point="256,0"
       end_point="256,512"
       center_point="256,256"
       id="path-effect1"
       is_visible="true"
       lpeversion="1.2"
       lpesatellites=""
       mode="vertical"
       discard_orig_path="false"
       fuse_paths="true"
       oposite_fuse="true"
       split_items="false"
       split_open="false"
       link_styles="false" />
  </defs>
  <sodipodi:namedview
     id="namedview1"
     pagecolor="#505050"
     bordercolor="#ffffff"
     borderopacity="1"
     inkscape:showpageshadow="0"
     inkscape:pageopacity="0"
     inkscape:pagecheckerboard="1"
     inkscape:deskcolor="#505050"
     inkscape:zoom="1.0288956"
     inkscape:cx="234.23173"
     inkscape:cy="133.63844"
     inkscape:window-width="1920"
     inkscape:window-height="996"
     inkscape:window-x="-9"
     inkscape:window-y="-9"
     inkscape:window-maximized="1"
     inkscape:current-layer="svg1" />
  <g
     class=""
     id="g1"
     transform="translate(-23.999378,-227.97852)">
    <path
       d="m 256,227.97852 c -21.18498,0.25562 -42.29722,8.2145 -42.59961,25.2207 -1.5,0.1 -2.90078,0.20078 -4.30078,0.30078 -8.89728,1.16174 -13.129,1.75595 -14.93164,2.02344 0.42969,-0.0842 0.82561,-0.18507 0.86914,-0.26172 0,0 0,-0.002 0,-0.002 2.6e-4,-8.5e-4 0.002,-0.005 0.002,-0.006 2.7e-4,-0.005 -7e-4,-0.01 -0.002,-0.0137 -0.11955,-0.2157 -3.75164,-0.20877 -19.53711,0.95899 -14.3,1.6 -28.00078,3.60039 -40.80078,5.90039 -20.46577,4.10685 -20.67089,3.95982 -38.099611,8.70117 l -1.199218,0.29883 c -15.8,4.5 -29.4,9.6 -40.5,15.5 -6.75946,3.69975 -13.318757,7.07842 -19.373047,14.59766 C 29.358214,307.37379 24.17181,310.74966 24,336 c -0.08573,12.59971 8.699609,23.1 21.099609,31.5 12.5,8.5 29.500782,15.50039 50.300782,21.40039 26.799999,7.7 59.799609,13.4 96.599609,16.5 16,-5.4 16,-5.39961 0,-16.09961 -35.4,-3.1 -67.09922,-8.60117 -92.199219,-15.70117 -19.7,-5.7 -35.501172,-12.39883 -45.701172,-19.29883 C 43.899609,347.40078 40,341.1 40,336 c 0,-5.1 3.899609,-11.40078 14.099609,-18.30078 10.2,-6.9 26.001172,-13.59883 45.701172,-19.29883 33.599999,-9.5 78.798829,-16.2 129.298829,-18 0,0.1 0.0996,0.0996 0.0996,0.0996 v -0.0996 h 1.10156 c 1.6,2.1 3.39961,3.99922 5.09961,5.69922 6,6.1 12.09961,10.90039 20.59961,10.90039 8.5,0 14.59961,-4.80039 20.59961,-10.90039 1.7,-1.7 3.49961,-3.59922 5.09961,-5.69922 h 1.10156 V 280.5 c 0,0 0.0996,3.8e-4 0.0996,-0.0996 50.5,1.8 95.69883,8.5 129.29883,18 19.7,5.7 35.50117,12.39883 45.70117,19.29883 C 468.10041,324.59921 472,330.9 472,336 c 0,5.1 -3.89961,11.40078 -14.09961,18.30078 -10.2,6.9 -26.00117,13.59883 -45.70117,19.29883 -25.1,7.1 -56.79922,12.60117 -92.19922,15.70117 -16,10.7 -16,10.69961 0,16.09961 36.8,-3.1 69.79961,-8.8 96.59961,-16.5 20.8,-5.9 37.80078,-12.90039 50.30078,-21.40039 12.4,-8.4 21.18534,-18.90029 21.09961,-31.5 -0.17181,-25.25034 -5.35821,-28.62622 -11.52734,-34.80273 -6.05429,-7.51924 -12.61359,-10.89791 -19.37305,-14.59766 -11.1,-5.9 -24.7,-11 -40.5,-15.5 l -1.19922,-0.29883 c -17.42872,-4.74135 -17.63384,-4.59432 -38.09961,-8.70117 -12.8,-2.3 -26.50078,-4.30039 -40.80078,-5.90039 -15.78547,-1.16776 -19.41951,-1.17273 -19.53906,-0.95703 0,0 0,0.002 0,0.002 -1.1e-4,8.4e-4 -3e-5,0.005 0,0.006 0,0 0,0.002 0,0.002 8.7e-4,0.004 0.002,0.009 0.004,0.0117 0.0435,0.0767 0.4375,0.17559 0.86719,0.25977 -1.80264,-0.26749 -6.03436,-0.8617 -14.93164,-2.02344 -1.4,-0.1 -2.80078,-0.20078 -4.30078,-0.30078 C 298.29712,236.193 277.18498,228.23414 256,227.97852 Z M 256,241 c 13.4,0 26.79961,4.19961 22.09961,12.59961 -4.6,8.4 -9.79922,15.30078 -14.19922,19.80078 -4,3.9 -7.50039,5.3 -7.90039,5.5 0,0.0562 0.033,0.0829 0.043,0.0937 h 0.002 v 0.002 0.002 h -0.002 -0.002 c -0.006,0.001 -0.0191,0.002 -0.041,0.002 -0.0219,0 -0.037,-9.5e-4 -0.043,-0.002 h -0.002 v -0.002 -0.002 h 0.002 l 0.002,-0.002 c 0.01,-0.0108 0.041,-0.0356 0.041,-0.0918 -0.4,-0.2 -3.90039,-1.6 -7.90039,-5.5 -4.4,-4.5 -9.59922,-11.40078 -14.19922,-19.80078 C 229.20039,245.19961 242.6,241 256,241 Z"
       style="fill:#ffffff"
       id="path3" />
    <path
       id="path2"
       d="M 256,227.97852 V 297 c 8.5,0 14.59961,-4.80039 20.59961,-10.90039 1.7,-1.7 3.49961,-3.59922 5.09961,-5.69922 h 1.10156 V 280.5 c 0,0 0.0996,3.9e-4 0.0996,-0.0996 50.5,1.8 95.69883,8.5 129.29883,18 19.7,5.7 35.50117,12.39883 45.70117,19.29883 C 468.10039,324.59922 472,330.9 472,336 c 0,5.1 -3.89961,11.40078 -14.09961,18.30078 -10.2,6.9 -26.00117,13.59883 -45.70117,19.29883 -25.1,7.1 -56.79922,12.60117 -92.19922,15.70117 -16,10.7 -16,10.69961 0,16.09961 36.8,-3.1 69.79961,-8.8 96.59961,-16.5 20.8,-5.9 37.80078,-12.90039 50.30078,-21.40039 12.4,-8.4 21.18534,-18.90029 21.09961,-31.5 -0.17181,-25.25034 -5.35821,-28.62622 -11.52734,-34.80273 -6.05429,-7.51924 -12.61359,-10.89791 -19.37305,-14.59766 -11.1,-5.9 -24.7,-11 -40.5,-15.5 l -1.19922,-0.29883 c -17.42872,-4.74135 -17.63384,-4.59432 -38.09961,-8.70117 -12.8,-2.3 -26.50078,-4.30039 -40.80078,-5.90039 -15.78547,-1.16776 -19.41951,-1.17273 -19.53906,-0.95703 -0.002,0.006 0.001,0.0154 0.004,0.0215 0.0435,0.0767 0.4375,0.17559 0.86719,0.25977 -1.80264,-0.26749 -6.03436,-0.8617 -14.93164,-2.02344 -1.4,-0.1 -2.80078,-0.20078 -4.30078,-0.30078 C 298.29722,236.19302 277.18498,228.23414 256,227.97852 Z M 256,241 v 37.90039 c 0.4,-0.2 3.90039,-1.6 7.90039,-5.5 4.4,-4.5 9.59922,-11.40078 14.19922,-19.80078 C 282.79961,245.19961 269.4,241 256,241 Z m 0,37.90039 V 279 c 0.0219,0 0.0371,-9.1e-4 0.043,-0.002 0,0 0.002,0 0.002,0 0,0 0,-0.002 0,-0.002 0,0 0,-0.002 0,-0.002 0,0 -0.002,0 -0.002,0 0,0 -0.002,-0.002 -0.002,-0.002 -0.01,-0.0108 -0.041,-0.0356 -0.041,-0.0918 z"
       fill="#ffffff"
       fill-opacity="1"
       transform="matrix(-1,0,0,1,512,0)"
       style="display:none" />
  </g>
</svg>
