<?xml version="1.0" encoding="UTF-8" ?>
<!DOCTYPE svg PUBLIC "-//W3C//DTD SVG 1.1//EN" "http://www.w3.org/Graphics/SVG/1.1/DTD/svg11.dtd">
<svg width="775pt" height="775pt" viewBox="0 0 775 775" version="1.1" xmlns="http://www.w3.org/2000/svg">
<g id="#fcfcfcfd">
<path fill="#fcfcfc" opacity="1.00" d=" M 453.92 34.61 C 485.82 31.64 518.03 32.16 549.85 35.83 C 554.58 36.58 559.35 37.16 564.03 38.16 C 555.97 39.60 547.75 40.25 539.86 42.55 C 523.82 46.99 507.94 52.54 493.43 60.79 C 491.44 61.94 489.07 61.86 486.88 62.25 C 458.28 65.82 430.63 74.43 403.69 84.39 C 416.79 86.65 430.73 84.85 443.13 90.45 C 443.73 90.55 444.94 90.76 445.54 90.86 C 445.89 91.69 446.27 92.52 446.67 93.34 C 431.08 93.37 415.53 94.62 399.97 95.29 C 381.17 97.19 362.30 99.35 343.98 104.11 C 320.32 109.78 297.73 119.19 276.14 130.27 C 283.83 128.15 291.40 125.60 298.98 123.12 C 330.85 113.84 363.78 108.09 396.93 106.43 C 413.66 105.68 430.47 106.19 447.06 108.47 C 457.75 110.57 468.96 111.16 478.86 116.13 C 480.04 116.33 481.24 116.52 482.44 116.71 C 482.63 117.21 483.02 118.22 483.21 118.73 C 483.29 120.80 483.47 122.88 483.84 124.93 C 485.83 130.82 490.36 135.44 495.69 138.48 C 497.54 139.43 499.43 140.33 501.44 140.93 L 501.43 141.60 L 502.20 141.59 C 504.58 144.03 507.88 146.23 508.38 149.86 C 508.96 153.49 507.08 156.79 506.23 160.21 C 505.24 162.55 504.10 164.83 502.65 166.93 C 502.55 167.45 502.35 168.48 502.25 169.00 C 499.09 171.85 495.50 174.39 493.06 177.92 C 494.67 172.31 496.71 166.83 498.19 161.18 C 499.22 157.48 496.60 154.35 494.30 151.81 C 488.56 146.51 482.58 141.48 476.93 136.10 C 473.49 133.07 470.10 129.76 465.69 128.19 C 459.63 125.28 452.83 124.63 446.21 124.51 C 446.25 124.69 446.32 125.03 446.36 125.21 C 455.30 127.19 464.12 130.84 470.98 137.07 C 475.88 141.44 480.35 146.77 481.87 153.32 C 482.11 153.69 482.59 154.42 482.83 154.79 C 479.75 154.05 477.69 151.36 474.87 150.06 C 459.50 141.96 442.20 138.35 425.07 136.37 C 389.93 133.05 354.46 136.28 319.88 142.85 C 281.32 149.68 243.73 162.10 208.79 179.79 C 194.85 187.24 181.00 194.94 168.17 204.21 C 141.62 223.53 116.23 245.91 99.77 274.74 C 97.43 278.33 96.12 282.46 93.78 286.05 C 95.72 267.74 101.95 250.22 109.53 233.54 C 116.60 218.57 125.21 204.35 134.95 190.97 C 152.67 167.97 172.94 146.79 195.99 129.08 C 217.14 111.94 240.61 97.76 265.14 85.99 C 289.09 73.87 314.41 64.74 339.93 56.53 C 376.98 45.14 415.22 37.31 453.92 34.61 Z" />
<path fill="#fcfcfc" opacity="1.00" d=" M 511.48 59.46 C 520.50 53.01 531.17 49.24 541.92 46.81 C 531.55 52.63 519.79 57.92 513.46 68.56 C 511.90 70.64 511.61 73.43 512.77 75.77 C 514.85 77.81 516.67 80.45 520.03 80.06 C 518.53 80.29 517.03 80.50 515.54 80.71 L 515.59 78.92 C 514.37 80.58 512.26 80.33 510.51 80.74 L 510.48 81.19 C 508.71 81.39 506.96 81.63 505.22 81.95 C 504.18 82.32 503.14 82.69 502.11 83.08 C 499.55 84.51 497.02 85.97 494.60 87.61 C 494.29 88.09 493.68 89.04 493.37 89.52 L 492.45 89.42 L 492.41 90.07 C 492.08 90.40 491.41 91.07 491.08 91.40 L 490.63 91.50 C 489.75 92.68 488.97 93.93 488.11 95.13 C 486.26 99.05 483.30 102.71 483.26 107.23 C 483.08 107.10 482.71 106.84 482.52 106.71 C 483.11 104.91 483.52 103.07 483.90 101.22 L 482.18 101.79 C 482.25 101.33 482.38 100.41 482.45 99.96 C 479.26 96.81 475.49 94.35 471.52 92.32 C 469.03 91.23 466.22 90.92 463.89 89.46 C 463.35 89.47 462.27 89.48 461.73 89.48 C 468.91 86.55 476.60 89.23 483.99 89.49 C 484.36 87.97 485.63 87.27 486.96 86.68 C 486.63 86.70 485.96 86.74 485.63 86.76 C 485.40 85.91 484.94 84.20 484.71 83.35 C 485.31 83.23 486.51 83.00 487.11 82.88 C 486.42 82.86 485.02 82.82 484.32 82.80 C 487.01 81.56 485.40 78.81 485.05 76.81 C 490.27 74.38 496.35 74.37 501.25 71.13 C 502.84 65.89 507.74 63.05 511.48 59.46 Z" />
<path fill="#fcfcfc" opacity="1.00" d=" M 587.66 69.51 C 587.49 70.11 587.33 70.70 587.18 71.30 C 584.57 73.66 581.56 75.53 579.01 77.96 C 576.40 80.80 574.22 84.00 571.90 87.07 C 571.18 89.07 569.74 90.55 568.06 91.76 C 565.61 91.95 563.18 91.58 561.04 90.35 C 560.20 86.65 555.12 85.07 555.70 81.04 C 559.46 74.07 567.52 71.15 574.95 70.21 C 579.15 69.61 583.70 71.47 587.66 69.51 Z" />
<path fill="#fcfcfc" opacity="1.00" d=" M 453.03 74.46 C 457.38 74.45 461.72 72.90 466.07 73.87 C 461.98 76.74 457.31 78.53 453.00 80.99 C 448.96 83.57 443.94 82.72 439.41 82.71 C 433.14 82.29 426.88 82.85 420.62 82.68 C 431.06 78.76 441.78 75.01 453.03 74.46 Z" />
<path fill="#fcfcfc" opacity="1.00" d=" M 630.10 86.95 C 638.27 82.83 646.67 79.09 654.92 75.10 C 653.72 87.19 649.60 98.72 645.45 110.06 C 639.50 126.62 629.76 141.97 616.46 153.58 C 603.23 165.36 586.69 174.12 568.84 175.56 C 574.79 171.73 580.87 167.99 585.99 163.04 C 590.58 158.31 594.20 152.71 596.97 146.75 C 600.46 140.56 602.30 133.12 600.67 126.09 C 599.47 122.37 596.27 119.92 593.06 117.96 C 600.73 115.53 607.69 111.46 614.64 107.50 C 621.88 102.48 625.78 94.31 630.10 86.95 M 611.17 127.69 C 605.09 131.02 601.58 137.30 599.98 143.85 C 599.45 146.44 598.21 148.83 597.69 151.43 C 603.92 144.93 608.59 136.90 611.51 128.41 C 612.51 127.53 613.64 126.64 613.89 125.24 C 612.42 125.19 611.24 126.21 611.17 127.69 Z" />
<path fill="#fcfcfc" opacity="1.00" d=" M 525.95 83.14 C 525.37 82.03 524.72 80.98 524.25 79.83 C 525.85 80.87 527.44 82.01 528.69 83.47 C 529.77 83.62 530.85 83.79 531.93 84.00 C 534.97 85.31 538.14 86.33 541.17 87.70 C 542.53 88.90 543.84 90.16 545.02 91.55 C 545.36 91.52 546.02 91.47 546.35 91.45 C 546.46 92.07 546.68 93.31 546.79 93.94 C 547.31 95.05 547.67 96.22 547.85 97.45 L 548.27 97.47 C 548.72 101.65 548.52 105.84 548.16 110.02 C 547.61 111.27 547.26 112.60 546.80 113.88 C 545.60 116.96 544.36 120.03 543.10 123.09 C 542.45 124.14 541.83 125.19 541.20 126.25 C 539.79 129.07 538.23 131.81 536.57 134.48 C 536.62 136.68 536.49 138.88 536.37 141.08 C 535.33 143.81 534.19 146.49 533.13 149.21 C 532.03 151.14 531.01 153.13 530.00 155.11 C 529.63 156.13 529.28 157.15 528.94 158.17 C 528.63 159.48 528.34 160.80 528.07 162.12 C 527.64 164.24 527.53 166.41 527.23 168.56 C 526.82 167.36 526.41 166.15 526.06 164.94 C 525.86 164.35 525.45 163.18 525.24 162.60 L 524.84 162.39 C 524.24 160.67 523.58 158.97 522.92 157.27 C 522.64 156.19 522.32 155.12 521.98 154.06 C 521.66 153.07 521.36 152.08 521.05 151.10 C 520.05 149.27 518.97 147.49 518.13 145.58 C 517.65 145.59 516.69 145.61 516.21 145.61 C 516.38 145.03 516.71 143.85 516.88 143.27 L 515.23 143.85 L 515.58 142.82 C 514.74 141.78 513.93 140.74 513.15 139.67 C 512.47 139.48 511.11 139.10 510.43 138.90 C 512.28 138.72 514.14 138.52 516.01 138.32 C 517.55 137.38 519.18 136.63 520.81 135.84 C 521.34 135.64 522.39 135.23 522.92 135.03 C 524.94 133.67 526.90 132.22 528.94 130.88 C 530.88 128.78 532.48 126.41 533.90 123.93 C 534.17 123.43 534.73 122.43 535.00 121.94 C 535.19 121.43 535.58 120.41 535.77 119.90 C 536.25 118.91 536.73 117.91 537.19 116.92 C 537.90 112.02 538.02 107.00 537.13 102.11 C 535.56 96.67 532.18 91.79 527.83 88.19 C 526.18 86.98 524.79 85.48 523.54 83.88 C 524.14 83.69 525.35 83.32 525.95 83.14 Z" />
<path fill="#fcfcfc" opacity="1.00" d=" M 575.91 93.55 C 577.18 89.66 581.21 87.60 584.75 86.15 C 589.14 92.94 596.90 97.22 604.96 97.44 C 608.23 97.43 611.83 98.22 614.82 96.49 C 614.50 97.86 614.89 99.66 613.44 100.47 C 608.12 104.80 602.51 109.20 595.80 111.10 C 590.91 112.12 585.87 112.44 581.08 113.92 C 576.97 115.80 574.51 120.62 569.69 121.01 L 569.52 121.92 C 569.04 121.78 568.08 121.50 567.60 121.35 L 567.74 122.63 C 562.79 123.07 557.86 122.21 552.92 122.62 C 553.66 118.59 556.82 115.32 556.71 111.09 C 556.76 109.54 556.72 108.00 556.73 106.45 C 557.24 105.94 558.26 104.90 558.76 104.38 L 559.62 104.68 L 559.52 103.36 C 559.87 103.39 560.58 103.45 560.94 103.48 C 561.34 103.08 562.14 102.30 562.54 101.91 C 562.19 99.52 561.71 97.14 560.55 95.00 C 559.05 95.84 557.53 96.65 556.10 97.59 C 554.28 98.30 553.05 96.93 552.08 95.60 L 551.84 95.46 C 550.52 93.49 549.04 91.55 549.37 89.01 C 553.64 89.19 556.32 92.99 560.28 94.04 C 561.63 96.32 562.60 98.81 563.05 101.42 C 567.25 101.38 571.46 101.24 575.62 100.61 C 575.32 98.27 575.22 95.85 575.91 93.55 Z" />
<path fill="#fcfcfc" opacity="1.00" d=" M 502.88 89.81 C 504.57 89.22 506.23 88.52 507.86 87.76 C 509.92 87.73 511.98 87.74 514.05 87.82 C 515.45 88.31 516.89 88.60 518.37 88.86 C 520.25 89.91 522.09 91.05 523.82 92.35 L 524.15 92.62 C 524.46 92.93 525.09 93.55 525.40 93.86 L 525.50 94.52 L 526.53 94.51 L 526.38 95.64 L 527.19 95.50 C 527.76 97.37 528.44 99.21 529.32 100.96 C 529.66 104.05 529.60 107.16 529.41 110.26 C 528.59 106.26 527.68 102.06 524.73 99.02 L 524.53 98.64 C 523.01 97.72 521.49 96.79 519.96 95.89 C 513.93 93.83 506.87 96.40 503.92 102.12 C 501.95 107.06 501.25 113.05 504.29 117.72 C 506.78 122.80 512.73 124.66 518.01 124.81 C 520.29 124.76 522.57 124.61 524.86 124.62 C 523.73 125.04 522.59 125.41 521.44 125.75 C 521.49 126.08 521.61 126.76 521.66 127.10 C 520.49 127.37 519.34 127.66 518.19 127.98 C 517.16 128.39 516.13 128.81 515.12 129.24 C 510.53 129.93 505.95 129.28 501.49 128.18 L 501.55 127.58 C 500.60 127.16 499.65 126.74 498.71 126.33 C 497.76 125.60 496.83 124.86 495.88 124.14 C 494.32 122.32 492.88 120.41 491.70 118.32 C 490.28 111.78 489.59 104.32 493.39 98.41 C 495.83 94.86 499.17 92.00 502.88 89.81 Z" />
<path fill="#fcfcfc" opacity="1.00" d=" M 552.16 129.57 C 556.80 127.72 561.97 128.50 566.79 129.02 C 567.85 129.44 568.93 129.86 570.01 130.30 C 574.83 131.97 580.04 134.79 581.81 139.91 C 581.41 139.61 580.60 139.00 580.19 138.70 C 570.53 134.33 559.45 135.05 549.13 135.94 L 549.35 134.39 C 549.21 134.39 548.94 134.39 548.80 134.40 C 544.24 145.41 541.14 157.24 534.54 167.30 C 533.12 168.10 531.88 169.20 530.47 170.00 C 530.01 167.16 530.94 164.41 531.80 161.75 C 532.78 159.77 533.84 157.84 534.80 155.85 C 535.07 155.36 535.61 154.38 535.88 153.89 C 536.17 153.41 536.76 152.44 537.06 151.95 C 538.08 148.77 539.78 145.86 540.81 142.67 C 541.72 140.91 542.82 139.27 543.86 137.58 L 544.58 137.37 C 544.54 136.93 544.44 136.04 544.40 135.59 L 545.63 135.57 L 545.31 134.34 L 546.64 134.41 C 546.56 133.94 546.38 133.00 546.29 132.53 L 547.38 132.54 C 547.43 131.79 547.53 130.28 547.58 129.53 C 549.15 129.42 550.73 129.28 552.30 129.12 C 549.76 129.53 548.81 131.09 549.57 133.54 C 550.03 132.47 550.46 131.39 550.85 130.29 C 551.28 130.44 552.13 130.74 552.56 130.89 L 552.16 129.57 Z" />
<path fill="#fcfcfc" opacity="1.00" d=" M 514.73 151.11 C 514.87 151.10 515.16 151.09 515.31 151.08 C 515.24 155.03 517.74 158.29 519.10 161.84 C 519.35 162.87 519.63 163.90 519.94 164.91 C 520.91 167.06 521.87 169.22 522.65 171.45 L 523.65 171.67 C 523.59 172.12 523.46 173.01 523.40 173.46 L 524.23 173.64 C 525.31 175.49 525.83 178.13 528.16 178.81 C 528.64 180.11 529.13 181.42 529.64 182.72 C 535.10 182.57 533.76 173.99 538.62 172.47 C 538.86 180.90 538.36 190.11 533.19 197.17 C 530.54 200.43 527.20 203.05 524.38 206.17 C 524.17 199.77 524.44 193.05 521.81 187.07 C 521.39 185.77 520.78 184.56 519.44 184.04 C 519.44 183.66 519.46 182.90 519.47 182.51 C 519.05 182.56 518.21 182.65 517.79 182.69 C 517.55 180.71 516.66 178.91 515.99 177.06 C 515.25 176.08 514.51 175.10 513.78 174.13 C 513.28 173.25 512.79 172.37 512.32 171.49 L 511.40 171.54 L 511.44 170.25 C 510.92 170.39 509.88 170.68 509.36 170.82 L 509.55 169.30 C 509.05 169.40 508.03 169.59 507.53 169.68 C 507.53 169.11 507.53 167.97 507.54 167.40 L 508.77 167.54 C 508.67 167.05 508.49 166.06 508.40 165.56 L 509.53 165.58 C 509.62 164.95 509.79 163.68 509.88 163.05 C 510.30 162.03 510.71 161.00 511.12 159.97 C 511.33 159.45 511.74 158.42 511.95 157.90 C 512.55 156.52 513.04 155.09 513.66 153.71 C 513.93 153.06 514.46 151.76 514.73 151.11 Z" />
<path fill="#fcfcfc" opacity="1.00" d=" M 500.77 179.64 C 502.52 177.44 503.39 174.31 506.01 172.96 C 508.07 176.03 510.36 178.95 512.57 181.92 C 512.63 182.45 512.75 183.50 512.81 184.03 C 507.29 187.34 501.59 190.36 495.65 192.83 L 495.50 193.57 L 492.99 193.54 C 494.90 189.67 496.99 185.88 499.13 182.12 C 499.66 181.29 500.21 180.46 500.77 179.64 Z" />
<path fill="#fcfcfc" opacity="1.00" d=" M 511.06 191.41 C 511.93 190.97 513.67 190.07 514.54 189.63 L 514.52 192.74 L 513.62 192.42 C 513.53 193.61 513.44 194.82 513.36 196.02 C 512.93 197.38 512.49 198.73 512.15 200.12 C 510.65 202.64 509.01 205.08 507.14 207.34 L 506.68 207.41 C 506.36 207.73 505.74 208.39 505.42 208.71 L 505.49 209.48 L 504.71 209.45 C 503.54 210.65 502.29 211.75 501.15 212.97 C 500.88 213.29 500.35 213.92 500.08 214.24 C 498.04 215.98 495.62 217.30 493.85 219.33 C 492.21 219.59 490.56 219.76 488.91 219.86 C 492.67 212.24 494.66 203.79 499.25 196.59 C 498.04 196.14 496.84 195.68 495.65 195.20 C 496.98 195.27 498.30 195.34 499.64 195.41 L 499.18 197.83 C 499.72 195.28 502.16 195.65 503.96 195.10 C 505.27 194.37 506.57 193.61 507.85 192.82 C 508.91 192.34 509.98 191.87 511.06 191.41 Z" />
<path fill="#fcfcfc" opacity="1.00" d=" M 510.08 209.13 C 510.64 208.14 511.77 206.15 512.33 205.16 C 513.80 217.24 507.41 228.28 505.14 239.85 C 503.24 236.52 500.21 233.95 496.85 232.17 C 495.87 231.77 494.90 231.37 493.92 230.98 C 492.15 230.28 490.33 229.67 488.51 229.13 C 488.45 228.59 488.33 227.51 488.27 226.97 C 489.48 225.52 490.84 224.18 492.43 223.15 L 492.39 222.33 L 493.69 222.75 L 493.47 221.82 C 496.68 220.45 499.75 218.73 502.40 216.44 C 504.97 214.01 507.66 211.71 510.08 209.13 Z" />
<path fill="#fcfcfc" opacity="1.00" d=" M 480.38 245.64 C 480.87 240.90 482.85 236.46 484.59 232.07 C 486.57 232.19 488.53 232.52 490.51 232.74 L 490.50 233.43 C 491.70 233.84 492.88 234.35 494.09 234.77 C 494.68 235.05 495.85 235.61 496.43 235.88 L 496.31 236.74 L 497.20 236.57 C 499.45 238.31 501.02 241.06 503.77 242.05 C 502.54 246.90 501.04 251.73 498.89 256.27 C 498.69 254.65 498.53 253.03 498.39 251.40 L 497.29 251.57 C 497.47 250.99 497.82 249.84 498.00 249.27 C 497.02 249.39 495.06 249.64 494.08 249.77 C 493.91 249.40 493.58 248.67 493.41 248.30 C 489.76 245.63 485.70 243.47 481.33 242.21 C 481.29 243.37 481.27 244.52 481.25 245.69 L 482.61 245.36 L 482.58 246.66 C 483.05 246.59 483.97 246.46 484.43 246.40 L 484.43 247.57 L 485.11 247.62 C 486.78 248.96 488.65 249.99 490.59 250.87 C 491.36 256.47 488.11 261.57 486.25 266.64 C 485.96 266.55 485.39 266.37 485.10 266.28 C 482.25 263.35 478.56 261.43 475.17 259.20 C 475.32 260.81 475.45 262.43 475.58 264.06 C 476.88 264.59 478.18 265.17 479.49 265.71 L 479.26 266.63 L 480.49 266.47 L 480.40 267.61 L 481.11 267.63 C 481.80 268.71 482.53 269.77 483.28 270.82 C 483.26 271.65 483.22 273.31 483.20 274.13 C 482.40 275.80 481.70 277.51 481.06 279.25 C 479.72 282.88 478.29 286.47 477.10 290.15 C 476.06 292.46 475.03 294.78 474.04 297.11 C 472.97 299.42 471.93 301.75 471.03 304.13 C 469.98 306.43 468.97 308.75 468.03 311.10 C 467.03 313.42 466.03 315.73 465.01 318.05 C 464.77 318.57 464.30 319.62 464.06 320.15 C 462.67 323.10 461.33 326.08 459.96 329.05 C 458.05 333.44 455.91 337.72 454.02 342.12 C 451.98 346.09 450.23 350.20 448.14 354.15 C 447.85 354.63 447.26 355.59 446.97 356.08 C 446.75 356.62 446.31 357.71 446.09 358.25 C 445.59 359.23 445.09 360.20 444.57 361.17 C 440.43 370.31 435.88 379.29 431.22 388.18 C 429.92 390.89 428.30 393.44 426.97 396.14 C 426.32 397.49 425.67 398.84 425.08 400.22 C 423.01 403.91 420.99 407.64 419.17 411.47 L 418.33 411.57 C 418.38 412.04 418.47 412.99 418.52 413.47 C 417.57 413.44 415.69 413.40 414.74 413.37 C 414.31 413.00 413.43 412.26 412.99 411.89 C 412.37 411.73 411.11 411.41 410.49 411.26 L 410.57 410.40 C 409.68 410.47 407.90 410.62 407.02 410.69 C 407.44 409.12 407.81 407.52 408.59 406.09 C 418.72 387.46 428.64 368.71 437.63 349.50 C 447.52 329.88 456.14 309.64 464.17 289.19 C 467.55 280.34 471.46 271.61 473.88 262.45 L 474.50 262.90 C 474.55 262.10 474.66 260.51 474.72 259.72 C 477.21 255.29 478.28 250.25 479.61 245.39 L 480.38 245.64 Z" />
<path fill="#fcfcfc" opacity="1.00" d=" M 495.30 257.33 C 495.83 257.36 496.87 257.41 497.39 257.43 C 498.35 261.67 495.57 265.24 494.40 269.11 C 493.60 271.80 492.71 274.46 491.67 277.06 C 491.61 276.43 491.50 275.17 491.44 274.54 L 490.40 274.43 C 490.44 272.94 490.49 271.45 490.55 269.96 C 491.40 267.98 492.13 265.95 493.05 264.00 C 493.38 262.95 493.70 261.91 494.01 260.86 C 494.19 260.30 494.57 259.19 494.75 258.63 L 495.53 258.39 L 495.30 257.33 Z" />
<path fill="#fcfcfc" opacity="1.00" d=" M 487.00 278.17 C 487.74 278.31 489.22 278.59 489.96 278.73 C 488.10 285.90 484.82 292.59 482.37 299.57 C 475.93 315.89 469.17 332.09 461.56 347.91 C 452.74 366.61 444.28 385.49 435.07 404.01 C 431.64 411.47 427.08 418.46 424.48 426.28 C 424.88 424.58 424.56 423.12 423.54 421.92 C 423.55 420.30 423.67 418.69 423.81 417.09 C 424.60 415.73 425.38 414.35 426.03 412.91 C 426.25 412.39 426.67 411.35 426.89 410.83 C 429.65 406.40 431.81 401.63 434.00 396.91 C 437.33 390.24 440.84 383.67 443.80 376.83 C 444.87 374.85 445.82 372.81 446.85 370.81 C 449.22 365.84 451.65 360.90 453.96 355.89 C 454.17 355.31 454.60 354.15 454.81 353.57 L 455.29 353.53 C 456.66 349.90 458.37 346.42 460.03 342.92 C 462.19 337.82 464.68 332.87 466.94 327.82 C 467.94 325.50 469.04 323.22 469.95 320.86 C 470.61 319.18 471.25 317.49 471.87 315.80 C 472.92 313.48 474.04 311.19 474.94 308.81 C 475.60 307.16 476.32 305.53 477.03 303.91 C 477.65 302.24 478.26 300.57 478.94 298.93 C 479.65 297.18 480.35 295.42 480.94 293.63 L 481.38 293.43 C 481.82 291.89 482.51 290.43 483.04 288.92 C 483.76 287.25 484.33 285.52 484.99 283.82 C 485.77 281.98 486.52 280.12 487.00 278.17 Z" />
<path fill="#fcfcfc" opacity="1.00" d=" M 394.19 433.05 C 398.38 425.64 402.24 418.02 406.83 410.85 C 407.29 411.48 408.21 412.73 408.67 413.35 C 409.56 413.84 410.47 414.32 411.38 414.81 L 411.46 415.31 C 413.06 416.48 414.60 417.75 416.23 418.89 C 416.27 419.80 416.35 421.62 416.38 422.52 L 415.79 422.53 C 414.46 424.67 413.11 426.81 412.00 429.08 C 411.81 429.58 411.42 430.59 411.22 431.10 C 410.94 431.63 410.37 432.69 410.08 433.22 C 409.12 435.27 408.19 437.33 407.30 439.42 L 405.82 439.40 C 405.59 439.04 405.14 438.31 404.92 437.95 C 403.19 437.09 401.45 436.08 399.45 436.13 L 399.58 435.53 C 398.68 435.03 397.78 434.54 396.89 434.06 C 396.29 433.82 395.10 433.35 394.50 433.11 C 394.53 433.88 394.60 435.41 394.63 436.18 C 398.73 437.51 401.60 440.85 404.52 443.84 C 404.15 445.29 403.59 446.70 403.20 448.15 C 401.85 450.24 400.40 452.36 399.98 454.87 C 397.89 453.86 395.81 452.81 393.61 452.08 L 393.56 451.58 C 392.89 451.49 391.55 451.29 390.87 451.20 C 389.51 450.34 388.00 449.75 386.62 448.95 C 386.30 449.69 385.66 451.15 385.34 451.89 C 389.62 452.65 393.09 455.34 396.42 457.96 C 397.42 461.17 394.54 463.55 394.03 466.56 C 391.69 466.56 389.75 465.21 387.81 464.12 C 386.82 463.71 385.82 463.32 384.82 462.97 C 383.02 462.37 381.22 461.75 379.40 461.26 C 381.36 457.73 383.14 454.11 385.16 450.62 C 387.27 445.51 390.61 441.04 393.08 436.11 C 393.41 435.07 393.78 434.05 394.19 433.05 Z" />
<path fill="#fcfcfc" opacity="1.00" d=" M 419.01 428.21 C 419.66 428.26 420.97 428.38 421.63 428.44 C 421.81 430.06 421.82 431.74 421.02 433.22 C 417.97 439.73 415.35 446.46 411.78 452.72 C 410.51 454.94 409.65 457.35 408.72 459.73 C 406.38 460.02 404.82 456.77 406.00 455.00 C 408.74 449.68 411.49 444.36 414.02 438.93 C 414.71 437.58 415.32 436.20 415.92 434.82 C 416.89 432.58 418.01 430.42 419.01 428.21 Z" />
<path fill="#fcfcfc" opacity="1.00" d=" M 400.66 464.89 C 401.34 463.73 401.99 462.55 402.72 461.42 C 403.48 461.81 405.01 462.57 405.78 462.96 C 405.54 466.61 403.80 470.23 401.17 472.75 C 401.26 471.83 401.43 469.97 401.51 469.05 C 401.11 469.70 400.30 471.00 399.90 471.65 C 399.69 470.48 399.51 469.31 399.37 468.15 C 400.02 467.15 400.45 466.06 400.66 464.89 Z" />
<path fill="#fcfcfc" opacity="1.00" d=" M 378.21 463.71 C 378.76 463.58 379.86 463.31 380.41 463.18 L 380.55 464.72 C 380.93 464.68 381.68 464.59 382.05 464.55 C 382.56 464.84 383.58 465.42 384.09 465.71 C 385.87 467.16 387.82 468.40 389.56 469.91 C 389.88 471.77 388.68 473.40 388.14 475.09 C 386.43 477.75 384.83 480.47 383.12 483.14 C 381.71 485.41 380.49 487.80 379.22 490.16 C 376.04 495.07 373.27 500.24 370.04 505.12 C 369.81 505.68 369.37 506.80 369.15 507.36 L 368.71 507.47 C 366.52 511.50 361.98 513.15 358.12 515.14 C 357.15 515.42 356.19 515.75 355.24 516.11 C 352.65 516.59 350.12 517.42 347.49 517.70 C 346.59 518.91 345.77 520.17 344.97 521.45 C 344.74 521.44 344.27 521.42 344.04 521.41 C 344.82 520.44 345.60 519.47 346.39 518.50 C 357.39 500.49 367.83 482.10 378.21 463.71 Z" />
<path fill="#fcfcfc" opacity="1.00" d=" M 394.92 475.57 C 395.68 475.55 397.19 475.50 397.94 475.48 C 396.21 481.31 392.84 486.49 389.96 491.80 C 386.21 497.05 383.67 503.01 380.22 508.45 L 379.37 508.46 L 379.62 509.49 C 377.86 510.08 376.07 510.56 374.25 510.92 C 375.61 509.89 376.54 508.56 377.04 506.95 C 377.97 505.25 378.90 503.55 379.85 501.87 C 381.68 498.94 383.21 495.85 384.87 492.83 C 387.37 488.07 390.29 483.55 392.84 478.83 C 393.54 477.74 394.25 476.67 394.92 475.57 Z" />
<path fill="#fcfcfc" opacity="1.00" d=" M 394.62 504.87 C 394.17 501.57 394.53 498.25 395.11 495.00 C 395.98 498.16 398.14 502.56 394.62 504.87 Z" />
<path fill="#fcfcfc" opacity="1.00" d=" M 389.74 509.53 C 390.21 510.47 390.65 511.44 391.06 512.43 C 391.45 512.42 392.23 512.38 392.62 512.36 C 392.67 513.44 392.77 515.59 392.83 516.67 C 392.49 516.54 391.83 516.30 391.50 516.18 C 390.04 519.93 390.27 524.10 390.91 528.01 C 391.91 529.53 392.54 531.47 394.31 532.33 C 394.42 530.51 394.54 528.73 394.70 526.93 C 395.45 525.18 395.46 523.25 395.67 521.41 L 394.83 521.37 C 394.73 518.37 394.24 515.28 395.24 512.38 C 395.43 514.12 395.57 515.86 395.66 517.61 C 396.13 517.57 397.07 517.48 397.54 517.43 L 397.33 518.63 L 398.37 518.52 C 399.20 523.40 398.74 528.38 397.22 533.09 C 395.65 535.17 396.26 537.78 396.51 540.16 C 399.30 541.17 399.20 544.59 399.45 547.02 C 399.39 551.07 398.76 555.32 396.66 558.86 C 396.42 560.14 396.21 561.43 396.04 562.74 C 395.47 562.69 394.33 562.58 393.77 562.53 C 394.15 565.69 392.85 568.65 392.09 571.66 C 391.70 571.54 390.93 571.31 390.55 571.19 C 389.41 575.09 391.15 579.01 394.10 581.62 C 396.08 577.12 396.22 572.26 396.47 567.45 L 398.57 567.21 C 398.76 572.13 399.76 577.06 398.54 581.94 C 398.21 585.82 396.27 589.37 396.33 593.31 C 401.16 591.47 405.71 588.68 410.96 588.16 C 417.35 586.78 423.90 588.28 430.06 590.02 C 425.90 591.38 421.42 591.62 417.44 593.53 C 410.40 596.76 403.37 600.50 398.11 606.31 C 395.24 610.62 392.11 614.93 391.03 620.09 C 388.27 627.93 390.45 636.36 393.32 643.82 C 396.81 651.92 405.37 655.40 411.95 660.47 C 410.19 660.61 408.43 660.72 406.67 660.82 C 403.34 661.33 399.95 661.06 396.60 661.12 C 396.63 663.68 395.16 665.84 394.14 668.08 C 392.78 668.62 391.45 669.27 390.05 669.70 C 385.12 668.83 381.30 665.03 378.57 661.05 C 379.01 659.93 379.46 658.83 379.90 657.73 C 381.55 656.80 384.81 656.07 383.75 653.48 C 382.22 651.14 379.28 649.97 378.23 647.22 C 375.90 648.14 373.56 649.02 371.11 649.54 C 369.33 648.05 367.30 646.77 366.04 644.80 C 363.75 639.98 363.48 634.52 363.81 629.28 C 367.44 629.43 371.00 630.29 374.62 630.63 C 374.69 627.36 374.87 624.10 374.72 620.85 C 373.77 620.28 372.83 619.72 371.88 619.18 C 371.08 618.38 368.83 618.32 369.29 616.81 C 371.07 611.87 374.33 607.62 377.60 603.57 C 381.11 599.01 386.50 596.61 391.28 593.67 L 393.47 593.53 C 393.48 591.59 393.45 589.61 392.31 587.96 C 391.87 587.65 391.00 587.04 390.56 586.74 C 389.05 582.23 388.46 577.53 387.68 572.88 C 387.89 572.57 388.29 571.95 388.50 571.65 L 389.51 571.47 L 389.64 570.34 L 390.41 570.45 C 390.50 568.63 390.62 566.83 390.63 565.03 C 389.61 563.06 388.88 560.97 388.07 558.92 C 385.89 552.08 386.12 543.50 391.34 538.08 C 391.90 535.25 389.76 533.24 388.69 530.90 C 387.50 527.12 386.55 522.84 388.24 519.07 C 389.89 516.13 389.62 512.76 389.74 509.53 M 391.54 538.73 C 391.69 545.69 388.81 552.80 391.89 559.55 C 396.51 554.70 397.01 547.58 395.59 541.34 L 394.68 541.58 C 393.63 540.63 392.58 539.67 391.54 538.73 Z" />
<path fill="#fcfcfc" opacity="1.00" d=" M 371.82 515.86 C 372.52 514.82 373.20 513.77 373.86 512.73 C 374.56 512.66 375.94 512.53 376.63 512.46 L 376.51 513.56 L 378.19 513.77 C 377.87 514.00 377.24 514.47 376.92 514.71 C 363.55 539.87 349.21 564.54 333.77 588.48 C 332.94 588.54 331.28 588.65 330.46 588.71 C 330.52 586.56 331.16 584.55 331.67 582.49 L 332.28 582.56 C 333.85 580.36 335.47 578.19 336.87 575.88 C 339.70 571.58 342.17 567.07 344.85 562.68 C 347.82 558.24 350.06 553.36 352.93 548.85 C 354.29 546.54 355.55 544.16 356.88 541.83 C 359.33 537.90 361.58 533.86 363.87 529.85 C 366.61 525.24 369.15 520.51 371.82 515.86 Z" />
<path fill="#fcfcfc" opacity="1.00" d=" M 352.90 521.14 C 356.16 520.05 359.19 518.36 362.46 517.26 C 362.44 518.07 362.42 519.70 362.41 520.51 L 361.68 520.41 C 359.94 523.71 357.85 526.81 356.19 530.16 C 353.57 534.01 351.31 538.08 349.07 542.16 C 346.37 546.45 343.82 550.83 341.10 555.12 C 340.07 556.78 339.09 558.48 338.15 560.21 C 336.29 563.29 334.15 566.18 332.11 569.14 C 331.43 570.13 330.77 571.13 330.11 572.14 C 329.43 573.12 328.75 574.11 328.08 575.11 C 327.41 576.11 326.75 577.12 326.10 578.14 C 324.47 580.49 322.81 582.82 321.09 585.11 C 316.89 590.63 313.73 596.91 309.12 602.13 C 307.28 604.58 305.55 607.14 303.29 609.23 C 300.39 611.09 297.42 612.85 294.25 614.20 C 289.87 616.48 285.02 615.17 280.36 615.47 C 280.51 614.60 280.83 612.86 280.98 612.00 C 279.89 614.35 278.05 615.62 275.48 615.83 C 277.41 617.46 279.75 618.40 282.18 619.03 C 284.56 619.65 287.03 619.56 289.47 619.50 L 289.48 618.80 C 290.66 618.59 291.84 618.37 293.02 618.13 C 294.29 617.68 295.56 617.26 296.82 616.79 C 297.83 616.69 299.86 616.49 300.87 616.39 C 300.32 617.98 299.69 619.57 299.14 621.18 C 298.74 622.13 298.37 623.11 298.03 624.11 C 296.19 627.83 294.96 631.98 292.15 635.14 C 287.40 639.58 280.54 640.04 275.00 643.06 C 271.60 643.74 268.12 643.93 264.70 643.30 C 261.54 642.07 259.17 639.67 256.96 637.20 C 263.54 631.01 268.64 623.48 274.23 616.44 C 275.97 614.50 279.66 615.10 280.05 611.96 C 282.12 609.76 284.27 607.65 286.26 605.38 C 296.73 591.72 306.85 577.77 316.90 563.78 C 326.09 550.75 334.50 537.19 342.62 523.50 C 344.85 523.58 346.93 522.84 348.95 522.00 C 350.26 521.71 351.58 521.43 352.90 521.14 Z" />
<path fill="#fcfcfc" opacity="1.00" d=" M 328.95 595.04 C 329.53 593.97 330.05 592.87 330.66 591.82 C 330.29 593.09 329.87 594.35 329.39 595.60 C 321.46 606.31 315.91 618.51 309.82 630.29 C 308.59 630.56 307.37 630.87 306.17 631.23 C 304.49 631.50 302.81 631.79 301.12 631.54 C 306.69 625.55 309.56 617.74 313.81 610.87 C 317.07 606.10 319.93 600.86 324.39 597.08 L 324.54 596.49 L 325.78 596.69 L 325.48 595.55 C 326.45 595.54 327.48 595.86 328.43 595.47 L 328.95 595.04 Z" />
<path fill="#fcfcfc" opacity="1.00" d=" M 411.13 599.50 C 405.58 603.56 402.20 610.19 400.78 616.83 C 399.89 622.61 400.85 628.42 402.67 633.93 C 401.59 636.43 399.10 637.18 396.60 636.42 C 394.15 627.79 395.43 618.41 399.54 610.51 C 402.14 605.70 406.71 602.50 411.13 599.50 Z" />
<path fill="#fcfcfc" opacity="1.00" d=" M 307.14 635.27 C 308.61 634.52 310.19 634.20 311.87 634.31 C 311.69 634.97 311.32 636.31 311.13 636.97 C 304.67 642.50 296.36 646.58 287.76 646.58 C 287.64 645.62 287.51 644.66 287.39 643.72 C 288.51 643.01 289.79 642.64 290.90 641.93 C 293.65 641.17 296.28 640.08 298.89 638.96 C 301.73 637.95 304.65 637.02 307.14 635.27 Z" />
<path fill="#fcfcfc" opacity="1.00" d=" M 401.42 638.49 C 402.33 638.53 403.24 638.57 404.15 638.62 C 407.18 642.34 410.78 645.64 414.83 648.23 C 417.58 649.98 420.90 650.24 423.93 651.27 C 431.64 651.84 439.56 650.50 446.15 646.28 C 448.94 644.60 451.01 641.95 453.96 640.49 C 449.72 650.88 441.54 660.03 430.82 663.86 C 427.72 664.88 424.37 667.28 421.08 665.58 C 417.93 664.60 415.49 661.61 415.35 658.28 C 416.43 658.36 417.51 658.45 418.60 658.55 L 418.49 659.46 C 421.24 659.55 423.99 659.43 426.76 659.50 C 424.50 658.37 421.91 658.56 419.47 658.41 L 419.42 657.89 C 411.83 653.17 402.38 650.41 397.58 642.26 C 397.87 641.64 398.46 640.41 398.76 639.79 C 399.46 639.73 400.86 639.61 401.56 639.55 L 401.42 638.49 Z" />
<path fill="#fcfcfc" opacity="1.00" d=" M 250.99 643.34 C 252.46 643.34 253.93 643.40 255.40 643.53 L 255.36 644.30 C 256.31 644.77 257.26 645.26 258.21 645.76 C 260.54 647.34 263.05 648.64 265.69 649.64 L 265.57 650.30 C 266.89 650.40 268.22 650.51 269.54 650.63 L 269.41 651.38 C 272.12 651.39 274.82 651.40 277.53 651.38 L 277.51 650.62 C 279.03 650.66 280.55 650.72 282.07 650.79 C 284.63 654.57 291.17 655.14 291.14 660.68 C 288.55 660.58 285.97 660.43 283.39 660.41 L 283.46 659.29 C 283.08 659.31 282.31 659.36 281.93 659.38 C 281.44 659.02 280.45 658.30 279.96 657.94 C 277.68 656.79 275.30 655.86 272.89 655.04 C 271.21 654.38 269.52 653.77 267.84 653.14 C 263.36 652.27 258.47 651.84 254.07 653.28 C 253.41 653.37 252.09 653.56 251.43 653.65 L 251.49 654.43 C 250.13 654.47 248.77 654.51 247.41 654.56 L 247.70 655.49 C 245.75 655.52 243.82 655.53 241.88 655.52 C 242.65 653.82 243.74 652.29 245.17 651.10 C 247.31 648.66 248.94 645.84 250.99 643.34 Z" />
<path fill="#fcfcfc" opacity="1.00" d=" M 226.22 669.06 C 226.15 662.54 229.79 656.92 232.39 651.21 C 232.81 657.19 233.85 663.18 236.35 668.67 C 240.59 675.74 245.37 682.83 252.37 687.45 C 255.38 689.17 258.38 690.89 261.39 692.62 C 262.88 694.35 264.26 696.18 265.52 698.10 C 264.98 698.37 263.91 698.92 263.38 699.19 C 251.76 705.57 242.57 715.35 231.42 722.44 C 216.15 733.35 200.65 744.05 184.14 753.03 C 189.92 746.79 194.08 739.36 198.42 732.11 C 206.08 719.41 212.19 705.81 217.27 691.90 C 218.98 687.70 219.42 683.10 221.39 679.00 C 222.03 680.28 222.67 681.57 223.31 682.86 C 224.58 686.88 225.81 690.91 227.19 694.89 C 226.49 686.31 226.09 677.67 226.22 669.06 M 240.11 690.11 C 236.76 694.41 233.96 699.17 230.03 703.00 C 228.19 704.85 226.75 707.05 225.21 709.15 C 224.18 710.45 223.17 711.78 222.19 713.13 C 217.20 719.42 212.71 726.08 207.94 732.54 C 211.40 730.54 214.63 728.19 217.89 725.89 C 218.87 725.19 219.85 724.48 220.82 723.77 C 222.05 722.92 223.27 722.06 224.52 721.25 C 225.63 720.43 226.75 719.64 227.89 718.86 C 229.52 717.49 231.11 716.07 232.81 714.80 C 234.51 713.49 236.15 712.11 237.85 710.82 C 239.56 709.55 241.18 708.17 242.87 706.87 C 244.55 705.56 246.17 704.18 247.82 702.83 C 250.55 701.34 253.45 699.87 256.68 700.30 C 256.69 699.42 256.70 698.54 256.72 697.68 C 256.02 697.61 254.61 697.48 253.91 697.41 C 249.98 695.20 245.68 693.68 241.92 691.16 C 241.47 690.90 240.56 690.37 240.11 690.11 Z" />
<path fill="#fcfcfc" opacity="1.00" d=" M 253.86 658.83 C 258.26 658.40 262.66 658.51 267.07 658.85 C 269.75 659.82 272.42 660.81 275.11 661.80 C 274.65 662.44 274.20 663.10 273.75 663.76 C 271.84 665.85 269.87 667.89 268.08 670.08 C 266.39 672.41 264.77 674.80 263.01 677.08 C 262.20 678.56 261.51 680.10 261.03 681.72 C 255.00 681.93 249.87 677.95 246.74 673.08 C 246.52 670.98 246.33 668.89 246.15 666.80 C 247.91 664.62 249.76 662.44 250.77 659.79 C 251.80 659.49 252.83 659.17 253.86 658.83 Z" />
<path fill="#fcfcfc" opacity="1.00" d=" M 280.54 663.91 C 282.13 663.54 283.65 662.93 285.20 662.40 C 284.07 663.17 282.94 663.93 281.84 664.74 C 277.29 670.77 273.01 677.00 268.78 683.26 C 268.10 683.56 266.73 684.16 266.05 684.46 C 265.71 681.51 267.42 679.18 268.91 676.87 C 269.54 675.89 270.16 674.91 270.79 673.94 C 272.57 671.92 274.31 669.87 275.94 667.73 L 276.28 667.55 C 276.57 667.23 277.15 666.58 277.44 666.26 C 277.80 665.78 278.51 664.82 278.87 664.33 C 279.24 664.39 279.99 664.49 280.37 664.54 L 280.54 663.91 Z" />
<path fill="#fcfcfc" opacity="1.00" d=" M 403.08 671.28 C 405.40 670.12 408.17 670.90 410.47 669.63 C 410.44 669.88 410.39 670.37 410.37 670.62 L 411.24 670.48 C 411.44 671.88 411.68 673.28 411.93 674.70 C 414.21 674.78 416.50 674.85 418.77 674.56 L 418.23 675.39 C 422.71 675.15 428.54 678.65 431.96 674.35 C 431.76 674.81 431.34 675.73 431.14 676.19 C 428.56 677.87 426.00 679.69 423.11 680.80 C 418.97 681.89 414.65 681.27 410.43 681.59 C 410.46 688.23 411.10 695.16 408.65 701.49 C 407.11 704.38 406.14 707.53 404.52 710.38 C 403.98 706.86 404.56 703.30 404.26 699.77 C 404.07 692.99 401.82 686.40 398.44 680.57 C 397.41 679.08 395.05 677.96 395.59 675.84 C 397.71 673.78 400.41 672.46 403.08 671.28 Z" />
</g>
</svg>
