<?xml version="1.0" encoding="UTF-8" ?>
<!DOCTYPE svg PUBLIC "-//W3C//DTD SVG 1.1//EN" "http://www.w3.org/Graphics/SVG/1.1/DTD/svg11.dtd">
<svg width="1024pt" height="1536pt" viewBox="0 0 1024 1536" version="1.1" xmlns="http://www.w3.org/2000/svg">
<g id="#fcfdfdfd">
<path fill="#fcfdfd" opacity="1.00" d=" M 627.98 269.42 C 649.29 267.75 670.71 267.96 692.05 268.83 C 699.87 269.20 707.61 270.37 715.42 270.80 C 715.43 271.17 715.44 271.91 715.45 272.29 C 709.06 271.71 703.13 274.37 697.08 275.90 C 693.54 276.79 690.33 278.56 686.90 279.76 C 678.24 283.65 669.66 288.25 663.09 295.22 C 663.29 295.69 663.69 296.64 663.89 297.11 C 662.19 298.21 660.64 299.52 659.21 300.95 C 659.33 302.65 659.40 304.35 659.41 306.06 C 657.83 307.32 658.45 309.53 658.20 311.26 C 662.03 312.53 667.19 311.70 670.05 314.92 C 670.71 315.24 672.01 315.87 672.66 316.19 C 667.28 315.38 661.97 316.19 656.84 317.90 C 655.23 318.65 653.59 319.34 651.90 319.87 C 646.63 322.23 642.19 325.98 637.07 328.61 C 633.21 327.46 629.32 326.38 625.45 325.27 C 630.90 321.17 637.07 317.49 640.67 311.50 C 643.07 307.39 646.40 303.97 649.20 300.15 C 655.57 292.21 664.42 286.91 673.04 281.79 C 680.68 278.30 688.92 276.45 696.79 273.69 C 698.41 273.40 700.28 273.62 701.57 272.36 C 697.93 272.24 694.48 273.47 690.95 274.08 C 680.46 276.12 670.05 279.38 660.86 284.90 C 655.74 287.26 651.24 290.93 645.81 292.57 C 635.59 294.92 625.20 296.56 615.21 299.80 C 605.08 304.24 595.64 310.06 586.52 316.30 C 582.30 319.32 576.93 318.58 572.07 319.25 C 558.10 321.21 544.02 322.32 530.05 324.34 L 530.26 326.15 C 539.12 326.55 548.40 326.01 556.74 329.54 C 555.99 329.51 554.50 329.47 553.75 329.44 C 553.51 329.81 553.03 330.53 552.79 330.90 C 547.25 334.88 540.16 332.72 533.90 333.88 C 522.28 335.89 510.49 336.81 498.94 339.23 C 487.86 341.41 476.85 343.90 465.89 346.57 C 442.79 353.22 419.90 360.79 397.92 370.58 C 405.11 368.78 412.15 366.45 419.20 364.15 C 433.52 360.00 447.99 356.38 462.44 352.67 C 496.74 345.26 531.83 340.31 567.00 341.38 C 573.18 341.98 579.42 342.35 585.47 343.85 C 590.44 345.10 594.24 348.73 597.98 352.02 C 603.36 356.22 605.38 363.12 610.08 367.92 C 611.05 369.63 613.15 369.22 614.80 369.34 C 615.76 366.24 619.25 369.03 621.55 368.63 C 621.87 369.85 622.16 371.06 622.45 372.30 C 623.49 373.47 624.61 374.62 626.23 374.94 C 626.23 375.31 626.22 376.05 626.21 376.42 C 628.47 376.67 630.75 376.77 633.02 376.72 C 634.43 380.61 639.67 380.35 642.93 382.04 C 645.05 383.96 646.67 386.34 648.36 388.62 C 648.67 392.23 648.77 395.86 648.39 399.47 L 647.81 399.47 C 646.48 402.83 644.11 405.67 641.82 408.43 C 639.57 406.68 638.65 403.83 639.25 401.06 C 640.15 395.38 639.80 388.68 635.54 384.36 C 631.74 383.15 627.77 383.70 623.94 383.04 C 621.02 382.70 619.41 380.19 617.53 378.28 L 617.54 377.41 L 616.59 377.64 C 615.95 374.90 615.64 371.99 614.10 369.57 C 610.61 370.02 607.34 369.08 604.17 367.75 C 592.54 365.68 580.86 363.49 569.03 363.10 C 562.55 363.26 555.88 363.21 549.75 365.62 C 545.89 368.93 542.51 372.77 539.07 376.50 C 523.40 375.87 507.74 377.05 492.10 377.95 C 457.93 380.59 423.94 386.24 390.90 395.41 C 351.13 405.91 313.00 422.65 278.55 445.12 C 255.89 460.01 234.91 477.50 216.63 497.55 C 207.75 506.80 199.91 516.99 192.70 527.58 C 188.49 534.54 184.02 541.46 181.44 549.23 C 181.27 545.82 182.34 542.59 183.17 539.34 C 191.06 510.20 207.48 484.34 225.21 460.25 C 231.07 453.15 236.76 445.90 242.88 439.02 C 270.82 407.72 304.86 382.58 340.22 360.30 C 366.14 344.90 393.38 331.82 421.05 319.87 C 440.73 311.84 460.64 304.28 480.98 298.08 C 503.75 291.11 526.86 285.26 550.09 280.05 C 567.24 276.52 584.46 273.18 601.90 271.49 C 610.61 271.00 619.26 269.72 627.98 269.42 Z" />
<path fill="#fcfdfd" opacity="1.00" d=" M 626.12 302.06 C 629.69 301.39 633.33 301.68 636.94 301.89 C 636.08 302.85 635.10 303.68 633.79 303.91 C 622.59 307.65 613.97 316.13 603.29 320.88 C 601.98 321.70 600.39 321.21 598.96 321.24 C 595.93 319.85 592.52 320.58 589.33 320.61 C 594.64 316.20 599.04 310.62 605.35 307.54 C 611.62 303.72 619.08 303.33 626.12 302.06 Z" />
<path fill="#fcfdfd" opacity="1.00" d=" M 715.10 304.24 C 721.56 302.73 728.27 301.64 734.92 301.18 C 733.51 302.41 732.06 303.59 730.58 304.71 C 727.37 307.05 725.04 311.11 725.36 315.12 C 723.02 315.72 723.44 318.26 723.54 320.10 C 725.05 323.89 726.81 327.55 728.86 331.10 C 730.47 332.61 732.35 333.75 734.61 334.00 C 733.98 333.11 733.34 332.23 732.70 331.37 C 729.54 329.66 729.26 325.77 726.82 323.50 C 727.42 323.58 728.64 323.73 729.25 323.81 C 729.41 323.10 729.74 321.67 729.90 320.96 C 730.64 320.36 731.41 319.79 732.21 319.24 C 732.25 317.76 733.83 317.56 734.78 316.87 C 733.01 318.44 733.18 320.97 733.44 323.11 C 733.14 323.67 732.53 324.79 732.22 325.35 L 730.12 323.36 C 730.64 324.73 731.68 327.46 732.19 328.82 C 732.53 329.04 733.21 329.49 733.55 329.71 L 733.50 330.26 C 734.50 330.72 735.50 331.18 736.51 331.66 L 736.67 332.17 C 737.25 332.43 738.42 332.95 739.00 333.21 C 742.06 334.04 745.20 333.64 748.30 333.33 C 749.87 332.55 751.41 331.68 752.66 330.41 C 754.15 329.83 753.40 332.27 753.52 333.08 C 747.88 335.68 742.64 341.06 735.87 339.04 C 734.59 338.68 733.31 338.37 732.03 338.10 C 730.93 337.69 729.83 337.29 728.77 336.86 C 728.21 336.78 727.10 336.63 726.55 336.55 C 724.68 334.65 722.74 332.80 721.09 330.71 L 720.73 330.45 C 720.22 329.57 719.74 328.68 719.26 327.80 C 718.50 326.22 717.68 324.68 716.80 323.18 C 716.35 321.68 715.64 320.28 714.71 319.05 C 714.77 314.57 709.40 314.64 706.18 314.75 C 706.19 318.40 710.15 321.36 708.02 325.04 C 707.89 324.61 707.65 323.75 707.52 323.32 L 706.28 323.87 L 706.53 322.71 C 705.97 322.43 704.86 321.86 704.30 321.57 L 704.42 320.39 C 703.96 320.52 703.04 320.80 702.58 320.94 C 703.13 319.84 703.52 318.69 703.78 317.50 C 702.96 317.52 701.33 317.56 700.51 317.58 L 700.68 316.62 C 699.33 316.60 698.54 315.90 698.30 314.51 L 697.33 314.57 L 697.83 313.10 C 697.38 313.13 696.48 313.19 696.03 313.23 C 697.82 312.19 699.65 311.18 701.63 310.49 L 701.58 309.72 C 703.44 308.84 706.36 309.00 706.99 306.62 C 707.50 306.54 708.53 306.38 709.05 306.30 C 711.00 305.44 713.07 304.90 715.10 304.24 Z" />
<path fill="#fcfdfd" opacity="1.00" d=" M 779.94 310.81 C 784.58 308.90 789.31 307.19 793.77 304.86 C 792.00 315.13 787.90 324.75 784.11 334.39 C 778.75 347.51 771.32 359.63 763.61 371.46 C 757.69 379.73 751.07 387.54 743.57 394.43 C 735.76 400.98 727.67 407.99 717.60 410.64 C 724.08 402.74 732.05 395.73 736.92 386.58 L 737.41 386.56 C 737.84 385.63 738.27 384.70 738.72 383.78 C 740.11 381.16 742.04 378.90 743.81 376.54 L 744.26 376.52 C 744.75 375.60 745.25 374.69 745.77 373.78 C 746.02 373.22 746.51 372.10 746.76 371.54 L 747.28 371.48 C 747.89 370.39 748.56 369.33 749.25 368.29 C 748.63 368.31 747.40 368.33 746.78 368.35 C 746.75 365.56 746.17 362.65 747.16 359.96 C 746.71 357.64 746.83 355.13 745.65 353.02 C 745.44 350.33 743.82 346.37 747.29 345.20 C 751.27 342.30 754.69 338.67 757.63 334.74 C 760.92 330.34 762.61 325.05 764.46 319.95 C 765.21 317.37 767.77 316.11 769.86 314.76 C 772.03 314.03 774.09 313.00 776.22 312.14 C 777.44 311.70 778.70 311.27 779.94 310.81 Z" />
<path fill="#fcfdfd" opacity="1.00" d=" M 678.95 315.35 C 682.93 314.23 686.32 316.83 689.91 318.05 C 694.31 321.61 699.52 324.53 702.24 329.73 C 702.68 330.88 703.18 332.03 703.71 333.16 C 706.39 338.39 703.39 344.21 699.78 348.15 L 699.22 350.39 C 701.06 349.64 702.52 348.39 703.59 346.65 C 705.28 345.99 706.97 345.34 708.69 344.70 L 708.46 346.50 C 710.97 346.73 713.49 346.54 716.00 346.28 C 714.62 344.90 713.52 342.58 711.15 343.60 C 711.10 342.01 713.21 339.18 710.34 339.08 C 710.36 337.47 710.12 335.75 711.05 334.33 C 712.42 333.32 713.78 332.29 715.11 331.22 C 716.76 332.82 718.40 334.44 720.27 335.80 C 724.55 338.79 728.58 342.67 733.77 343.90 C 732.36 346.48 729.58 347.62 727.31 349.26 C 726.38 349.79 725.46 350.31 724.54 350.82 L 724.57 351.53 L 723.47 351.52 C 723.49 351.95 723.51 352.82 723.52 353.25 C 719.70 353.94 715.83 353.09 712.01 353.69 C 709.34 354.05 706.63 353.74 703.97 353.58 C 703.24 353.07 702.53 352.56 701.82 352.07 C 701.81 351.61 701.78 350.69 701.77 350.23 C 701.04 350.31 699.59 350.48 698.86 350.56 C 698.61 352.03 697.22 352.62 696.18 353.44 C 695.40 353.05 694.63 352.65 693.88 352.24 C 694.28 348.19 695.66 343.62 693.73 339.85 C 693.50 337.91 693.61 335.96 693.51 334.03 C 693.35 331.91 690.71 331.01 688.94 331.50 C 688.28 330.66 687.63 329.83 686.99 329.00 C 685.98 327.92 684.96 326.84 683.98 325.74 C 677.62 322.24 669.68 321.45 662.92 324.30 C 661.18 325.07 659.45 325.87 657.72 326.66 C 656.69 327.69 655.69 328.73 654.72 329.80 C 653.10 332.62 651.72 335.56 650.66 338.64 C 649.96 342.14 650.32 345.75 652.12 348.88 C 653.58 353.52 657.81 356.06 661.46 358.84 L 661.58 359.67 C 661.95 359.62 662.70 359.51 663.08 359.46 C 667.49 362.92 674.18 361.89 678.82 359.26 C 680.77 357.75 683.30 356.62 684.12 354.06 C 684.62 354.75 685.15 355.45 685.68 356.15 C 683.15 359.18 680.25 362.15 676.45 363.49 C 672.55 365.15 668.20 364.53 664.10 364.39 C 658.86 362.12 653.62 359.55 649.56 355.43 C 645.38 347.82 644.68 337.85 649.55 330.39 C 652.61 325.46 657.50 320.67 663.55 320.19 L 663.31 319.45 C 667.47 319.33 671.63 318.97 675.79 319.48 L 675.45 320.56 C 676.24 320.51 677.83 320.40 678.63 320.35 L 678.66 321.14 C 682.69 320.93 684.95 325.04 687.79 327.31 C 688.51 328.62 689.19 329.95 689.88 331.30 C 690.52 330.90 691.16 330.50 691.81 330.11 C 688.11 324.68 683.19 320.29 678.95 315.35 Z" />
<path fill="#fcfdfd" opacity="1.00" d=" M 664.86 327.62 C 669.23 326.87 673.84 327.15 677.91 329.03 C 680.69 330.04 682.91 331.98 685.16 333.83 C 688.33 336.21 688.45 340.33 688.80 343.94 C 688.89 348.02 687.89 352.03 685.80 355.55 C 685.31 354.52 684.88 353.47 684.53 352.41 C 686.22 347.24 686.57 341.15 683.27 336.53 C 681.83 335.37 680.44 334.15 679.14 332.85 C 673.98 331.30 667.83 329.75 663.02 333.04 C 659.13 335.14 656.47 339.69 657.31 344.16 C 657.35 347.09 658.89 349.64 659.81 352.35 C 660.47 352.90 661.14 353.44 661.82 353.99 L 661.59 354.85 C 659.91 353.67 658.22 352.50 656.49 351.42 C 654.05 346.43 653.45 340.30 655.48 335.08 C 657.70 331.53 661.51 329.86 664.86 327.62 Z" />
<path fill="#fcfdfd" opacity="1.00" d=" M 559.28 332.44 C 565.57 328.17 573.57 327.67 580.94 327.75 C 582.78 328.89 584.98 327.39 586.99 327.73 C 597.03 328.40 607.15 328.13 617.10 329.84 C 623.80 331.59 630.84 331.55 637.48 333.59 C 639.48 336.50 638.86 340.32 639.55 343.64 L 640.33 343.25 C 639.68 348.13 642.17 352.55 644.21 356.78 C 645.55 360.29 647.35 363.59 649.20 366.86 C 643.05 366.60 637.06 364.92 630.93 364.51 C 629.94 362.83 629.02 361.12 628.22 359.35 C 627.78 359.44 626.90 359.62 626.45 359.70 C 626.47 358.96 626.49 357.48 626.51 356.74 C 625.90 355.92 625.31 355.10 624.73 354.28 C 623.69 353.23 622.64 352.20 621.59 351.19 L 621.60 350.43 L 620.54 350.47 L 620.55 349.35 L 619.44 349.52 L 619.43 348.39 C 618.96 348.43 618.04 348.50 617.58 348.53 L 617.64 347.58 C 616.10 346.64 614.54 345.75 612.92 344.99 C 611.87 344.39 610.85 343.78 609.82 343.18 C 606.87 342.23 603.90 341.21 601.25 339.60 C 594.75 336.56 587.54 335.54 580.61 333.92 C 575.08 333.58 569.58 332.13 564.02 332.86 C 562.46 332.86 560.54 333.77 559.28 332.44 Z" />
<path fill="#fcfdfd" opacity="1.00" d=" M 598.34 343.66 C 599.15 343.33 599.96 342.99 600.78 342.65 C 603.01 343.31 605.33 343.58 607.66 343.57 L 607.49 344.31 C 610.28 344.87 612.46 346.82 614.91 348.15 C 617.00 350.04 618.99 352.04 620.86 354.16 C 621.50 355.27 622.12 356.41 622.72 357.57 L 623.40 357.53 C 623.53 358.50 623.78 360.45 623.91 361.42 C 619.66 360.99 614.21 363.59 610.97 359.88 C 605.84 355.31 600.96 350.12 598.34 343.66 Z" />
<path fill="#fcfdfd" opacity="1.00" d=" M 733.42 354.87 C 737.52 357.48 741.15 361.97 740.85 367.09 C 740.79 370.79 740.71 374.48 740.57 378.18 C 739.52 379.04 739.16 380.21 739.49 381.68 L 738.40 381.40 L 738.43 382.28 C 738.03 383.00 737.22 384.43 736.82 385.15 C 736.67 384.65 736.36 383.67 736.21 383.17 C 737.56 377.86 737.94 372.33 737.55 366.87 C 736.85 362.59 732.83 359.46 733.42 354.87 Z" />
<path fill="#fcfdfd" opacity="1.00" d=" M 700.29 360.12 C 700.12 357.45 703.18 357.38 705.06 356.87 C 707.45 356.02 709.78 357.33 712.14 357.69 C 714.89 358.23 717.67 357.47 720.42 357.24 C 719.87 357.74 718.79 358.74 718.24 359.24 C 718.31 359.60 718.44 360.32 718.50 360.68 C 718.00 360.61 716.99 360.47 716.49 360.40 C 716.46 360.85 716.41 361.76 716.38 362.21 C 713.34 362.34 710.20 362.39 707.34 363.46 C 705.75 364.70 704.53 366.42 704.18 368.44 C 703.33 370.20 702.57 372.00 701.78 373.79 C 701.57 374.47 701.16 375.85 700.95 376.53 C 702.03 376.52 704.20 376.48 705.29 376.46 C 704.90 376.73 704.12 377.28 703.72 377.56 C 702.76 380.07 701.34 382.36 700.21 384.79 C 698.07 386.34 695.86 387.94 693.06 387.57 C 691.02 388.77 688.84 389.91 686.39 389.56 L 686.44 390.55 C 683.67 390.76 680.96 390.34 678.39 389.35 L 678.57 388.50 L 677.92 388.35 C 677.28 386.59 675.48 386.73 673.96 386.73 C 674.42 386.95 675.35 387.39 675.81 387.61 C 675.64 389.06 675.47 390.53 675.30 391.99 C 674.79 392.94 674.32 393.92 673.90 394.91 C 673.59 396.01 673.29 397.11 672.98 398.21 C 672.45 400.46 672.28 402.77 672.13 405.08 C 671.70 404.65 670.85 403.78 670.43 403.34 C 670.30 405.94 670.22 408.54 670.26 411.14 C 670.02 411.80 669.54 413.12 669.29 413.78 C 668.67 413.37 667.43 412.55 666.81 412.14 C 665.36 411.43 663.93 410.61 663.09 409.20 C 662.68 409.26 661.87 409.39 661.46 409.45 C 661.53 408.29 661.44 407.16 661.18 406.06 C 661.07 406.42 660.85 407.15 660.73 407.51 L 658.58 408.77 C 658.57 407.53 658.54 405.05 658.53 403.81 C 658.49 404.49 658.42 405.85 658.38 406.52 L 656.59 406.65 C 655.81 405.22 654.89 403.72 655.98 402.16 C 657.03 402.71 658.08 403.29 659.11 403.91 C 659.43 402.28 659.18 400.36 660.44 399.08 C 660.66 397.36 660.68 395.63 660.56 393.92 C 658.23 390.31 657.24 385.98 654.53 382.57 C 653.24 381.22 653.39 379.32 653.24 377.61 C 652.93 377.40 652.32 376.96 652.02 376.74 L 653.62 376.51 C 653.53 374.62 653.49 372.75 653.41 370.87 C 652.33 370.16 652.78 369.02 652.85 368.04 C 652.99 368.40 653.26 369.11 653.40 369.47 C 655.99 369.39 658.49 370.14 660.85 371.18 C 661.67 371.75 662.49 372.34 663.32 372.93 C 662.40 374.89 662.49 377.07 662.60 379.18 C 663.84 380.61 665.10 382.03 666.52 383.30 C 666.46 384.24 666.34 386.13 666.28 387.07 C 668.42 385.63 670.53 384.13 672.63 382.61 C 674.45 382.56 676.26 382.49 678.10 382.45 C 679.76 381.69 681.42 380.91 683.06 380.07 C 683.63 379.87 684.78 379.45 685.36 379.24 L 685.54 378.80 C 688.82 376.38 693.38 374.51 694.75 370.39 L 695.29 370.54 C 695.92 366.63 698.84 363.71 700.29 360.12 Z" />
<path fill="#fcfdfd" opacity="1.00" d=" M 551.97 366.99 C 562.08 364.34 572.75 364.92 583.03 366.20 C 594.61 367.99 606.58 372.41 614.30 381.62 C 615.57 383.83 617.69 386.44 617.09 389.04 C 613.20 387.49 610.24 384.05 606.20 382.63 C 594.29 378.35 581.63 376.28 569.00 376.14 C 560.26 374.98 551.50 376.76 542.74 376.17 C 544.49 372.09 548.41 369.41 551.97 366.99 Z" />
<path fill="#fcfdfd" opacity="1.00" d=" M 681.59 392.45 C 681.73 392.04 682.00 391.22 682.14 390.81 C 683.15 394.18 682.05 397.39 680.71 400.46 C 681.21 400.38 682.20 400.21 682.70 400.13 C 680.36 402.81 681.09 406.71 679.83 409.87 C 677.39 416.04 677.64 422.80 676.24 429.21 C 675.59 432.69 673.83 435.93 674.05 439.56 C 673.73 439.52 673.10 439.45 672.78 439.41 C 672.41 440.34 672.02 441.26 671.64 442.19 C 671.65 440.74 671.71 439.29 671.77 437.86 C 672.15 436.86 672.54 435.86 672.92 434.87 C 673.38 433.24 673.68 431.57 673.87 429.90 L 673.81 429.19 C 673.40 427.43 673.10 425.62 672.87 423.85 C 673.10 425.25 673.69 426.26 674.66 426.86 C 674.83 426.16 675.17 424.74 675.33 424.04 C 675.47 421.34 675.43 418.65 675.72 415.97 C 677.21 413.85 676.38 411.15 676.98 408.79 C 677.48 406.20 677.61 403.57 677.92 400.96 C 678.63 398.14 678.30 395.20 678.57 392.33 C 679.33 392.36 680.84 392.42 681.59 392.45 Z" />
<path fill="#fcfdfd" opacity="1.00" d=" M 691.39 401.10 L 693.52 401.37 C 694.01 406.06 691.70 410.47 692.68 415.11 C 692.52 417.13 691.37 418.83 690.46 420.57 L 688.30 420.78 C 688.31 419.84 688.35 417.98 688.37 417.05 L 689.43 417.69 C 689.48 416.34 689.55 414.99 689.64 413.65 C 690.20 413.26 691.32 412.48 691.88 412.08 C 691.02 410.60 690.42 409.02 690.07 407.36 C 689.72 408.02 689.02 409.36 688.67 410.02 C 688.00 407.92 687.28 405.81 687.31 403.59 C 688.08 403.57 689.61 403.54 690.38 403.52 C 690.41 404.80 690.47 406.09 690.55 407.37 C 690.96 405.30 691.28 403.21 691.39 401.10 Z" />
<path fill="#fcfdfd" opacity="1.00" d=" M 674.00 406.75 C 674.59 409.05 674.48 411.45 674.61 413.81 L 673.19 413.06 C 673.28 415.51 673.51 417.95 673.65 420.40 C 673.08 419.60 672.54 418.78 672.02 417.96 C 671.47 416.49 670.86 415.03 670.26 413.60 C 672.77 413.92 672.45 411.53 672.75 409.89 C 673.06 409.10 673.69 407.53 674.00 406.75 Z" />
<path fill="#fcfdfd" opacity="1.00" d=" M 650.41 410.01 C 651.84 407.80 654.66 408.40 656.89 408.01 L 656.47 409.13 C 660.91 408.67 663.53 412.82 666.53 415.38 C 666.85 415.64 667.49 416.18 667.81 416.45 L 668.41 416.56 C 669.61 418.90 669.61 421.51 669.69 424.08 C 670.27 425.30 670.76 426.56 671.29 427.82 C 671.66 432.95 670.99 437.94 669.16 442.74 C 668.79 442.72 668.05 442.67 667.69 442.64 C 668.51 438.04 665.62 434.17 663.97 430.13 C 663.28 429.11 662.57 428.10 661.87 427.12 C 660.44 425.05 659.29 422.82 658.27 420.54 L 657.67 420.61 L 657.46 419.46 L 656.11 419.51 L 656.58 418.20 C 656.07 418.33 655.04 418.58 654.52 418.71 C 654.48 417.89 654.39 416.25 654.35 415.43 L 653.31 415.63 L 653.57 414.82 C 651.71 413.99 649.49 412.34 650.41 410.01 Z" />
<path fill="#fcfdfd" opacity="1.00" d=" M 650.61 418.92 C 651.34 418.26 652.81 416.93 653.54 416.26 C 653.24 417.99 653.82 419.18 655.26 419.82 C 655.46 420.33 655.87 421.34 656.07 421.84 C 658.06 424.32 659.71 427.04 661.13 429.87 C 661.41 430.39 661.96 431.42 662.24 431.94 C 663.02 434.34 663.79 436.78 665.12 438.96 C 665.44 442.15 667.14 446.45 664.35 448.94 C 664.43 449.32 664.59 450.08 664.67 450.46 L 663.75 450.52 C 664.08 453.13 661.62 452.82 659.83 453.09 C 660.57 453.09 662.06 453.10 662.80 453.10 C 662.67 454.22 662.42 456.47 662.29 457.59 C 661.82 457.60 660.87 457.62 660.40 457.63 L 660.47 456.77 C 660.20 456.49 659.64 455.93 659.36 455.65 C 658.28 454.31 657.20 452.98 656.16 451.62 L 655.71 451.44 C 655.48 450.88 655.02 449.74 654.79 449.18 C 654.69 448.52 654.48 447.21 654.38 446.56 L 653.84 446.51 C 653.23 444.51 652.47 442.55 652.18 440.48 L 651.44 440.71 C 651.43 439.34 651.42 437.98 651.41 436.63 L 650.69 436.60 C 649.87 433.41 650.07 429.46 647.47 427.08 C 647.56 424.32 646.06 420.07 649.76 418.96 C 649.72 419.83 649.65 421.58 649.62 422.45 C 649.94 421.27 650.27 420.09 650.61 418.92 Z" />
<path fill="#fcfdfd" opacity="1.00" d=" M 687.66 425.53 C 689.13 427.00 689.55 428.82 688.65 430.76 L 687.18 430.19 C 687.31 431.04 687.56 432.73 687.69 433.57 C 687.12 433.63 685.97 433.74 685.40 433.80 C 685.98 432.03 686.46 430.23 686.71 428.39 L 687.41 428.48 C 687.47 427.74 687.60 426.27 687.66 425.53 Z" />
<path fill="#fcfdfd" opacity="1.00" d=" M 638.56 432.44 C 639.91 431.99 641.26 431.55 642.62 431.10 C 642.92 434.71 643.82 438.28 643.80 441.92 C 643.52 444.87 642.20 447.64 642.37 450.66 C 642.12 450.64 641.61 450.61 641.36 450.60 C 641.42 451.63 641.54 453.70 641.60 454.74 L 640.60 454.40 C 641.49 461.35 637.44 467.49 636.41 474.20 C 636.04 470.71 636.59 467.32 636.97 463.88 C 638.08 458.21 637.21 452.40 636.09 446.81 C 635.19 443.49 634.29 440.14 634.42 436.67 L 635.59 436.58 L 635.37 435.76 C 635.71 435.41 636.39 434.70 636.73 434.35 L 637.70 434.69 L 637.32 433.64 L 638.50 433.46 L 638.56 432.44 Z" />
<path fill="#fcfdfd" opacity="1.00" d=" M 685.20 436.93 C 685.43 436.37 685.87 435.24 686.09 434.68 C 686.46 437.58 685.50 440.38 683.98 442.82 C 681.10 445.41 678.53 448.45 677.10 452.09 C 677.80 450.12 676.60 447.13 679.10 446.23 C 680.37 444.11 681.65 441.98 682.60 439.69 C 683.43 438.74 684.29 437.81 685.20 436.93 Z" />
<path fill="#fcfdfd" opacity="1.00" d=" M 669.60 447.01 C 669.70 445.31 669.62 443.55 670.38 441.98 C 670.32 443.24 670.19 445.76 670.12 447.02 L 671.45 446.43 C 670.71 456.59 673.84 467.58 668.70 477.04 C 668.62 473.81 667.47 470.71 666.85 467.60 C 666.53 470.10 666.24 472.61 665.97 475.13 L 665.00 472.82 C 664.27 473.86 663.52 474.89 662.78 475.92 C 661.70 478.85 660.56 481.75 659.33 484.63 L 658.70 484.37 C 657.99 487.60 656.06 490.44 654.73 493.43 C 654.67 492.79 654.56 491.51 654.50 490.86 C 651.95 490.46 655.12 487.48 655.00 485.96 C 656.02 485.03 656.98 484.02 657.76 482.87 C 658.24 481.91 658.77 480.98 659.34 480.07 C 659.45 479.53 659.68 478.44 659.80 477.89 C 660.18 476.87 660.58 475.86 660.98 474.85 C 661.33 473.69 661.63 472.52 661.87 471.34 C 662.78 471.46 663.70 471.58 664.63 471.62 C 663.66 468.26 665.87 463.73 663.33 461.03 C 663.61 460.56 664.17 459.62 664.45 459.15 C 664.49 458.59 664.59 457.46 664.63 456.89 C 665.60 454.64 666.46 452.35 667.24 450.03 C 667.34 448.75 667.47 447.47 667.60 446.20 C 668.10 446.40 669.10 446.81 669.60 447.01 Z" />
<path fill="#fcfdfd" opacity="1.00" d=" M 648.22 458.95 C 647.79 453.24 650.48 448.02 651.95 442.65 C 652.53 444.87 652.65 447.19 652.52 449.48 L 653.28 449.48 C 653.88 450.94 654.54 452.39 655.23 453.83 C 655.71 454.66 656.32 455.39 657.06 456.02 C 657.39 456.97 657.72 457.93 658.05 458.90 C 658.59 461.29 659.80 463.91 658.05 466.11 C 657.06 467.98 656.72 470.52 658.62 471.99 C 658.26 472.61 657.53 473.85 657.17 474.47 C 656.85 474.46 656.21 474.43 655.90 474.42 C 654.94 472.63 653.87 470.92 652.82 469.21 C 652.56 468.98 652.03 468.52 651.76 468.29 C 651.45 468.00 650.83 467.44 650.52 467.16 C 650.54 466.78 650.57 466.02 650.58 465.64 L 649.21 465.61 C 649.27 465.24 649.40 464.49 649.47 464.11 C 647.60 463.07 648.51 460.65 648.22 458.95 Z" />
<path fill="#fcfdfd" opacity="1.00" d=" M 646.57 465.40 L 648.96 465.31 C 648.82 465.80 648.54 466.78 648.40 467.27 L 649.42 467.31 C 649.66 467.98 650.12 469.32 650.35 469.98 C 650.41 470.26 650.51 470.80 650.56 471.08 C 651.14 471.90 651.72 472.74 652.29 473.59 C 652.60 474.84 653.04 476.04 653.62 477.21 C 653.59 479.29 653.35 481.36 653.25 483.45 L 652.64 483.55 C 652.53 484.21 652.29 485.52 652.18 486.18 C 651.79 487.57 651.53 488.99 651.36 490.43 C 649.67 492.46 647.61 494.14 645.51 495.74 L 645.41 496.20 C 644.08 496.99 642.79 497.83 641.48 498.65 L 641.35 499.10 C 640.27 499.58 639.50 500.37 639.04 501.46 C 638.65 501.44 637.86 501.39 637.47 501.37 L 637.64 502.68 L 636.41 502.28 L 636.41 503.12 C 635.55 503.56 633.83 504.42 632.96 504.86 C 636.35 498.91 639.02 492.61 641.20 486.12 C 642.16 483.08 642.95 479.98 643.86 476.93 C 644.26 475.60 644.53 474.24 644.82 472.89 C 645.57 470.44 646.46 467.99 646.57 465.40 Z" />
<path fill="#fcfdfd" opacity="1.00" d=" M 651.78 495.85 C 652.05 495.43 652.59 494.58 652.85 494.16 L 654.96 494.29 C 654.18 499.75 653.11 505.22 651.42 510.48 C 650.52 510.53 648.74 510.64 647.85 510.69 C 648.12 509.80 648.67 508.01 648.94 507.12 C 649.33 507.21 650.11 507.38 650.51 507.47 C 650.50 504.92 650.54 502.37 650.80 499.84 C 651.18 498.52 651.50 497.19 651.78 495.85 Z" />
<path fill="#fcfdfd" opacity="1.00" d=" M 640.81 501.75 C 643.83 500.26 646.51 498.17 649.58 496.76 C 649.36 497.56 648.91 499.17 648.68 499.97 C 648.45 501.34 648.27 502.72 648.09 504.11 C 647.62 505.43 647.32 506.80 647.14 508.20 C 645.92 516.81 633.04 514.48 632.36 523.35 C 632.38 517.38 633.82 511.39 635.76 505.70 L 636.64 505.64 L 636.66 504.92 C 638.08 503.91 639.44 502.83 640.81 501.75 Z" />
<path fill="#fcfdfd" opacity="1.00" d=" M 640.86 518.81 C 644.51 517.20 647.24 514.11 650.93 512.58 C 650.43 514.74 649.36 516.71 648.38 518.69 L 647.51 518.31 C 647.36 525.96 644.30 533.12 642.75 540.54 C 638.49 557.33 634.66 574.24 629.82 590.88 C 626.75 603.02 623.96 615.25 620.30 627.23 C 619.73 629.08 619.40 631.00 618.90 632.88 C 618.39 635.24 617.72 637.58 616.88 639.85 C 616.25 641.85 615.55 643.83 614.90 645.83 C 614.23 649.54 612.97 653.12 611.74 656.68 C 611.50 657.75 611.23 658.82 610.94 659.89 C 604.81 679.15 598.52 698.37 592.30 717.60 C 585.63 735.44 580.13 753.69 573.48 771.53 C 567.87 786.82 562.51 802.20 556.22 817.21 C 555.48 818.92 554.55 820.59 554.31 822.47 L 553.54 822.47 C 553.44 823.84 553.35 825.25 553.27 826.65 C 552.85 826.56 552.00 826.40 551.58 826.32 C 551.60 827.22 551.64 829.02 551.66 829.92 L 550.65 829.25 C 550.30 830.11 549.62 831.81 549.28 832.67 C 549.69 833.41 550.90 834.13 550.31 835.14 C 547.52 843.92 544.48 852.64 540.86 861.12 C 539.95 862.51 540.41 864.16 540.50 865.72 C 538.57 860.93 540.58 855.85 542.04 851.24 C 544.79 845.96 546.48 840.18 549.49 835.03 C 549.02 834.51 548.55 833.99 548.09 833.49 C 547.55 834.72 546.95 835.93 546.32 837.13 C 544.70 838.23 543.37 839.66 542.12 841.15 C 540.25 844.98 537.16 848.54 537.15 853.00 C 534.58 851.61 532.33 849.51 529.36 849.03 C 530.66 850.17 532.01 851.40 533.26 852.66 C 533.94 854.26 534.78 855.84 536.17 856.97 C 538.06 860.35 536.30 863.93 536.75 867.52 C 537.78 865.96 538.46 864.27 538.78 862.45 C 540.74 866.19 537.37 870.06 536.90 873.84 C 534.13 880.55 531.95 887.49 529.02 894.14 C 528.30 895.88 527.79 897.70 527.37 899.54 L 526.69 899.42 C 526.77 903.17 524.65 906.44 523.55 909.92 C 521.54 915.73 519.43 921.54 516.34 926.88 C 516.02 923.65 516.81 920.60 517.73 917.58 L 518.69 917.42 C 518.64 916.96 518.53 916.03 518.48 915.56 L 519.32 915.53 C 519.37 913.82 520.01 912.27 520.70 910.76 C 521.82 908.17 522.82 905.54 523.77 902.89 C 523.97 902.34 524.38 901.25 524.59 900.70 C 527.09 900.54 525.13 899.00 524.48 897.97 C 525.10 896.49 525.94 895.14 526.75 893.77 C 527.22 892.81 527.70 891.85 528.18 890.91 C 528.41 889.33 528.37 887.76 528.27 886.20 C 528.75 886.38 529.70 886.73 530.17 886.91 C 530.42 885.22 530.61 883.55 530.79 881.87 C 532.48 878.42 533.87 874.74 536.69 872.01 C 536.40 871.49 535.84 870.47 535.55 869.95 C 536.01 869.36 536.92 868.18 537.38 867.60 C 536.21 867.57 535.04 867.54 533.89 867.51 C 532.54 864.73 530.07 862.84 527.59 861.13 L 527.49 860.28 C 527.11 860.30 526.36 860.36 525.98 860.39 C 525.42 858.15 523.18 858.32 521.38 858.37 C 521.03 859.51 520.70 860.66 520.39 861.82 L 521.69 860.25 C 522.49 860.45 524.08 860.86 524.88 861.07 C 526.19 862.43 527.60 863.71 529.05 864.96 C 529.36 865.42 529.99 866.34 530.31 866.80 C 531.40 868.39 531.60 870.23 531.31 872.13 C 530.88 873.11 530.47 874.11 530.10 875.13 C 529.24 877.05 528.47 879.01 527.94 881.05 C 527.76 881.68 527.41 882.94 527.24 883.57 C 526.20 881.99 525.08 880.52 523.95 879.05 C 523.58 878.84 522.85 878.42 522.48 878.21 L 522.41 877.27 C 521.95 877.34 521.02 877.49 520.55 877.56 L 520.42 876.82 C 519.24 876.44 518.09 876.01 516.96 875.56 C 515.92 875.47 513.83 875.30 512.79 875.21 C 513.52 874.98 514.98 874.51 515.71 874.28 C 515.63 873.60 515.46 872.24 515.38 871.57 L 516.20 871.46 C 516.91 868.84 518.18 866.42 519.36 864.00 C 519.91 861.55 520.23 858.91 521.90 856.93 C 522.37 855.92 522.91 854.95 523.52 854.02 C 523.54 853.67 523.58 852.97 523.60 852.62 L 525.16 852.36 C 524.85 851.89 524.22 850.94 523.91 850.47 L 528.64 850.94 C 527.59 850.50 525.48 849.62 524.43 849.18 C 525.04 848.55 526.26 847.29 526.86 846.66 C 527.37 845.76 527.89 844.88 528.44 844.03 C 528.47 843.36 528.54 842.02 528.57 841.34 L 529.70 841.54 C 529.67 841.14 529.61 840.36 529.58 839.97 C 530.48 838.31 531.20 836.57 531.75 834.77 C 533.35 831.50 534.53 828.03 536.39 824.89 C 536.42 822.00 537.43 819.30 538.68 816.74 C 539.53 815.16 540.28 813.52 540.95 811.87 C 543.86 806.13 544.97 799.70 547.89 793.96 C 548.88 791.61 549.88 789.26 550.80 786.88 C 551.18 785.88 551.56 784.88 551.93 783.89 C 552.24 782.88 552.55 781.88 552.86 780.88 C 553.98 778.23 554.98 775.54 555.90 772.83 C 557.69 768.24 559.53 763.66 561.00 758.96 C 561.94 756.27 562.77 753.55 564.00 750.98 C 564.34 749.96 564.68 748.95 565.03 747.95 C 565.33 746.92 565.64 745.91 565.95 744.90 C 566.29 743.93 566.63 742.96 566.98 742.01 C 567.85 739.28 568.84 736.60 569.91 733.95 C 570.25 732.95 570.60 731.95 570.95 730.96 C 571.62 728.94 572.25 726.91 572.87 724.89 C 573.22 723.89 573.56 722.90 573.89 721.91 C 574.27 720.91 574.65 719.93 575.04 718.95 C 575.33 717.94 575.64 716.93 575.95 715.94 C 576.26 714.94 576.55 713.94 576.85 712.94 C 577.22 711.95 577.60 710.96 577.99 709.98 C 578.31 708.98 578.64 707.99 578.97 707.00 C 579.61 705.27 580.25 703.54 580.84 701.80 C 581.65 699.54 582.35 697.26 583.00 694.96 C 583.32 693.96 583.65 692.97 583.98 691.99 C 586.27 685.75 587.89 679.29 589.94 672.97 C 590.30 671.95 590.66 670.94 591.01 669.94 C 591.35 668.95 591.71 667.98 592.07 667.01 C 592.31 665.92 592.56 664.83 592.80 663.75 C 593.89 660.47 595.10 657.22 595.77 653.83 C 596.16 652.84 596.58 651.86 597.00 650.89 C 597.36 649.69 597.64 648.48 597.84 647.25 C 601.47 647.34 603.99 650.01 606.36 652.39 C 606.83 655.42 606.02 658.34 605.03 661.17 C 604.68 662.16 604.35 663.17 604.04 664.18 C 603.72 665.17 603.42 666.17 603.13 667.19 C 602.75 668.18 602.38 669.19 602.02 670.20 C 601.63 671.47 601.27 672.74 600.92 674.03 C 600.08 675.96 599.39 677.94 598.99 680.02 C 598.27 682.01 597.55 684.01 596.93 686.05 C 596.60 687.04 596.27 688.05 595.94 689.06 C 595.24 691.02 594.59 693.00 593.94 694.99 C 593.62 696.06 593.33 697.14 593.06 698.24 C 591.51 702.10 590.19 706.05 588.89 710.01 C 588.58 711.01 588.27 712.02 587.98 713.04 C 587.63 714.06 587.29 715.10 586.96 716.15 C 585.49 719.74 584.50 723.51 583.05 727.12 C 582.69 728.14 582.36 729.17 582.04 730.22 C 581.69 731.19 581.37 732.18 581.07 733.19 C 580.72 734.17 580.38 735.17 580.07 736.17 C 578.95 739.10 577.78 742.02 576.91 745.05 C 576.27 746.73 575.62 748.42 574.99 750.13 C 574.66 751.14 574.34 752.16 574.03 753.20 C 573.68 754.18 573.34 755.18 573.02 756.19 C 572.26 758.13 571.55 760.09 571.03 762.12 C 570.55 763.37 570.08 764.61 569.62 765.89 C 569.14 767.31 568.63 768.73 568.14 770.16 C 567.73 771.13 567.35 772.12 566.99 773.12 C 566.39 775.14 565.78 777.16 565.13 779.18 C 564.75 780.14 564.39 781.11 564.04 782.10 C 562.44 786.02 561.12 790.05 560.04 794.15 C 559.27 795.97 558.48 797.79 558.08 799.74 C 556.68 799.84 555.54 799.36 554.89 798.09 C 553.25 796.71 551.54 795.42 549.82 794.17 C 550.91 795.40 552.07 796.59 553.20 797.82 C 553.48 798.34 554.05 799.37 554.33 799.89 C 555.55 803.48 553.45 806.77 553.21 810.30 C 552.53 811.82 551.56 813.16 550.34 814.30 C 548.11 815.41 546.08 816.87 544.12 818.40 C 543.74 818.38 542.99 818.35 542.61 818.33 L 542.50 819.19 C 541.11 819.30 540.35 820.05 540.24 821.43 C 539.59 821.45 538.27 821.48 537.62 821.50 C 537.46 822.53 537.34 823.61 537.20 824.67 C 540.26 822.78 543.53 821.29 546.82 819.85 C 547.35 819.65 548.42 819.23 548.96 819.03 C 550.73 818.05 552.47 817.02 554.27 816.10 L 554.44 815.73 C 554.80 815.46 555.54 814.90 555.91 814.62 L 556.49 814.52 C 556.52 813.30 556.58 812.09 556.66 810.89 C 557.09 809.85 557.50 808.81 557.89 807.76 C 560.79 807.06 560.03 803.09 560.84 800.81 C 561.55 798.83 562.27 796.85 562.91 794.85 C 563.86 791.81 565.02 788.84 565.88 785.78 C 567.08 783.21 568.09 780.56 568.86 777.84 C 569.24 776.84 569.62 775.84 569.99 774.84 C 570.70 772.89 571.39 770.93 572.01 768.95 C 572.34 767.94 572.69 766.94 573.04 765.96 C 574.02 763.25 575.05 760.55 575.97 757.83 C 577.50 753.90 578.94 749.93 579.97 745.85 C 580.73 743.90 581.45 741.94 582.05 739.95 C 582.37 738.93 582.71 737.92 583.06 736.91 C 583.38 735.91 583.71 734.91 584.04 733.92 C 584.76 731.93 585.46 729.94 586.04 727.91 C 586.67 726.23 587.32 724.55 587.92 722.87 C 591.73 713.06 594.78 702.99 598.07 693.00 C 598.37 691.93 598.67 690.86 598.96 689.80 C 600.17 686.89 601.36 683.93 601.91 680.81 C 602.27 679.83 602.64 678.86 603.02 677.89 C 603.31 676.86 603.59 675.83 603.85 674.80 C 604.23 673.85 604.62 672.92 605.02 671.99 C 605.72 669.95 606.38 667.90 606.95 665.83 C 607.30 664.82 607.64 663.81 607.98 662.82 C 608.25 661.72 608.51 660.62 608.76 659.53 L 609.57 659.35 C 609.51 658.89 609.38 657.96 609.31 657.50 L 610.35 657.64 C 610.74 655.33 611.41 653.10 611.89 650.82 C 613.22 646.68 616.09 642.86 615.53 638.34 L 616.47 638.76 C 616.53 637.48 616.61 636.21 616.72 634.95 C 617.32 633.53 617.57 632.03 617.70 630.52 L 618.47 630.43 C 618.45 629.67 618.41 628.16 618.38 627.40 L 619.51 627.69 C 619.33 624.35 620.58 621.20 620.99 617.93 C 621.70 615.26 622.23 612.54 622.95 609.87 C 623.98 605.86 624.93 601.83 625.92 597.82 C 626.78 594.90 627.40 591.92 628.01 588.95 C 628.39 587.62 628.68 586.28 629.00 584.95 C 630.47 579.93 631.72 574.85 632.87 569.75 C 633.72 566.72 634.70 563.69 634.81 560.52 L 635.33 560.49 C 635.54 557.87 636.28 555.35 636.98 552.84 C 637.37 551.51 637.66 550.16 637.98 548.83 C 638.33 547.51 638.64 546.17 638.97 544.86 C 639.76 541.79 640.70 538.73 640.82 535.54 L 641.43 535.46 C 641.55 534.29 641.69 533.13 641.86 531.98 C 642.43 530.69 642.69 529.30 642.95 527.93 C 643.65 525.97 643.81 523.87 643.84 521.81 C 643.40 522.35 642.51 523.42 642.07 523.96 C 641.32 524.65 640.67 525.44 640.14 526.31 C 638.29 527.50 636.40 528.63 634.53 529.78 L 634.51 530.28 C 633.24 530.53 632.47 531.30 632.21 532.58 L 629.44 532.89 C 630.18 531.07 630.56 529.19 630.57 527.23 L 631.70 527.42 C 631.52 526.92 631.17 525.93 630.99 525.44 L 632.30 525.57 C 632.77 524.67 633.25 523.79 633.75 522.92 C 634.28 522.60 635.36 521.96 635.89 521.64 L 636.57 521.63 L 636.56 520.82 C 637.11 520.54 638.20 519.98 638.75 519.70 C 639.28 519.48 640.34 519.03 640.86 518.81 Z" />
<path fill="#fcfdfd" opacity="1.00" d=" M 633.90 531.88 C 635.95 529.99 638.03 528.14 640.46 526.75 C 639.63 529.88 638.71 533.00 638.09 536.19 C 637.29 539.12 636.54 542.07 635.97 545.07 C 635.27 547.43 634.69 549.83 634.06 552.22 C 633.59 553.83 633.30 555.49 633.00 557.15 C 632.60 558.48 632.31 559.84 632.10 561.23 C 631.30 564.14 630.55 567.07 629.99 570.04 C 628.90 573.71 627.77 577.37 627.06 581.14 C 626.67 582.41 626.32 583.69 625.96 584.99 C 625.62 586.35 625.31 587.71 625.01 589.09 C 624.60 590.39 624.31 591.71 623.99 593.04 C 623.66 594.07 623.34 595.11 623.03 596.16 C 622.66 597.46 622.33 598.78 622.02 600.11 C 621.67 601.40 621.34 602.68 621.00 603.98 C 620.73 605.02 620.47 606.07 620.24 607.13 C 618.71 610.93 618.24 615.06 618.17 619.12 C 617.70 620.39 617.29 621.68 616.93 622.99 C 616.71 622.25 616.28 620.77 616.06 620.03 C 613.87 617.53 610.87 614.46 607.20 615.63 C 607.31 614.57 607.52 612.45 607.63 611.38 L 608.40 611.65 C 608.50 610.43 608.62 609.21 608.78 608.01 C 610.43 603.06 611.54 597.93 612.88 592.88 C 615.04 585.63 616.73 578.25 618.97 571.02 C 620.31 566.01 621.43 560.94 622.98 556.00 C 623.59 553.63 624.20 551.26 624.84 548.91 C 625.27 547.61 625.58 546.28 625.95 544.98 C 626.27 543.97 626.59 542.97 626.93 541.98 C 627.34 540.83 627.60 539.65 627.74 538.44 L 628.15 538.34 C 628.81 536.69 629.75 535.17 630.72 533.69 C 631.95 533.43 632.95 532.67 633.90 531.88 Z" />
<path fill="#fcfdfd" opacity="1.00" d=" M 606.53 617.30 C 608.34 617.93 610.17 618.49 612.05 618.92 C 613.06 619.95 614.09 620.96 615.16 621.96 C 615.69 623.57 616.74 625.29 615.83 627.01 C 615.55 628.72 615.36 630.44 615.14 632.17 C 614.66 633.68 614.35 635.23 614.19 636.83 C 613.00 635.90 611.83 634.99 610.62 634.14 L 610.44 633.71 C 609.54 633.21 608.66 632.70 607.79 632.19 C 606.25 631.07 604.39 631.24 602.64 631.49 C 602.63 630.76 602.61 629.31 602.60 628.58 L 603.35 628.52 C 603.44 626.54 603.98 624.65 604.88 622.90 C 605.20 621.74 605.47 620.58 605.69 619.41 L 606.58 619.55 C 606.57 618.98 606.55 617.86 606.53 617.30 Z" />
<path fill="#fcfdfd" opacity="1.00" d=" M 601.66 634.54 C 604.92 632.58 608.42 634.84 610.89 637.04 C 612.47 639.09 611.47 641.84 611.19 644.16 C 610.77 645.14 610.36 646.14 609.98 647.15 C 609.80 647.71 609.44 648.83 609.26 649.39 C 608.67 649.37 607.49 649.34 606.90 649.32 C 606.45 648.19 605.64 647.49 604.46 647.20 L 604.48 646.34 C 604.12 646.35 603.39 646.38 603.03 646.39 C 601.74 644.93 599.65 645.46 597.99 645.42 C 598.33 644.63 599.01 643.05 599.35 642.26 C 599.39 639.49 600.47 636.97 601.66 634.54 Z" />
<path fill="#fcfdfd" opacity="1.00" d=" M 512.27 881.46 C 512.47 877.71 516.34 876.59 519.50 877.23 L 519.38 878.57 L 520.71 878.51 L 520.33 879.50 L 521.82 879.23 L 521.39 880.79 L 522.71 880.40 C 522.66 880.79 522.57 881.57 522.52 881.96 C 525.83 884.94 524.53 889.58 523.10 893.16 C 522.93 893.86 522.58 895.27 522.41 895.98 C 522.05 895.83 521.33 895.54 520.97 895.40 C 519.53 893.03 517.29 891.37 514.88 890.10 C 514.02 889.60 513.17 889.11 512.32 888.63 C 511.50 888.62 509.87 888.61 509.05 888.60 C 509.18 885.93 511.22 884.07 511.87 881.60 L 512.27 881.46 Z" />
<path fill="#fcfdfd" opacity="1.00" d=" M 508.29 889.12 C 509.09 889.26 510.69 889.55 511.49 889.69 L 511.45 890.33 C 511.77 890.59 512.43 891.11 512.75 891.38 C 513.55 891.81 514.35 892.26 515.15 892.73 C 516.66 894.67 518.29 896.52 519.79 898.50 L 520.52 898.45 C 520.68 900.36 520.75 902.29 520.47 904.21 C 519.51 905.37 518.62 906.59 517.74 907.82 C 517.30 909.19 516.79 910.54 516.29 911.91 C 513.62 909.37 511.17 906.43 507.53 905.26 L 507.43 904.54 C 506.59 904.56 504.91 904.59 504.07 904.60 C 502.94 905.43 501.82 906.26 500.70 907.10 L 502.22 908.13 C 502.30 907.74 502.46 906.97 502.53 906.58 C 504.11 906.55 505.69 906.54 507.28 906.55 C 509.49 908.74 511.78 910.85 514.15 912.88 C 514.57 914.24 514.62 915.64 514.29 917.08 C 512.75 919.96 512.75 923.35 512.37 926.54 C 511.93 926.54 511.05 926.54 510.61 926.54 C 510.63 924.48 510.60 922.43 510.67 920.39 C 508.05 923.45 503.25 922.63 500.13 925.17 C 497.99 926.06 495.71 926.50 493.40 926.62 C 493.36 927.14 493.26 928.18 493.22 928.70 C 498.20 929.19 502.88 927.38 507.68 926.41 C 507.58 928.31 507.36 930.19 507.14 932.09 C 506.78 933.09 506.43 934.11 506.09 935.14 C 505.18 938.25 504.42 941.40 503.43 944.49 L 501.78 944.46 C 502.13 941.45 500.89 938.50 498.34 936.84 C 498.47 941.33 498.97 945.91 501.25 949.89 C 502.14 952.36 502.77 954.92 503.72 957.39 C 504.11 957.49 504.90 957.69 505.30 957.79 C 505.75 962.25 504.98 966.63 504.15 971.00 L 502.43 971.86 L 502.45 969.71 C 501.61 968.82 500.80 967.96 499.98 967.09 C 499.68 966.06 499.35 965.05 499.00 964.06 C 498.17 962.80 497.42 961.51 496.65 960.25 C 495.77 957.83 494.87 955.43 493.75 953.13 C 493.10 951.09 492.52 949.04 491.81 947.04 C 491.54 944.56 491.31 942.08 491.31 939.60 L 490.62 939.44 C 490.70 936.96 490.56 934.47 491.07 932.04 C 492.06 930.33 491.44 928.29 491.46 926.45 L 492.26 926.60 C 492.48 925.42 492.84 924.28 493.34 923.21 C 495.16 919.84 496.33 916.13 498.56 913.00 C 498.51 912.63 498.42 911.90 498.37 911.53 L 499.58 911.63 C 499.59 910.83 499.63 909.25 499.64 908.45 L 500.62 908.87 C 500.22 906.48 501.82 904.55 502.69 902.49 L 503.21 902.36 C 503.77 900.59 504.52 898.89 505.36 897.25 C 506.12 895.33 506.91 893.43 507.67 891.52 L 508.49 891.39 C 508.44 890.82 508.34 889.69 508.29 889.12 Z" />
<path fill="#fcfdfd" opacity="1.00" d=" M 512.74 930.72 C 512.99 930.12 513.49 928.93 513.74 928.33 L 515.93 928.28 C 514.67 931.42 513.88 934.72 512.83 937.94 C 512.21 939.92 510.50 941.37 510.09 943.45 L 509.24 943.68 L 509.68 945.30 C 509.42 945.33 508.90 945.40 508.64 945.44 C 508.71 947.80 507.95 950.08 506.66 952.06 C 506.51 953.32 506.38 954.59 506.28 955.88 C 505.82 955.76 504.90 955.54 504.44 955.43 C 506.12 952.71 505.70 949.48 505.58 946.46 L 506.59 946.38 C 506.52 946.00 506.40 945.24 506.33 944.87 C 508.79 944.63 507.31 941.58 507.81 940.05 C 508.30 940.28 509.29 940.75 509.79 940.99 C 509.76 940.18 509.72 938.57 509.69 937.77 C 510.83 935.46 511.80 933.09 512.74 930.72 Z" />
<path fill="#fcfdfd" opacity="1.00" d=" M 486.91 949.91 C 488.03 947.36 489.23 944.82 489.58 942.04 C 489.46 945.06 490.28 948.01 491.17 950.87 C 490.91 954.19 492.59 957.03 493.62 960.03 C 490.54 967.18 487.15 974.20 484.16 981.38 L 483.71 981.56 C 482.04 985.83 479.87 989.88 478.04 994.09 C 476.94 996.04 475.88 998.01 475.06 1000.11 C 473.45 1003.06 471.70 1005.97 470.69 1009.21 C 472.04 1008.69 472.79 1007.71 472.95 1006.28 C 473.62 1006.37 474.96 1006.54 475.64 1006.62 C 475.60 1006.13 475.53 1005.14 475.50 1004.65 L 473.00 1004.20 C 474.43 1003.75 475.89 1003.47 477.39 1003.36 C 477.24 1005.19 478.48 1008.29 475.39 1007.71 C 475.46 1008.15 475.61 1009.04 475.69 1009.48 L 474.28 1009.31 L 474.46 1010.16 C 472.97 1010.84 471.84 1011.98 471.14 1013.47 L 470.37 1013.54 C 470.43 1014.01 470.56 1014.96 470.62 1015.44 L 469.74 1015.52 C 468.94 1016.75 468.09 1017.95 467.23 1019.16 C 465.06 1020.28 463.08 1021.72 461.17 1023.25 C 459.83 1024.16 458.51 1025.10 457.17 1026.01 C 455.46 1026.97 453.84 1028.07 452.23 1029.19 C 451.03 1029.71 449.86 1030.27 448.67 1030.81 L 448.52 1031.55 L 447.37 1031.36 L 447.59 1032.58 C 446.53 1032.62 444.41 1032.70 443.35 1032.74 C 444.53 1031.45 445.73 1030.23 447.00 1029.05 C 447.78 1028.32 448.38 1027.46 448.79 1026.48 L 449.61 1026.43 C 449.59 1026.07 449.56 1025.33 449.54 1024.97 C 451.33 1022.82 452.32 1020.17 453.81 1017.83 C 454.03 1017.24 454.47 1016.05 454.69 1015.46 L 455.65 1015.48 C 455.59 1015.02 455.47 1014.09 455.41 1013.63 L 456.55 1013.46 C 456.58 1013.11 456.64 1012.41 456.67 1012.06 C 457.55 1010.81 458.28 1009.46 458.97 1008.11 C 459.61 1006.71 460.27 1005.33 460.94 1003.97 C 461.58 1002.61 462.22 1001.26 462.87 999.92 C 463.60 998.53 464.29 997.11 464.83 995.64 L 465.28 995.47 C 465.76 994.26 466.29 993.08 466.80 991.91 C 467.97 989.69 469.09 987.45 470.36 985.29 C 470.89 984.09 471.42 982.88 471.89 981.68 L 472.59 981.50 C 472.60 981.14 472.60 980.41 472.60 980.04 C 475.14 975.85 476.65 971.15 478.79 966.76 C 481.04 961.78 483.60 956.95 485.83 951.96 C 486.10 951.44 486.64 950.42 486.91 949.91 Z" />
<path fill="#fcfdfd" opacity="1.00" d=" M 493.93 971.82 C 494.90 969.71 495.86 967.60 496.68 965.43 L 498.28 965.83 C 498.31 966.42 498.38 967.60 498.41 968.19 C 494.68 974.46 492.37 981.49 489.21 988.07 C 486.06 994.21 484.25 1000.93 481.06 1007.06 C 477.53 1013.42 475.57 1020.51 471.80 1026.76 C 468.78 1035.49 463.87 1043.35 460.54 1051.95 C 459.43 1054.78 457.45 1057.26 457.06 1060.37 C 456.67 1059.44 455.91 1057.58 455.53 1056.65 L 455.73 1058.70 C 454.30 1058.62 452.87 1058.54 451.45 1058.47 C 451.42 1057.50 451.40 1056.53 451.38 1055.58 L 452.36 1055.68 C 452.47 1054.27 452.69 1052.92 453.25 1051.64 C 453.29 1052.39 453.38 1053.88 453.42 1054.62 L 454.53 1054.39 L 454.57 1055.38 C 455.15 1055.49 456.31 1055.72 456.89 1055.84 C 456.57 1053.74 456.33 1051.63 456.39 1049.53 L 457.25 1049.46 C 458.12 1047.01 459.67 1044.91 460.88 1042.64 L 461.60 1042.52 L 461.68 1041.81 C 463.49 1038.70 464.36 1035.17 466.05 1032.01 C 467.17 1029.67 468.74 1027.45 468.94 1024.80 C 470.42 1022.59 471.56 1020.20 472.75 1017.85 C 473.02 1017.34 473.55 1016.32 473.82 1015.81 C 474.76 1013.30 476.44 1011.04 476.67 1008.32 L 477.62 1008.62 C 477.98 1007.57 478.34 1006.53 478.70 1005.50 L 479.65 1005.56 C 479.59 1005.06 479.45 1004.05 479.39 1003.55 L 480.64 1003.70 C 481.08 1002.42 481.52 1001.16 481.96 999.89 C 482.29 998.85 482.59 997.82 482.86 996.78 C 483.23 995.83 483.62 994.90 484.02 993.98 C 484.32 992.78 484.54 991.57 484.70 990.36 L 485.79 990.58 C 485.63 990.05 485.31 989.01 485.14 988.49 L 486.30 988.49 C 486.78 986.83 487.34 985.20 487.79 983.55 L 488.77 983.43 C 488.69 982.96 488.51 982.02 488.43 981.55 L 489.60 981.58 L 489.48 980.41 L 490.79 980.52 C 490.72 980.04 490.58 979.08 490.51 978.59 L 491.21 978.39 C 491.71 976.87 492.34 975.42 492.95 973.96 C 493.19 973.43 493.69 972.36 493.93 971.82 Z" />
<path fill="#fcfdfd" opacity="1.00" d=" M 499.78 980.96 C 500.09 980.84 500.70 980.61 501.01 980.49 C 501.05 981.02 501.13 982.10 501.17 982.63 C 500.82 982.21 500.13 981.38 499.78 980.96 Z" />
<path fill="#fcfdfd" opacity="1.00" d=" M 499.79 983.19 C 503.16 982.33 502.21 985.76 502.57 987.90 C 501.86 988.15 500.45 988.64 499.75 988.89 C 499.69 986.97 499.70 985.07 499.79 983.19 Z" />
<path fill="#fcfdfd" opacity="1.00" d=" M 497.35 986.09 C 497.64 986.09 498.22 986.10 498.52 986.10 C 498.30 988.59 498.53 991.07 499.21 993.52 C 496.69 988.26 500.58 989.48 502.76 989.12 C 502.14 989.51 500.89 990.27 500.26 990.66 C 500.42 992.44 500.16 994.39 501.21 995.98 C 503.18 999.98 504.00 1004.41 503.72 1008.86 C 504.81 1011.11 504.49 1013.62 504.28 1016.03 C 503.67 1017.64 503.04 1019.27 502.55 1020.94 C 503.35 1022.21 504.18 1023.50 504.83 1024.89 C 505.81 1027.65 505.41 1030.62 505.47 1033.50 L 504.36 1033.66 C 504.39 1034.01 504.43 1034.72 504.45 1035.08 C 502.37 1036.81 504.70 1038.94 505.31 1040.77 C 506.65 1044.26 509.12 1048.19 507.01 1051.91 C 505.92 1053.92 506.58 1056.22 506.62 1058.39 C 507.50 1060.93 510.23 1062.16 510.97 1064.73 C 509.10 1064.97 507.78 1064.32 506.99 1062.79 C 506.06 1062.68 505.14 1062.57 504.23 1062.48 C 503.79 1061.87 502.92 1060.63 502.48 1060.02 C 502.37 1058.35 502.47 1056.69 502.31 1055.05 C 500.41 1053.19 498.06 1051.53 497.30 1048.86 C 497.10 1046.37 497.27 1043.87 497.15 1041.40 C 497.99 1041.43 499.68 1041.48 500.53 1041.50 C 500.50 1042.33 500.43 1043.97 500.40 1044.79 L 499.42 1044.48 C 499.46 1046.11 499.53 1047.76 499.65 1049.41 C 500.52 1049.80 501.40 1050.21 502.28 1050.62 C 502.57 1051.68 502.91 1052.77 503.22 1053.85 C 503.47 1052.44 504.32 1051.39 505.32 1050.44 C 506.35 1048.72 505.13 1046.99 504.19 1045.59 L 503.76 1045.48 C 503.63 1043.14 501.22 1041.78 501.26 1039.43 L 500.58 1039.65 C 500.52 1038.99 500.40 1037.67 500.34 1037.01 C 499.05 1035.70 497.86 1034.30 496.66 1032.93 C 496.54 1031.43 496.44 1029.95 496.36 1028.47 L 495.36 1028.74 C 495.78 1026.64 494.35 1023.30 497.48 1022.68 L 497.31 1024.60 L 498.44 1024.47 C 498.45 1026.79 498.33 1029.15 498.73 1031.46 C 499.63 1032.73 500.72 1033.88 501.73 1035.10 C 501.66 1034.55 501.52 1033.46 501.45 1032.92 C 503.74 1030.88 502.03 1027.47 502.30 1024.88 C 501.63 1025.49 500.97 1026.11 500.32 1026.76 C 501.26 1021.38 495.86 1018.15 495.07 1013.26 C 494.29 1010.20 493.90 1007.05 493.66 1003.91 C 495.27 1000.83 494.51 997.25 494.41 993.95 C 495.84 991.84 495.57 988.55 497.94 987.21 L 497.35 986.09 M 495.94 994.42 C 496.46 995.18 496.99 995.95 497.53 996.74 C 497.58 998.17 497.63 999.61 497.67 1001.07 C 495.34 1003.32 496.17 1006.98 497.34 1009.64 C 497.91 1011.72 498.62 1013.77 499.10 1015.89 C 499.62 1016.44 500.66 1017.52 501.18 1018.07 C 503.25 1013.83 501.86 1009.35 500.72 1005.07 C 500.55 1003.84 500.40 1002.63 500.27 1001.43 C 499.80 1001.51 498.86 1001.67 498.39 1001.74 L 498.31 999.38 L 500.12 999.93 C 498.13 998.74 498.06 996.27 497.34 994.32 C 496.99 994.35 496.29 994.39 495.94 994.42 Z" />
<path fill="#fcfdfd" opacity="1.00" d=" M 456.83 1028.92 C 458.77 1027.96 460.66 1026.90 462.75 1026.28 C 461.89 1027.87 461.06 1029.51 460.20 1031.12 C 458.92 1032.62 457.63 1034.18 457.06 1036.11 C 455.89 1038.89 453.97 1041.27 452.95 1044.12 C 452.74 1044.62 452.32 1045.63 452.11 1046.14 C 450.31 1048.84 448.51 1051.81 449.58 1055.18 C 448.57 1056.13 448.36 1057.50 447.91 1058.76 C 447.32 1058.60 446.14 1058.30 445.55 1058.15 C 445.03 1059.46 444.53 1060.80 444.01 1062.14 C 443.17 1064.26 443.50 1066.53 443.86 1068.73 C 443.27 1068.55 442.10 1068.19 441.51 1068.01 C 441.08 1072.01 440.89 1076.26 443.05 1079.85 C 443.44 1081.19 443.85 1082.55 444.35 1083.89 C 444.52 1088.90 445.09 1093.98 444.11 1098.95 C 443.82 1095.52 441.46 1092.97 439.84 1090.11 C 438.84 1088.80 437.83 1087.51 436.88 1086.18 C 436.23 1085.13 435.56 1084.10 434.89 1083.11 C 433.39 1081.41 432.23 1079.47 431.22 1077.48 L 430.74 1077.44 C 429.85 1074.75 429.60 1071.75 427.79 1069.47 C 427.55 1071.81 427.57 1074.18 427.56 1076.56 L 428.29 1076.44 C 428.68 1078.03 429.18 1079.58 429.66 1081.17 C 426.19 1084.86 425.01 1090.02 422.10 1094.12 C 420.34 1097.17 418.80 1100.34 417.16 1103.47 C 416.79 1103.44 416.05 1103.40 415.68 1103.37 L 415.74 1105.77 C 413.93 1105.20 412.10 1104.75 410.25 1104.42 L 410.58 1103.57 C 408.86 1103.58 407.14 1103.62 405.42 1103.68 C 409.86 1099.98 411.64 1094.29 414.82 1089.63 L 415.31 1089.48 C 415.56 1088.93 416.08 1087.84 416.33 1087.29 C 419.46 1082.03 422.06 1076.47 425.31 1071.28 C 425.80 1070.37 426.29 1069.46 426.77 1068.57 L 427.56 1068.60 C 427.55 1067.84 427.54 1066.32 427.54 1065.56 L 424.59 1064.96 C 426.57 1064.96 427.71 1064.03 428.02 1062.18 C 427.64 1062.27 426.87 1062.45 426.48 1062.55 L 426.80 1063.85 C 425.47 1063.73 424.14 1063.62 422.82 1063.52 C 424.91 1061.99 427.06 1060.54 429.32 1059.26 L 429.51 1058.38 L 430.81 1058.53 L 430.37 1057.28 L 431.85 1057.54 C 431.77 1057.16 431.61 1056.40 431.54 1056.02 C 433.92 1054.42 434.16 1051.22 434.72 1048.67 C 435.09 1047.74 435.46 1046.81 435.81 1045.89 C 436.30 1045.04 436.79 1044.21 437.29 1043.39 C 438.14 1041.74 439.00 1040.09 439.76 1038.41 L 440.61 1038.62 L 440.38 1037.37 L 441.61 1037.65 L 441.38 1036.33 L 442.79 1036.73 L 442.36 1035.23 C 442.88 1035.37 443.91 1035.64 444.42 1035.78 L 444.32 1034.25 C 444.74 1034.32 445.59 1034.45 446.02 1034.51 C 449.60 1032.59 453.35 1031.02 456.83 1028.92 Z" />
<path fill="#fcfdfd" opacity="1.00" d=" M 454.86 1060.56 C 455.34 1060.47 456.31 1060.30 456.79 1060.22 C 456.66 1060.69 456.41 1061.64 456.28 1062.12 C 453.79 1067.38 450.56 1072.25 448.45 1077.69 L 447.55 1077.48 C 447.64 1079.77 447.20 1082.03 446.49 1084.21 C 446.51 1083.28 446.56 1081.40 446.58 1080.46 L 445.37 1080.64 C 445.41 1078.39 445.50 1076.13 445.66 1073.91 C 446.10 1075.59 446.52 1077.30 446.94 1079.02 C 447.14 1076.90 447.37 1074.89 447.69 1072.82 C 448.12 1071.84 448.55 1070.87 448.95 1069.89 C 449.20 1069.39 449.69 1068.39 449.93 1067.89 C 450.60 1066.76 451.27 1065.63 451.92 1064.51 C 452.27 1064.54 452.99 1064.62 453.35 1064.65 C 453.89 1063.29 454.51 1061.97 454.86 1060.56 Z" />
<path fill="#fcfdfd" opacity="1.00" d=" M 498.21 1060.85 C 498.98 1060.46 500.52 1059.67 501.29 1059.28 C 501.88 1061.20 502.50 1063.14 502.86 1065.14 C 501.79 1064.55 500.78 1063.90 499.81 1063.22 C 499.35 1062.35 498.82 1061.58 498.21 1060.85 Z" />
<path fill="#fcfdfd" opacity="1.00" d=" M 446.98 1063.46 C 446.30 1062.10 446.66 1061.45 448.06 1061.53 C 448.72 1062.87 448.36 1063.51 446.98 1063.46 Z" />
<path fill="#fcfdfd" opacity="1.00" d=" M 505.66 1067.68 C 508.52 1067.35 511.12 1065.81 512.74 1063.43 C 515.10 1063.27 517.61 1062.97 519.78 1064.20 C 521.08 1064.34 523.69 1064.62 525.00 1064.76 C 521.45 1066.46 517.25 1067.38 514.59 1070.50 C 512.81 1072.54 510.30 1073.96 509.07 1076.45 L 508.17 1076.61 C 508.29 1077.07 508.52 1077.98 508.64 1078.43 L 507.69 1078.46 C 506.84 1082.90 505.43 1087.97 507.95 1092.13 C 510.08 1095.33 511.45 1099.09 514.43 1101.68 C 516.42 1104.04 519.50 1104.81 522.27 1105.88 C 529.35 1107.47 536.18 1103.71 542.87 1101.96 C 538.70 1106.23 535.34 1113.07 528.40 1112.71 C 527.17 1111.51 525.51 1111.49 523.94 1111.36 C 521.77 1108.04 517.02 1108.34 514.05 1105.94 C 511.58 1104.88 509.66 1103.01 508.14 1100.85 C 505.54 1096.67 503.24 1091.94 503.65 1086.88 C 504.14 1081.72 505.08 1076.48 507.56 1071.87 C 506.53 1072.84 505.46 1073.77 504.39 1074.69 L 504.35 1075.16 C 503.53 1075.48 502.97 1076.04 502.67 1076.85 C 498.92 1083.99 499.53 1092.73 502.79 1099.94 C 505.61 1102.98 508.23 1106.28 512.02 1108.20 C 514.43 1108.33 516.45 1109.70 518.58 1110.70 L 518.30 1111.47 C 519.69 1111.46 521.08 1111.48 522.49 1111.52 C 522.56 1112.44 522.65 1113.38 522.74 1114.34 C 518.87 1114.62 514.89 1114.88 511.12 1113.78 C 510.01 1113.71 508.92 1113.67 507.83 1113.65 C 506.25 1114.22 504.67 1114.75 503.09 1115.28 C 502.57 1115.56 501.55 1116.11 501.04 1116.38 C 497.78 1118.28 494.79 1115.82 491.64 1115.06 C 491.49 1114.14 491.20 1112.32 491.05 1111.40 C 491.68 1111.46 492.95 1111.57 493.59 1111.62 L 493.38 1110.70 C 495.26 1110.87 495.83 1109.12 496.69 1107.90 C 496.40 1107.83 495.80 1107.69 495.51 1107.63 C 495.13 1106.54 494.75 1105.47 494.37 1104.41 C 493.53 1104.47 492.71 1104.56 491.89 1104.67 C 490.67 1105.49 489.32 1105.82 487.85 1105.67 C 487.18 1101.72 485.67 1097.88 486.26 1093.81 C 488.53 1094.38 490.83 1094.94 493.12 1095.47 C 495.20 1093.09 494.65 1090.11 493.31 1087.53 L 492.84 1087.37 C 491.79 1085.55 490.11 1084.07 489.48 1082.07 C 488.97 1080.17 491.00 1079.19 491.98 1077.96 C 494.87 1075.57 496.16 1071.55 499.91 1070.21 C 499.83 1069.90 499.66 1069.30 499.57 1069.00 C 501.27 1068.65 502.95 1068.19 504.56 1067.51 L 504.48 1066.14 C 504.78 1066.52 505.36 1067.30 505.66 1067.68 Z" />
<path fill="#fcfdfd" opacity="1.00" d=" M 432.94 1086.49 C 433.29 1086.48 433.98 1086.45 434.33 1086.44 C 434.79 1088.29 435.36 1090.13 435.77 1092.01 C 436.66 1093.35 437.58 1094.68 438.58 1095.96 C 437.98 1097.55 437.21 1099.06 436.41 1100.57 L 435.41 1100.40 L 435.46 1101.66 C 435.00 1101.62 434.10 1101.54 433.64 1101.49 L 433.44 1102.85 C 432.96 1102.72 432.00 1102.48 431.52 1102.35 L 431.56 1103.74 C 431.19 1103.67 430.43 1103.51 430.06 1103.44 C 428.97 1104.66 427.57 1105.51 426.17 1106.33 C 423.23 1107.81 420.29 1109.30 417.27 1110.59 L 417.52 1111.49 C 416.90 1111.53 415.66 1111.60 415.04 1111.64 C 414.10 1112.88 412.91 1113.91 411.58 1114.74 L 411.67 1115.26 C 409.67 1115.21 408.38 1116.79 407.08 1118.06 C 405.53 1119.71 403.65 1120.69 401.45 1120.99 C 404.24 1116.95 407.18 1112.65 411.42 1110.01 L 410.82 1108.22 C 414.43 1111.95 418.60 1107.81 420.90 1104.92 C 423.64 1101.79 426.24 1098.44 427.78 1094.54 L 428.28 1094.48 C 429.91 1091.87 431.81 1089.37 432.94 1086.49 Z" />
<path fill="#fcfdfd" opacity="1.00" d=" M 429.83 1107.61 C 430.97 1107.49 432.12 1107.40 433.28 1107.33 C 431.49 1109.45 429.21 1111.52 429.22 1114.53 C 426.35 1122.86 422.81 1130.98 418.94 1138.90 C 416.58 1143.58 415.27 1148.73 412.28 1153.11 C 412.41 1151.54 412.65 1148.42 412.77 1146.86 C 413.78 1144.98 414.46 1142.96 415.01 1140.91 C 417.56 1134.70 420.78 1128.81 423.85 1122.85 C 424.21 1121.85 424.55 1120.86 424.88 1119.88 C 426.09 1117.89 427.52 1116.04 429.08 1114.32 C 425.33 1114.21 420.81 1115.43 419.10 1119.10 C 417.37 1121.92 416.23 1125.03 415.03 1128.11 C 414.81 1128.64 414.38 1129.69 414.17 1130.21 C 412.68 1132.79 411.31 1135.44 410.05 1138.14 C 409.46 1139.73 408.77 1141.37 407.00 1141.91 C 406.13 1140.80 405.24 1139.74 404.37 1138.67 C 403.88 1137.80 403.40 1136.95 402.92 1136.10 C 402.63 1135.62 402.05 1134.66 401.76 1134.18 C 400.44 1131.93 400.70 1129.66 401.91 1127.44 C 402.16 1127.41 402.66 1127.35 402.91 1127.32 C 403.46 1125.20 405.07 1123.74 406.53 1122.24 L 406.22 1121.31 L 407.30 1121.52 C 407.48 1120.91 407.85 1119.68 408.04 1119.07 C 408.43 1118.87 409.23 1118.46 409.63 1118.26 L 409.26 1117.27 L 410.66 1117.63 L 410.48 1116.22 C 410.85 1116.25 411.59 1116.30 411.97 1116.33 C 412.21 1114.81 413.09 1114.15 414.61 1114.34 L 414.39 1113.73 C 416.61 1112.88 418.72 1111.79 420.85 1110.73 C 421.37 1110.54 422.40 1110.17 422.92 1109.98 C 423.87 1109.55 424.82 1109.14 425.78 1108.74 C 427.15 1108.45 428.51 1108.11 429.83 1107.61 Z" />
<path fill="#fcfdfd" opacity="1.00" d=" M 392.18 1113.05 C 392.78 1111.50 393.56 1110.06 394.45 1108.69 C 395.29 1112.40 395.05 1116.28 396.03 1119.98 C 396.77 1122.09 397.42 1124.23 397.78 1126.46 L 398.22 1126.48 C 398.60 1130.84 400.56 1134.84 402.03 1138.91 C 403.20 1142.55 406.19 1145.12 407.84 1148.51 C 408.15 1148.51 408.77 1148.51 409.07 1148.51 C 409.53 1149.42 410.01 1150.33 410.52 1151.25 C 412.32 1152.66 411.75 1155.01 411.59 1156.98 C 411.18 1159.31 412.27 1162.03 410.31 1163.91 C 409.19 1162.90 408.07 1161.96 406.96 1160.99 C 406.52 1160.03 406.04 1159.11 405.53 1158.23 L 405.70 1157.30 L 404.06 1157.95 L 404.71 1156.34 C 404.18 1156.39 403.11 1156.49 402.58 1156.55 C 402.54 1155.76 402.47 1154.20 402.43 1153.42 C 401.96 1153.46 401.01 1153.54 400.53 1153.58 C 400.53 1153.17 400.52 1152.36 400.52 1151.95 C 399.77 1150.56 399.21 1149.07 398.00 1148.04 C 397.58 1147.56 396.74 1146.61 396.32 1146.14 C 396.46 1145.69 396.73 1144.79 396.87 1144.34 L 395.14 1144.77 C 395.26 1144.21 395.52 1143.11 395.65 1142.56 C 395.09 1142.58 393.96 1142.64 393.40 1142.67 C 393.47 1142.14 393.59 1141.09 393.65 1140.56 L 392.67 1140.46 C 392.21 1138.63 391.70 1136.78 390.62 1135.24 C 390.45 1134.14 390.27 1133.05 390.07 1132.00 C 389.13 1129.51 389.23 1126.81 388.73 1124.24 C 388.74 1123.10 388.75 1121.97 388.78 1120.86 C 389.55 1118.09 390.67 1115.47 392.18 1113.05 Z" />
<path fill="#fcfdfd" opacity="1.00" d=" M 507.99 1120.71 C 510.64 1120.15 513.35 1120.13 516.03 1120.46 C 516.44 1120.87 517.27 1121.68 517.68 1122.09 C 517.08 1127.61 518.20 1133.22 517.18 1138.70 C 516.15 1141.99 515.63 1145.46 514.24 1148.63 L 512.60 1149.07 C 512.49 1147.26 512.40 1145.46 512.33 1143.67 L 511.59 1143.61 C 511.54 1141.88 511.45 1140.18 511.40 1138.48 L 510.69 1138.52 C 510.53 1136.12 509.91 1133.84 509.22 1131.58 L 508.78 1131.41 C 508.45 1129.79 507.75 1128.33 506.85 1126.98 C 505.86 1125.29 504.79 1123.63 504.04 1121.84 C 505.38 1121.53 506.69 1121.16 507.99 1120.71 Z" />
<path fill="#fcfdfd" opacity="1.00" d=" M 518.63 1121.76 C 519.61 1121.64 521.57 1121.40 522.55 1121.28 L 522.43 1122.43 C 524.33 1122.81 527.21 1121.81 528.04 1124.24 C 525.67 1124.92 520.87 1127.17 520.05 1123.73 L 517.93 1123.47 L 518.63 1121.76 Z" />
<path fill="#fcfdfd" opacity="1.00" d=" M 385.53 1144.82 C 386.94 1141.86 387.94 1138.70 388.99 1135.63 C 389.55 1136.98 390.66 1139.68 391.22 1141.03 C 391.52 1143.32 392.11 1146.76 389.43 1147.87 C 388.98 1149.61 388.61 1151.36 387.90 1153.04 C 387.70 1154.85 387.52 1156.70 387.36 1158.56 C 383.66 1154.92 385.67 1149.38 385.53 1144.82 Z" />
<path fill="#fcfdfd" opacity="1.00" d=" M 372.02 1151.49 C 372.41 1150.31 373.27 1149.52 374.28 1148.88 C 375.06 1151.95 375.81 1155.03 376.97 1157.99 C 377.35 1158.92 377.75 1159.85 378.15 1160.81 C 379.23 1162.76 380.24 1164.77 381.14 1166.83 C 383.03 1172.38 387.17 1177.44 386.68 1183.59 L 385.45 1183.50 C 385.47 1183.85 385.52 1184.56 385.55 1184.92 C 383.90 1186.88 382.49 1189.14 382.05 1191.72 C 381.52 1191.69 380.46 1191.64 379.93 1191.61 C 379.70 1190.96 379.26 1189.66 379.03 1189.01 C 378.27 1187.35 377.59 1185.66 376.75 1184.06 C 375.82 1181.10 375.23 1178.05 373.93 1175.23 C 372.91 1172.19 372.18 1169.08 372.40 1165.87 C 371.52 1170.06 372.44 1174.36 373.47 1178.45 L 374.18 1178.53 C 374.09 1181.78 375.88 1184.72 375.68 1187.98 C 375.58 1190.75 375.23 1193.50 375.23 1196.29 C 374.84 1197.23 374.46 1198.19 374.10 1199.16 C 373.39 1200.46 372.71 1201.79 372.02 1203.12 C 371.36 1204.42 370.75 1205.75 370.23 1207.13 C 369.55 1208.49 368.82 1209.84 368.13 1211.21 C 367.51 1212.62 366.87 1214.03 366.26 1215.46 L 365.38 1215.52 C 365.40 1215.87 365.42 1216.59 365.44 1216.95 C 362.32 1221.26 360.17 1226.20 357.97 1231.02 C 361.12 1226.85 364.99 1223.34 368.49 1219.50 C 370.91 1215.68 374.74 1213.01 376.81 1208.95 C 378.06 1208.09 379.09 1206.96 379.90 1205.68 L 380.28 1205.50 C 380.58 1205.19 381.18 1204.56 381.49 1204.25 L 381.64 1203.82 C 382.53 1202.66 385.00 1201.88 383.99 1200.09 C 382.07 1198.31 380.89 1201.06 380.09 1202.48 C 379.82 1202.51 379.27 1202.56 378.99 1202.58 C 380.00 1201.28 381.06 1200.00 382.00 1198.66 C 382.49 1198.47 383.47 1198.08 383.95 1197.89 L 384.73 1197.55 C 386.25 1197.66 388.00 1198.19 388.91 1196.53 C 387.80 1196.59 385.58 1196.71 384.47 1196.77 C 384.44 1195.37 384.38 1192.57 384.35 1191.17 L 385.53 1191.49 L 386.88 1193.09 C 386.64 1192.47 386.18 1191.23 385.95 1190.61 C 391.04 1189.72 395.57 1186.94 400.63 1185.93 L 400.82 1188.17 C 398.94 1189.18 396.85 1190.36 396.23 1192.58 L 395.89 1192.68 C 394.45 1196.08 391.41 1198.39 389.59 1201.56 C 379.88 1213.78 369.33 1225.31 358.75 1236.78 C 357.31 1238.63 355.74 1240.39 354.32 1242.27 C 351.61 1245.52 348.66 1248.57 345.99 1251.86 C 347.48 1245.08 350.76 1238.85 352.48 1232.12 C 354.36 1226.58 355.30 1220.78 357.21 1215.26 C 357.80 1213.12 358.38 1211.00 358.88 1208.86 C 359.74 1204.85 360.62 1200.86 361.75 1196.93 C 363.17 1190.31 364.11 1183.58 364.90 1176.87 C 365.84 1173.29 365.18 1169.55 365.74 1165.93 C 366.56 1163.34 366.55 1160.59 366.77 1157.92 C 367.00 1157.39 367.47 1156.35 367.70 1155.83 C 368.77 1154.36 369.85 1152.91 370.88 1151.44 C 371.16 1151.45 371.73 1151.48 372.02 1151.49 Z" />
<path fill="#fcfdfd" opacity="1.00" d=" M 401.61 1158.26 L 403.46 1158.41 C 404.74 1164.52 402.06 1170.34 400.31 1176.06 C 399.02 1178.72 398.10 1182.68 394.54 1182.89 L 394.75 1183.75 L 393.80 1183.54 C 392.79 1184.18 390.77 1185.44 389.75 1186.08 C 389.81 1184.04 390.42 1182.27 391.57 1180.78 L 391.28 1179.44 L 392.48 1179.61 C 392.94 1178.32 393.42 1177.06 393.82 1175.78 C 394.12 1175.09 394.73 1173.71 395.03 1173.02 C 395.24 1172.49 395.65 1171.42 395.86 1170.88 C 398.05 1166.80 400.18 1162.67 401.61 1158.26 Z" />
</g>
</svg>
