<?xml version="1.0" encoding="UTF-8" standalone="no"?>
<svg
   width="1297.3311pt"
   height="1297.3311pt"
   viewBox="-324.3325 0 1297.331 1297.331"
   version="1.1"
   id="svg121"
   sodipodi:docname="demonCoreflailLight.svg"
   inkscape:version="1.3.2 (091e20e, 2023-11-25, custom)"
   xmlns:inkscape="http://www.inkscape.org/namespaces/inkscape"
   xmlns:sodipodi="http://sodipodi.sourceforge.net/DTD/sodipodi-0.dtd"
   xmlns="http://www.w3.org/2000/svg"
   xmlns:svg="http://www.w3.org/2000/svg">
  <defs
     id="defs121" />
  <sodipodi:namedview
     id="namedview121"
     pagecolor="#505050"
     bordercolor="#eeeeee"
     borderopacity="1"
     inkscape:showpageshadow="0"
     inkscape:pageopacity="0"
     inkscape:pagecheckerboard="true"
     inkscape:deskcolor="#d1d1d1"
     inkscape:document-units="pt"
     inkscape:zoom="0.37109375"
     inkscape:cx="885.22105"
     inkscape:cy="867.70526"
     inkscape:current-layer="svg121" />
  <g
     id="#6c7782fd"
     transform="translate(-161.82426,-98.722798)">
    <path
       fill="#6c7782"
       stroke="#6c7782"
       stroke-width="0.09375"
       opacity="1"
       d="m 339.61,128.78 c 3.05,-21.24 27.62,-33.73 47.44,-29.02 24.02,6.57 37.39,37.91 23.75,59.14 2.58,8.32 6.23,16.34 8.5,24.82 17.56,-1.03 30.69,14.06 35.23,29.69 6.85,21.4 21.25,53.72 -4.02,68.4 3.68,10.95 5.21,22.59 9.34,33.32 13.04,-0.6 25.06,8.32 29.84,20.21 6.38,15.02 10.73,30.9 14.53,46.74 3.27,14.17 -2.62,29.79 -15.63,36.84 2.84,11.33 6.72,22.4 9.96,33.63 24.65,0.73 34.88,26.33 40.41,46.52 7.31,17.55 13.93,44.31 -7.58,54.63 3.52,9.61 6.06,19.65 9.87,29.08 19.66,-0.96 33.65,16.47 39.49,33.51 7.07,17.09 20.83,39.56 5.44,56.06 14.04,-0.41 26.59,8.82 34.24,19.87 -11.39,-5.95 -21.24,-16.75 -35.56,-15.81 0.36,3.58 1.53,7 2.65,10.4 5.57,0.61 10.12,4.52 12.68,9.34 -8.33,4.25 -16.58,9.91 -19.19,19.52 -8.1,1.69 -13.92,-4.9 -19.15,-9.95 -3.71,11.5 6.82,25.38 18.47,26.1 0.02,0.47 0.08,1.43 0.11,1.91 1.91,0.51 3.86,0.91 5.81,1.34 0.04,-3.08 0,-6.16 0.26,-9.22 -0.03,2.84 0.24,5.68 0.49,8.53 2.27,-1.42 4.6,-2.99 7.36,-3.17 9.08,5.35 14.66,17.69 7.94,27.26 -4.88,-1.06 -10.8,0.13 -11.58,5.95 -0.21,-1.46 -0.17,-2.92 -0.03,-4.37 -22.06,-0.4 -45.4,-11.91 -52.62,-34.11 -4.95,-12.78 -2.84,-28.57 7.34,-38.21 -30.83,1 -43.8,-31.75 -50.67,-56.5 -6.27,-14.04 0.44,-33.17 16.05,-37.16 -3.92,-11.03 -7.21,-22.57 -10.64,-33.53 -14.97,3.39 -28.97,-6.55 -34.87,-19.84 -6.4,-15.37 -11.59,-31.35 -15.09,-47.63 -2.07,-13.66 6.85,-25.57 18.24,-31.9 -4.6,-12.85 -6.79,-26.99 -12.43,-39.17 -31.17,-1.88 -33.29,-38.31 -41.61,-61.09 -6.96,-14.96 -0.93,-36 16.7,-39.35 -2.43,-12.53 -6.75,-24.85 -9.6,-37.36 -13.48,2.08 -23.24,-11.23 -29.83,-21.08 0.88,7.54 0.53,15.31 2.94,22.59 -5.1,8.29 0.5,17.49 -0.92,26.29 -6.46,45.99 -10.29,92.35 -17.34,138.24 -10.04,11.51 -6.95,27.88 -10.04,41.98 -0.84,-7.62 0.69,-15.22 1.63,-22.76 -10.3,6.85 -2.5,-11.71 -7.44,-16.32 -1.85,17.44 -3.22,35.08 -6.22,52.29 -0.18,-0.88 -0.54,-2.63 -0.73,-3.51 1.88,-18.66 3.96,-37.29 5.88,-55.93 -3.12,-1.6 -6.29,-3.15 -9.68,-4.08 -10.48,-2.88 -21.56,-5.76 -32.44,-3.42 -3.75,0.86 -7.58,1.28 -11.33,2.12 -2.02,0.81 -4.55,1.58 -5.52,3.73 -26.49,187.54 -56.37,374.61 -80.77,562.44 -13.53,101.86 -28.2,203.57 -40.88,305.55 -0.12,0.24 -0.36,0.73 -0.48,0.97 4.62,-0.93 9.24,-2.11 13.99,-2.04 -4.18,2.66 -9.27,2.71 -13.92,4.01 -2.01,9.92 -3.65,20.1 -3.77,30.21 -0.95,0.52 -1.88,1.1 -2.8,1.7 0.9,2.43 0.8,5.04 0.7,7.61 -1.34,1.07 -2.66,2.16 -3.96,3.3 7.74,-3.29 15.91,-5.6 24.28,-6.5 1.42,0.23 2.83,0.5 4.25,0.81 -2.34,0.24 -4.67,0.47 -7,0.76 -0.57,10.68 -2.76,21.13 -4.83,31.59 17.6,9.05 38,11.81 57.5,9.22 0.88,0.09 2.62,0.26 3.5,0.35 -26.18,4.74 -55.89,-0.25 -76.28,-18.25 -14.8,-13.6 -4.91,-35.2 -4.3,-52.27 -0.1,2.53 0.69,12.57 3.9,7.06 6.82,-8.91 -3.43,-19.99 3.4,-28.84 4.53,-6.56 1.21,-15.18 4.67,-21.34 0.99,0.6 1.97,1.26 2.96,1.9 26.19,-196.74 52.98,-393.48 81.92,-589.87 11.65,-79.67 23.87,-159.25 34.36,-239.08 -1.23,0.13 -2.45,0.26 -3.67,0.4 -0.65,-0.51 -1.3,-1.03 -1.94,-1.53 -0.37,3.99 -0.51,8.16 -2.62,11.71 4.47,-11.37 -4.17,-21.92 -0.21,-33.14 5.75,-41.08 12.51,-82.01 18.33,-123.07 -0.28,-12.42 9.99,-21.58 9.55,-34.08 4.26,-31.24 8.92,-62.49 14.11,-93.62 1.95,-9.97 11.22,-16.36 20.78,-17.92 -7.33,-9.58 -13.22,-21.16 -11.6,-33.6 m 10.7,-14.66 c -8.5,3.26 -8.55,14.36 -7.82,22.02 0.39,-1.71 0.71,-3.43 1.02,-5.16 5.68,12.79 12.79,30.45 29.85,29.85 0.08,-0.39 0.24,-1.17 0.32,-1.57 0.85,-0.37 1.71,-0.74 2.58,-1.11 0.2,-0.44 0.6,-1.32 0.8,-1.75 -0.85,0.12 -1.7,0.24 -2.55,0.36 0.11,-1.08 0.22,-2.15 0.34,-3.22 h -0.72 c -6.85,-8.49 -15.36,-18.44 -11.78,-30.25 4.37,-12.38 21.9,-13.45 30.64,-5.32 5.75,6.38 6.97,15.74 5.69,23.95 2.75,2.85 4.84,6.22 7.35,9.27 4.57,-8.6 4.41,-18.54 2.51,-27.97 4.95,4.36 2.92,11.74 4.87,16.92 4.89,-32.82 -43.66,-54.09 -63.1,-26.02 m 20.58,8.58 c -9.47,3.08 -5.9,16.3 0.22,21.13 5.43,-9.3 16.15,-9.61 24.67,-4.54 C 393.86,128.35 382.34,118 370.89,122.7 m 5.23,18.5 c -0.99,5.26 4.62,6.39 7.98,8.7 -0.19,0.45 -0.58,1.37 -0.77,1.83 14.23,13.64 14.31,35.27 22.91,52.18 3.35,3.95 9.88,14.29 14.91,7.6 -0.63,0.03 -1.9,0.09 -2.53,0.12 0.38,-3.8 2.31,-7.33 1.71,-11.25 0.42,0.07 1.26,0.21 1.69,0.27 -0.91,-2.65 -1.68,-5.36 -2.97,-7.85 -3.4,-13.35 -7.74,-26.64 -13.86,-39.01 -5.39,-9.87 -17.81,-19.47 -29.07,-12.59 m -36.94,43.19 c 15.03,-8.92 35.38,-7.56 50.11,1.34 -0.93,-27.42 -51.69,-30.04 -50.11,-1.34 m 11.79,-1.48 c -5.31,1.6 -13.38,4.02 -12.07,11.17 -2.93,16.67 -4.65,33.57 -7.92,50.18 4.04,-2.03 8.38,-3.53 12.97,-3.16 10.27,-2.04 20.97,-0.65 30.71,3.02 3.85,0.76 6.58,4.45 10.62,4.31 -0.66,-18.42 -1.29,-37.25 3.36,-55.23 -1.35,-3.35 -3.82,-6.07 -7.34,-7.16 -8.88,-5.5 -20.62,-7.56 -30.33,-3.13 m 68.9,4.02 c 0,8.01 4.7,10.79 11.53,12.31 -0.6,0.21 -1.81,0.64 -2.42,0.86 11.1,9.61 13.34,24.95 17.6,38.22 4.83,5.2 -0.84,13.01 2.68,18.84 -1.12,1.95 -2.45,3.77 -3.7,5.63 0.62,3.2 1.46,6.35 2.6,9.41 18.92,-10.88 12.37,-34.95 6.24,-51.52 -3.36,-16.47 -14.99,-36.62 -34.53,-33.75 m -30.47,27.26 c 3.88,21.74 5.84,51.17 29.49,60.84 0.16,-9.7 -8.37,-15.67 -9.35,-24.99 -2.5,-14.2 -8.6,-28.4 -9.08,-42.3 0.04,-1.4 0.12,-2.81 0.2,-4.2 -5.44,-2.89 -8.77,6.86 -11.26,10.65 m 36.73,-7.05 c 2.33,13.35 -12.25,19.62 -20.87,9.5 4.03,14.96 4.16,33.03 13.66,45.51 0.59,-12.22 17.96,-16.44 24.22,-6.04 -1.43,-16.4 -6.34,-36.41 -17.01,-48.97 M 327.7,257.5 c 17.66,-10.12 41.31,-7.04 57.47,4.64 1.77,-6.65 -3.51,-12.53 -9.1,-15.25 -14.76,-7.93 -43.47,-9.15 -48.37,10.61 m 98.6,-1.38 c -0.82,26.05 11.47,51.01 16.86,76.48 -0.73,6.65 8.5,13.65 14.17,8.7 4.24,-2.9 3.39,-8.77 2.11,-13 -4.41,-23.36 -12.13,-45.92 -17.8,-68.99 -1.49,-7.05 -11.52,-8.73 -15.34,-3.19 M 316.48,287.2 c -1.61,1.33 -3.01,2.88 -3.91,4.79 18.46,-12.5 42.75,-9.56 63.03,-3.67 5.68,2.32 11.01,5.46 15.47,9.7 5.55,-15.72 -7.55,-28.41 -20.13,-35.12 -20.19,-12.86 -51.37,0.37 -54.46,24.3 m 19.78,5.82 c -3.59,0.57 -6.99,1.97 -10.14,3.75 -1.63,0.58 -3.22,1.27 -4.78,2.04 -5.78,1.28 -6.01,7.69 -6.95,12.41 -5.13,32.02 -9.85,64.17 -14.12,96.28 -0.44,3.58 -0.94,7.15 -1.54,10.7 18.45,-9.02 39.88,-4.63 58.6,1.25 v 0.12 c 4.36,1.97 8.06,5.08 12.2,7.45 3.76,-38.97 9.74,-77.71 12.93,-116.73 2.92,-7.92 -6.8,-11.65 -12.55,-14.18 -10.64,-4.47 -22.39,-4.29 -33.65,-3.09 m 122.84,23.89 c 1.25,3.05 1.32,6.83 2.84,9.58 -1.02,5.59 7.04,5.33 8.33,10.1 6.34,18.4 16.07,37.71 13.52,57.63 -0.89,0.32 -1.77,0.64 -2.64,0.98 0.32,1.1 0.64,2.21 0.96,3.32 1.02,3.91 2.32,7.75 3.41,11.64 1.3,-0.44 2.54,-1.01 3.76,-1.65 l 0.35,0.13 c 12.1,-4.31 15.5,-18.46 11.65,-29.71 -4.47,-15.25 -7.86,-30.96 -14.83,-45.33 -4.89,-10.3 -16,-16.95 -27.35,-16.69 m -41.6,28.01 c 3.07,17.88 8.35,35.43 14.52,52.47 5.1,9.71 15.42,16.64 26.55,16.62 -0.48,-3.6 -1.07,-7.19 -1.99,-10.71 -0.46,0.68 -0.91,1.37 -1.36,2.06 0.5,-8.87 -9.83,-11.77 -11.82,-19.63 -4.03,-13.44 -8.58,-26.81 -10.87,-40.7 -0.67,-4.08 2.83,-7.1 5.01,-10.09 -0.98,-2.76 -0.84,-6.56 -4.08,-7.74 0.09,-0.87 0.2,-1.74 0.31,-2.61 -9.69,0.49 -18.8,10.34 -16.27,20.33 m 46.5,-6.25 c 1.05,16.43 -19.09,15.42 -26.47,5.53 -1.22,11.44 4.06,22.68 6.74,33.73 1.78,6.77 4.03,14.38 10.87,17.71 -1.9,-10.51 13.34,-16.36 20.17,-8.93 2.42,2.81 8.82,10.04 7.21,1.72 -6.06,-16.44 -8.07,-35.64 -18.52,-49.76 m -5.93,58.31 0.47,-0.54 c 7.19,26.04 15.82,51.78 22.47,78 1.18,5.48 4.94,11.08 10.96,11.63 9.89,1.86 7.76,-12.71 5.84,-18.38 -3.67,-22.07 -10.75,-43.37 -16.54,-64.93 -2.1,-7.9 -7.11,-18.43 -16.98,-16.97 -5.11,0.95 -7.26,6.5 -6.22,11.19 m -150.66,23.55 c -6.77,1.02 -11.52,5.8 -11.19,12.86 24,-7.6 53.45,-5.31 73.56,10.56 -0.22,-3.52 -0.16,-7.04 -0.2,-10.56 -15.32,-16.97 -41.17,-19.61 -62.17,-12.86 m 190.72,34.59 c 0.7,4.32 1.53,8.63 2.97,12.78 0.1,0.65 0.29,1.94 0.38,2.58 17.31,10.63 17.78,35.14 23.41,52.75 0.61,-1.05 1.22,-2.1 1.84,-3.15 1.37,2.46 1.46,5.37 2.36,8.01 -1.65,2.13 -3.66,3.93 -5.59,5.78 2.04,3.03 2.8,6.84 5.4,9.48 6.47,-5.94 12.14,-13.04 13.76,-22.28 -4.97,-16.74 -8.88,-34.13 -17.1,-49.66 -5.09,-10.01 -16.43,-16.07 -27.43,-16.29 m -39.68,46.47 c 3.89,20.15 9.65,49.44 34.94,51.32 0.04,-0.36 0.1,-1.09 0.14,-1.45 2.31,-0.44 4.55,-1.21 6.62,-2.33 -0.07,-0.79 -0.22,-2.36 -0.29,-3.15 l -0.71,0.19 c -1.73,-3.24 -2.18,-7.71 -6.01,-9.25 -13.98,-7.97 -14.08,-26.09 -19.68,-39.53 -3.38,-6.61 -4.09,-15.78 3.01,-20.24 -0.08,-3.64 -0.09,-7.55 -2.1,-10.71 -17.76,0.85 -21.99,21.41 -15.92,35.15 m 40.1,-9.02 c -8.13,4.97 -15.72,-3.58 -22.13,-6.44 0.22,15 5.05,33.95 15.48,45.83 3.62,-11.88 21.16,-13.21 27.13,-2.7 0.99,0.25 1.99,0.5 3,0.75 -3.19,-17.31 -8.79,-34.85 -16.63,-50.71 -3.93,1.54 -1.46,10.77 -6.85,13.27 m -0.72,36.45 c 8.81,25.69 17.71,52.1 25.7,78.38 2.58,10.3 19.32,14.33 18.87,0.47 0.31,2.08 -0.23,4.49 1.15,6.28 0.78,-4.35 0.84,-8.89 -0.28,-13.19 -4.63,-18.92 -10.71,-37.43 -17.61,-55.65 -2.94,-8.26 -7.12,-18.63 -16.65,-20.68 -2,-0.36 -4.01,-0.69 -6.01,-0.98 -1.47,2.02 -3.14,3.9 -5.17,5.37 m 43.97,55.32 c 1.65,5.4 0.61,14.46 8.35,14.54 5.72,13.96 17,25.4 20.69,40.33 -1.72,-0.86 -3.29,-1.94 -4.81,-3.09 3.44,6.28 5.35,12.99 6.73,19.96 2.13,3.6 4.54,7.07 7.83,9.72 2.35,-2.79 5.27,-5.26 6.35,-8.89 -0.4,-0.34 -1.21,-1.01 -1.62,-1.35 6.33,-15.51 -4.87,-30.68 -10.16,-44.81 -5.19,-14.08 -18,-25.51 -33.36,-26.41 m -43.58,37.78 c 3.98,15.31 9.43,30.4 15.87,44.81 8.9,8.9 23.47,19.2 36.22,12 -2.53,0.34 -14.69,-1.2 -7.2,-2.24 2.21,0.43 4.49,0.07 6.73,-0.04 -0.36,-1.77 -0.79,-3.53 -1.21,-5.27 1.1,1.48 1.99,3.31 3.9,3.9 -2.48,-12.82 -17.49,-11.17 -24.96,-18.84 -8.84,-13.64 -16.86,-31.61 -12.6,-47.9 0.54,-0.96 1.08,-1.91 1.62,-2.87 0.34,-0.02 1.02,-0.08 1.36,-0.1 -1.05,-3.49 -1.77,-7.09 -3.42,-10.37 -11.11,3.59 -19.46,15.03 -16.31,26.92 m 49.58,-15.64 c -0.79,6.5 -0.65,16.19 -8.84,17.77 -8.19,2.06 -14.23,-4.26 -20.45,-8.2 -0.05,15 4.39,33.03 16.64,42.74 1.23,-0.1 2.47,-0.11 3.72,-0.09 -0.12,-0.79 -0.24,-1.56 -0.34,-2.33 4.61,-14.25 22.7,-12.16 31.58,-3.37 -5.59,-16.13 -11.59,-33.03 -22.31,-46.52 m -3,49.78 c 11.23,10.8 18.75,24.49 23.66,39.18 1.31,6.17 8.86,10.43 14.33,6.37 6.67,-3.7 2.32,-12.14 1.8,-17.89 l -0.22,0.39 c -2.71,-12.95 -10.67,-24.49 -20.79,-32.81 -5.87,-4.1 -18.29,-4.53 -18.78,4.76 m -0.47,69.68 -0.63,0.95 c 1.7,3.78 3.81,7.55 6.78,10.46 7.77,7.57 17.7,13.24 28.52,14.85 5.51,0.93 19.05,3.91 18.49,-4.77 -5.13,0.63 -11.21,2.7 -15.65,-1.08 5.88,-0.79 12,-0.4 17.46,-3.15 0.6,-1.32 1.17,-2.64 1.7,-3.98 -8.07,-4.04 -16.9,-1.79 -25.41,-3.76 -12.11,-7.02 -27.17,-26.7 -14.76,-39.15 -0.33,-2.77 -2.42,-5.37 -1.03,-8.15 -17.35,1.59 -22.52,24.04 -15.47,37.78 z"
       id="path1" />
  </g>
  <g
     id="#fafbfbfe"
     transform="translate(-161.82426,-98.722798)">
    <path
       fill="#fafbfb"
       stroke="#fafbfb"
       stroke-width="0.09375"
       opacity="1"
       d="m 350.31,114.12 c 19.44,-28.07 67.99,-6.8 63.1,26.02 -1.95,-5.18 0.08,-12.56 -4.87,-16.92 1.9,9.43 2.06,19.37 -2.51,27.97 -2.51,-3.05 -4.6,-6.42 -7.35,-9.27 1.28,-8.21 0.06,-17.57 -5.69,-23.95 -8.74,-8.13 -26.27,-7.06 -30.64,5.32 -3.58,11.81 4.93,21.76 11.78,30.25 -20.23,4.44 -32.44,-23.58 -23.82,-39.42 z"
       id="path2" />
    <path
       fill="#fafbfb"
       stroke="#fafbfb"
       stroke-width="0.09375"
       opacity="1"
       d="m 419.87,186.93 c 19.54,-2.87 31.17,17.28 34.53,33.75 6.13,16.57 12.68,40.64 -6.24,51.52 -1.14,-3.06 -1.98,-6.21 -2.6,-9.41 1.25,-1.86 2.58,-3.68 3.7,-5.63 3.69,-19.73 -3.7,-43.33 -17.86,-57.92 -6.83,-1.52 -11.53,-4.3 -11.53,-12.31 z"
       id="path3" />
  </g>
  <g
     id="#b8bfc5fe"
     transform="translate(-161.82426,-98.722798)">
    <path
       fill="#b8bfc5"
       stroke="#b8bfc5"
       stroke-width="0.09375"
       opacity="1"
       d="m 342.49,136.14 c -0.73,-7.66 -0.68,-18.76 7.82,-22.02 -8.62,15.84 3.59,43.86 23.82,39.42 h 0.72 c -0.12,1.07 -0.23,2.14 -0.34,3.22 0.85,-0.12 1.7,-0.24 2.55,-0.36 -0.2,0.43 -0.6,1.31 -0.8,1.75 -0.87,0.37 -1.73,0.74 -2.58,1.11 -0.08,0.4 -0.24,1.18 -0.32,1.57 -17.06,0.6 -24.17,-17.06 -29.85,-29.85 -0.31,1.73 -0.63,3.45 -1.02,5.16 z"
       id="path4" />
    <path
       fill="#b8bfc5"
       stroke="#b8bfc5"
       stroke-width="0.09375"
       opacity="1"
       d="m 305.96,440.61 c 3.75,-0.84 7.58,-1.26 11.33,-2.12 -11.96,98.34 -26.01,196.81 -37.57,295.38 -14.08,119.17 -30,238.21 -43.34,357.51 -3.1,8.59 -3.67,17.8 -3.52,26.87 -0.96,-2.74 -1.73,-5.53 -2.33,-8.36 -1.47,9.71 -2.31,19.5 -3.44,29.26 -2.14,19.01 -5.1,37.92 -7.31,56.92 -4.2,47.43 -12.15,94.61 -13.72,142.19 -10.94,0.35 -21.35,3.22 -31.45,7.22 0.12,-10.11 1.76,-20.29 3.77,-30.21 4.65,-1.3 9.74,-1.35 13.92,-4.01 -4.75,-0.07 -9.37,1.11 -13.99,2.04 0.12,-0.24 0.36,-0.73 0.48,-0.97 5.21,-17.89 5.16,-37.27 9.18,-55.55 6.08,5.92 -0.65,18.32 1.42,27.3 21.26,-196.42 54.95,-391.21 79.82,-587.19 12.03,-85.45 24.64,-170.85 36.75,-256.28 z"
       id="path5" />
  </g>
  <g
     id="#fcfdfdfe"
     transform="translate(-161.82426,-98.722798)">
    <path
       fill="#fcfdfd"
       stroke="#fcfdfd"
       stroke-width="0.09375"
       opacity="1"
       d="m 376.12,141.2 c 11.26,-6.88 23.68,2.72 29.07,12.59 6.12,12.37 10.46,25.66 13.86,39.01 -0.16,2.61 -0.43,5.2 -0.67,7.8 -8.72,2.35 -9.59,-8.51 -11.74,-14.21 -5.07,-13.22 -8.26,-30.08 -22.54,-36.49 -3.36,-2.31 -8.97,-3.44 -7.98,-8.7 z"
       id="path6" />
    <path
       fill="#fcfdfd"
       stroke="#fcfdfd"
       stroke-width="0.09375"
       opacity="1"
       d="m 501.76,526.97 c 2.24,-1.23 4.66,-2.17 7.25,-2.34 9.53,2.05 13.71,12.42 16.65,20.68 6.9,18.22 12.98,36.73 17.61,55.65 -0.13,0.82 -0.39,2.44 -0.53,3.25 -1.15,-3.33 -2.24,-6.67 -3.26,-10.03 0.28,6.6 -8.43,10.79 -11.28,3.61 -8.62,-23.68 -16.47,-47.67 -26.44,-70.82 z"
       id="path7" />
    <path
       fill="#fcfdfd"
       stroke="#fcfdfd"
       stroke-width="0.09375"
       opacity="1"
       d="m 541.8,584.34 c 15.36,0.9 28.17,12.33 33.36,26.41 5.29,14.13 16.49,29.3 10.16,44.81 0.41,0.34 1.22,1.01 1.62,1.35 -1.08,3.63 -4,6.1 -6.35,8.89 -3.29,-2.65 -5.7,-6.12 -7.83,-9.72 0.97,-0.45 1.96,-0.89 2.94,-1.32 -0.83,-20.32 -8.82,-43.54 -25.55,-55.88 -7.74,-0.08 -6.7,-9.14 -8.35,-14.54 z"
       id="path8" />
    <path
       fill="#fcfdfd"
       stroke="#fcfdfd"
       stroke-width="0.09375"
       opacity="1"
       d="m 410.29,804.77 c 17.86,4.47 36.41,6.11 54.13,10.79 7.74,12.15 -6.3,25.44 -16.29,31.4 -1.99,-1.88 -4.01,-3.73 -6.05,-5.54 0.16,0.9 0.49,2.71 0.65,3.62 -10.34,-13.79 -21.99,-26.55 -32.44,-40.27 z"
       id="path9" />
  </g>
  <g
     id="#c7cdd2fe"
     transform="translate(-161.82426,-98.722798)">
    <path
       fill="#c7cdd2"
       stroke="#c7cdd2"
       stroke-width="0.09375"
       opacity="1"
       d="m 384.1,149.9 c 14.28,6.41 17.47,23.27 22.54,36.49 2.15,5.7 3.02,16.56 11.74,14.21 0.24,-2.6 0.51,-5.19 0.67,-7.8 1.29,2.49 2.06,5.2 2.97,7.85 -0.43,-0.06 -1.27,-0.2 -1.69,-0.27 0.6,3.92 -1.33,7.45 -1.71,11.25 0.63,-0.03 1.9,-0.09 2.53,-0.12 -5.03,6.69 -11.56,-3.65 -14.91,-7.6 -8.6,-16.91 -8.68,-38.54 -22.91,-52.18 0.19,-0.46 0.58,-1.38 0.77,-1.83 z"
       id="path10" />
  </g>
  <g
     id="#f0f2f3fe"
     transform="translate(-161.82426,-98.722798)">
    <path
       fill="#f0f2f3"
       stroke="#f0f2f3"
       stroke-width="0.09375"
       opacity="1"
       d="m 339.18,184.39 c -1.58,-28.7 49.18,-26.08 50.11,1.34 -14.73,-8.9 -35.08,-10.26 -50.11,-1.34 z"
       id="path11" />
  </g>
  <g
     id="#f3f6f7fe"
     transform="translate(-161.82426,-98.722798)">
    <path
       fill="#f3f6f7"
       stroke="#f3f6f7"
       stroke-width="0.09375"
       opacity="1"
       d="m 350.97,182.91 c 9.71,-4.43 21.45,-2.37 30.33,3.13 -3.4,19.19 -3.97,38.77 -6.64,58.08 -9.74,-3.67 -20.44,-5.06 -30.71,-3.02 4.72,-18.07 5.53,-37.41 8.95,-55.95 -0.65,-0.75 -1.29,-1.5 -1.93,-2.24 z"
       id="path12" />
  </g>
  <g
     id="#bbc1c7fe"
     transform="translate(-161.82426,-98.722798)">
    <path
       fill="#bbc1c7"
       stroke="#bbc1c7"
       stroke-width="0.09375"
       opacity="1"
       d="m 338.9,194.08 c -1.31,-7.15 6.76,-9.57 12.07,-11.17 0.64,0.74 1.28,1.49 1.93,2.24 -3.42,18.54 -4.23,37.88 -8.95,55.95 -4.59,-0.37 -8.93,1.13 -12.97,3.16 3.27,-16.61 4.99,-33.51 7.92,-50.18 z"
       id="path13" />
  </g>
  <g
     id="#aeb5bdfe"
     transform="translate(-161.82426,-98.722798)">
    <path
       fill="#aeb5bd"
       stroke="#aeb5bd"
       stroke-width="0.09375"
       opacity="1"
       d="m 381.3,186.04 c 3.52,1.09 5.99,3.81 7.34,7.16 -4.65,17.98 -4.02,36.81 -3.36,55.23 -4.04,0.14 -6.77,-3.55 -10.62,-4.31 2.67,-19.31 3.24,-38.89 6.64,-58.08 z"
       id="path14" />
  </g>
  <g
     id="#a1a9b1fe"
     transform="translate(-161.82426,-98.722798)">
    <path
       fill="#a1a9b1"
       stroke="#a1a9b1"
       stroke-width="0.09375"
       opacity="1"
       d="m 431.4,199.24 c 14.16,14.59 21.55,38.19 17.86,57.92 -3.52,-5.83 2.15,-13.64 -2.68,-18.84 -4.26,-13.27 -6.5,-28.61 -17.6,-38.22 0.61,-0.22 1.82,-0.65 2.42,-0.86 z"
       id="path15" />
    <path
       fill="#a1a9b1"
       stroke="#a1a9b1"
       stroke-width="0.09375"
       opacity="1"
       d="m 600.35,867.32 c 2.02,1.7 3.81,5.36 6.93,4.18 0.63,-0.24 1.88,-0.7 2.5,-0.94 1.89,9.52 2.08,19.23 3.03,28.86 2.75,-0.79 5.55,-1.39 8.35,-2.01 5.45,2.38 9.35,7.32 11.19,12.9 -4.34,-2.59 -7.52,-6.76 -12.15,-8.91 -2.18,0.51 -4.37,0.94 -6.58,1.26 -0.62,3.04 -1.26,6.08 -1.63,9.16 -4.66,34.91 -17.57,73.19 -48.79,92.9 l -0.4,-0.07 c -2.92,-0.86 -5.69,0.73 -8.4,1.59 0.32,-0.95 0.64,-1.86 0.96,-2.78 3.52,-1.7 7.02,-3.46 10.38,-5.48 -0.92,-2.35 -2.99,-3.67 -5.23,-4.55 3.41,-1.61 6.95,-3.32 9.2,-6.49 l -1.51,-0.17 c 23.71,-19.52 33.96,-50.29 37.08,-79.9 -2.38,-2.05 -6.44,-1.56 -9.52,-2.39 -6.82,-13.33 5.09,-24.09 4.59,-37.16 z"
       id="path16" />
  </g>
  <g
     id="#fbfcfcfe"
     transform="translate(-161.82426,-98.722798)">
    <path
       fill="#fbfcfc"
       stroke="#fbfcfc"
       stroke-width="0.09375"
       opacity="1"
       d="m 389.4,214.19 c 2.49,-3.79 5.82,-13.54 11.26,-10.65 -0.08,1.39 -0.16,2.8 -0.2,4.2 0.48,13.9 6.58,28.1 9.08,42.3 0.98,9.32 9.51,15.29 9.35,24.99 -23.65,-9.67 -25.61,-39.1 -29.49,-60.84 z"
       id="path17" />
    <path
       fill="#fbfcfc"
       stroke="#fbfcfc"
       stroke-width="0.09375"
       opacity="1"
       d="m 426.3,256.12 c 3.82,-5.54 13.85,-3.86 15.34,3.19 5.67,23.07 13.39,45.63 17.8,68.99 -2.58,2 -7.34,8.17 -9.78,3.06 -9.27,-21.45 -11.34,-45.4 -21.6,-66.5 4.59,22.48 15.88,44.47 15.1,67.74 -5.39,-25.47 -17.68,-50.43 -16.86,-76.48 z"
       id="path18" />
    <path
       fill="#fbfcfc"
       stroke="#fbfcfc"
       stroke-width="0.09375"
       opacity="1"
       d="m 459.1,316.91 c 11.35,-0.26 22.46,6.39 27.35,16.69 6.97,14.37 10.36,30.08 14.83,45.33 -2.17,10.85 -6.97,20.88 -15.37,28.29 1.12,0.42 2.24,0.85 3.37,1.29 -1.22,0.64 -2.46,1.21 -3.76,1.65 -1.09,-3.89 -2.39,-7.73 -3.41,-11.64 12.33,-5.36 6.53,-21.61 3.71,-31.37 -5.4,-14.42 -5.82,-36.14 -23.88,-40.66 -1.52,-2.75 -1.59,-6.53 -2.84,-9.58 z"
       id="path19" />
    <path
       fill="#fbfcfc"
       stroke="#fbfcfc"
       stroke-width="0.09375"
       opacity="1"
       d="m 317.29,438.49 c 10.88,-2.34 21.96,0.54 32.44,3.42 -3.26,26.51 -6.01,53.21 -10.96,79.44 3.3,-7.12 2.77,-16.12 8.08,-22.61 -8.09,80.11 -18.14,160.14 -27.66,240.11 -7.29,6.31 -18.36,12.26 -18.05,23.25 -1.49,12.23 -2.67,24.5 -4.12,36.74 0.6,-0.48 1.2,-0.95 1.8,-1.41 2.58,9.67 -9.79,22.09 0.25,29.44 1.06,3.51 -0.68,7.17 -1,10.71 -1.38,-0.44 -2.76,-0.88 -4.14,-1.31 0.05,1.19 0.1,2.39 0.16,3.6 2.21,0.04 4.42,0.02 6.64,-0.07 0.69,-1.58 1.39,-3.15 2.11,-4.71 -11.28,97.88 -18.75,196.12 -30.22,293.94 -2.15,25.1 -7.1,50.08 -7.12,75.32 -1.57,-3.73 -3.55,-7.27 -4.9,-11.08 -1.9,-6.04 -5.74,-11.27 -7.26,-17.47 -7.06,36.23 -8.69,73.63 -13.73,110.21 -0.98,-5.1 -1.12,-10.29 -1.82,-15.41 -3.08,22.66 -4,45.95 -6.3,68.82 7.62,2.17 15.11,4.74 22.51,7.59 4.86,2.22 9.53,4.92 13.68,8.31 -0.1,3.57 -0.08,7.21 -1.32,10.63 -3.57,-2.41 -7.43,-4.34 -11.47,-5.81 -19.78,-7.16 -41.13,-9.65 -62.06,-8.55 -8.37,0.9 -16.54,3.21 -24.28,6.5 1.3,-1.14 2.62,-2.23 3.96,-3.3 0.1,-2.57 0.2,-5.18 -0.7,-7.61 0.92,-0.6 1.85,-1.18 2.8,-1.7 10.1,-4 20.51,-6.87 31.45,-7.22 3.96,-0.13 7.94,-0.02 11.9,-0.3 5.92,-54.76 11.75,-109.6 19.08,-164.15 -7.38,5.81 -11.11,15.25 -17.26,22.26 2.21,-19 5.17,-37.91 7.31,-56.92 2.51,-2.44 5.04,-4.85 7.74,-7.06 2.63,6.34 2.22,13.49 5.14,19.71 9.36,-71.4 15.11,-143.52 25.79,-214.88 11.2,-113.72 30.61,-226.23 41.74,-339.95 0.39,-2.81 0.1,-5.64 -0.64,-8.36 -14.62,47.61 -8.57,100.53 -26.42,147.44 -0.18,-0.55 -0.54,-1.64 -0.72,-2.18 11.56,-98.57 25.61,-197.04 37.57,-295.38 z"
       id="path20" />
    <path
       fill="#fbfcfc"
       stroke="#fbfcfc"
       stroke-width="0.09375"
       opacity="1"
       d="m 498.13,455.12 c 11,0.22 22.34,6.28 27.43,16.29 8.22,15.53 12.13,32.92 17.1,49.66 -1.62,9.24 -7.29,16.34 -13.76,22.28 -2.6,-2.64 -3.36,-6.45 -5.4,-9.48 1.93,-1.85 3.94,-3.65 5.59,-5.78 4.2,-9.86 -2.61,-19.67 -5.04,-29.1 -4.11,-12.06 -8.63,-28.07 -22.95,-31.09 -1.44,-4.15 -2.27,-8.46 -2.97,-12.78 z"
       id="path21" />
    <path
       fill="#fbfcfc"
       stroke="#fbfcfc"
       stroke-width="0.09375"
       opacity="1"
       d="m 458.45,501.59 c -6.07,-13.74 -1.84,-34.3 15.92,-35.15 2.01,3.16 2.02,7.07 2.1,10.71 -7.1,4.46 -6.39,13.63 -3.01,20.24 5.6,13.44 5.7,31.56 19.68,39.53 3.83,1.54 4.28,6.01 6.01,9.25 -9.07,4.82 -18.69,-2.16 -23.3,-9.91 -8.64,-14.39 -13.16,-30.8 -17.82,-46.79 -0.12,4.05 0.77,8.07 0.42,12.12 z"
       id="path22" />
  </g>
  <g
     id="#f7f9faff"
     transform="translate(-161.82426,-98.722798)">
    <path
       fill="#f7f9fa"
       stroke="#f7f9fa"
       stroke-width="0.09375"
       opacity="1"
       d="m 327.7,257.5 c 4.9,-19.76 33.61,-18.54 48.37,-10.61 5.59,2.72 10.87,8.6 9.1,15.25 -16.16,-11.68 -39.81,-14.76 -57.47,-4.64 z"
       id="path23" />
  </g>
  <g
     id="#f6f7f9fe"
     transform="translate(-161.82426,-98.722798)">
    <path
       fill="#f6f7f9"
       stroke="#f6f7f9"
       stroke-width="0.09375"
       opacity="1"
       d="m 316.48,287.2 c 3.09,-23.93 34.27,-37.16 54.46,-24.3 -5.91,4.47 1.57,7.97 5.68,9.43 -0.59,5.31 -1.4,10.63 -1.02,15.99 -20.28,-5.89 -44.57,-8.83 -63.03,3.67 0.9,-1.91 2.3,-3.46 3.91,-4.79 z"
       id="path24" />
  </g>
  <g
     id="#abb3bbfe"
     transform="translate(-161.82426,-98.722798)">
    <path
       fill="#abb3bb"
       stroke="#abb3bb"
       stroke-width="0.09375"
       opacity="1"
       d="m 370.94,262.9 c 12.58,6.71 25.68,19.4 20.13,35.12 -4.46,-4.24 -9.79,-7.38 -15.47,-9.7 -0.38,-5.36 0.43,-10.68 1.02,-15.99 -4.11,-1.46 -11.59,-4.96 -5.68,-9.43 z"
       id="path25" />
  </g>
  <g
     id="#b2b9c0ff"
     transform="translate(-161.82426,-98.722798)">
    <path
       fill="#b2b9c0"
       stroke="#b2b9c0"
       stroke-width="0.09375"
       opacity="1"
       d="m 428.06,264.86 c 10.26,21.1 12.33,45.05 21.6,66.5 2.44,5.11 7.2,-1.06 9.78,-3.06 1.28,4.23 2.13,10.1 -2.11,13 -5.67,4.95 -14.9,-2.05 -14.17,-8.7 0.78,-23.27 -10.51,-45.26 -15.1,-67.74 z"
       id="path26" />
  </g>
  <g
     id="#fafbfcfe"
     transform="translate(-161.82426,-98.722798)">
    <path
       fill="#fafbfc"
       stroke="#fafbfc"
       stroke-width="0.09375"
       opacity="1"
       d="m 336.26,293.02 c 11.26,-1.2 23.01,-1.38 33.65,3.09 -1.21,9.9 -5.6,21.88 1.47,30.42 3.4,7.32 2.7,18.95 -6.29,21.82 -1.99,11.34 -5.86,24.29 0.68,34.8 3.82,8.37 -0.16,18.15 -9.1,20.78 -0.6,4.16 -1.32,8.32 -1.32,12.53 1.8,-3.69 1.55,-7.96 3.2,-11.71 0.46,4.96 -1.17,9.76 -1.22,14.7 -18.72,-5.88 -40.15,-10.27 -58.6,-1.25 0.6,-3.55 1.1,-7.12 1.54,-10.7 0.46,2.53 0.84,5.07 1.07,7.63 0.46,-0.22 1.38,-0.67 1.83,-0.89 9.16,-37.79 12.29,-77.03 18.17,-115.43 1.56,-0.77 3.15,-1.46 4.78,-2.04 -6.66,38.58 -9.93,77.72 -17.04,116.25 3.55,-0.48 7.09,-0.98 10.64,-1.45 6.16,-39.38 9.79,-79.23 16.54,-118.55 m 20.11,32.32 c -10.84,4.58 -2.85,21.68 7.53,16.59 10.77,-4.18 3.12,-22.15 -7.53,-16.59 m -6.14,53.75 c -9.91,4.03 -4.76,21.19 5.81,18.99 12.67,-2 6.44,-23.78 -5.81,-18.99 z"
       id="path27" />
  </g>
  <g
     id="#bdc3c9fe"
     transform="translate(-161.82426,-98.722798)">
    <path
       fill="#bdc3c9"
       stroke="#bdc3c9"
       stroke-width="0.09375"
       opacity="1"
       d="m 326.12,296.77 c 3.15,-1.78 6.55,-3.18 10.14,-3.75 -6.75,39.32 -10.38,79.17 -16.54,118.55 -3.55,0.47 -7.09,0.97 -10.64,1.45 7.11,-38.53 10.38,-77.67 17.04,-116.25 z"
       id="path28" />
  </g>
  <g
     id="#bbc2c9fe"
     transform="translate(-161.82426,-98.722798)">
    <path
       fill="#bbc2c9"
       stroke="#bbc2c9"
       stroke-width="0.09375"
       opacity="1"
       d="m 369.91,296.11 c 5.75,2.53 15.47,6.26 12.55,14.18 -3.19,39.02 -9.17,77.76 -12.93,116.73 -4.14,-2.37 -7.84,-5.48 -12.2,-7.45 v -0.12 c 0.05,-4.94 1.68,-9.74 1.22,-14.7 -1.65,3.75 -1.4,8.02 -3.2,11.71 0,-4.21 0.72,-8.37 1.32,-12.53 8.94,-2.63 12.92,-12.41 9.1,-20.78 -6.54,-10.51 -2.67,-23.46 -0.68,-34.8 8.99,-2.87 9.69,-14.5 6.29,-21.82 -7.07,-8.54 -2.68,-20.52 -1.47,-30.42 z"
       id="path29" />
  </g>
  <g
     id="#ced3d8fe"
     transform="translate(-161.82426,-98.722798)">
    <path
       fill="#ced3d8"
       stroke="#ced3d8"
       stroke-width="0.09375"
       opacity="1"
       d="m 314.39,311.22 c 0.94,-4.72 1.17,-11.13 6.95,-12.41 -5.88,38.4 -9.01,77.64 -18.17,115.43 -0.45,0.22 -1.37,0.67 -1.83,0.89 -0.23,-2.56 -0.61,-5.1 -1.07,-7.63 4.27,-32.11 8.99,-64.26 14.12,-96.28 z"
       id="path30" />
  </g>
  <g
     id="#5b6774ff"
     transform="translate(-161.82426,-98.722798)">
    <path
       fill="#5b6774"
       stroke="#5b6774"
       stroke-width="0.09375"
       opacity="1"
       d="m 356.37,325.34 c 10.65,-5.56 18.3,12.41 7.53,16.59 -10.38,5.09 -18.37,-12.01 -7.53,-16.59 m -0.21,3.54 c -5.7,5.15 1.48,13.04 7.72,10.15 0.7,-0.76 1.41,-1.52 2.12,-2.28 0,-1.53 -0.01,-3.05 0,-4.57 -2.42,-2.7 -6.24,-4.3 -9.84,-3.3 z"
       id="path31" />
  </g>
  <g
     id="#fcfcfcff"
     transform="translate(-161.82426,-98.722798)">
    <path
       fill="#fcfcfc"
       stroke="#fcfcfc"
       stroke-width="0.09375"
       opacity="1"
       d="m 417.5,344.92 c -2.53,-9.99 6.58,-19.84 16.27,-20.33 -0.11,0.87 -0.22,1.74 -0.31,2.61 3.24,1.18 3.1,4.98 4.08,7.74 -2.18,2.99 -5.68,6.01 -5.01,10.09 2.29,13.89 6.84,27.26 10.87,40.7 1.99,7.86 12.32,10.76 11.82,19.63 -2.19,-0.57 -4.45,-1.08 -6.72,-0.68 1.41,2.69 4.09,4.11 6.67,5.47 -4,-0.42 -7.44,-2.53 -10.84,-4.5 0.41,-0.23 1.21,-0.7 1.62,-0.93 -15.44,-12.93 -14.6,-34.77 -23.11,-51.39 1.73,15.05 9.81,29.41 10.87,44.09 -0.42,-0.01 -1.27,-0.02 -1.69,-0.03 -6.17,-17.04 -11.45,-34.59 -14.52,-52.47 z"
       id="path32" />
  </g>
  <g
     id="#a5adb4fe"
     transform="translate(-161.82426,-98.722798)">
    <path
       fill="#a5adb4"
       stroke="#a5adb4"
       stroke-width="0.09375"
       opacity="1"
       d="m 461.94,326.49 c 18.06,4.52 18.48,26.24 23.88,40.66 2.82,9.76 8.62,26.01 -3.71,31.37 -0.32,-1.11 -0.64,-2.22 -0.96,-3.32 0.87,-0.34 1.75,-0.66 2.64,-0.98 2.55,-19.92 -7.18,-39.23 -13.52,-57.63 -1.29,-4.77 -9.35,-4.51 -8.33,-10.1 z"
       id="path33" />
    <path
       fill="#a5adb4"
       stroke="#a5adb4"
       stroke-width="0.09375"
       opacity="1"
       d="m 496.45,837.65 c 1.16,1.14 2.31,2.31 3.44,3.5 -5.99,12.44 -9.05,25.92 -10.96,39.53 4.69,0.92 9.43,1.59 14.15,2.4 0.01,3.39 -0.17,6.79 -0.84,10.13 -4.72,-0.7 -9.36,-1.99 -13.71,-3.96 -0.44,-0.41 -1.32,-1.23 -1.76,-1.63 -0.3,8.29 -0.19,16.59 -0.18,24.9 -0.73,-0.01 -1.46,-0.01 -2.18,0 -0.95,-12.38 1.43,-25.23 -0.24,-37.21 2.17,-13.06 5.51,-26.15 12.28,-37.66 z"
       id="path34" />
  </g>
  <g
     id="#d2d8ddfe"
     transform="translate(-161.82426,-98.722798)">
    <path
       fill="#d2d8dd"
       stroke="#d2d8dd"
       stroke-width="0.09375"
       opacity="1"
       d="m 356.16,328.88 c 3.6,-1 7.42,0.6 9.84,3.3 -0.01,1.52 0,3.04 0,4.57 -0.71,0.76 -1.42,1.52 -2.12,2.28 -6.24,2.89 -13.42,-5 -7.72,-10.15 z"
       id="path35" />
  </g>
  <g
     id="#c0c6cbfe"
     transform="translate(-161.82426,-98.722798)">
    <path
       fill="#c0c6cb"
       stroke="#c0c6cb"
       stroke-width="0.09375"
       opacity="1"
       d="m 422.84,353.33 c 8.51,16.62 7.67,38.46 23.11,51.39 -0.41,0.23 -1.21,0.7 -1.62,0.93 3.4,1.97 6.84,4.08 10.84,4.5 -2.58,-1.36 -5.26,-2.78 -6.67,-5.47 2.27,-0.4 4.53,0.11 6.72,0.68 0.45,-0.69 0.9,-1.38 1.36,-2.06 0.92,3.52 1.51,7.11 1.99,10.71 -11.13,0.02 -21.45,-6.91 -26.55,-16.62 0.42,0.01 1.27,0.02 1.69,0.03 -1.06,-14.68 -9.14,-29.04 -10.87,-44.09 z"
       id="path36" />
  </g>
  <g
     id="#636f7cff"
     transform="translate(-161.82426,-98.722798)">
    <path
       fill="#636f7c"
       stroke="#636f7c"
       stroke-width="0.09375"
       opacity="1"
       d="m 350.23,379.09 c 12.25,-4.79 18.48,16.99 5.81,18.99 -10.57,2.2 -15.72,-14.96 -5.81,-18.99 m -0.93,5.14 c -4.59,5.17 3.67,14.6 8.64,8.72 5.25,-5.24 -2.87,-13.49 -8.64,-8.72 z"
       id="path37" />
  </g>
  <g
     id="#b2b8bffe"
     transform="translate(-161.82426,-98.722798)">
    <path
       fill="#b2b8bf"
       stroke="#b2b8bf"
       stroke-width="0.09375"
       opacity="1"
       d="m 501.28,378.93 c 3.85,11.25 0.45,25.4 -11.65,29.71 l -0.35,-0.13 c -1.13,-0.44 -2.25,-0.87 -3.37,-1.29 8.4,-7.41 13.2,-17.44 15.37,-28.29 z"
       id="path38" />
  </g>
  <g
     id="#d3dadeff"
     transform="translate(-161.82426,-98.722798)">
    <path
       fill="#d3dade"
       stroke="#d3dade"
       stroke-width="0.09375"
       opacity="1"
       d="m 349.3,384.23 c 5.77,-4.77 13.89,3.48 8.64,8.72 -4.97,5.88 -13.23,-3.55 -8.64,-8.72 z"
       id="path39" />
  </g>
  <g
     id="#abb3b9fe"
     transform="translate(-161.82426,-98.722798)">
    <path
       fill="#abb3b9"
       stroke="#abb3b9"
       stroke-width="0.09375"
       opacity="1"
       d="m 458.07,396.98 c -1.04,-4.69 1.11,-10.24 6.22,-11.19 -0.61,2 -1.62,3.83 -2.92,5.46 13.08,27.4 15.32,59.12 30.05,85.55 2.2,-0.99 4.04,-2.54 5.42,-4.52 0.33,1.31 0.67,2.62 1.04,3.93 0.43,-2.82 0.29,-5.69 -0.07,-8.52 1.92,5.67 4.05,20.24 -5.84,18.38 -6.02,-0.55 -9.78,-6.15 -10.96,-11.63 0.88,-0.92 1.76,-1.84 2.64,-2.76 -7.06,-23.44 -11.5,-47.83 -20.27,-70.79 0.11,2.14 0.24,4.29 0.33,6.44 -1.82,-3.91 -2.87,-8.11 -3.99,-12.25 -0.3,0.34 -0.89,1.02 -1.18,1.36 z"
       id="path40" />
  </g>
  <g
     id="#fdfdfdfe"
     transform="translate(-161.82426,-98.722798)">
    <path
       fill="#fdfdfd"
       stroke="#fdfdfd"
       stroke-width="0.09375"
       opacity="1"
       d="m 464.29,385.79 c 9.87,-1.46 14.88,9.07 16.98,16.97 5.79,21.56 12.87,42.86 16.54,64.93 0.36,2.83 0.5,5.7 0.07,8.52 -0.37,-1.31 -0.71,-2.62 -1.04,-3.93 -1.38,1.98 -3.22,3.53 -5.42,4.52 -14.73,-26.43 -16.97,-58.15 -30.05,-85.55 1.3,-1.63 2.31,-3.46 2.92,-5.46 z"
       id="path41" />
  </g>
  <g
     id="#f3f5f6fe"
     transform="translate(-161.82426,-98.722798)">
    <path
       fill="#f3f5f6"
       stroke="#f3f5f6"
       stroke-width="0.09375"
       opacity="1"
       d="m 458.54,396.44 c 0.29,-0.34 0.88,-1.02 1.18,-1.36 1.12,4.14 2.17,8.34 3.99,12.25 -0.09,-2.15 -0.22,-4.3 -0.33,-6.44 8.77,22.96 13.21,47.35 20.27,70.79 -0.88,0.92 -1.76,1.84 -2.64,2.76 -6.65,-26.22 -15.28,-51.96 -22.47,-78 z"
       id="path42" />
  </g>
  <g
     id="#f1f4f6fe"
     transform="translate(-161.82426,-98.722798)">
    <path
       fill="#f1f4f6"
       stroke="#f1f4f6"
       stroke-width="0.09375"
       opacity="1"
       d="m 307.41,420.53 c 21,-6.75 46.85,-4.11 62.17,12.86 0.04,3.52 -0.02,7.04 0.2,10.56 -20.11,-15.87 -49.56,-18.16 -73.56,-10.56 -0.33,-7.06 4.42,-11.84 11.19,-12.86 z"
       id="path43" />
  </g>
  <g
     id="#ecf0f2fe"
     transform="translate(-161.82426,-98.722798)">
    <path
       fill="#ecf0f2"
       stroke="#ecf0f2"
       stroke-width="0.09375"
       opacity="1"
       d="m 300.44,444.34 c 0.97,-2.15 3.5,-2.92 5.52,-3.73 -12.11,85.43 -24.72,170.83 -36.75,256.28 -24.87,195.98 -58.56,390.77 -79.82,587.19 -2.07,-8.98 4.66,-21.38 -1.42,-27.3 -4.02,18.28 -3.97,37.66 -9.18,55.55 12.68,-101.98 27.35,-203.69 40.88,-305.55 24.4,-187.83 54.28,-374.9 80.77,-562.44 z"
       id="path44" />
  </g>
  <g
     id="#c6ccd2fe"
     transform="translate(-161.82426,-98.722798)">
    <path
       fill="#c6ccd2"
       stroke="#c6ccd2"
       stroke-width="0.09375"
       opacity="1"
       d="m 349.73,441.91 c 3.39,0.93 6.56,2.48 9.68,4.08 -1.92,18.64 -4,37.27 -5.88,55.93 -17.98,157.89 -35.93,315.78 -50.37,474.02 -3.72,51.4 -9.04,102.66 -14.4,153.9 -0.39,2.13 -0.92,4.23 -1.45,6.35 0.05,-15.85 1.23,-31.78 2.06,-47.55 -0.8,-4.14 -0.3,-8.9 3.1,-11.77 -2.56,-4.62 3.55,-9.92 -0.09,-14.1 -0.05,-7.06 0.13,-14.22 -1.09,-21.17 12.47,-100.61 14.29,-202.22 27.9,-302.75 9.52,-79.97 19.57,-160 27.66,-240.11 -5.31,6.49 -4.78,15.49 -8.08,22.61 4.95,-26.23 7.7,-52.93 10.96,-79.44 z"
       id="path45" />
  </g>
  <g
     id="#808b95fd"
     transform="translate(-161.82426,-98.722798)">
    <path
       fill="#808b95"
       stroke="#808b95"
       stroke-width="0.09375"
       opacity="1"
       d="m 291.27,452.5 c 0.64,0.5 1.29,1.02 1.94,1.53 1.22,-0.14 2.44,-0.27 3.67,-0.4 -10.49,79.83 -22.71,159.41 -34.36,239.08 -28.94,196.39 -55.73,393.13 -81.92,589.87 -0.99,-0.64 -1.97,-1.3 -2.96,-1.9 -3.46,6.16 -0.14,14.78 -4.67,21.34 -6.83,8.85 3.42,19.93 -3.4,28.84 -3.21,5.51 -4,-4.53 -3.9,-7.06 38.47,-286.87 80.76,-573.27 122.98,-859.59 2.11,-3.55 2.25,-7.72 2.62,-11.71 z"
       id="path46" />
  </g>
  <g
     id="#848e98fe"
     transform="translate(-161.82426,-98.722798)">
    <path
       fill="#848e98"
       stroke="#848e98"
       stroke-width="0.09375"
       opacity="1"
       d="m 360.48,453.14 c 4.94,4.61 -2.86,23.17 7.44,16.32 -0.94,7.54 -2.47,15.14 -1.63,22.76 -32.34,290.64 -61.95,581.55 -86.92,872.82 1.31,18.15 -18.02,27.02 -33.12,29.28 -0.88,-0.09 -2.62,-0.26 -3.5,-0.35 0.07,-0.64 0.22,-1.92 0.29,-2.56 1.18,0.55 2.36,1.1 3.55,1.67 -0.55,-0.79 -1.1,-1.56 -1.64,-2.31 8.21,-6.31 8.89,-17.23 15,-24.93 -1.08,-2.31 -3.58,-3.09 -5.7,-4.09 0.16,-0.4 0.48,-1.21 0.64,-1.61 4.04,1.47 7.9,3.4 11.47,5.81 1.24,-3.42 1.22,-7.06 1.32,-10.63 -4.15,-3.39 -8.82,-6.09 -13.68,-8.31 5.84,-8.4 3.75,-20.25 6.34,-30.03 2.4,9.56 -1.81,20.1 -3.24,29.82 3.54,2.06 7.11,4.09 10.75,5.98 7.42,-74.28 14.29,-148.61 20.91,-222.94 5.36,-51.24 10.68,-102.5 14.4,-153.9 14.44,-158.24 32.39,-316.13 50.37,-474.02 0.19,0.88 0.55,2.63 0.73,3.51 3,-17.21 4.37,-34.85 6.22,-52.29 z"
       id="path47" />
  </g>
  <g
     id="#9da5adfe"
     transform="translate(-161.82426,-98.722798)">
    <path
       fill="#9da5ad"
       stroke="#9da5ad"
       stroke-width="0.09375"
       opacity="1"
       d="m 501.1,467.9 c 14.32,3.02 18.84,19.03 22.95,31.09 2.43,9.43 9.24,19.24 5.04,29.1 -0.9,-2.64 -0.99,-5.55 -2.36,-8.01 -0.62,1.05 -1.23,2.1 -1.84,3.15 -5.63,-17.61 -6.1,-42.12 -23.41,-52.75 -0.09,-0.64 -0.28,-1.93 -0.38,-2.58 z"
       id="path48" />
    <path
       fill="#9da5ad"
       stroke="#9da5ad"
       stroke-width="0.09375"
       opacity="1"
       d="m 550.15,598.88 c 16.73,12.34 24.72,35.56 25.55,55.88 -0.98,0.43 -1.97,0.87 -2.94,1.32 -1.38,-6.97 -3.29,-13.68 -6.73,-19.96 1.52,1.15 3.09,2.23 4.81,3.09 -3.69,-14.93 -14.97,-26.37 -20.69,-40.33 z"
       id="path49" />
    <path
       fill="#9da5ad"
       stroke="#9da5ad"
       stroke-width="0.09375"
       opacity="1"
       d="m 625.9,690.7 c 61.22,-18.9 128.57,0.12 180.09,35.55 15.21,-4.06 30.61,-7.38 45.77,-11.64 0.87,0.19 2.61,0.57 3.48,0.76 -23.2,8.38 -47.3,14.36 -70.12,23.73 -5.92,11.14 2.87,24.54 11.48,31.88 1.05,-1.78 2.14,-3.53 3.29,-5.25 1.48,0.19 2.94,-0.06 4.38,-0.44 -1.73,2.95 -3.49,5.91 -4.93,9.02 l -0.2,0.79 c 0.4,1.06 0.87,2.11 1.32,3.18 -4.21,-1.69 -6.79,-5.64 -10.65,-7.86 l 0.12,1.47 c -10.57,-10.94 -20.49,-36.31 -0.51,-42.92 2.88,0.23 5.45,2.26 8.45,1.6 -2.04,-1.89 -4.33,-3.51 -6.9,-4.55 1.51,0.04 3.03,0.07 4.56,0.06 -38.89,-26.76 -88.15,-35.57 -134.55,-30.58 -7.7,0.39 -13.71,6.27 -21.29,7.1 -7.12,-4.09 -15.33,-3.12 -23.18,-2.85 0.06,-0.6 0.17,-1.79 0.23,-2.39 4.05,-2.45 8.45,-4.19 12.66,-6.33 -0.87,-0.08 -2.63,-0.25 -3.5,-0.33 z"
       id="path50" />
  </g>
  <g
     id="#b5bcc2fe"
     transform="translate(-161.82426,-98.722798)">
    <path
       fill="#b5bcc2"
       stroke="#b5bcc2"
       stroke-width="0.09375"
       opacity="1"
       d="m 458.03,489.47 c 4.66,15.99 9.18,32.4 17.82,46.79 4.61,7.75 14.23,14.73 23.3,9.91 l 0.71,-0.19 c 0.07,0.79 0.22,2.36 0.29,3.15 -2.07,1.12 -4.31,1.89 -6.62,2.33 -0.04,0.36 -0.1,1.09 -0.14,1.45 -25.29,-1.88 -31.05,-31.17 -34.94,-51.32 0.35,-4.05 -0.54,-8.07 -0.42,-12.12 z"
       id="path51" />
  </g>
  <g
     id="#bfc5cafe"
     transform="translate(-161.82426,-98.722798)">
    <path
       fill="#bfc5ca"
       stroke="#bfc5ca"
       stroke-width="0.09375"
       opacity="1"
       d="m 497.83,529.02 c 2.03,-1.47 3.7,-3.35 5.17,-5.37 2,0.29 4.01,0.62 6.01,0.98 -2.59,0.17 -5.01,1.11 -7.25,2.34 9.97,23.15 17.82,47.14 26.44,70.82 2.85,7.18 11.56,2.99 11.28,-3.61 1.02,3.36 2.11,6.7 3.26,10.03 0.14,-0.81 0.4,-2.43 0.53,-3.25 1.12,4.3 1.06,8.84 0.28,13.19 -1.38,-1.79 -0.84,-4.2 -1.15,-6.28 0.45,13.86 -16.29,9.83 -18.87,-0.47 -7.99,-26.28 -16.89,-52.69 -25.7,-78.38 z"
       id="path52" />
    <path
       fill="#bfc5ca"
       stroke="#bfc5ca"
       stroke-width="0.09375"
       opacity="1"
       d="m 590.07,918.68 c 3.75,1.11 7.4,2.58 10.86,4.42 -0.29,5.94 -2.56,11.48 -3.85,17.24 -3.58,-2.14 -7.32,-3.97 -11.13,-5.64 0.7,-5.49 3.14,-10.58 4.12,-16.02 z"
       id="path53" />
  </g>
  <g
     id="#e6eaecfe"
     transform="translate(-161.82426,-98.722798)">
    <path
       fill="#e6eaec"
       stroke="#e6eaec"
       stroke-width="0.09375"
       opacity="1"
       d="m 280.44,736.05 c 17.85,-46.91 11.8,-99.83 26.42,-147.44 0.74,2.72 1.03,5.55 0.64,8.36 -11.13,113.72 -30.54,226.23 -41.74,339.95 -10.68,71.36 -16.43,143.48 -25.79,214.88 -2.92,-6.22 -2.51,-13.37 -5.14,-19.71 -2.7,2.21 -5.23,4.62 -7.74,7.06 1.13,-9.76 1.97,-19.55 3.44,-29.26 0.6,2.83 1.37,5.62 2.33,8.36 -0.15,-9.07 0.42,-18.28 3.52,-26.87 13.34,-119.3 29.26,-238.34 43.34,-357.51 0.18,0.54 0.54,1.63 0.72,2.18 z"
       id="path54" />
  </g>
  <g
     id="#c7ccd1ff"
     transform="translate(-161.82426,-98.722798)">
    <path
       fill="#c7ccd1"
       stroke="#c7ccd1"
       stroke-width="0.09375"
       opacity="1"
       d="m 498.22,622.12 c -3.15,-11.89 5.2,-23.33 16.31,-26.92 1.65,3.28 2.37,6.88 3.42,10.37 -0.34,0.02 -1.02,0.08 -1.36,0.1 -0.54,0.96 -1.08,1.91 -1.62,2.87 -2.01,-2.26 -2.16,-5.28 -2.3,-8.14 -15.86,9.07 -8.64,29.7 -3.05,43.01 5.31,15.3 16.48,30.59 33.49,33.28 -7.49,1.04 4.67,2.58 7.2,2.24 -12.75,7.2 -27.32,-3.1 -36.22,-12 -6.44,-14.41 -11.89,-29.5 -15.87,-44.81 z"
       id="path55" />
  </g>
  <g
     id="#fdfefeff"
     transform="translate(-161.82426,-98.722798)">
    <path
       fill="#fdfefe"
       stroke="#fdfefe"
       stroke-width="0.09375"
       opacity="1"
       d="m 509.62,643.41 c -5.59,-13.31 -12.81,-33.94 3.05,-43.01 0.14,2.86 0.29,5.88 2.3,8.14 -4.26,16.29 3.76,34.26 12.6,47.9 7.47,7.67 22.48,6.02 24.96,18.84 -1.91,-0.59 -2.8,-2.42 -3.9,-3.9 0.42,1.74 0.85,3.5 1.21,5.27 -2.24,0.11 -4.52,0.47 -6.73,0.04 C 526.1,674 514.93,658.71 509.62,643.41 Z"
       id="path56" />
    <path
       fill="#fdfefe"
       stroke="#fdfefe"
       stroke-width="0.09375"
       opacity="1"
       d="m 544.8,656.26 c 0.49,-9.29 12.91,-8.86 18.78,-4.76 10.12,8.32 18.08,19.86 20.79,32.81 -2.53,3.88 -3.2,8.54 -4.95,12.76 -13.03,-12.6 -15.27,-33.89 -32.28,-43.23 -0.79,0.8 -1.56,1.61 -2.34,2.42 z"
       id="path57" />
  </g>
  <g
     id="#bac0c5ff"
     transform="translate(-161.82426,-98.722798)">
    <path
       fill="#bac0c5"
       stroke="#bac0c5"
       stroke-width="0.09375"
       opacity="1"
       d="m 544.8,656.26 c 0.78,-0.81 1.55,-1.62 2.34,-2.42 17.01,9.34 19.25,30.63 32.28,43.23 1.75,-4.22 2.42,-8.88 4.95,-12.76 l 0.22,-0.39 c 0.52,5.75 4.87,14.19 -1.8,17.89 -5.47,4.06 -13.02,-0.2 -14.33,-6.37 -4.91,-14.69 -12.43,-28.38 -23.66,-39.18 z"
       id="path58" />
  </g>
  <g
     id="#fafcfcff"
     transform="translate(-161.82426,-98.722798)">
    <path
       fill="#fafcfc"
       stroke="#fafcfc"
       stroke-width="0.09375"
       opacity="1"
       d="m 584.86,676.41 c 14.32,-0.94 24.17,9.86 35.56,15.81 1.98,0.39 3.71,-0.85 5.48,-1.52 0.87,0.08 2.63,0.25 3.5,0.33 -4.21,2.14 -8.61,3.88 -12.66,6.33 -6.6,3.42 -15.16,3.52 -20.17,9.65 26.4,-13.67 55.92,2.99 78.43,17.24 20.2,14.85 38.66,32.01 54.16,51.76 -2.74,1.81 -5.5,3.6 -8.12,5.58 -3.64,3.27 -8.44,5.13 -11.64,8.86 -15.69,-20.38 -32.55,-40.07 -52.39,-56.54 -16.84,-13.87 -39.54,-30.75 -62.19,-22.2 -0.35,-0.45 -1.06,-1.34 -1.41,-1.78 -3.81,4.46 -5.83,10.22 -6.91,15.92 -0.26,3.06 -0.22,6.14 -0.26,9.22 -1.95,-0.43 -3.9,-0.83 -5.81,-1.34 -0.03,-0.48 -0.09,-1.44 -0.11,-1.91 -0.13,-5.39 -0.37,-10.84 0.68,-16.15 2.61,-9.61 10.86,-15.27 19.19,-19.52 -2.56,-4.82 -7.11,-8.73 -12.68,-9.34 -1.12,-3.4 -2.29,-6.82 -2.65,-10.4 z"
       id="path59" />
  </g>
  <g
     id="#fbfdfdff"
     transform="translate(-161.82426,-98.722798)">
    <path
       fill="#fbfdfd"
       stroke="#fbfdfd"
       stroke-width="0.09375"
       opacity="1"
       d="m 544.33,725.94 c -7.05,-13.74 -1.88,-36.19 15.47,-37.78 -1.39,2.78 0.7,5.38 1.03,8.15 -12.41,12.45 2.65,32.13 14.76,39.15 4.99,3.89 13.3,1.59 15.32,9.18 -17.23,1.95 -35.16,-8.2 -43.19,-23.51 -1.17,1.57 -2.31,3.17 -3.39,4.81 z"
       id="path60" />
  </g>
  <g
     id="#fdfdfeff"
     transform="translate(-161.82426,-98.722798)">
    <path
       fill="#fdfdfe"
       stroke="#fdfdfe"
       stroke-width="0.09375"
       opacity="1"
       d="m 660.98,695.5 c 46.4,-4.99 95.66,3.82 134.55,30.58 -1.53,0.01 -3.05,-0.02 -4.56,-0.06 -10.07,-2.69 -23.36,-2.26 -29.06,7.98 -9.58,15.54 -1.28,34.99 8.97,48.01 13.28,18.27 35.62,32.95 59.04,29.76 0.68,-0.03 2.04,-0.09 2.72,-0.11 -1.28,0.75 -2.55,1.51 -3.82,2.27 0.88,0.13 2.62,0.4 3.5,0.53 -6.35,2.84 -13.43,3.74 -20.34,3.35 -0.28,-0.25 -0.85,-0.74 -1.13,-0.99 -14.63,0.16 -27.73,-7.25 -38.29,-16.79 10.03,15.87 36.65,21.49 34.81,43.94 1.09,8.96 -9.28,10.35 -12.18,17.06 1.25,6.64 5.23,12.41 7.84,18.59 -0.62,0.41 -1.24,0.84 -1.84,1.28 -2.05,-4.24 -3.76,-8.71 -6.68,-12.45 0.09,1.21 0.28,3.62 0.37,4.83 -13.86,-23.92 -25.98,-48.96 -42.41,-71.29 -0.33,0.46 -0.99,1.38 -1.32,1.83 -1.4,-10.52 -11.39,-17.09 -17.24,-25.31 4.5,-5.2 11.06,-8.16 15.29,-13.66 -6.09,2 -11.58,5.34 -16.86,8.89 -15.51,-18.95 -32.43,-37.14 -52.67,-51.1 -12.54,-8.06 -25.27,-16.56 -39.98,-20.04 7.58,-0.83 13.59,-6.71 21.29,-7.1 m -16.52,7.23 c 24.7,4.01 46.7,16.36 67.64,29.37 -4.88,-6.87 -12.28,-11.17 -19.17,-15.72 3.93,-1.31 10.01,0.88 11.78,-4.09 9.44,1.75 15.83,11.68 25.46,11.36 -1.83,-1.42 -4.4,-1.31 -6.21,-2.82 4.76,-3.6 11.52,-4.66 17.01,-2.18 7.85,-2.34 17.87,-4.41 24.98,0.76 -4.7,0.05 -9.04,2.2 -12.83,4.8 2.76,7.54 12.72,-0.62 17.66,-2.74 -6.16,-6.19 -14.89,-8.43 -22.88,-11.23 -32.88,-10.84 -69.85,-16.45 -103.44,-7.51 z"
       id="path61" />
  </g>
  <g
     id="#727c87ff"
     transform="translate(-161.82426,-98.722798)">
    <path
       fill="#727c87"
       stroke="#727c87"
       stroke-width="0.09375"
       opacity="1"
       d="m 596.57,707.01 c 5.01,-6.13 13.57,-6.23 20.17,-9.65 -0.06,0.6 -0.17,1.79 -0.23,2.39 7.85,-0.27 16.06,-1.24 23.18,2.85 14.71,3.48 27.44,11.98 39.98,20.04 -1.73,0.41 -3.35,-0.47 -4.93,-0.95 0.33,0.69 1,2.08 1.33,2.78 L 675,724.25 C 652.49,710 622.97,693.34 596.57,707.01 Z"
       id="path62" />
  </g>
  <g
     id="#b0b6bdff"
     transform="translate(-161.82426,-98.722798)">
    <path
       fill="#b0b6bd"
       stroke="#b0b6bd"
       stroke-width="0.09375"
       opacity="1"
       d="m 644.46,702.73 c 33.59,-8.94 70.56,-3.33 103.44,7.51 7.99,2.8 16.72,5.04 22.88,11.23 -4.94,2.12 -14.9,10.28 -17.66,2.74 3.79,-2.6 8.13,-4.75 12.83,-4.8 -7.11,-5.17 -17.13,-3.1 -24.98,-0.76 -5.49,-2.48 -12.25,-1.42 -17.01,2.18 1.81,1.51 4.38,1.4 6.21,2.82 -9.63,0.32 -16.02,-9.61 -25.46,-11.36 -1.77,4.97 -7.85,2.78 -11.78,4.09 6.89,4.55 14.29,8.85 19.17,15.72 -20.94,-13.01 -42.94,-25.36 -67.64,-29.37 z"
       id="path63" />
  </g>
  <g
     id="#535f6bff"
     transform="translate(-161.82426,-98.722798)">
    <path
       fill="#535f6b"
       stroke="#535f6b"
       stroke-width="0.09375"
       opacity="1"
       d="m 594.82,711.71 c 22.65,-8.55 45.35,8.33 62.19,22.2 19.84,16.47 36.7,36.16 52.39,56.54 -0.2,0.24 -0.6,0.73 -0.81,0.98 -21.49,-10.08 -39.43,-27.64 -62.89,-34.09 -0.56,2.19 -1.31,4.33 -2.4,6.32 l -0.06,-1.23 c 0.26,-4.02 -1.02,-8.1 -4.12,-10.79 -0.6,0.39 -1.78,1.16 -2.38,1.55 0.76,3.45 2.3,6.65 3.67,9.9 -3.38,-0.87 -3.56,-5.11 -4.98,-7.76 -4.4,-0.25 -8.81,-0.22 -13.22,-0.06 1.42,4.49 4.42,8.68 4.19,13.56 -8.32,-13.29 -12.76,-38.69 -32.05,-37.62 -2.76,0.18 -5.09,1.75 -7.36,3.17 -0.25,-2.85 -0.52,-5.69 -0.49,-8.53 1.08,-5.7 3.1,-11.46 6.91,-15.92 0.35,0.44 1.06,1.33 1.41,1.78 z"
       id="path64" />
  </g>
  <g
     id="#6c7782fe"
     transform="translate(-161.82426,-98.722798)">
    <path
       fill="#6c7782"
       stroke="#6c7782"
       stroke-width="0.09375"
       opacity="1"
       d="m 851.76,714.61 c 3.98,-0.83 7.89,-2.62 12.02,-2.28 -6.57,16.03 -13.98,31.73 -20.7,47.7 62.61,71.79 55.5,195.71 -18.44,257.49 3.74,-17.51 17.48,-30.52 28.31,-44.58 26.74,-50.07 34.87,-113.77 12.02,-167.31 l -0.35,1.44 c -6.45,-13.8 -13.27,-28.19 -23.45,-39.51 5.2,10.34 8.27,21.61 12.21,32.45 0.35,-0.45 1.04,-1.37 1.39,-1.82 8.23,24.1 7.4,49.83 12.71,74.48 0.2,9.6 4.53,19.19 1.67,28.72 1.72,-8.1 -4.41,-13.41 -7.75,-20.05 2.19,-16.76 -1.72,-33.5 -3.7,-50.12 -0.42,-0.32 -1.26,-0.95 -1.68,-1.27 0.19,2.27 0.39,4.55 0.53,6.84 -1.05,0.91 -1.61,2.13 -1.86,3.48 1.01,0.1 2.02,0.21 3.05,0.33 -0.94,9.58 -5.56,18.56 -7.28,28.14 -2.77,-5.59 -3.78,-11.98 -7.36,-17.16 l -0.35,1.46 c -0.41,-1.03 -0.82,-2.06 -1.23,-3.06 -0.14,0.34 -0.42,1.04 -0.56,1.38 -2.57,13.42 -10.82,27.85 -2.31,40.86 -0.4,0.17 -1.19,0.5 -1.59,0.66 0.32,3.48 1.79,8.97 -2.01,10.87 -4.9,-0.67 -6.11,-6.1 -9.03,-9.25 l -0.31,1.5 c -1.74,-3 -3.65,-5.9 -5.7,-8.69 5.48,-2.95 1.46,-10.05 4.99,-14.32 2.39,-3.33 3.95,-7.36 1.44,-11.12 8.16,-5.56 14.16,-16.39 12.07,-26.26 0.9,-8.76 -3.85,-18.19 1.57,-26.18 -3.36,0.9 -6.76,1.67 -10.16,2.34 -23.42,3.19 -45.76,-11.49 -59.04,-29.76 -10.25,-13.02 -18.55,-32.47 -8.97,-48.01 5.7,-10.24 18.99,-10.67 29.06,-7.98 2.57,1.04 4.86,2.66 6.9,4.55 -3,0.66 -5.57,-1.37 -8.45,-1.6 -10.12,-1.63 -23.05,1.57 -25.19,13.18 -3.85,19.94 10.28,38.19 24.46,50.57 9.57,7.24 21.61,11.79 33.72,10.99 -1.89,-0.79 -3.79,-1.55 -5.66,-2.33 18.49,5.19 31.9,-14.27 23.83,-30.67 -1.27,6.47 -1.01,14.13 -6.43,18.85 -16.36,7.6 -33.67,-5.89 -44.22,-17.67 l -0.12,-1.47 c 3.86,2.22 6.44,6.17 10.65,7.86 -0.45,-1.07 -0.92,-2.12 -1.32,-3.18 l 0.2,-0.79 c 1.57,1.23 3.18,2.45 4.82,3.63 18.17,-22.48 37.59,-44.1 57.55,-65.03 -2.19,0.78 -4.29,1.69 -6.47,2.46 -0.87,-0.19 -2.61,-0.57 -3.48,-0.76 z"
       id="path65" />
  </g>
  <g
     id="#fefefeff"
     transform="translate(-161.82426,-98.722798)">
    <path
       fill="#fefefe"
       stroke="#fefefe"
       stroke-width="0.09375"
       opacity="1"
       d="m 855.24,715.37 c 2.18,-0.77 4.28,-1.68 6.47,-2.46 -19.96,20.93 -39.38,42.55 -57.55,65.03 -1.64,-1.18 -3.25,-2.4 -4.82,-3.63 1.44,-3.11 3.2,-6.07 4.93,-9.02 -1.44,0.38 -2.9,0.63 -4.38,0.44 -1.15,1.72 -2.24,3.47 -3.29,5.25 -8.61,-7.34 -17.4,-20.74 -11.48,-31.88 22.82,-9.37 46.92,-15.35 70.12,-23.73 z"
       id="path66" />
    <path
       fill="#fefefe"
       stroke="#fefefe"
       stroke-width="0.09375"
       opacity="1"
       d="m 764.23,742.15 c 2.14,-11.61 15.07,-14.81 25.19,-13.18 -19.98,6.61 -10.06,31.98 0.51,42.92 10.55,11.78 27.86,25.27 44.22,17.67 -1.84,3.11 -5.47,3.87 -8.66,4.86 0.38,1.23 0.76,2.46 1.16,3.71 -14.1,2.47 -26.67,-6.46 -37.83,-13.78 -1.96,-0.72 -2.77,1.59 -3.76,2.75 1.45,1.69 2.92,3.46 3.63,5.62 -14.18,-12.38 -28.31,-30.63 -24.46,-50.57 z"
       id="path67" />
  </g>
  <g
     id="#b2b9bfff"
     transform="translate(-161.82426,-98.722798)">
    <path
       fill="#b2b9bf"
       stroke="#b2b9bf"
       stroke-width="0.09375"
       opacity="1"
       d="m 547.72,721.13 c 8.03,15.31 25.96,25.46 43.19,23.51 -2.02,-7.59 -10.33,-5.29 -15.32,-9.18 8.51,1.97 17.34,-0.28 25.41,3.76 -0.53,1.34 -1.1,2.66 -1.7,3.98 -5.46,2.75 -11.58,2.36 -17.46,3.15 4.44,3.78 10.52,1.71 15.65,1.08 0.56,8.68 -12.98,5.7 -18.49,4.77 0.85,-0.05 2.56,-0.16 3.41,-0.21 -12.18,-4.56 -21.54,-14.38 -31.85,-22.09 0.52,2.26 1.25,4.49 2.14,6.64 -0.55,0.2 -1.66,0.61 -2.22,0.81 -2.97,-2.91 -5.08,-6.68 -6.78,-10.46 l 0.63,-0.95 c 1.08,-1.64 2.22,-3.24 3.39,-4.81 z"
       id="path68" />
  </g>
  <g
     id="#97a0a8fe"
     transform="translate(-161.82426,-98.722798)">
    <path
       fill="#97a0a8"
       stroke="#97a0a8"
       stroke-width="0.09375"
       opacity="1"
       d="m 674.74,721.69 c 1.58,0.48 3.2,1.36 4.93,0.95 20.24,13.96 37.16,32.15 52.67,51.1 5.28,-3.55 10.77,-6.89 16.86,-8.89 -4.23,5.5 -10.79,8.46 -15.29,13.66 5.85,8.22 15.84,14.79 17.24,25.31 0.33,-0.45 0.99,-1.37 1.32,-1.83 16.43,22.33 28.55,47.37 42.41,71.29 -0.09,-1.21 -0.28,-3.62 -0.37,-4.83 2.92,3.74 4.63,8.21 6.68,12.45 0.6,-0.44 1.22,-0.87 1.84,-1.28 4.19,-2.95 8.38,-5.9 12.51,-8.92 -6.42,-15.92 17.44,-29.86 8.28,-44 -0.18,-2.48 -0.49,-4.93 -0.93,-7.36 -5.01,-0.04 -10.05,0.11 -15.02,-0.68 1.36,-0.31 2.72,-0.62 4.11,-0.85 6.91,0.39 13.99,-0.51 20.34,-3.35 -0.88,-0.13 -2.62,-0.4 -3.5,-0.53 1.27,-0.76 2.54,-1.52 3.82,-2.27 -0.68,0.02 -2.04,0.08 -2.72,0.11 3.4,-0.67 6.8,-1.44 10.16,-2.34 -5.42,7.99 -0.67,17.42 -1.57,26.18 2.09,9.87 -3.91,20.7 -12.07,26.26 2.51,3.76 0.95,7.79 -1.44,11.12 -3.53,4.27 0.49,11.37 -4.99,14.32 -5.25,3.24 -9.85,7.91 -15.67,9.99 -22.91,-39.93 -44.12,-81.32 -72.02,-118.03 -1.95,1.82 -3.89,3.66 -5.78,5.55 -1.84,-1.09 -3.67,-2.17 -5.5,-3.23 2.62,-1.98 5.38,-3.77 8.12,-5.58 C 713.66,756.26 695.2,739.1 675,724.25 l 1.07,0.22 c -0.33,-0.7 -1,-2.09 -1.33,-2.78 z"
       id="path69" />
  </g>
  <g
     id="#d9dee1ff"
     transform="translate(-161.82426,-98.722798)">
    <path
       fill="#d9dee1"
       stroke="#d9dee1"
       stroke-width="0.09375"
       opacity="1"
       d="m 550.56,729.9 c 10.31,7.71 19.67,17.53 31.85,22.09 -0.85,0.05 -2.56,0.16 -3.41,0.21 -10.82,-1.61 -20.75,-7.28 -28.52,-14.85 0.56,-0.2 1.67,-0.61 2.22,-0.81 -0.89,-2.15 -1.62,-4.38 -2.14,-6.64 z"
       id="path70" />
  </g>
  <g
     id="#fdfefefe"
     transform="translate(-161.82426,-98.722798)">
    <path
       fill="#fdfefe"
       stroke="#fdfefe"
       stroke-width="0.09375"
       opacity="1"
       d="m 594.35,731.21 c 19.29,-1.07 23.73,24.33 32.05,37.62 2.29,5.35 4.27,10.9 7.36,15.87 28.2,-18.81 61.12,3.91 79.02,26.41 26.41,31.52 42.94,70.59 50.56,110.78 2.26,14.45 4.16,32.93 -9.57,42.49 5.64,5.54 11.6,10.75 17.5,16.01 5.78,5.22 11.66,10.35 17.49,15.52 -3.72,-0.4 -5.92,-3.73 -9.26,-5 -0.34,1.27 -0.66,2.55 -0.98,3.85 -0.85,-0.93 -1.69,-1.85 -2.52,-2.75 -0.65,0.76 -1.29,1.52 -1.92,2.3 -10.33,-8.09 -21.31,-15.59 -29.98,-25.54 -5.44,0.03 -10.89,-0.13 -16.22,-1.45 0.3,6.74 3.95,12.65 5.48,19.11 -3.59,-3.11 -7,-6.44 -10.01,-10.11 -6.98,-8.85 -13.74,-17.88 -20.82,-26.62 -5.15,5.27 -11.83,9.22 -18.8,11.53 4.91,-5.8 12.33,-9.66 14.82,-17.31 -18.02,-0.3 -36.77,-4.52 -50.83,-16.37 -0.56,-0.58 -1.05,-1.18 -1.49,-1.81 -4.36,-5.37 -9.3,-10.25 -13.88,-15.43 -1.84,-5.58 -5.74,-10.52 -11.19,-12.9 -2.8,0.62 -5.6,1.22 -8.35,2.01 -0.95,-9.63 -1.14,-19.34 -3.03,-28.86 -0.62,0.24 -1.87,0.7 -2.5,0.94 -3.13,-2.56 -6.77,-5.65 -6.34,-10.14 2.1,-1.86 4.13,-3.8 6.2,-5.7 -3.88,-16.16 -9.65,-32.14 -19.08,-45.94 1.82,1.29 3.62,2.61 5.45,3.9 0.01,-2.1 0.05,-4.25 -0.87,-6.18 -0.98,-2.5 -1.7,-5.09 -2.32,-7.69 -0.46,-4.44 -2.25,-8.56 -2.95,-12.94 7.12,12.1 12.51,25.35 21.31,36.49 3.75,-9.87 8.59,-19.22 13.62,-28.48 -4.32,-9.04 -11.65,-16.08 -17.58,-24.02 1.18,-0.48 2.37,-0.96 3.57,-1.43 1,0.31 2.01,0.63 3.02,0.96 -0.62,-4.97 -2.77,-9.53 -4.53,-14.16 -1.41,1.26 -2.81,2.53 -4.21,3.8 -0.07,-0.38 -0.21,-1.13 -0.28,-1.5 6.72,-9.57 1.14,-21.91 -7.94,-27.26 m 58.93,59.13 c -23.46,6.62 -32.66,34.11 -32.15,56.18 0.57,10.56 2.01,21.43 4.36,31.69 -4.44,-36.21 37.03,-74.67 71.28,-52.87 -8.81,1.86 -17.99,-2.34 -26.81,0.7 -31.7,7.28 -43.23,47.34 -31.66,74.96 l 0.28,-0.56 c 5.87,14.5 19.76,24.73 34.46,29.12 22.47,8.08 45.31,-1.96 64.19,-13.9 -4.38,7.3 -9.11,14.67 -15.81,20.09 -2.97,1.92 -6.2,3.65 -9.1,5.75 7.33,10.62 24.68,20.98 36.56,11.68 l 0.08,-0.35 c 8.02,-8.72 6.27,-21.54 4.62,-32.25 -5.46,-27.47 -17.39,-53.2 -31.29,-77.35 -4.29,-7.4 -9.43,-14.3 -14.79,-20.94 -13.14,-16.51 -30.94,-35.6 -54.22,-31.95 z"
       id="path71" />
  </g>
  <g
     id="#e3e7e9fe"
     transform="translate(-161.82426,-98.722798)">
    <path
       fill="#e3e7e9"
       stroke="#e3e7e9"
       stroke-width="0.09375"
       opacity="1"
       d="m 301.14,762.1 c -0.31,-10.99 10.76,-16.94 18.05,-23.25 -13.61,100.53 -15.43,202.14 -27.9,302.75 -7.24,58.46 -13.12,117.07 -19.58,175.63 -3.27,-3.62 -4.67,-8.37 -6.21,-12.88 0.02,-25.24 4.97,-50.22 7.12,-75.32 11.47,-97.82 18.94,-196.06 30.22,-293.94 -0.72,1.56 -1.42,3.13 -2.11,4.71 -2.22,0.09 -4.43,0.11 -6.64,0.07 -0.06,-1.21 -0.11,-2.41 -0.16,-3.6 1.38,0.43 2.76,0.87 4.14,1.31 0.32,-3.54 2.06,-7.2 1,-10.71 -10.04,-7.35 2.33,-19.77 -0.25,-29.44 -0.6,0.46 -1.2,0.93 -1.8,1.41 1.45,-12.24 2.63,-24.51 4.12,-36.74 z"
       id="path72" />
  </g>
  <g
     id="#f8fafbff"
     transform="translate(-161.82426,-98.722798)">
    <path
       fill="#f8fafb"
       stroke="#f8fafb"
       stroke-width="0.09375"
       opacity="1"
       d="m 636.74,753.19 c 0.6,-0.39 1.78,-1.16 2.38,-1.55 3.1,2.69 4.38,6.77 4.12,10.79 -0.95,0.23 -1.89,0.44 -2.83,0.66 -1.37,-3.25 -2.91,-6.45 -3.67,-9.9 z"
       id="path73" />
  </g>
  <g
     id="#737e88fe"
     transform="translate(-161.82426,-98.722798)">
    <path
       fill="#737e88"
       stroke="#737e88"
       stroke-width="0.09375"
       opacity="1"
       d="m 622.21,755.27 c 4.41,-0.16 8.82,-0.19 13.22,0.06 1.42,2.65 1.6,6.89 4.98,7.76 0.94,-0.22 1.88,-0.43 2.83,-0.66 l 0.06,1.23 c 1.09,-1.99 1.84,-4.13 2.4,-6.32 23.46,6.45 41.4,24.01 62.89,34.09 0.21,-0.25 0.61,-0.74 0.81,-0.98 3.2,-3.73 8,-5.59 11.64,-8.86 1.83,1.06 3.66,2.14 5.5,3.23 -4.01,4.07 -8.16,8.14 -10.77,13.29 25.75,32.36 47.45,67.94 65.26,105.25 2.5,-3.48 5.34,-6.7 7.65,-10.31 1.78,4.02 3.63,8.01 5.29,12.09 -0.42,0.38 -0.82,0.77 -1.21,1.18 -3.06,-0.19 -4.12,3.33 -5.91,5.18 -1.32,-0.42 -2.63,-0.84 -3.93,-1.26 -2.88,3.79 -5.24,8.87 -4.83,13.58 8.77,10.21 4.99,24.62 4.11,36.45 -1.38,-0.05 -2.76,-0.1 -4.13,-0.13 l 0.24,0.89 c -4.72,-3.21 -9,-6.98 -13.41,-10.58 -4.91,7.95 5.7,12.85 10.96,16.87 0.71,-1.08 1.46,-2.11 2.19,-3.16 -0.04,0.69 -0.13,2.08 -0.17,2.77 0.99,-0.92 1.98,-1.83 2.98,-2.73 3.66,7.22 -4.47,11.83 -4.21,18.29 -1.59,-1.1 -3.23,-3.24 -5.38,-2.1 -5.9,-5.26 -11.86,-10.47 -17.5,-16.01 13.73,-9.56 11.83,-28.04 9.57,-42.49 -7.62,-40.19 -24.15,-79.26 -50.56,-110.78 -17.9,-22.5 -50.82,-45.22 -79.02,-26.41 -3.09,-4.97 -5.07,-10.52 -7.36,-15.87 0.23,-4.88 -2.77,-9.07 -4.19,-13.56 z"
       id="path74" />
  </g>
  <g
     id="#8a939cfe"
     transform="translate(-161.82426,-98.722798)">
    <path
       fill="#8a939c"
       stroke="#8a939c"
       stroke-width="0.09375"
       opacity="1"
       d="m 602.57,759.97 c 1.4,-1.27 2.8,-2.54 4.21,-3.8 1.76,4.63 3.91,9.19 4.53,14.16 -1.01,-0.33 -2.02,-0.65 -3.02,-0.96 -1.2,0.47 -2.39,0.95 -3.57,1.43 5.93,7.94 13.26,14.98 17.58,24.02 -5.03,9.26 -9.87,18.61 -13.62,28.48 -8.8,-11.14 -14.19,-24.39 -21.31,-36.49 0.7,4.38 2.49,8.5 2.95,12.94 -5.36,-11.95 -8.45,-25.33 -9.11,-38.48 0.51,0.07 1.53,0.2 2.03,0.27 0.51,1.01 1.01,2.03 1.53,3.06 1.98,-0.06 3.96,-0.13 5.94,-0.18 0.78,-5.82 6.7,-7.01 11.58,-5.95 0.07,0.37 0.21,1.12 0.28,1.5 z"
       id="path75" />
  </g>
  <g
     id="#dbe0e3fe"
     transform="translate(-161.82426,-98.722798)">
    <path
       fill="#dbe0e3"
       stroke="#dbe0e3"
       stroke-width="0.09375"
       opacity="1"
       d="m 841.17,767.56 c 10.18,11.32 17,25.71 23.45,39.51 17.21,48.16 17.55,105.81 -9.25,150.63 2.31,-11.07 6.46,-22.89 10.31,-34.13 3.45,-8.19 -4,-15.05 -7.74,-21.66 1.09,-6.87 2.76,-13.64 3.46,-20.57 3.34,6.64 9.47,11.95 7.75,20.05 2.86,-9.53 -1.47,-19.12 -1.67,-28.72 -5.31,-24.65 -4.48,-50.38 -12.71,-74.48 -0.35,0.45 -1.04,1.37 -1.39,1.82 -3.94,-10.84 -7.01,-22.11 -12.21,-32.45 z"
       id="path76" />
  </g>
  <g
     id="#c9ced3ff"
     transform="translate(-161.82426,-98.722798)">
    <path
       fill="#c9ced3"
       stroke="#c9ced3"
       stroke-width="0.09375"
       opacity="1"
       d="m 840.58,770.71 c 8.07,16.4 -5.34,35.86 -23.83,30.67 1.87,0.78 3.77,1.54 5.66,2.33 -12.11,0.8 -24.15,-3.75 -33.72,-10.99 -0.71,-2.16 -2.18,-3.93 -3.63,-5.62 0.99,-1.16 1.8,-3.47 3.76,-2.75 11.16,7.32 23.73,16.25 37.83,13.78 -0.4,-1.25 -0.78,-2.48 -1.16,-3.71 3.19,-0.99 6.82,-1.75 8.66,-4.86 5.42,-4.72 5.16,-12.38 6.43,-18.85 z"
       id="path77" />
  </g>
  <g
     id="#fbfcfcff"
     transform="translate(-161.82426,-98.722798)">
    <path
       fill="#fbfcfc"
       stroke="#fbfcfc"
       stroke-width="0.09375"
       opacity="1"
       d="m 732.32,779.27 c 27.9,36.71 49.11,78.1 72.02,118.03 5.82,-2.08 10.42,-6.75 15.67,-9.99 2.05,2.79 3.96,5.69 5.7,8.69 1.03,2.03 2.11,4.05 3.2,6.07 -2.57,6.12 -5.96,11.82 -9.18,17.6 -2.28,-4.64 -3.71,-9.68 -6.47,-14.07 -1.35,0.34 -2.69,0.68 -4.02,1.04 1.37,4.09 2.8,8.16 4.19,12.25 l -0.02,1.26 c -0.64,-0.49 -1.93,-1.47 -2.57,-1.96 -0.42,10.47 4.71,20.13 4.92,30.93 -6.07,-11.58 -8.85,-24.71 -15.73,-35.85 -4.49,4.58 -8.13,10.9 -2.93,16.52 10.89,28.41 20.52,58.5 20.47,89.25 -0.59,-2.38 -1.13,-4.77 -1.4,-7.2 -2.47,-33.09 -13.19,-64.93 -27.24,-94.8 -2.63,-4.05 1.87,-7.54 3.83,-10.72 0.39,-0.41 0.79,-0.8 1.21,-1.18 -1.66,-4.08 -3.51,-8.07 -5.29,-12.09 -2.31,3.61 -5.15,6.83 -7.65,10.31 -17.81,-37.31 -39.51,-72.89 -65.26,-105.25 2.61,-5.15 6.76,-9.22 10.77,-13.29 1.89,-1.89 3.83,-3.73 5.78,-5.55 z"
       id="path78" />
  </g>
  <g
     id="#6d7680fd"
     transform="translate(-161.82426,-98.722798)">
    <path
       fill="#6d7680"
       stroke="#6d7680"
       stroke-width="0.09375"
       opacity="1"
       d="m 454.01,809.98 c 25.49,-16.86 56.1,-28.61 86.83,-26.72 -3.53,0.71 -7.4,0.33 -10.6,2.18 2.17,-0.08 4.33,-0.33 6.5,-0.52 -5.48,3.67 -12.38,4.16 -17.92,7.76 -8.84,0.3 -17.46,2.92 -26.02,4.99 -12.56,3.42 -24.21,9.62 -36.8,12.85 6.6,0.24 15.56,2.18 15.47,10.52 -0.75,15.36 -14.24,26.98 -27.05,33.48 -9.02,3.69 -14.58,-4.71 -18.85,-11.04 1.79,8.47 6.37,20.98 17.36,18.78 17.37,-2.58 32.37,-15.89 39.1,-31.9 1.04,0.53 2.09,1.06 3.15,1.59 -7.33,18.67 -23.15,36.52 -44.23,38.24 -8.19,0.12 -13.82,-7.21 -13.37,-15.06 -0.46,0.7 -0.9,1.41 -1.32,2.14 -5.91,13.56 -6.31,29.09 -5.53,43.71 -0.93,-0.53 -1.84,-1.08 -2.77,-1.59 3.02,17.64 7.37,36.41 19.76,49.98 16.33,8.44 30.81,19.21 44.3,31.46 -5.63,-9.13 -6.56,-23.16 -18.02,-26.75 -6.76,-3.61 -12.43,-10.68 -20.7,-10.31 -0.13,0.84 -0.39,2.51 -0.52,3.34 -11.94,-10.01 -14.17,-27.85 -14.1,-42.62 1.72,0.58 3.45,1.18 5.18,1.77 0.42,3.82 0.98,7.62 1.63,11.41 0.53,6.43 2.8,13.23 9.49,15.49 10.9,5.08 15.94,16.88 26.37,22.12 -1.18,-3.87 -2.85,-7.55 -4.17,-11.35 -2.42,-8.9 -4.22,-18.08 -3.48,-27.35 2.11,0 4.24,0.02 6.36,0.03 1.84,24.68 9.73,49.24 24.78,69.09 11.85,14.27 28.28,27.94 48.1,26.06 -28.44,6.25 -58.33,-6.91 -81.06,-23.95 -12.58,3.75 -25.05,8.49 -37.88,11.14 2.16,-13.12 6.46,-25.97 8.84,-38.91 -6.69,-7 -10.94,-15.74 -14.54,-24.62 -3.56,-16.79 -6.08,-33.87 -5.4,-51.08 0.74,-14.65 3.57,-29.46 11.18,-42.18 -5.41,-12.72 -12.72,-25.23 -14.92,-38.91 15.04,1.55 29.82,5.63 44.85,6.73 m -43.72,-5.21 c 10.45,13.72 22.1,26.48 32.44,40.27 -0.16,-0.91 -0.49,-2.72 -0.65,-3.62 2.04,1.81 4.06,3.66 6.05,5.54 9.99,-5.96 24.03,-19.25 16.29,-31.4 -17.72,-4.68 -36.27,-6.32 -54.13,-10.79 m 29.5,147.64 c -3.79,12.81 -3.73,27.25 -11.18,38.64 9.13,-6.42 18.13,-13.1 27.71,-18.94 0.36,-10.59 -9.43,-14.04 -16.53,-19.7 z"
       id="path79" />
  </g>
  <g
     id="#fdfdfefe"
     transform="translate(-161.82426,-98.722798)">
    <path
       fill="#fdfdfe"
       stroke="#fdfdfe"
       stroke-width="0.09375"
       opacity="1"
       d="m 540.84,783.26 c 11.68,0.03 22.98,5.06 32.04,12.26 -29.24,-12.68 -58.48,9.16 -72.14,34.21 2.1,0.55 4.18,1.32 5.87,2.74 5.96,-11.39 15.18,-21.4 26.52,-27.63 4.08,4.9 7.26,10.43 10.94,15.6 -1.39,-6.51 -4.56,-12.46 -7.37,-18.43 13.23,-6.9 31.37,-7.31 42.4,3.85 13.53,10.58 21.24,32.67 8.14,46.56 5.22,16.68 6.5,34.19 5.66,51.59 0.71,0.12 2.14,0.36 2.86,0.47 3.08,0.83 7.14,0.34 9.52,2.39 -3.12,29.61 -13.37,60.38 -37.08,79.9 -13.24,11.74 -33.83,11.46 -46.62,-0.81 2.2,-2.63 5.33,-3.25 8.38,-1.64 -0.67,1 -1.35,1.99 -2,3.02 0.9,-0.42 1.8,-0.84 2.7,-1.26 14.97,9.88 34.59,-0.12 43.8,-13.38 -4.64,-2.93 -10.65,3.53 -15.15,-2.1 -4.72,-8.01 -15.33,-2.07 -22.63,-6.72 -0.58,-0.14 -1.75,-0.43 -2.33,-0.57 -8.31,-4.99 -15.4,-11.67 -20.31,-20.06 -4.04,3.91 -8.05,8.05 -10.4,13.23 -0.43,0.66 -1.3,1.96 -1.73,2.61 -7.19,-10.78 14.55,-16.59 6.05,-28.14 -3.86,2.76 -7.93,7.3 -12.21,10.39 -7.28,-15.85 -7.58,-34.74 -7.22,-52.09 4.35,1.97 8.99,3.26 13.71,3.96 0.67,-3.34 0.85,-6.74 0.84,-10.13 -4.72,-0.81 -9.46,-1.48 -14.15,-2.4 1.91,-13.61 4.97,-27.09 10.96,-39.53 -1.13,-1.19 -2.28,-2.36 -3.44,-3.5 -6.77,11.51 -10.11,24.6 -12.28,37.66 -5.52,38.61 0.69,81.56 26.98,111.83 l -0.29,1.11 c -12.17,-11.6 -16.47,-29.08 -30.14,-39.46 0.47,6.1 8.1,11.3 4.62,17.51 2.06,7.05 7.24,12.53 9.5,19.4 -15.05,-19.85 -22.94,-44.41 -24.78,-69.09 -2.12,-0.01 -4.25,-0.03 -6.36,-0.03 -0.74,9.27 1.06,18.45 3.48,27.35 l -0.55,1.34 c -4.47,-9.24 -2.33,-20.44 -7.65,-29.28 -7.49,-3.4 -15.5,-6.16 -23.56,-8.03 0.49,3.22 0.94,6.51 0.07,9.71 -0.65,-3.79 -1.21,-7.59 -1.63,-11.41 -1.73,-0.59 -3.46,-1.19 -5.18,-1.77 -0.8,-0.28 -1.61,-0.55 -2.4,-0.81 -0.69,-15.57 0.62,-31.07 -0.02,-46.41 0.42,-0.73 0.86,-1.44 1.32,-2.14 -0.45,7.85 5.18,15.18 13.37,15.06 21.08,-1.72 36.9,-19.57 44.23,-38.24 -1.06,-0.53 -2.11,-1.06 -3.15,-1.59 -6.73,16.01 -21.73,29.32 -39.1,31.9 -10.99,2.2 -15.57,-10.31 -17.36,-18.78 4.27,6.33 9.83,14.73 18.85,11.04 12.81,-6.5 26.3,-18.12 27.05,-33.48 0.09,-8.34 -8.87,-10.28 -15.47,-10.52 12.59,-3.23 24.24,-9.43 36.8,-12.85 0.56,0.14 1.69,0.41 2.25,0.54 -8.15,3.03 -16.43,5.8 -24.3,9.51 4.83,3.3 7.11,8.58 9.12,13.83 4.42,-4.47 9.04,-9.43 12.19,-14.33 12.17,4.66 18.22,-8.45 26.76,-14.54 5.54,-3.6 12.44,-4.09 17.92,-7.76 -2.17,0.19 -4.33,0.44 -6.5,0.52 3.2,-1.85 7.07,-1.47 10.6,-2.18 m 18.03,21.54 c 1.16,0.35 2.32,0.69 3.5,1.04 0.24,2.84 0.19,5.71 0.1,8.57 -1.74,5.82 -10.53,1.63 -10.38,7.39 15.14,0.83 26.94,12.02 33.9,24.23 14.01,-16.12 -9.41,-43.47 -27.12,-41.23 m -21.1,29.94 c -13.93,9.14 -19.09,26.18 -23.56,41.34 -4.35,20.93 -3.42,44.73 8.56,63.11 5.8,8.43 14.78,16.94 25.83,15.79 23,-5.15 33.83,-31.89 35.19,-53.27 1.43,-21.91 -2.27,-45.51 -16.49,-62.99 -6.94,-8.69 -20.45,-9.93 -29.53,-3.98 m -66.22,35.22 c -0.26,-0.5 -0.78,-1.5 -1.04,-2 -5.46,10.12 -7.94,22 -8.67,33.46 -7.9,-3.22 -15.6,-6.88 -23.48,-10.12 0.88,-6.66 2.31,-13.26 2.3,-20 -1.78,-0.05 -3.55,-0.06 -5.31,-0.03 -3.53,7.85 -0.95,17.11 -4.81,24.76 11.57,7.09 25.78,13.05 39.45,12.06 -0.01,-14.57 2.22,-28.97 3.82,-43.38 -1.21,1.53 -2.54,3.15 -2.26,5.25 m 118.52,48.72 c -0.98,5.44 -3.42,10.53 -4.12,16.02 3.81,1.67 7.55,3.5 11.13,5.64 1.29,-5.76 3.56,-11.3 3.85,-17.24 -3.46,-1.84 -7.11,-3.31 -10.86,-4.42 z"
       id="path80" />
  </g>
  <g
     id="#6e7984ff"
     transform="translate(-161.82426,-98.722798)">
    <path
       fill="#6e7984"
       stroke="#6e7984"
       stroke-width="0.09375"
       opacity="1"
       d="m 653.28,790.34 c 23.28,-3.65 41.08,15.44 54.22,31.95 l -0.51,1.37 c -13.29,-18.48 -38.46,-7.98 -56.96,-8.98 -4.53,0.24 -8.62,1.9 -11.25,5.75 0.37,2.27 0.43,4.59 -0.06,6.86 -1.32,-3.77 -2.42,-7.61 -3.82,-11.35 -1.45,-0.05 -2.9,-0.1 -4.34,-0.14 1.12,4.35 2.94,8.48 4.28,12.77 -4.23,-2.73 -4.04,-8.45 -6.13,-12.59 -5.02,9.53 -4.88,20.42 -7.58,30.54 -0.51,-22.07 8.69,-49.56 32.15,-56.18 m -1.4,9.61 c 0.19,2.81 1.04,5.51 2.08,8.12 0.77,-0.06 2.3,-0.17 3.07,-0.22 0.61,-3.17 -0.61,-9.87 -5.15,-7.9 z"
       id="path81" />
  </g>
  <g
     id="#cfd4d8ff"
     transform="translate(-161.82426,-98.722798)">
    <path
       fill="#cfd4d8"
       stroke="#cfd4d8"
       stroke-width="0.09375"
       opacity="1"
       d="m 492.8,797.67 c 8.56,-2.07 17.18,-4.69 26.02,-4.99 -8.54,6.09 -14.59,19.2 -26.76,14.54 -3.15,4.9 -7.77,9.86 -12.19,14.33 -2.01,-5.25 -4.29,-10.53 -9.12,-13.83 7.87,-3.71 16.15,-6.48 24.3,-9.51 -0.56,-0.13 -1.69,-0.4 -2.25,-0.54 z"
       id="path82" />
  </g>
  <g
     id="#88929cfe"
     transform="translate(-161.82426,-98.722798)">
    <path
       fill="#88929c"
       stroke="#88929c"
       stroke-width="0.09375"
       opacity="1"
       d="m 500.74,829.73 c 13.66,-25.05 42.9,-46.89 72.14,-34.21 7.45,2.77 10.96,13.88 19.76,11.92 0.92,1.93 0.88,4.08 0.87,6.18 -1.83,-1.29 -3.63,-2.61 -5.45,-3.9 9.43,13.8 15.2,29.78 19.08,45.94 -2.07,1.9 -4.1,3.84 -6.2,5.7 -0.43,4.49 3.21,7.58 6.34,10.14 -3.12,1.18 -4.91,-2.48 -6.93,-4.18 0.5,13.07 -11.41,23.83 -4.59,37.16 -0.72,-0.11 -2.15,-0.35 -2.86,-0.47 0.84,-17.4 -0.44,-34.91 -5.66,-51.59 13.1,-13.89 5.39,-35.98 -8.14,-46.56 -11.03,-11.16 -29.17,-10.75 -42.4,-3.85 2.81,5.97 5.98,11.92 7.37,18.43 -3.68,-5.17 -6.86,-10.7 -10.94,-15.6 -11.34,6.23 -20.56,16.24 -26.52,27.63 -1.69,-1.42 -3.77,-2.19 -5.87,-2.74 z"
       id="path83" />
  </g>
  <g
     id="#f9fbfdff"
     transform="translate(-161.82426,-98.722798)">
    <path
       fill="#f9fbfd"
       stroke="#f9fbfd"
       stroke-width="0.09375"
       opacity="1"
       d="m 651.88,799.95 c 4.54,-1.97 5.76,4.73 5.15,7.9 -0.77,0.05 -2.3,0.16 -3.07,0.22 -1.04,-2.61 -1.89,-5.31 -2.08,-8.12 z"
       id="path84" />
  </g>
  <g
     id="#b8bec4fe"
     transform="translate(-161.82426,-98.722798)">
    <path
       fill="#b8bec4"
       stroke="#b8bec4"
       stroke-width="0.09375"
       opacity="1"
       d="m 772.56,800.03 c 10.56,9.54 23.66,16.95 38.29,16.79 0.28,0.25 0.85,0.74 1.13,0.99 -1.39,0.23 -2.75,0.54 -4.11,0.85 4.97,0.79 10.01,0.64 15.02,0.68 0.44,2.43 0.75,4.88 0.93,7.36 9.16,14.14 -14.7,28.08 -8.28,44 -4.13,3.02 -8.32,5.97 -12.51,8.92 -2.61,-6.18 -6.59,-11.95 -7.84,-18.59 2.9,-6.71 13.27,-8.1 12.18,-17.06 1.84,-22.45 -24.78,-28.07 -34.81,-43.94 z"
       id="path85" />
  </g>
  <g
     id="#bbc2c8ff"
     transform="translate(-161.82426,-98.722798)">
    <path
       fill="#bbc2c8"
       stroke="#bbc2c8"
       stroke-width="0.09375"
       opacity="1"
       d="m 558.87,804.8 c 17.71,-2.24 41.13,25.11 27.12,41.23 -6.96,-12.21 -18.76,-23.4 -33.9,-24.23 -0.15,-5.76 8.64,-1.57 10.38,-7.39 0.09,-2.86 0.14,-5.73 -0.1,-8.57 -1.18,-0.35 -2.34,-0.69 -3.5,-1.04 z"
       id="path86" />
  </g>
  <g
     id="#535e6afe"
     transform="translate(-161.82426,-98.722798)">
    <path
       fill="#535e6a"
       stroke="#535e6a"
       stroke-width="0.09375"
       opacity="1"
       d="m 864.97,805.63 c 22.85,53.54 14.72,117.24 -12.02,167.31 -10.83,14.06 -24.57,27.07 -28.31,44.58 l -0.03,0.26 c -1.39,1.32 -2.86,2.61 -4.67,3.33 7.11,-11.12 6.03,-25.39 6.03,-38.13 -1.8,-21.7 -5.34,-43.49 -12.54,-64.09 -1.39,-4.09 -2.82,-8.16 -4.19,-12.25 1.33,-0.36 2.67,-0.7 4.02,-1.04 2.76,4.39 4.19,9.43 6.47,14.07 3.22,-5.78 6.61,-11.48 9.18,-17.6 -1.09,-2.02 -2.17,-4.04 -3.2,-6.07 l 0.31,-1.5 c 2.92,3.15 4.13,8.58 9.03,9.25 3.8,-1.9 2.33,-7.39 2.01,-10.87 0.4,-0.16 1.19,-0.49 1.59,-0.66 -8.51,-13.01 -0.26,-27.44 2.31,-40.86 0.97,9.58 -3.26,18.49 -4.99,27.66 1.32,6.35 4.4,12.28 7.25,18.09 3.09,-6.57 7.93,-12.86 8.74,-20.15 -3.16,-7.93 -7.01,-15.61 -9.21,-23.92 l 0.35,-1.46 c 3.58,5.18 4.59,11.57 7.36,17.16 1.72,-9.58 6.34,-18.56 7.28,-28.14 -1.03,-0.12 -2.04,-0.23 -3.05,-0.33 0.25,-1.35 0.81,-2.57 1.86,-3.48 -0.14,-2.29 -0.34,-4.57 -0.53,-6.84 0.42,0.32 1.26,0.95 1.68,1.27 1.98,16.62 5.89,33.36 3.7,50.12 -0.7,6.93 -2.37,13.7 -3.46,20.57 3.74,6.61 11.19,13.47 7.74,21.66 -4.36,-3.99 -6,-9.97 -9.41,-14.69 -3.25,22.41 -13.62,43 -24.9,62.24 1.08,-0.62 2.2,-1.19 3.29,-1.8 0.57,1.81 1.15,3.64 1.71,5.48 1.73,-4.42 4.56,-8.25 7.45,-11.95 0.1,3.97 -1.09,7.78 -2.97,11.25 5.88,-4.46 10.76,-10.07 14.52,-16.4 26.8,-44.82 26.46,-102.47 9.25,-150.63 z"
       id="path87" />
  </g>
  <g
     id="#8f98a0fe"
     transform="translate(-161.82426,-98.722798)">
    <path
       fill="#8f98a0"
       stroke="#8f98a0"
       stroke-width="0.09375"
       opacity="1"
       d="m 650.03,814.68 c 18.5,1 43.67,-9.5 56.96,8.98 l 0.51,-1.37 c 5.36,6.64 10.5,13.54 14.79,20.94 -0.13,9.06 11.58,16.2 7.8,25.73 2.09,12.37 -0.87,26.17 -9.96,35.19 -3.65,5.34 -12.23,3.31 -15.79,8.41 -1.55,0.82 -3.05,1.72 -4.54,2.61 2.08,2.94 6.2,2.2 9.33,2.06 -2.23,0.37 -4.46,0.65 -6.67,1.05 3.17,2.07 6.94,0.76 10.32,0.07 -0.15,0.74 -0.29,1.49 -0.43,2.25 -1.91,0.94 -3.79,1.94 -5.56,3.13 17.32,-2.25 25.07,-19.8 33.26,-32.87 4.3,20.65 -18.68,33.56 -36.07,36.33 0.93,0.48 1.88,0.97 2.83,1.47 -11.12,3.78 -22.64,0.43 -33.77,0.9 -14.7,-4.39 -28.59,-14.62 -34.46,-29.12 l 0.56,-1.11 c 3.2,4.25 5.08,9.44 9.09,13.09 14.38,-2.29 29.32,3.86 43.82,1.79 10.89,-5.5 21.85,-14.11 24.83,-26.48 6.33,1.46 9.82,-8.57 4.47,-11.6 0.99,-5.96 2.87,-11.99 0.62,-17.94 1.28,1.31 2.57,2.6 3.88,3.89 -1.4,-7.42 -7.23,-15.08 -13.84,-17.51 -1.58,-1.51 -3.12,-3.05 -4.73,-4.51 -1.41,-5.45 -5.69,-8.92 -10.38,-11.56 1.44,-0.27 2.89,-0.54 4.34,-0.8 -1.47,-0.83 -2.95,-1.65 -4.47,-2.36 -34.25,-21.8 -75.72,16.66 -71.28,52.87 -2.35,-10.26 -3.79,-21.13 -4.36,-31.69 2.7,-10.12 2.56,-21.01 7.58,-30.54 2.09,4.14 1.9,9.86 6.13,12.59 -1.34,-4.29 -3.16,-8.42 -4.28,-12.77 1.44,0.04 2.89,0.09 4.34,0.14 1.4,3.74 2.5,7.58 3.82,11.35 0.49,-2.27 0.43,-4.59 0.06,-6.86 2.63,-3.85 6.72,-5.51 11.25,-5.75 z"
       id="path88" />
  </g>
  <g
     id="#bdc3c8fe"
     transform="translate(-161.82426,-98.722798)">
    <path
       fill="#bdc3c8"
       stroke="#bdc3c8"
       stroke-width="0.09375"
       opacity="1"
       d="m 669.96,826.04 c 8.82,-3.04 18,1.16 26.81,-0.7 1.52,0.71 3,1.53 4.47,2.36 -1.45,0.26 -2.9,0.53 -4.34,0.8 4.69,2.64 8.97,6.11 10.38,11.56 -20.31,-10.17 -52.1,-10.3 -61.49,14.69 1.41,9.8 -7.46,21.76 1.83,29.63 7.75,4 3.84,15.63 12.76,17.9 -0.34,-3.45 -0.84,-6.86 -1.36,-10.27 11.75,15.74 30.7,6.36 44.56,-0.41 4.42,-13.86 20.28,-29.33 6.08,-42.46 0.82,-1.51 1.6,-3.03 2.35,-4.57 6.61,2.43 12.44,10.09 13.84,17.51 -1.31,-1.29 -2.6,-2.58 -3.88,-3.89 2.25,5.95 0.37,11.98 -0.62,17.94 5.35,3.03 1.86,13.06 -4.47,11.6 -2.98,12.37 -13.94,20.98 -24.83,26.48 -14.5,2.07 -29.44,-4.08 -43.82,-1.79 -4.01,-3.65 -5.89,-8.84 -9.09,-13.09 l -0.56,1.11 -0.28,0.56 c -11.57,-27.62 -0.04,-67.68 31.66,-74.96 z"
       id="path89" />
  </g>
  <g
     id="#5c6672fe"
     transform="translate(-161.82426,-98.722798)">
    <path
       fill="#5c6672"
       stroke="#5c6672"
       stroke-width="0.09375"
       opacity="1"
       d="m 537.77,834.74 c 9.08,-5.95 22.59,-4.71 29.53,3.98 14.22,17.48 17.92,41.08 16.49,62.99 -1.32,-3.14 -1.39,-6.56 -1.45,-9.9 -1.55,-0.5 -3.09,-1.01 -4.62,-1.49 -0.39,1.28 -0.77,2.58 -1.15,3.88 -0.48,-2.78 -0.97,-5.56 -1.23,-8.35 -0.04,-0.57 -0.11,-1.72 -0.14,-2.29 -15.39,0.94 -30.78,2.1 -46.11,3.33 -1.3,9.31 -1.52,18.76 -3.28,27.99 0.79,0.53 1.6,1.09 2.4,1.65 3.64,2.67 7.57,4.92 11.59,6.97 -2.08,0.49 -4.07,-0.31 -5.99,-0.99 1,1.95 1.96,3.93 2.84,5.95 -5.75,-3.3 -11.65,-6.45 -17.87,-8.74 1.62,8.78 9.72,12.72 16.77,16.59 l -0.19,1.08 c -0.82,0.05 -2.48,0.15 -3.3,0.2 2.6,4.24 6.6,8.13 5.68,13.57 3.5,1.58 7.13,2.87 10.86,3.82 -11.05,1.15 -20.03,-7.36 -25.83,-15.79 -11.98,-18.38 -12.91,-42.18 -8.56,-63.11 4.47,-15.16 9.63,-32.2 23.56,-41.34 m -4.38,28.63 c -2.52,0.97 -0.67,4.4 1.63,3.75 11.69,-3.53 24.03,-4.44 36.08,-6.36 -0.13,-2.04 -0.46,-4.05 -1,-6.01 -12.44,1.94 -24.88,4.3 -36.71,8.62 z"
       id="path90" />
  </g>
  <g
     id="#f1f3f5fe"
     transform="translate(-161.82426,-98.722798)">
    <path
       fill="#f1f3f5"
       stroke="#f1f3f5"
       stroke-width="0.09375"
       opacity="1"
       d="m 645.79,854.75 c 9.39,-24.99 41.18,-24.86 61.49,-14.69 1.61,1.46 3.15,3 4.73,4.51 -0.75,1.54 -1.53,3.06 -2.35,4.57 14.2,13.13 -1.66,28.6 -6.08,42.46 -13.86,6.77 -32.81,16.15 -44.56,0.41 0.52,3.41 1.02,6.82 1.36,10.27 -8.92,-2.27 -5.01,-13.9 -12.76,-17.9 -9.29,-7.87 -0.42,-19.83 -1.83,-29.63 z"
       id="path91" />
  </g>
  <g
     id="#636e79fe"
     transform="translate(-161.82426,-98.722798)">
    <path
       fill="#636e79"
       stroke="#636e79"
       stroke-width="0.09375"
       opacity="1"
       d="m 730.09,868.96 c 3.78,-9.53 -7.93,-16.67 -7.8,-25.73 13.9,24.15 25.83,49.88 31.29,77.35 1.65,10.71 3.4,23.53 -4.62,32.25 0.54,-3.58 2.48,-6.75 2.83,-10.36 -8.88,-5.99 -19.84,-8.03 -30.37,-6.72 6.7,-5.42 11.43,-12.79 15.81,-20.09 -18.88,11.94 -41.72,21.98 -64.19,13.9 11.13,-0.47 22.65,2.88 33.77,-0.9 -0.95,-0.5 -1.9,-0.99 -2.83,-1.47 17.39,-2.77 40.37,-15.68 36.07,-36.33 -8.19,13.07 -15.94,30.62 -33.26,32.87 1.77,-1.19 3.65,-2.19 5.56,-3.13 0.14,-0.76 0.28,-1.51 0.43,-2.25 -3.38,0.69 -7.15,2 -10.32,-0.07 2.21,-0.4 4.44,-0.68 6.67,-1.05 6.1,-1.21 11.83,-4.63 15.09,-10.03 -6.72,1.41 -13.36,3.22 -19.88,5.36 3.56,-5.1 12.14,-3.07 15.79,-8.41 9.09,-9.02 12.05,-22.82 9.96,-35.19 z"
       id="path92" />
  </g>
  <g
     id="#dbdfe3fe"
     transform="translate(-161.82426,-98.722798)">
    <path
       fill="#dbdfe3"
       stroke="#dbdfe3"
       stroke-width="0.09375"
       opacity="1"
       d="m 840.96,851.36 c 0.14,-0.34 0.42,-1.04 0.56,-1.38 0.41,1 0.82,2.03 1.23,3.06 2.2,8.31 6.05,15.99 9.21,23.92 -0.81,7.29 -5.65,13.58 -8.74,20.15 -2.85,-5.81 -5.93,-11.74 -7.25,-18.09 1.73,-9.17 5.96,-18.08 4.99,-27.66 z"
       id="path93" />
  </g>
  <g
     id="#9da4abfe"
     transform="translate(-161.82426,-98.722798)">
    <path
       fill="#9da4ab"
       stroke="#9da4ab"
       stroke-width="0.09375"
       opacity="1"
       d="m 533.39,863.37 c 11.83,-4.32 24.27,-6.68 36.71,-8.62 0.54,1.96 0.87,3.97 1,6.01 -12.05,1.92 -24.39,2.83 -36.08,6.36 -2.3,0.65 -4.15,-2.78 -1.63,-3.75 z"
       id="path94" />
  </g>
  <g
     id="#979fa6fe"
     transform="translate(-161.82426,-98.722798)">
    <path
       fill="#979fa6"
       stroke="#979fa6"
       stroke-width="0.09375"
       opacity="1"
       d="m 420.73,900.98 c -0.78,-14.62 -0.38,-30.15 5.53,-43.71 0.64,15.34 -0.67,30.84 0.02,46.41 0.79,0.26 1.6,0.53 2.4,0.81 -0.07,14.77 2.16,32.61 14.1,42.62 0.13,-0.83 0.39,-2.5 0.52,-3.34 8.27,-0.37 13.94,6.7 20.7,10.31 11.46,3.59 12.39,17.62 18.02,26.75 -13.49,-12.25 -27.97,-23.02 -44.3,-31.46 -12.39,-13.57 -16.74,-32.34 -19.76,-49.98 0.93,0.51 1.84,1.06 2.77,1.59 z"
       id="path95" />
  </g>
  <g
     id="#8c959efe"
     transform="translate(-161.82426,-98.722798)">
    <path
       fill="#8c959e"
       stroke="#8c959e"
       stroke-width="0.09375"
       opacity="1"
       d="m 471.55,869.96 c -0.28,-2.1 1.05,-3.72 2.26,-5.25 -1.6,14.41 -3.83,28.81 -3.82,43.38 -13.67,0.99 -27.88,-4.97 -39.45,-12.06 3.86,-7.65 1.28,-16.91 4.81,-24.76 1.76,-0.03 3.53,-0.02 5.31,0.03 0.01,6.74 -1.42,13.34 -2.3,20 7.88,3.24 15.58,6.9 23.48,10.12 0.73,-11.46 3.21,-23.34 8.67,-33.46 0.26,0.5 0.78,1.5 1.04,2 z"
       id="path96" />
    <path
       fill="#8c959e"
       stroke="#8c959e"
       stroke-width="0.09375"
       opacity="1"
       d="m 712.32,941.5 c 2.9,-2.1 6.13,-3.83 9.1,-5.75 10.53,-1.31 21.49,0.73 30.37,6.72 -0.35,3.61 -2.29,6.78 -2.83,10.36 l -0.08,0.35 c -11.88,9.3 -29.23,-1.06 -36.56,-11.68 z"
       id="path97" />
  </g>
  <g
     id="#717b85fe"
     transform="translate(-161.82426,-98.722798)">
    <path
       fill="#717b85"
       stroke="#717b85"
       stroke-width="0.09375"
       opacity="1"
       d="m 484.17,875.31 c 1.67,11.98 -0.71,24.83 0.24,37.21 0.72,-0.01 1.45,-0.01 2.18,0 -0.01,-8.31 -0.12,-16.61 0.18,-24.9 0.44,0.4 1.32,1.22 1.76,1.63 -0.36,17.35 -0.06,36.24 7.22,52.09 4.28,-3.09 8.35,-7.63 12.21,-10.39 8.5,11.55 -13.24,17.36 -6.05,28.14 0.43,-0.65 1.3,-1.95 1.73,-2.61 -0.34,1.48 -0.7,2.96 -1.11,4.44 3.91,8.77 9.5,16.82 16.95,22.95 -0.28,-1.2 -0.55,-2.39 -0.81,-3.57 5.16,-5.42 6.79,-17.42 15.68,-16.99 0.58,0.14 1.75,0.43 2.33,0.57 -1.04,4.49 -4.42,8.14 -4.55,12.89 1.61,-0.43 3.22,-0.88 4.84,-1.3 -1.96,3.61 -3.65,7.43 -6.31,10.61 -0.9,0.42 -1.8,0.84 -2.7,1.26 0.65,-1.03 1.33,-2.02 2,-3.02 -3.05,-1.61 -6.18,-0.99 -8.38,1.64 12.79,12.27 33.38,12.55 46.62,0.81 l 1.51,0.17 c -2.25,3.17 -5.79,4.88 -9.2,6.49 2.24,0.88 4.31,2.2 5.23,4.55 -3.36,2.02 -6.86,3.78 -10.38,5.48 -16.45,4.95 -33.49,-4.13 -44.21,-16.32 -26.29,-30.27 -32.5,-73.22 -26.98,-111.83 z"
       id="path98" />
  </g>
  <g
     id="#ced2d6fe"
     transform="translate(-161.82426,-98.722798)">
    <path
       fill="#ced2d6"
       stroke="#ced2d6"
       stroke-width="0.09375"
       opacity="1"
       d="m 529.09,886.89 c 15.33,-1.23 30.72,-2.39 46.11,-3.33 0.03,0.57 0.1,1.72 0.14,2.29 0.01,2.27 -0.12,4.54 -0.25,6.82 -15.12,-1.24 -30.28,0.43 -45.42,0.36 -0.01,5.14 5.74,5.79 9.67,5.13 11.81,0.07 24.25,0.74 35.66,-2.65 -0.01,2.19 0,4.39 -0.12,6.59 -13.44,4.52 -35.19,-0.75 -41.3,15.31 -1.73,-0.59 -3.52,-1.13 -5.37,-0.88 -0.8,-0.56 -1.61,-1.12 -2.4,-1.65 1.76,-9.23 1.98,-18.68 3.28,-27.99 z"
       id="path99" />
  </g>
  <g
     id="#e3e6e9fe"
     transform="translate(-161.82426,-98.722798)">
    <path
       fill="#e3e6e9"
       stroke="#e3e6e9"
       stroke-width="0.09375"
       opacity="1"
       d="m 410.2,886.14 c 0.68,-0.45 2.03,-1.35 2.7,-1.8 -0.68,17.21 1.84,34.29 5.4,51.08 l -0.46,-0.53 c -6.45,-6.23 -5.82,-15.78 -7.87,-23.84 -11.46,-0.3 -22.9,-1.09 -34.35,-1.62 11.37,-4.31 21.79,-11.06 31.98,-17.7 0.06,-2.18 1.24,-4 2.6,-5.59 z"
       id="path100" />
  </g>
  <g
     id="#788089fe"
     transform="translate(-161.82426,-98.722798)">
    <path
       fill="#788089"
       stroke="#788089"
       stroke-width="0.09375"
       opacity="1"
       d="m 370.7,908.79 c 13.34,-7.24 25.94,-15.91 39.5,-22.65 -1.36,1.59 -2.54,3.41 -2.6,5.59 -10.19,6.64 -20.61,13.39 -31.98,17.7 11.45,0.53 22.89,1.32 34.35,1.62 2.05,8.06 1.42,17.61 7.87,23.84 -17.14,-5.49 -32.96,-14.74 -48.84,-23.18 -2.17,-0.97 0.71,-2.42 1.7,-2.92 z"
       id="path101" />
  </g>
  <g
     id="#b2b8befe"
     transform="translate(-161.82426,-98.722798)">
    <path
       fill="#b2b8be"
       stroke="#b2b8be"
       stroke-width="0.09375"
       opacity="1"
       d="m 575.34,885.85 c 0.26,2.79 0.75,5.57 1.23,8.35 0.38,-1.3 0.76,-2.6 1.15,-3.88 1.53,0.48 3.07,0.99 4.62,1.49 0.06,3.34 0.13,6.76 1.45,9.9 -1.36,21.38 -12.19,48.12 -35.19,53.27 -3.73,-0.95 -7.36,-2.24 -10.86,-3.82 0.92,-5.44 -3.08,-9.33 -5.68,-13.57 0.82,-0.05 2.48,-0.15 3.3,-0.2 l 0.19,-1.08 c 8.07,3.31 15.9,11.55 25.21,7.81 8.8,-12.29 13.49,-26.84 14.12,-42.02 0.12,-2.2 0.11,-4.4 0.12,-6.59 -11.41,3.39 -23.85,2.72 -35.66,2.65 -3.93,0.66 -9.68,0.01 -9.67,-5.13 15.14,0.07 30.3,-1.6 45.42,-0.36 0.13,-2.28 0.26,-4.55 0.25,-6.82 z"
       id="path102" />
  </g>
  <g
     id="#fbfcfdfe"
     transform="translate(-161.82426,-98.722798)">
    <path
       fill="#fbfcfd"
       stroke="#fbfcfd"
       stroke-width="0.09375"
       opacity="1"
       d="m 533.58,917.41 c 6.11,-16.06 27.86,-10.79 41.3,-15.31 -0.63,15.18 -5.32,29.73 -14.12,42.02 -9.31,3.74 -17.14,-4.5 -25.21,-7.81 -7.05,-3.87 -15.15,-7.81 -16.77,-16.59 6.22,2.29 12.12,5.44 17.87,8.74 7.47,4.52 15.24,8.62 23.5,11.54 -0.91,-1.15 -1.81,-2.28 -2.7,-3.4 0.63,-0.18 1.89,-0.54 2.52,-0.71 -5.96,-5.28 -13.04,-8.98 -20.17,-12.39 -4.02,-2.05 -7.95,-4.3 -11.59,-6.97 1.85,-0.25 3.64,0.29 5.37,0.88 z"
       id="path103" />
  </g>
  <g
     id="#5858585b"
     transform="translate(-161.82426,-98.722798)">
    <path
       fill="#585858"
       stroke="#585858"
       stroke-width="0.09375"
       opacity="0.36"
       d="m 613.62,902.66 c 2.21,-0.32 4.4,-0.75 6.58,-1.26 4.63,2.15 7.81,6.32 12.15,8.91 4.58,5.18 9.52,10.06 13.88,15.43 -5.87,-1.71 -11.71,-5.59 -16.19,-9.9 -6.51,-1.36 -10.89,-7.96 -18.05,-4.02 0.37,-3.08 1.01,-6.12 1.63,-9.16 z"
       id="path104" />
  </g>
  <g
     id="#58626efe"
     transform="translate(-161.82426,-98.722798)">
    <path
       fill="#58626e"
       stroke="#58626e"
       stroke-width="0.09375"
       opacity="1"
       d="m 786.85,911.5 c 1.79,-1.85 2.85,-5.37 5.91,-5.18 -1.96,3.18 -6.46,6.67 -3.83,10.72 14.05,29.87 24.77,61.71 27.24,94.8 0.08,2.25 0.1,4.5 0.17,6.76 -9.88,-6.72 -18.24,-15.31 -27.58,-22.69 -5.83,-5.17 -11.71,-10.3 -17.49,-15.52 2.15,-1.14 3.79,1 5.38,2.1 -0.26,-6.46 7.87,-11.07 4.21,-18.29 -1,0.9 -1.99,1.81 -2.98,2.73 0.04,-0.69 0.13,-2.08 0.17,-2.77 0.28,-1.04 0.74,-2.09 0.26,-3.13 l -0.24,-0.89 c 1.37,0.03 2.75,0.08 4.13,0.13 0.88,-11.83 4.66,-26.24 -4.11,-36.45 -0.41,-4.71 1.95,-9.79 4.83,-13.58 1.3,0.42 2.61,0.84 3.93,1.26 z"
       id="path105" />
  </g>
  <g
     id="#eef0f3ff"
     transform="translate(-161.82426,-98.722798)">
    <path
       fill="#eef0f3"
       stroke="#eef0f3"
       stroke-width="0.09375"
       opacity="1"
       d="m 704.34,912.56 c 6.52,-2.14 13.16,-3.95 19.88,-5.36 -3.26,5.4 -8.99,8.82 -15.09,10.03 -3.13,0.14 -7.25,0.88 -9.33,-2.06 1.49,-0.89 2.99,-1.79 4.54,-2.61 z"
       id="path106" />
  </g>
  <g
     id="#b9bfc5fe"
     transform="translate(-161.82426,-98.722798)">
    <path
       fill="#b9bfc5"
       stroke="#b9bfc5"
       stroke-width="0.09375"
       opacity="1"
       d="m 435.42,907.96 c 8.06,1.87 16.07,4.63 23.56,8.03 5.32,8.84 3.18,20.04 7.65,29.28 l 0.55,-1.34 c 1.32,3.8 2.99,7.48 4.17,11.35 -10.43,-5.24 -15.47,-17.04 -26.37,-22.12 -6.69,-2.26 -8.96,-9.06 -9.49,-15.49 0.87,-3.2 0.42,-6.49 -0.07,-9.71 z"
       id="path107" />
  </g>
  <g
     id="#a8aeb3fe"
     transform="translate(-161.82426,-98.722798)">
    <path
       fill="#a8aeb3"
       stroke="#a8aeb3"
       stroke-width="0.09375"
       opacity="1"
       d="m 856.27,908.88 c 3.41,4.72 5.05,10.7 9.41,14.69 -3.85,11.24 -8,23.06 -10.31,34.13 -3.76,6.33 -8.64,11.94 -14.52,16.4 1.88,-3.47 3.07,-7.28 2.97,-11.25 -2.89,3.7 -5.72,7.53 -7.45,11.95 -0.56,-1.84 -1.14,-3.67 -1.71,-5.48 -1.09,0.61 -2.21,1.18 -3.29,1.8 11.28,-19.24 21.65,-39.83 24.9,-62.24 z"
       id="path108" />
  </g>
  <g
     id="#d6daddfe"
     transform="translate(-161.82426,-98.722798)">
    <path
       fill="#d6dadd"
       stroke="#d6dadd"
       stroke-width="0.09375"
       opacity="1"
       d="m 797.1,929.79 c -5.2,-5.62 -1.56,-11.94 2.93,-16.52 6.88,11.14 9.66,24.27 15.73,35.85 -0.21,-10.8 -5.34,-20.46 -4.92,-30.93 0.64,0.49 1.93,1.47 2.57,1.96 l 0.02,-1.26 c 7.2,20.6 10.74,42.39 12.54,64.09 0,12.74 1.08,27.01 -6.03,38.13 -1,0.65 -2.07,1.15 -3.21,1.49 -15.83,-6.04 -28.81,-18.51 -42.65,-28.29 0.63,-0.78 1.27,-1.54 1.92,-2.3 0.83,0.9 1.67,1.82 2.52,2.75 0.32,-1.3 0.64,-2.58 0.98,-3.85 3.34,1.27 5.54,4.6 9.26,5 9.34,7.38 17.7,15.97 27.58,22.69 -0.07,-2.26 -0.09,-4.51 -0.17,-6.76 0.27,2.43 0.81,4.82 1.4,7.2 0.05,-30.75 -9.58,-60.84 -20.47,-89.25 z"
       id="path109" />
  </g>
  <g
     id="#b5b9bffe"
     transform="translate(-161.82426,-98.722798)">
    <path
       fill="#b5b9bf"
       stroke="#b5b9bf"
       stroke-width="0.09375"
       opacity="1"
       d="m 533.81,922.51 c 1.92,0.68 3.91,1.48 5.99,0.99 7.13,3.41 14.21,7.11 20.17,12.39 -0.63,0.17 -1.89,0.53 -2.52,0.71 0.89,1.12 1.79,2.25 2.7,3.4 -8.26,-2.92 -16.03,-7.02 -23.5,-11.54 -0.88,-2.02 -1.84,-4 -2.84,-5.95 z"
       id="path110" />
  </g>
  <g
     id="#9ba3abfd"
     transform="translate(-161.82426,-98.722798)">
    <path
       fill="#9ba3ab"
       stroke="#9ba3ab"
       stroke-width="0.09375"
       opacity="1"
       d="m 647.72,927.55 c 14.06,11.85 32.81,16.07 50.83,16.37 -2.49,7.65 -9.91,11.51 -14.82,17.31 6.97,-2.31 13.65,-6.26 18.8,-11.53 7.08,8.74 13.84,17.77 20.82,26.62 -1.07,3.28 2.75,5.32 4.43,7.63 -7.77,-3.07 -17.62,-5.82 -23.93,1.62 -21.45,-16.4 -40.48,-36.1 -56.13,-58.02 z"
       id="path111" />
  </g>
  <g
     id="#b6bdc3fe"
     transform="translate(-161.82426,-98.722798)">
    <path
       fill="#b6bdc3"
       stroke="#b6bdc3"
       stroke-width="0.09375"
       opacity="1"
       d="m 503.64,956.48 c 2.35,-5.18 6.36,-9.32 10.4,-13.23 4.91,8.39 12,15.07 20.31,20.06 -8.89,-0.43 -10.52,11.57 -15.68,16.99 0.26,1.18 0.53,2.37 0.81,3.57 -7.45,-6.13 -13.04,-14.18 -16.95,-22.95 0.41,-1.48 0.77,-2.96 1.11,-4.44 z"
       id="path112" />
  </g>
  <g
     id="#d5d9dcfe"
     transform="translate(-161.82426,-98.722798)">
    <path
       fill="#d5d9dc"
       stroke="#d5d9dc"
       stroke-width="0.09375"
       opacity="1"
       d="m 480.72,948.79 c 13.67,10.38 17.97,27.86 30.14,39.46 l 0.29,-1.11 c 10.72,12.19 27.76,21.27 44.21,16.32 -0.32,0.92 -0.64,1.83 -0.96,2.78 2.71,-0.86 5.48,-2.45 8.4,-1.59 -5.89,3.9 -12.86,6.35 -19.86,7.11 -19.82,1.88 -36.25,-11.79 -48.1,-26.06 -2.26,-6.87 -7.44,-12.35 -9.5,-19.4 3.48,-6.21 -4.15,-11.41 -4.62,-17.51 z"
       id="path113" />
  </g>
  <g
     id="#c0c6cafe"
     transform="translate(-161.82426,-98.722798)">
    <path
       fill="#c0c6ca"
       stroke="#c0c6ca"
       stroke-width="0.09375"
       opacity="1"
       d="m 764.9,950.45 c 4.41,3.6 8.69,7.37 13.41,10.58 0.48,1.04 0.02,2.09 -0.26,3.13 -0.73,1.05 -1.48,2.08 -2.19,3.16 -5.26,-4.02 -15.87,-8.92 -10.96,-16.87 z"
       id="path114" />
  </g>
  <g
     id="#e0e4e7fd"
     transform="translate(-161.82426,-98.722798)">
    <path
       fill="#e0e4e7"
       stroke="#e0e4e7"
       stroke-width="0.09375"
       opacity="1"
       d="m 439.79,952.41 c 7.1,5.66 16.89,9.11 16.53,19.7 -9.58,5.84 -18.58,12.52 -27.71,18.94 7.45,-11.39 7.39,-25.83 11.18,-38.64 z"
       id="path115" />
  </g>
  <g
     id="#cacfd4fe"
     transform="translate(-161.82426,-98.722798)">
    <path
       fill="#cacfd4"
       stroke="#cacfd4"
       stroke-width="0.09375"
       opacity="1"
       d="m 536.68,963.88 c 7.3,4.65 17.91,-1.29 22.63,6.72 4.5,5.63 10.51,-0.83 15.15,2.1 -9.21,13.26 -28.83,23.26 -43.8,13.38 2.66,-3.18 4.35,-7 6.31,-10.61 -1.62,0.42 -3.23,0.87 -4.84,1.3 0.13,-4.75 3.51,-8.4 4.55,-12.89 z"
       id="path116" />
  </g>
  <g
     id="#78818afd"
     transform="translate(-161.82426,-98.722798)">
    <path
       fill="#78818a"
       stroke="#78818a"
       stroke-width="0.09375"
       opacity="1"
       d="m 727.88,967.32 c 5.33,1.32 10.78,1.48 16.22,1.45 8.67,9.95 19.65,17.45 29.98,25.54 13.84,9.78 26.82,22.25 42.65,28.29 l 0.52,0.07 c -41.22,9.72 -81.09,-13.9 -113.4,-37.1 6.31,-7.44 16.16,-4.69 23.93,-1.62 -1.68,-2.31 -5.5,-4.35 -4.43,-7.63 3.01,3.67 6.42,7 10.01,10.11 -1.53,-6.46 -5.18,-12.37 -5.48,-19.11 z"
       id="path117" />
  </g>
  <g
     id="#b1b8bffe"
     transform="translate(-161.82426,-98.722798)">
    <path
       fill="#b1b8bf"
       stroke="#b1b8bf"
       stroke-width="0.09375"
       opacity="1"
       d="m 291.29,1041.6 c 1.22,6.95 1.04,14.11 1.09,21.17 3.64,4.18 -2.47,9.48 0.09,14.1 -3.4,2.87 -3.9,7.63 -3.1,11.77 -0.83,15.77 -2.01,31.7 -2.06,47.55 0.53,-2.12 1.06,-4.22 1.45,-6.35 -6.62,74.33 -13.49,148.66 -20.91,222.94 -3.64,-1.89 -7.21,-3.92 -10.75,-5.98 1.43,-9.72 5.64,-20.26 3.24,-29.82 3.26,-32.61 10.01,-65.27 9.85,-97.99 -7.02,8.35 -3.77,21.47 -6.81,31.81 -0.25,-0.01 -0.76,-0.02 -1.01,-0.03 -0.88,-19.1 2.13,-39.04 -1.77,-57.5 1.35,3.81 3.33,7.35 4.9,11.08 1.54,4.51 2.94,9.26 6.21,12.88 6.46,-58.56 12.34,-117.17 19.58,-175.63 z"
       id="path118" />
  </g>
  <g
     id="#e2e6e8fe"
     transform="translate(-161.82426,-98.722798)">
    <path
       fill="#e2e6e8"
       stroke="#e2e6e8"
       stroke-width="0.09375"
       opacity="1"
       d="m 219.78,1196.07 c 6.15,-7.01 9.88,-16.45 17.26,-22.26 -7.33,54.55 -13.16,109.39 -19.08,164.15 -3.96,0.28 -7.94,0.17 -11.9,0.3 1.57,-47.58 9.52,-94.76 13.72,-142.19 z"
       id="path119" />
  </g>
  <g
     id="#dee3e5fe"
     transform="translate(-161.82426,-98.722798)">
    <path
       fill="#dee3e5"
       stroke="#dee3e5"
       stroke-width="0.09375"
       opacity="1"
       d="m 239.61,1286.01 c 5.04,-36.58 6.67,-73.98 13.73,-110.21 1.52,6.2 5.36,11.43 7.26,17.47 3.9,18.46 0.89,38.4 1.77,57.5 0.25,0.01 0.76,0.02 1.01,0.03 3.04,-10.34 -0.21,-23.46 6.81,-31.81 0.16,32.72 -6.59,65.38 -9.85,97.99 -2.59,9.78 -0.5,21.63 -6.34,30.03 -7.4,-2.85 -14.89,-5.42 -22.51,-7.59 2.3,-22.87 3.22,-46.16 6.3,-68.82 0.7,5.12 0.84,10.31 1.82,15.41 z"
       id="path120" />
  </g>
  <g
     id="#a0a6abfd"
     transform="translate(-161.82426,-98.722798)">
    <path
       fill="#a0a6ab"
       stroke="#a0a6ab"
       stroke-width="0.09375"
       opacity="1"
       d="m 192.83,1351.59 c 20.93,-1.1 42.28,1.39 62.06,8.55 -0.16,0.4 -0.48,1.21 -0.64,1.61 2.12,1 4.62,1.78 5.7,4.09 -6.11,7.7 -6.79,18.62 -15,24.93 0.54,0.75 1.09,1.52 1.64,2.31 -1.19,-0.57 -2.37,-1.12 -3.55,-1.67 -0.07,0.64 -0.22,1.92 -0.29,2.56 -19.5,2.59 -39.9,-0.17 -57.5,-9.22 2.07,-10.46 4.26,-20.91 4.83,-31.59 2.33,-0.29 4.66,-0.52 7,-0.76 -1.42,-0.31 -2.83,-0.58 -4.25,-0.81 z"
       id="path121" />
  </g>
</svg>
