<?xml version="1.0" encoding="UTF-8" ?>
<!DOCTYPE svg PUBLIC "-//W3C//DTD SVG 1.1//EN" "http://www.w3.org/Graphics/SVG/1.1/DTD/svg11.dtd">
<svg width="1024pt" height="1536pt" viewBox="0 0 1024 1536" version="1.1" xmlns="http://www.w3.org/2000/svg">
<g id="#6c7782fd">
<path fill="#6c7782" stroke="#6c7782" stroke-width="0.09375" opacity="1.00" d=" M 339.61 128.78 C 342.66 107.54 367.23 95.05 387.05 99.76 C 411.07 106.33 424.44 137.67 410.80 158.90 C 413.38 167.22 417.03 175.24 419.30 183.72 C 436.86 182.69 449.99 197.78 454.53 213.41 C 461.38 234.81 475.78 267.13 450.51 281.81 C 454.19 292.76 455.72 304.40 459.85 315.13 C 472.89 314.53 484.91 323.45 489.69 335.34 C 496.07 350.36 500.42 366.24 504.22 382.08 C 507.49 396.25 501.60 411.87 488.59 418.92 C 491.43 430.25 495.31 441.32 498.55 452.55 C 523.20 453.28 533.43 478.88 538.96 499.07 C 546.27 516.62 552.89 543.38 531.38 553.70 C 534.90 563.31 537.44 573.35 541.25 582.78 C 560.91 581.82 574.90 599.25 580.74 616.29 C 587.81 633.38 601.57 655.85 586.18 672.35 C 600.22 671.94 612.77 681.17 620.42 692.22 C 609.03 686.27 599.18 675.47 584.86 676.41 C 585.22 679.99 586.39 683.41 587.51 686.81 C 593.08 687.42 597.63 691.33 600.19 696.15 C 591.86 700.40 583.61 706.06 581.00 715.67 C 572.90 717.36 567.08 710.77 561.85 705.72 C 558.14 717.22 568.67 731.10 580.32 731.82 C 580.34 732.29 580.40 733.25 580.43 733.73 C 582.34 734.24 584.29 734.64 586.24 735.07 C 586.28 731.99 586.24 728.91 586.50 725.85 C 586.47 728.69 586.74 731.53 586.99 734.38 C 589.26 732.96 591.59 731.39 594.35 731.21 C 603.43 736.56 609.01 748.90 602.29 758.47 C 597.41 757.41 591.49 758.60 590.71 764.42 C 590.50 762.96 590.54 761.50 590.68 760.05 C 568.62 759.65 545.28 748.14 538.06 725.94 C 533.11 713.16 535.22 697.37 545.40 687.73 C 514.57 688.73 501.60 655.98 494.73 631.23 C 488.46 617.19 495.17 598.06 510.78 594.07 C 506.86 583.04 503.57 571.50 500.14 560.54 C 485.17 563.93 471.17 553.99 465.27 540.70 C 458.87 525.33 453.68 509.35 450.18 493.07 C 448.11 479.41 457.03 467.50 468.42 461.17 C 463.82 448.32 461.63 434.18 455.99 422.00 C 424.82 420.12 422.70 383.69 414.38 360.91 C 407.42 345.95 413.45 324.91 431.08 321.56 C 428.65 309.03 424.33 296.71 421.48 284.20 C 408.00 286.28 398.24 272.97 391.65 263.12 C 392.53 270.66 392.18 278.43 394.59 285.71 C 389.49 294.00 395.09 303.20 393.67 312.00 C 387.21 357.99 383.38 404.35 376.33 450.24 C 366.29 461.75 369.38 478.12 366.29 492.22 C 365.45 484.60 366.98 477.00 367.92 469.46 C 357.62 476.31 365.42 457.75 360.48 453.14 C 358.63 470.58 357.26 488.22 354.26 505.43 C 354.08 504.55 353.72 502.80 353.53 501.92 C 355.41 483.26 357.49 464.63 359.41 445.99 C 356.29 444.39 353.12 442.84 349.73 441.91 C 339.25 439.03 328.17 436.15 317.29 438.49 C 313.54 439.35 309.71 439.77 305.96 440.61 C 303.94 441.42 301.41 442.19 300.44 444.34 C 273.95 631.88 244.07 818.95 219.67 1006.78 C 206.14 1108.64 191.47 1210.35 178.79 1312.33 C 178.67 1312.57 178.43 1313.06 178.31 1313.30 C 182.93 1312.37 187.55 1311.19 192.30 1311.26 C 188.12 1313.92 183.03 1313.97 178.38 1315.27 C 176.37 1325.19 174.73 1335.37 174.61 1345.48 C 173.66 1346.00 172.73 1346.58 171.81 1347.18 C 172.71 1349.61 172.61 1352.22 172.51 1354.79 C 171.17 1355.86 169.85 1356.95 168.55 1358.09 C 176.29 1354.80 184.46 1352.49 192.83 1351.59 C 194.25 1351.82 195.66 1352.09 197.08 1352.40 C 194.74 1352.64 192.41 1352.87 190.08 1353.16 C 189.51 1363.84 187.32 1374.29 185.25 1384.75 C 202.85 1393.80 223.25 1396.56 242.75 1393.97 C 243.63 1394.06 245.37 1394.23 246.25 1394.32 C 220.07 1399.06 190.36 1394.07 169.97 1376.07 C 155.17 1362.47 165.06 1340.87 165.67 1323.80 C 165.57 1326.33 166.36 1336.37 169.57 1330.86 C 176.39 1321.95 166.14 1310.87 172.97 1302.02 C 177.50 1295.46 174.18 1286.84 177.64 1280.68 C 178.63 1281.28 179.61 1281.94 180.60 1282.58 C 206.79 1085.84 233.58 889.10 262.52 692.71 C 274.17 613.04 286.39 533.46 296.88 453.63 C 295.65 453.76 294.43 453.89 293.21 454.03 C 292.56 453.52 291.91 453.00 291.27 452.50 C 290.90 456.49 290.76 460.66 288.65 464.21 C 293.12 452.84 284.48 442.29 288.44 431.07 C 294.19 389.99 300.95 349.06 306.77 308.00 C 306.49 295.58 316.76 286.42 316.32 273.92 C 320.58 242.68 325.24 211.43 330.43 180.30 C 332.38 170.33 341.65 163.94 351.21 162.38 C 343.88 152.80 337.99 141.22 339.61 128.78 M 350.31 114.12 C 341.81 117.38 341.76 128.48 342.49 136.14 C 342.88 134.43 343.20 132.71 343.51 130.98 C 349.19 143.77 356.30 161.43 373.36 160.83 C 373.44 160.44 373.60 159.66 373.68 159.26 C 374.53 158.89 375.39 158.52 376.26 158.15 C 376.46 157.71 376.86 156.83 377.06 156.40 C 376.21 156.52 375.36 156.64 374.51 156.76 C 374.62 155.68 374.73 154.61 374.85 153.54 L 374.13 153.54 C 367.28 145.05 358.77 135.10 362.35 123.29 C 366.72 110.91 384.25 109.84 392.99 117.97 C 398.74 124.35 399.96 133.71 398.68 141.92 C 401.43 144.77 403.52 148.14 406.03 151.19 C 410.60 142.59 410.44 132.65 408.54 123.22 C 413.49 127.58 411.46 134.96 413.41 140.14 C 418.30 107.32 369.75 86.05 350.31 114.12 M 370.89 122.70 C 361.42 125.78 364.99 139.00 371.11 143.83 C 376.54 134.53 387.26 134.22 395.78 139.29 C 393.86 128.35 382.34 118.00 370.89 122.70 M 376.12 141.20 C 375.13 146.46 380.74 147.59 384.10 149.90 C 383.91 150.35 383.52 151.27 383.33 151.73 C 397.56 165.37 397.64 187.00 406.24 203.91 C 409.59 207.86 416.12 218.20 421.15 211.51 C 420.52 211.54 419.25 211.60 418.62 211.63 C 419.00 207.83 420.93 204.30 420.33 200.38 C 420.75 200.45 421.59 200.59 422.02 200.65 C 421.11 198.00 420.34 195.29 419.05 192.80 C 415.65 179.45 411.31 166.16 405.19 153.79 C 399.80 143.92 387.38 134.32 376.12 141.20 M 339.18 184.39 C 354.21 175.47 374.56 176.83 389.29 185.73 C 388.36 158.31 337.60 155.69 339.18 184.39 M 350.97 182.91 C 345.66 184.51 337.59 186.93 338.90 194.08 C 335.97 210.75 334.25 227.65 330.98 244.26 C 335.02 242.23 339.36 240.73 343.95 241.10 C 354.22 239.06 364.92 240.45 374.66 244.12 C 378.51 244.88 381.24 248.57 385.28 248.43 C 384.62 230.01 383.99 211.18 388.64 193.20 C 387.29 189.85 384.82 187.13 381.30 186.04 C 372.42 180.54 360.68 178.48 350.97 182.91 M 419.87 186.93 C 419.87 194.94 424.57 197.72 431.40 199.24 C 430.80 199.45 429.59 199.88 428.98 200.10 C 440.08 209.71 442.32 225.05 446.58 238.32 C 451.41 243.52 445.74 251.33 449.26 257.16 C 448.14 259.11 446.81 260.93 445.56 262.79 C 446.18 265.99 447.02 269.14 448.16 272.20 C 467.08 261.32 460.53 237.25 454.40 220.68 C 451.04 204.21 439.41 184.06 419.87 186.93 M 389.40 214.19 C 393.28 235.93 395.24 265.36 418.89 275.03 C 419.05 265.33 410.52 259.36 409.54 250.04 C 407.04 235.84 400.94 221.64 400.46 207.74 C 400.50 206.34 400.58 204.93 400.66 203.54 C 395.22 200.65 391.89 210.40 389.40 214.19 M 426.13 207.14 C 428.46 220.49 413.88 226.76 405.26 216.64 C 409.29 231.60 409.42 249.67 418.92 262.15 C 419.51 249.93 436.88 245.71 443.14 256.11 C 441.71 239.71 436.80 219.70 426.13 207.14 M 327.70 257.50 C 345.36 247.38 369.01 250.46 385.17 262.14 C 386.94 255.49 381.66 249.61 376.07 246.89 C 361.31 238.96 332.60 237.74 327.70 257.50 M 426.30 256.12 C 425.48 282.17 437.77 307.13 443.16 332.60 C 442.43 339.25 451.66 346.25 457.33 341.30 C 461.57 338.40 460.72 332.53 459.44 328.30 C 455.03 304.94 447.31 282.38 441.64 259.31 C 440.15 252.26 430.12 250.58 426.30 256.12 M 316.48 287.20 C 314.87 288.53 313.47 290.08 312.57 291.99 C 331.03 279.49 355.32 282.43 375.60 288.32 C 381.28 290.64 386.61 293.78 391.07 298.02 C 396.62 282.30 383.52 269.61 370.94 262.90 C 350.75 250.04 319.57 263.27 316.48 287.20 M 336.26 293.02 C 332.67 293.59 329.27 294.99 326.12 296.77 C 324.49 297.35 322.90 298.04 321.34 298.81 C 315.56 300.09 315.33 306.50 314.39 311.22 C 309.26 343.24 304.54 375.39 300.27 407.50 C 299.83 411.08 299.33 414.65 298.73 418.20 C 317.18 409.18 338.61 413.57 357.33 419.45 L 357.33 419.57 C 361.69 421.54 365.39 424.65 369.53 427.02 C 373.29 388.05 379.27 349.31 382.46 310.29 C 385.38 302.37 375.66 298.64 369.91 296.11 C 359.27 291.64 347.52 291.82 336.26 293.02 M 459.10 316.91 C 460.35 319.96 460.42 323.74 461.94 326.49 C 460.92 332.08 468.98 331.82 470.27 336.59 C 476.61 354.99 486.34 374.30 483.79 394.22 C 482.90 394.54 482.02 394.86 481.15 395.20 C 481.47 396.30 481.79 397.41 482.11 398.52 C 483.13 402.43 484.43 406.27 485.52 410.16 C 486.82 409.72 488.06 409.15 489.28 408.51 L 489.63 408.64 C 501.73 404.33 505.13 390.18 501.28 378.93 C 496.81 363.68 493.42 347.97 486.45 333.60 C 481.56 323.30 470.45 316.65 459.10 316.91 M 417.50 344.92 C 420.57 362.80 425.85 380.35 432.02 397.39 C 437.12 407.10 447.44 414.03 458.57 414.01 C 458.09 410.41 457.50 406.82 456.58 403.30 C 456.12 403.98 455.67 404.67 455.22 405.36 C 455.72 396.49 445.39 393.59 443.40 385.73 C 439.37 372.29 434.82 358.92 432.53 345.03 C 431.86 340.95 435.36 337.93 437.54 334.94 C 436.56 332.18 436.70 328.38 433.46 327.20 C 433.55 326.33 433.66 325.46 433.77 324.59 C 424.08 325.08 414.97 334.93 417.50 344.92 M 464.00 338.67 C 465.05 355.10 444.91 354.09 437.53 344.20 C 436.31 355.64 441.59 366.88 444.27 377.93 C 446.05 384.70 448.30 392.31 455.14 395.64 C 453.24 385.13 468.48 379.28 475.31 386.71 C 477.73 389.52 484.13 396.75 482.52 388.43 C 476.46 371.99 474.45 352.79 464.00 338.67 M 458.07 396.98 L 458.54 396.44 C 465.73 422.48 474.36 448.22 481.01 474.44 C 482.19 479.92 485.95 485.52 491.97 486.07 C 501.86 487.93 499.73 473.36 497.81 467.69 C 494.14 445.62 487.06 424.32 481.27 402.76 C 479.17 394.86 474.16 384.33 464.29 385.79 C 459.18 386.74 457.03 392.29 458.07 396.98 M 307.41 420.53 C 300.64 421.55 295.89 426.33 296.22 433.39 C 320.22 425.79 349.67 428.08 369.78 443.95 C 369.56 440.43 369.62 436.91 369.58 433.39 C 354.26 416.42 328.41 413.78 307.41 420.53 M 498.13 455.12 C 498.83 459.44 499.66 463.75 501.10 467.90 C 501.20 468.55 501.39 469.84 501.48 470.48 C 518.79 481.11 519.26 505.62 524.89 523.23 C 525.50 522.18 526.11 521.13 526.73 520.08 C 528.10 522.54 528.19 525.45 529.09 528.09 C 527.44 530.22 525.43 532.02 523.50 533.87 C 525.54 536.90 526.30 540.71 528.90 543.35 C 535.37 537.41 541.04 530.31 542.66 521.07 C 537.69 504.33 533.78 486.94 525.56 471.41 C 520.47 461.40 509.13 455.34 498.13 455.12 M 458.45 501.59 C 462.34 521.74 468.10 551.03 493.39 552.91 C 493.43 552.55 493.49 551.82 493.53 551.46 C 495.84 551.02 498.08 550.25 500.15 549.13 C 500.08 548.34 499.93 546.77 499.86 545.98 L 499.15 546.17 C 497.42 542.93 496.97 538.46 493.14 536.92 C 479.16 528.95 479.06 510.83 473.46 497.39 C 470.08 490.78 469.37 481.61 476.47 477.15 C 476.39 473.51 476.38 469.60 474.37 466.44 C 456.61 467.29 452.38 487.85 458.45 501.59 M 498.55 492.57 C 490.42 497.54 482.83 488.99 476.42 486.13 C 476.64 501.13 481.47 520.08 491.90 531.96 C 495.52 520.08 513.06 518.75 519.03 529.26 C 520.02 529.51 521.02 529.76 522.03 530.01 C 518.84 512.70 513.24 495.16 505.40 479.30 C 501.47 480.84 503.94 490.07 498.55 492.57 M 497.83 529.02 C 506.64 554.71 515.54 581.12 523.53 607.40 C 526.11 617.70 542.85 621.73 542.40 607.87 C 542.71 609.95 542.17 612.36 543.55 614.15 C 544.33 609.80 544.39 605.26 543.27 600.96 C 538.64 582.04 532.56 563.53 525.66 545.31 C 522.72 537.05 518.54 526.68 509.01 524.63 C 507.01 524.27 505.00 523.94 503.00 523.65 C 501.53 525.67 499.86 527.55 497.83 529.02 M 541.80 584.34 C 543.45 589.74 542.41 598.80 550.15 598.88 C 555.87 612.84 567.15 624.28 570.84 639.21 C 569.12 638.35 567.55 637.27 566.03 636.12 C 569.47 642.40 571.38 649.11 572.76 656.08 C 574.89 659.68 577.30 663.15 580.59 665.80 C 582.94 663.01 585.86 660.54 586.94 656.91 C 586.54 656.57 585.73 655.90 585.32 655.56 C 591.65 640.05 580.45 624.88 575.16 610.75 C 569.97 596.67 557.16 585.24 541.80 584.34 M 498.22 622.12 C 502.20 637.43 507.65 652.52 514.09 666.93 C 522.99 675.83 537.56 686.13 550.31 678.93 C 547.78 679.27 535.62 677.73 543.11 676.69 C 545.32 677.12 547.60 676.76 549.84 676.65 C 549.48 674.88 549.05 673.12 548.63 671.38 C 549.73 672.86 550.62 674.69 552.53 675.28 C 550.05 662.46 535.04 664.11 527.57 656.44 C 518.73 642.80 510.71 624.83 514.97 608.54 C 515.51 607.58 516.05 606.63 516.59 605.67 C 516.93 605.65 517.61 605.59 517.95 605.57 C 516.90 602.08 516.18 598.48 514.53 595.20 C 503.42 598.79 495.07 610.23 498.22 622.12 M 547.80 606.48 C 547.01 612.98 547.15 622.67 538.96 624.25 C 530.77 626.31 524.73 619.99 518.51 616.05 C 518.46 631.05 522.90 649.08 535.15 658.79 C 536.38 658.69 537.62 658.68 538.87 658.70 C 538.75 657.91 538.63 657.14 538.53 656.37 C 543.14 642.12 561.23 644.21 570.11 653.00 C 564.52 636.87 558.52 619.97 547.80 606.48 M 544.80 656.26 C 556.03 667.06 563.55 680.75 568.46 695.44 C 569.77 701.61 577.32 705.87 582.79 701.81 C 589.46 698.11 585.11 689.67 584.59 683.92 L 584.37 684.31 C 581.66 671.36 573.70 659.82 563.58 651.50 C 557.71 647.40 545.29 646.97 544.80 656.26 M 544.33 725.94 L 543.70 726.89 C 545.40 730.67 547.51 734.44 550.48 737.35 C 558.25 744.92 568.18 750.59 579.00 752.20 C 584.51 753.13 598.05 756.11 597.49 747.43 C 592.36 748.06 586.28 750.13 581.84 746.35 C 587.72 745.56 593.84 745.95 599.30 743.20 C 599.90 741.88 600.47 740.56 601.00 739.22 C 592.93 735.18 584.10 737.43 575.59 735.46 C 563.48 728.44 548.42 708.76 560.83 696.31 C 560.50 693.54 558.41 690.94 559.80 688.16 C 542.45 689.75 537.28 712.20 544.33 725.94 Z" />
</g>
<g id="#fafbfbfe">
<path fill="#fafbfb" stroke="#fafbfb" stroke-width="0.09375" opacity="1.00" d=" M 350.31 114.12 C 369.75 86.05 418.30 107.32 413.41 140.14 C 411.46 134.96 413.49 127.58 408.54 123.22 C 410.44 132.65 410.60 142.59 406.03 151.19 C 403.52 148.14 401.43 144.77 398.68 141.92 C 399.96 133.71 398.74 124.35 392.99 117.97 C 384.25 109.84 366.72 110.91 362.35 123.29 C 358.77 135.10 367.28 145.05 374.13 153.54 C 353.90 157.98 341.69 129.96 350.31 114.12 Z" />
<path fill="#fafbfb" stroke="#fafbfb" stroke-width="0.09375" opacity="1.00" d=" M 419.87 186.93 C 439.41 184.06 451.04 204.21 454.40 220.68 C 460.53 237.25 467.08 261.32 448.16 272.20 C 447.02 269.14 446.18 265.99 445.56 262.79 C 446.81 260.93 448.14 259.11 449.26 257.16 C 452.95 237.43 445.56 213.83 431.40 199.24 C 424.57 197.72 419.87 194.94 419.87 186.93 Z" />
</g>
<g id="#b8bfc5fe">
<path fill="#b8bfc5" stroke="#b8bfc5" stroke-width="0.09375" opacity="1.00" d=" M 342.49 136.14 C 341.76 128.48 341.81 117.38 350.31 114.12 C 341.69 129.96 353.90 157.98 374.13 153.54 L 374.85 153.54 C 374.73 154.61 374.62 155.68 374.51 156.76 C 375.36 156.64 376.21 156.52 377.06 156.40 C 376.86 156.83 376.46 157.71 376.26 158.15 C 375.39 158.52 374.53 158.89 373.68 159.26 C 373.60 159.66 373.44 160.44 373.36 160.83 C 356.30 161.43 349.19 143.77 343.51 130.98 C 343.20 132.71 342.88 134.43 342.49 136.14 Z" />
<path fill="#b8bfc5" stroke="#b8bfc5" stroke-width="0.09375" opacity="1.00" d=" M 305.96 440.61 C 309.71 439.77 313.54 439.35 317.29 438.49 C 305.33 536.83 291.28 635.30 279.72 733.87 C 265.64 853.04 249.72 972.08 236.38 1091.38 C 233.28 1099.97 232.71 1109.18 232.86 1118.25 C 231.90 1115.51 231.13 1112.72 230.53 1109.89 C 229.06 1119.60 228.22 1129.39 227.09 1139.15 C 224.95 1158.16 221.99 1177.07 219.78 1196.07 C 215.58 1243.50 207.63 1290.68 206.06 1338.26 C 195.12 1338.61 184.71 1341.48 174.61 1345.48 C 174.73 1335.37 176.37 1325.19 178.38 1315.27 C 183.03 1313.97 188.12 1313.92 192.30 1311.26 C 187.55 1311.19 182.93 1312.37 178.31 1313.30 C 178.43 1313.06 178.67 1312.57 178.79 1312.33 C 184.00 1294.44 183.95 1275.06 187.97 1256.78 C 194.05 1262.70 187.32 1275.10 189.39 1284.08 C 210.65 1087.66 244.34 892.87 269.21 696.89 C 281.24 611.44 293.85 526.04 305.96 440.61 Z" />
</g>
<g id="#fcfdfdfe">
<path fill="#fcfdfd" stroke="#fcfdfd" stroke-width="0.09375" opacity="1.00" d=" M 376.12 141.20 C 387.38 134.32 399.80 143.92 405.19 153.79 C 411.31 166.16 415.65 179.45 419.05 192.80 C 418.89 195.41 418.62 198.00 418.38 200.60 C 409.66 202.95 408.79 192.09 406.64 186.39 C 401.57 173.17 398.38 156.31 384.10 149.90 C 380.74 147.59 375.13 146.46 376.12 141.20 Z" />
<path fill="#fcfdfd" stroke="#fcfdfd" stroke-width="0.09375" opacity="1.00" d=" M 501.76 526.97 C 504.00 525.74 506.42 524.80 509.01 524.63 C 518.54 526.68 522.72 537.05 525.66 545.31 C 532.56 563.53 538.64 582.04 543.27 600.96 C 543.14 601.78 542.88 603.40 542.74 604.21 C 541.59 600.88 540.50 597.54 539.48 594.18 C 539.76 600.78 531.05 604.97 528.20 597.79 C 519.58 574.11 511.73 550.12 501.76 526.97 Z" />
<path fill="#fcfdfd" stroke="#fcfdfd" stroke-width="0.09375" opacity="1.00" d=" M 541.80 584.34 C 557.16 585.24 569.97 596.67 575.16 610.75 C 580.45 624.88 591.65 640.05 585.32 655.56 C 585.73 655.90 586.54 656.57 586.94 656.91 C 585.86 660.54 582.94 663.01 580.59 665.80 C 577.30 663.15 574.89 659.68 572.76 656.08 C 573.73 655.63 574.72 655.19 575.70 654.76 C 574.87 634.44 566.88 611.22 550.15 598.88 C 542.41 598.80 543.45 589.74 541.80 584.34 Z" />
<path fill="#fcfdfd" stroke="#fcfdfd" stroke-width="0.09375" opacity="1.00" d=" M 410.29 804.77 C 428.15 809.24 446.70 810.88 464.42 815.56 C 472.16 827.71 458.12 841.00 448.13 846.96 C 446.14 845.08 444.12 843.23 442.08 841.42 C 442.24 842.32 442.57 844.13 442.73 845.04 C 432.39 831.25 420.74 818.49 410.29 804.77 Z" />
</g>
<g id="#c7cdd2fe">
<path fill="#c7cdd2" stroke="#c7cdd2" stroke-width="0.09375" opacity="1.00" d=" M 384.10 149.90 C 398.38 156.31 401.57 173.17 406.64 186.39 C 408.79 192.09 409.66 202.95 418.38 200.60 C 418.62 198.00 418.89 195.41 419.05 192.80 C 420.34 195.29 421.11 198.00 422.02 200.65 C 421.59 200.59 420.75 200.45 420.33 200.38 C 420.93 204.30 419.00 207.83 418.62 211.63 C 419.25 211.60 420.52 211.54 421.15 211.51 C 416.12 218.20 409.59 207.86 406.24 203.91 C 397.64 187.00 397.56 165.37 383.33 151.73 C 383.52 151.27 383.91 150.35 384.10 149.90 Z" />
</g>
<g id="#f0f2f3fe">
<path fill="#f0f2f3" stroke="#f0f2f3" stroke-width="0.09375" opacity="1.00" d=" M 339.18 184.39 C 337.60 155.69 388.36 158.31 389.29 185.73 C 374.56 176.83 354.21 175.47 339.18 184.39 Z" />
</g>
<g id="#f3f6f7fe">
<path fill="#f3f6f7" stroke="#f3f6f7" stroke-width="0.09375" opacity="1.00" d=" M 350.97 182.91 C 360.68 178.48 372.42 180.54 381.30 186.04 C 377.90 205.23 377.33 224.81 374.66 244.12 C 364.92 240.45 354.22 239.06 343.95 241.10 C 348.67 223.03 349.48 203.69 352.90 185.15 C 352.25 184.40 351.61 183.65 350.97 182.91 Z" />
</g>
<g id="#bbc1c7fe">
<path fill="#bbc1c7" stroke="#bbc1c7" stroke-width="0.09375" opacity="1.00" d=" M 338.90 194.08 C 337.59 186.93 345.66 184.51 350.97 182.91 C 351.61 183.65 352.25 184.40 352.90 185.15 C 349.48 203.69 348.67 223.03 343.95 241.10 C 339.36 240.73 335.02 242.23 330.98 244.26 C 334.25 227.65 335.97 210.75 338.90 194.08 Z" />
</g>
<g id="#aeb5bdfe">
<path fill="#aeb5bd" stroke="#aeb5bd" stroke-width="0.09375" opacity="1.00" d=" M 381.30 186.04 C 384.82 187.13 387.29 189.85 388.64 193.20 C 383.99 211.18 384.62 230.01 385.28 248.43 C 381.24 248.57 378.51 244.88 374.66 244.12 C 377.33 224.81 377.90 205.23 381.30 186.04 Z" />
</g>
<g id="#a1a9b1fe">
<path fill="#a1a9b1" stroke="#a1a9b1" stroke-width="0.09375" opacity="1.00" d=" M 431.40 199.24 C 445.56 213.83 452.95 237.43 449.26 257.16 C 445.74 251.33 451.41 243.52 446.58 238.32 C 442.32 225.05 440.08 209.71 428.98 200.10 C 429.59 199.88 430.80 199.45 431.40 199.24 Z" />
<path fill="#a1a9b1" stroke="#a1a9b1" stroke-width="0.09375" opacity="1.00" d=" M 600.35 867.32 C 602.37 869.02 604.16 872.68 607.28 871.50 C 607.91 871.26 609.16 870.80 609.78 870.56 C 611.67 880.08 611.86 889.79 612.81 899.42 C 615.56 898.63 618.36 898.03 621.16 897.41 C 626.61 899.79 630.51 904.73 632.35 910.31 C 628.01 907.72 624.83 903.55 620.20 901.40 C 618.02 901.91 615.83 902.34 613.62 902.66 C 613.00 905.70 612.36 908.74 611.99 911.82 C 607.33 946.73 594.42 985.01 563.20 1004.72 L 562.80 1004.65 C 559.88 1003.79 557.11 1005.38 554.40 1006.24 C 554.72 1005.29 555.04 1004.38 555.36 1003.46 C 558.88 1001.76 562.38 1000.00 565.74 997.98 C 564.82 995.63 562.75 994.31 560.51 993.43 C 563.92 991.82 567.46 990.11 569.71 986.94 L 568.20 986.77 C 591.91 967.25 602.16 936.48 605.28 906.87 C 602.90 904.82 598.84 905.31 595.76 904.48 C 588.94 891.15 600.85 880.39 600.35 867.32 Z" />
</g>
<g id="#fbfcfcfe">
<path fill="#fbfcfc" stroke="#fbfcfc" stroke-width="0.09375" opacity="1.00" d=" M 389.40 214.19 C 391.89 210.40 395.22 200.65 400.66 203.54 C 400.58 204.93 400.50 206.34 400.46 207.74 C 400.94 221.64 407.04 235.84 409.54 250.04 C 410.52 259.36 419.05 265.33 418.89 275.03 C 395.24 265.36 393.28 235.93 389.40 214.19 Z" />
<path fill="#fbfcfc" stroke="#fbfcfc" stroke-width="0.09375" opacity="1.00" d=" M 426.30 256.12 C 430.12 250.58 440.15 252.26 441.64 259.31 C 447.31 282.38 455.03 304.94 459.44 328.30 C 456.86 330.30 452.10 336.47 449.66 331.36 C 440.39 309.91 438.32 285.96 428.06 264.86 C 432.65 287.34 443.94 309.33 443.16 332.60 C 437.77 307.13 425.48 282.17 426.30 256.12 Z" />
<path fill="#fbfcfc" stroke="#fbfcfc" stroke-width="0.09375" opacity="1.00" d=" M 459.10 316.91 C 470.45 316.65 481.56 323.30 486.45 333.60 C 493.42 347.97 496.81 363.68 501.28 378.93 C 499.11 389.78 494.31 399.81 485.91 407.22 C 487.03 407.64 488.15 408.07 489.28 408.51 C 488.06 409.15 486.82 409.72 485.52 410.16 C 484.43 406.27 483.13 402.43 482.11 398.52 C 494.44 393.16 488.64 376.91 485.82 367.15 C 480.42 352.73 480.00 331.01 461.94 326.49 C 460.42 323.74 460.35 319.96 459.10 316.91 Z" />
<path fill="#fbfcfc" stroke="#fbfcfc" stroke-width="0.09375" opacity="1.00" d=" M 317.29 438.49 C 328.17 436.15 339.25 439.03 349.73 441.91 C 346.47 468.42 343.72 495.12 338.77 521.35 C 342.07 514.23 341.54 505.23 346.85 498.74 C 338.76 578.85 328.71 658.88 319.19 738.85 C 311.90 745.16 300.83 751.11 301.14 762.10 C 299.65 774.33 298.47 786.60 297.02 798.84 C 297.62 798.36 298.22 797.89 298.82 797.43 C 301.40 807.10 289.03 819.52 299.07 826.87 C 300.13 830.38 298.39 834.04 298.07 837.58 C 296.69 837.14 295.31 836.70 293.93 836.27 C 293.98 837.46 294.03 838.66 294.09 839.87 C 296.30 839.91 298.51 839.89 300.73 839.80 C 301.42 838.22 302.12 836.65 302.84 835.09 C 291.56 932.97 284.09 1031.21 272.62 1129.03 C 270.47 1154.13 265.52 1179.11 265.50 1204.35 C 263.93 1200.62 261.95 1197.08 260.60 1193.27 C 258.70 1187.23 254.86 1182.00 253.34 1175.80 C 246.28 1212.03 244.65 1249.43 239.61 1286.01 C 238.63 1280.91 238.49 1275.72 237.79 1270.60 C 234.71 1293.26 233.79 1316.55 231.49 1339.42 C 239.11 1341.59 246.60 1344.16 254.00 1347.01 C 258.86 1349.23 263.53 1351.93 267.68 1355.32 C 267.58 1358.89 267.60 1362.53 266.36 1365.95 C 262.79 1363.54 258.93 1361.61 254.89 1360.14 C 235.11 1352.98 213.76 1350.49 192.83 1351.59 C 184.46 1352.49 176.29 1354.80 168.55 1358.09 C 169.85 1356.95 171.17 1355.86 172.51 1354.79 C 172.61 1352.22 172.71 1349.61 171.81 1347.18 C 172.73 1346.58 173.66 1346.00 174.61 1345.48 C 184.71 1341.48 195.12 1338.61 206.06 1338.26 C 210.02 1338.13 214.00 1338.24 217.96 1337.96 C 223.88 1283.20 229.71 1228.36 237.04 1173.81 C 229.66 1179.62 225.93 1189.06 219.78 1196.07 C 221.99 1177.07 224.95 1158.16 227.09 1139.15 C 229.60 1136.71 232.13 1134.30 234.83 1132.09 C 237.46 1138.43 237.05 1145.58 239.97 1151.80 C 249.33 1080.40 255.08 1008.28 265.76 936.92 C 276.96 823.20 296.37 710.69 307.50 596.97 C 307.89 594.16 307.60 591.33 306.86 588.61 C 292.24 636.22 298.29 689.14 280.44 736.05 C 280.26 735.50 279.90 734.41 279.72 733.87 C 291.28 635.30 305.33 536.83 317.29 438.49 Z" />
<path fill="#fbfcfc" stroke="#fbfcfc" stroke-width="0.09375" opacity="1.00" d=" M 498.13 455.12 C 509.13 455.34 520.47 461.40 525.56 471.41 C 533.78 486.94 537.69 504.33 542.66 521.07 C 541.04 530.31 535.37 537.41 528.90 543.35 C 526.30 540.71 525.54 536.90 523.50 533.87 C 525.43 532.02 527.44 530.22 529.09 528.09 C 533.29 518.23 526.48 508.42 524.05 498.99 C 519.94 486.93 515.42 470.92 501.10 467.90 C 499.66 463.75 498.83 459.44 498.13 455.12 Z" />
<path fill="#fbfcfc" stroke="#fbfcfc" stroke-width="0.09375" opacity="1.00" d=" M 458.45 501.59 C 452.38 487.85 456.61 467.29 474.37 466.44 C 476.38 469.60 476.39 473.51 476.47 477.15 C 469.37 481.61 470.08 490.78 473.46 497.39 C 479.06 510.83 479.16 528.95 493.14 536.92 C 496.97 538.46 497.42 542.93 499.15 546.17 C 490.08 550.99 480.46 544.01 475.85 536.26 C 467.21 521.87 462.69 505.46 458.03 489.47 C 457.91 493.52 458.80 497.54 458.45 501.59 Z" />
</g>
<g id="#f7f9faff">
<path fill="#f7f9fa" stroke="#f7f9fa" stroke-width="0.09375" opacity="1.00" d=" M 327.70 257.50 C 332.60 237.74 361.31 238.96 376.07 246.89 C 381.66 249.61 386.94 255.49 385.17 262.14 C 369.01 250.46 345.36 247.38 327.70 257.50 Z" />
</g>
<g id="#f6f7f9fe">
<path fill="#f6f7f9" stroke="#f6f7f9" stroke-width="0.09375" opacity="1.00" d=" M 316.48 287.20 C 319.57 263.27 350.75 250.04 370.94 262.90 C 365.03 267.37 372.51 270.87 376.62 272.33 C 376.03 277.64 375.22 282.96 375.60 288.32 C 355.32 282.43 331.03 279.49 312.57 291.99 C 313.47 290.08 314.87 288.53 316.48 287.20 Z" />
</g>
<g id="#abb3bbfe">
<path fill="#abb3bb" stroke="#abb3bb" stroke-width="0.09375" opacity="1.00" d=" M 370.94 262.90 C 383.52 269.61 396.62 282.30 391.07 298.02 C 386.61 293.78 381.28 290.64 375.60 288.32 C 375.22 282.96 376.03 277.64 376.62 272.33 C 372.51 270.87 365.03 267.37 370.94 262.90 Z" />
</g>
<g id="#b2b9c0ff">
<path fill="#b2b9c0" stroke="#b2b9c0" stroke-width="0.09375" opacity="1.00" d=" M 428.06 264.86 C 438.32 285.96 440.39 309.91 449.66 331.36 C 452.10 336.47 456.86 330.30 459.44 328.30 C 460.72 332.53 461.57 338.40 457.33 341.30 C 451.66 346.25 442.43 339.25 443.16 332.60 C 443.94 309.33 432.65 287.34 428.06 264.86 Z" />
</g>
<g id="#fafbfcfe">
<path fill="#fafbfc" stroke="#fafbfc" stroke-width="0.09375" opacity="1.00" d=" M 336.26 293.02 C 347.52 291.82 359.27 291.64 369.91 296.11 C 368.70 306.01 364.31 317.99 371.38 326.53 C 374.78 333.85 374.08 345.48 365.09 348.35 C 363.10 359.69 359.23 372.64 365.77 383.15 C 369.59 391.52 365.61 401.30 356.67 403.93 C 356.07 408.09 355.35 412.25 355.35 416.46 C 357.15 412.77 356.90 408.50 358.55 404.75 C 359.01 409.71 357.38 414.51 357.33 419.45 C 338.61 413.57 317.18 409.18 298.73 418.20 C 299.33 414.65 299.83 411.08 300.27 407.50 C 300.73 410.03 301.11 412.57 301.34 415.13 C 301.80 414.91 302.72 414.46 303.17 414.24 C 312.33 376.45 315.46 337.21 321.34 298.81 C 322.90 298.04 324.49 297.35 326.12 296.77 C 319.46 335.35 316.19 374.49 309.08 413.02 C 312.63 412.54 316.17 412.04 319.72 411.57 C 325.88 372.19 329.51 332.34 336.26 293.02 M 356.37 325.34 C 345.53 329.92 353.52 347.02 363.90 341.93 C 374.67 337.75 367.02 319.78 356.37 325.34 M 350.23 379.09 C 340.32 383.12 345.47 400.28 356.04 398.08 C 368.71 396.08 362.48 374.30 350.23 379.09 Z" />
</g>
<g id="#bdc3c9fe">
<path fill="#bdc3c9" stroke="#bdc3c9" stroke-width="0.09375" opacity="1.00" d=" M 326.12 296.77 C 329.27 294.99 332.67 293.59 336.26 293.02 C 329.51 332.34 325.88 372.19 319.72 411.57 C 316.17 412.04 312.63 412.54 309.08 413.02 C 316.19 374.49 319.46 335.35 326.12 296.77 Z" />
</g>
<g id="#bbc2c9fe">
<path fill="#bbc2c9" stroke="#bbc2c9" stroke-width="0.09375" opacity="1.00" d=" M 369.91 296.11 C 375.66 298.64 385.38 302.37 382.46 310.29 C 379.27 349.31 373.29 388.05 369.53 427.02 C 365.39 424.65 361.69 421.54 357.33 419.57 L 357.33 419.45 C 357.38 414.51 359.01 409.71 358.55 404.75 C 356.90 408.50 357.15 412.77 355.35 416.46 C 355.35 412.25 356.07 408.09 356.67 403.93 C 365.61 401.30 369.59 391.52 365.77 383.15 C 359.23 372.64 363.10 359.69 365.09 348.35 C 374.08 345.48 374.78 333.85 371.38 326.53 C 364.31 317.99 368.70 306.01 369.91 296.11 Z" />
</g>
<g id="#ced3d8fe">
<path fill="#ced3d8" stroke="#ced3d8" stroke-width="0.09375" opacity="1.00" d=" M 314.39 311.22 C 315.33 306.50 315.56 300.09 321.34 298.81 C 315.46 337.21 312.33 376.45 303.17 414.24 C 302.72 414.46 301.80 414.91 301.34 415.13 C 301.11 412.57 300.73 410.03 300.27 407.50 C 304.54 375.39 309.26 343.24 314.39 311.22 Z" />
</g>
<g id="#5b6774ff">
<path fill="#5b6774" stroke="#5b6774" stroke-width="0.09375" opacity="1.00" d=" M 356.37 325.34 C 367.02 319.78 374.67 337.75 363.90 341.93 C 353.52 347.02 345.53 329.92 356.37 325.34 M 356.16 328.88 C 350.46 334.03 357.64 341.92 363.88 339.03 C 364.58 338.27 365.29 337.51 366.00 336.75 C 366.00 335.22 365.99 333.70 366.00 332.18 C 363.58 329.48 359.76 327.88 356.16 328.88 Z" />
</g>
<g id="#fcfcfcff">
<path fill="#fcfcfc" stroke="#fcfcfc" stroke-width="0.09375" opacity="1.00" d=" M 417.50 344.92 C 414.97 334.93 424.08 325.08 433.77 324.59 C 433.66 325.46 433.55 326.33 433.46 327.20 C 436.70 328.38 436.56 332.18 437.54 334.94 C 435.36 337.93 431.86 340.95 432.53 345.03 C 434.82 358.92 439.37 372.29 443.40 385.73 C 445.39 393.59 455.72 396.49 455.22 405.36 C 453.03 404.79 450.77 404.28 448.50 404.68 C 449.91 407.37 452.59 408.79 455.17 410.15 C 451.17 409.73 447.73 407.62 444.33 405.65 C 444.74 405.42 445.54 404.95 445.95 404.72 C 430.51 391.79 431.35 369.95 422.84 353.33 C 424.57 368.38 432.65 382.74 433.71 397.42 C 433.29 397.41 432.44 397.40 432.02 397.39 C 425.85 380.35 420.57 362.80 417.50 344.92 Z" />
</g>
<g id="#a5adb4fe">
<path fill="#a5adb4" stroke="#a5adb4" stroke-width="0.09375" opacity="1.00" d=" M 461.94 326.49 C 480.00 331.01 480.42 352.73 485.82 367.15 C 488.64 376.91 494.44 393.16 482.11 398.52 C 481.79 397.41 481.47 396.30 481.15 395.20 C 482.02 394.86 482.90 394.54 483.79 394.22 C 486.34 374.30 476.61 354.99 470.27 336.59 C 468.98 331.82 460.92 332.08 461.94 326.49 Z" />
<path fill="#a5adb4" stroke="#a5adb4" stroke-width="0.09375" opacity="1.00" d=" M 496.45 837.65 C 497.61 838.79 498.76 839.96 499.89 841.15 C 493.90 853.59 490.84 867.07 488.93 880.68 C 493.62 881.60 498.36 882.27 503.08 883.08 C 503.09 886.47 502.91 889.87 502.24 893.21 C 497.52 892.51 492.88 891.22 488.53 889.25 C 488.09 888.84 487.21 888.02 486.77 887.62 C 486.47 895.91 486.58 904.21 486.59 912.52 C 485.86 912.51 485.13 912.51 484.41 912.52 C 483.46 900.14 485.84 887.29 484.17 875.31 C 486.34 862.25 489.68 849.16 496.45 837.65 Z" />
</g>
<g id="#d2d8ddfe">
<path fill="#d2d8dd" stroke="#d2d8dd" stroke-width="0.09375" opacity="1.00" d=" M 356.16 328.88 C 359.76 327.88 363.58 329.48 366.00 332.18 C 365.99 333.70 366.00 335.22 366.00 336.75 C 365.29 337.51 364.58 338.27 363.88 339.03 C 357.64 341.92 350.46 334.03 356.16 328.88 Z" />
</g>
<g id="#c0c6cbfe">
<path fill="#c0c6cb" stroke="#c0c6cb" stroke-width="0.09375" opacity="1.00" d=" M 422.84 353.33 C 431.35 369.95 430.51 391.79 445.95 404.72 C 445.54 404.95 444.74 405.42 444.33 405.65 C 447.73 407.62 451.17 409.73 455.17 410.15 C 452.59 408.79 449.91 407.37 448.50 404.68 C 450.77 404.28 453.03 404.79 455.22 405.36 C 455.67 404.67 456.12 403.98 456.58 403.30 C 457.50 406.82 458.09 410.41 458.57 414.01 C 447.44 414.03 437.12 407.10 432.02 397.39 C 432.44 397.40 433.29 397.41 433.71 397.42 C 432.65 382.74 424.57 368.38 422.84 353.33 Z" />
</g>
<g id="#636f7cff">
<path fill="#636f7c" stroke="#636f7c" stroke-width="0.09375" opacity="1.00" d=" M 350.23 379.09 C 362.48 374.30 368.71 396.08 356.04 398.08 C 345.47 400.28 340.32 383.12 350.23 379.09 M 349.30 384.23 C 344.71 389.40 352.97 398.83 357.94 392.95 C 363.19 387.71 355.07 379.46 349.30 384.23 Z" />
</g>
<g id="#b2b8bffe">
<path fill="#b2b8bf" stroke="#b2b8bf" stroke-width="0.09375" opacity="1.00" d=" M 501.28 378.93 C 505.13 390.18 501.73 404.33 489.63 408.64 L 489.28 408.51 C 488.15 408.07 487.03 407.64 485.91 407.22 C 494.31 399.81 499.11 389.78 501.28 378.93 Z" />
</g>
<g id="#d3dadeff">
<path fill="#d3dade" stroke="#d3dade" stroke-width="0.09375" opacity="1.00" d=" M 349.30 384.23 C 355.07 379.46 363.19 387.71 357.94 392.95 C 352.97 398.83 344.71 389.40 349.30 384.23 Z" />
</g>
<g id="#abb3b9fe">
<path fill="#abb3b9" stroke="#abb3b9" stroke-width="0.09375" opacity="1.00" d=" M 458.07 396.98 C 457.03 392.29 459.18 386.74 464.29 385.79 C 463.68 387.79 462.67 389.62 461.37 391.25 C 474.45 418.65 476.69 450.37 491.42 476.80 C 493.62 475.81 495.46 474.26 496.84 472.28 C 497.17 473.59 497.51 474.90 497.88 476.21 C 498.31 473.39 498.17 470.52 497.81 467.69 C 499.73 473.36 501.86 487.93 491.97 486.07 C 485.95 485.52 482.19 479.92 481.01 474.44 C 481.89 473.52 482.77 472.60 483.65 471.68 C 476.59 448.24 472.15 423.85 463.38 400.89 C 463.49 403.03 463.62 405.18 463.71 407.33 C 461.89 403.42 460.84 399.22 459.72 395.08 C 459.42 395.42 458.83 396.10 458.54 396.44 L 458.07 396.98 Z" />
</g>
<g id="#fdfdfdfe">
<path fill="#fdfdfd" stroke="#fdfdfd" stroke-width="0.09375" opacity="1.00" d=" M 464.29 385.79 C 474.16 384.33 479.17 394.86 481.27 402.76 C 487.06 424.32 494.14 445.62 497.81 467.69 C 498.17 470.52 498.31 473.39 497.88 476.21 C 497.51 474.90 497.17 473.59 496.84 472.28 C 495.46 474.26 493.62 475.81 491.42 476.80 C 476.69 450.37 474.45 418.65 461.37 391.25 C 462.67 389.62 463.68 387.79 464.29 385.79 Z" />
</g>
<g id="#f3f5f6fe">
<path fill="#f3f5f6" stroke="#f3f5f6" stroke-width="0.09375" opacity="1.00" d=" M 458.54 396.44 C 458.83 396.10 459.42 395.42 459.72 395.08 C 460.84 399.22 461.89 403.42 463.71 407.33 C 463.62 405.18 463.49 403.03 463.38 400.89 C 472.15 423.85 476.59 448.24 483.65 471.68 C 482.77 472.60 481.89 473.52 481.01 474.44 C 474.36 448.22 465.73 422.48 458.54 396.44 Z" />
</g>
<g id="#f1f4f6fe">
<path fill="#f1f4f6" stroke="#f1f4f6" stroke-width="0.09375" opacity="1.00" d=" M 307.41 420.53 C 328.41 413.78 354.26 416.42 369.58 433.39 C 369.62 436.91 369.56 440.43 369.78 443.95 C 349.67 428.08 320.22 425.79 296.22 433.39 C 295.89 426.33 300.64 421.55 307.41 420.53 Z" />
</g>
<g id="#ecf0f2fe">
<path fill="#ecf0f2" stroke="#ecf0f2" stroke-width="0.09375" opacity="1.00" d=" M 300.44 444.34 C 301.41 442.19 303.94 441.42 305.96 440.61 C 293.85 526.04 281.24 611.44 269.21 696.89 C 244.34 892.87 210.65 1087.66 189.39 1284.08 C 187.32 1275.10 194.05 1262.70 187.97 1256.78 C 183.95 1275.06 184.00 1294.44 178.79 1312.33 C 191.47 1210.35 206.14 1108.64 219.67 1006.78 C 244.07 818.95 273.95 631.88 300.44 444.34 Z" />
</g>
<g id="#c6ccd2fe">
<path fill="#c6ccd2" stroke="#c6ccd2" stroke-width="0.09375" opacity="1.00" d=" M 349.73 441.91 C 353.12 442.84 356.29 444.39 359.41 445.99 C 357.49 464.63 355.41 483.26 353.53 501.92 C 335.55 659.81 317.60 817.70 303.16 975.94 C 299.44 1027.34 294.12 1078.60 288.76 1129.84 C 288.37 1131.97 287.84 1134.07 287.31 1136.19 C 287.36 1120.34 288.54 1104.41 289.37 1088.64 C 288.57 1084.50 289.07 1079.74 292.47 1076.87 C 289.91 1072.25 296.02 1066.95 292.38 1062.77 C 292.33 1055.71 292.51 1048.55 291.29 1041.60 C 303.76 940.99 305.58 839.38 319.19 738.85 C 328.71 658.88 338.76 578.85 346.85 498.74 C 341.54 505.23 342.07 514.23 338.77 521.35 C 343.72 495.12 346.47 468.42 349.73 441.91 Z" />
</g>
<g id="#808b95fd">
<path fill="#808b95" stroke="#808b95" stroke-width="0.09375" opacity="1.00" d=" M 291.27 452.50 C 291.91 453.00 292.56 453.52 293.21 454.03 C 294.43 453.89 295.65 453.76 296.88 453.63 C 286.39 533.46 274.17 613.04 262.52 692.71 C 233.58 889.10 206.79 1085.84 180.60 1282.58 C 179.61 1281.94 178.63 1281.28 177.64 1280.68 C 174.18 1286.84 177.50 1295.46 172.97 1302.02 C 166.14 1310.87 176.39 1321.95 169.57 1330.86 C 166.36 1336.37 165.57 1326.33 165.67 1323.80 C 204.14 1036.93 246.43 750.53 288.65 464.21 C 290.76 460.66 290.90 456.49 291.27 452.50 Z" />
</g>
<g id="#848e98fe">
<path fill="#848e98" stroke="#848e98" stroke-width="0.09375" opacity="1.00" d=" M 360.48 453.14 C 365.42 457.75 357.62 476.31 367.92 469.46 C 366.98 477.00 365.45 484.60 366.29 492.22 C 333.95 782.86 304.34 1073.77 279.37 1365.04 C 280.68 1383.19 261.35 1392.06 246.25 1394.32 C 245.37 1394.23 243.63 1394.06 242.75 1393.97 C 242.82 1393.33 242.97 1392.05 243.04 1391.41 C 244.22 1391.96 245.40 1392.51 246.59 1393.08 C 246.04 1392.29 245.49 1391.52 244.95 1390.77 C 253.16 1384.46 253.84 1373.54 259.95 1365.84 C 258.87 1363.53 256.37 1362.75 254.25 1361.75 C 254.41 1361.35 254.73 1360.54 254.89 1360.14 C 258.93 1361.61 262.79 1363.54 266.36 1365.95 C 267.60 1362.53 267.58 1358.89 267.68 1355.32 C 263.53 1351.93 258.86 1349.23 254.00 1347.01 C 259.84 1338.61 257.75 1326.76 260.34 1316.98 C 262.74 1326.54 258.53 1337.08 257.10 1346.80 C 260.64 1348.86 264.21 1350.89 267.85 1352.78 C 275.27 1278.50 282.14 1204.17 288.76 1129.84 C 294.12 1078.60 299.44 1027.34 303.16 975.94 C 317.60 817.70 335.55 659.81 353.53 501.92 C 353.72 502.80 354.08 504.55 354.26 505.43 C 357.26 488.22 358.63 470.58 360.48 453.14 Z" />
</g>
<g id="#9da5adfe">
<path fill="#9da5ad" stroke="#9da5ad" stroke-width="0.09375" opacity="1.00" d=" M 501.10 467.90 C 515.42 470.92 519.94 486.93 524.05 498.99 C 526.48 508.42 533.29 518.23 529.09 528.09 C 528.19 525.45 528.10 522.54 526.73 520.08 C 526.11 521.13 525.50 522.18 524.89 523.23 C 519.26 505.62 518.79 481.11 501.48 470.48 C 501.39 469.84 501.20 468.55 501.10 467.90 Z" />
<path fill="#9da5ad" stroke="#9da5ad" stroke-width="0.09375" opacity="1.00" d=" M 550.15 598.88 C 566.88 611.22 574.87 634.44 575.70 654.76 C 574.72 655.19 573.73 655.63 572.76 656.08 C 571.38 649.11 569.47 642.40 566.03 636.12 C 567.55 637.27 569.12 638.35 570.84 639.21 C 567.15 624.28 555.87 612.84 550.15 598.88 Z" />
<path fill="#9da5ad" stroke="#9da5ad" stroke-width="0.09375" opacity="1.00" d=" M 625.90 690.70 C 687.12 671.80 754.47 690.82 805.99 726.25 C 821.20 722.19 836.60 718.87 851.76 714.61 C 852.63 714.80 854.37 715.18 855.24 715.37 C 832.04 723.75 807.94 729.73 785.12 739.10 C 779.20 750.24 787.99 763.64 796.60 770.98 C 797.65 769.20 798.74 767.45 799.89 765.73 C 801.37 765.92 802.83 765.67 804.27 765.29 C 802.54 768.24 800.78 771.20 799.34 774.31 L 799.14 775.10 C 799.54 776.16 800.01 777.21 800.46 778.28 C 796.25 776.59 793.67 772.64 789.81 770.42 L 789.93 771.89 C 779.36 760.95 769.44 735.58 789.42 728.97 C 792.30 729.20 794.87 731.23 797.87 730.57 C 795.83 728.68 793.54 727.06 790.97 726.02 C 792.48 726.06 794.00 726.09 795.53 726.08 C 756.64 699.32 707.38 690.51 660.98 695.50 C 653.28 695.89 647.27 701.77 639.69 702.60 C 632.57 698.51 624.36 699.48 616.51 699.75 C 616.57 699.15 616.68 697.96 616.74 697.36 C 620.79 694.91 625.19 693.17 629.40 691.03 C 628.53 690.95 626.77 690.78 625.90 690.70 Z" />
</g>
<g id="#b5bcc2fe">
<path fill="#b5bcc2" stroke="#b5bcc2" stroke-width="0.09375" opacity="1.00" d=" M 458.03 489.47 C 462.69 505.46 467.21 521.87 475.85 536.26 C 480.46 544.01 490.08 550.99 499.15 546.17 L 499.86 545.98 C 499.93 546.77 500.08 548.34 500.15 549.13 C 498.08 550.25 495.84 551.02 493.53 551.46 C 493.49 551.82 493.43 552.55 493.39 552.91 C 468.10 551.03 462.34 521.74 458.45 501.59 C 458.80 497.54 457.91 493.52 458.03 489.47 Z" />
</g>
<g id="#bfc5cafe">
<path fill="#bfc5ca" stroke="#bfc5ca" stroke-width="0.09375" opacity="1.00" d=" M 497.83 529.02 C 499.86 527.55 501.53 525.67 503.00 523.65 C 505.00 523.94 507.01 524.27 509.01 524.63 C 506.42 524.80 504.00 525.74 501.76 526.97 C 511.73 550.12 519.58 574.11 528.20 597.79 C 531.05 604.97 539.76 600.78 539.48 594.18 C 540.50 597.54 541.59 600.88 542.74 604.21 C 542.88 603.40 543.14 601.78 543.27 600.96 C 544.39 605.26 544.33 609.80 543.55 614.15 C 542.17 612.36 542.71 609.95 542.40 607.87 C 542.85 621.73 526.11 617.70 523.53 607.40 C 515.54 581.12 506.64 554.71 497.83 529.02 Z" />
<path fill="#bfc5ca" stroke="#bfc5ca" stroke-width="0.09375" opacity="1.00" d=" M 590.07 918.68 C 593.82 919.79 597.47 921.26 600.93 923.10 C 600.64 929.04 598.37 934.58 597.08 940.34 C 593.50 938.20 589.76 936.37 585.95 934.70 C 586.65 929.21 589.09 924.12 590.07 918.68 Z" />
</g>
<g id="#e6eaecfe">
<path fill="#e6eaec" stroke="#e6eaec" stroke-width="0.09375" opacity="1.00" d=" M 280.44 736.05 C 298.29 689.14 292.24 636.22 306.86 588.61 C 307.60 591.33 307.89 594.16 307.50 596.97 C 296.37 710.69 276.96 823.20 265.76 936.92 C 255.08 1008.28 249.33 1080.40 239.97 1151.80 C 237.05 1145.58 237.46 1138.43 234.83 1132.09 C 232.13 1134.30 229.60 1136.71 227.09 1139.15 C 228.22 1129.39 229.06 1119.60 230.53 1109.89 C 231.13 1112.72 231.90 1115.51 232.86 1118.25 C 232.71 1109.18 233.28 1099.97 236.38 1091.38 C 249.72 972.08 265.64 853.04 279.72 733.87 C 279.90 734.41 280.26 735.50 280.44 736.05 Z" />
</g>
<g id="#c7ccd1ff">
<path fill="#c7ccd1" stroke="#c7ccd1" stroke-width="0.09375" opacity="1.00" d=" M 498.22 622.12 C 495.07 610.23 503.42 598.79 514.53 595.20 C 516.18 598.48 516.90 602.08 517.95 605.57 C 517.61 605.59 516.93 605.65 516.59 605.67 C 516.05 606.63 515.51 607.58 514.97 608.54 C 512.96 606.28 512.81 603.26 512.67 600.40 C 496.81 609.47 504.03 630.10 509.62 643.41 C 514.93 658.71 526.10 674.00 543.11 676.69 C 535.62 677.73 547.78 679.27 550.31 678.93 C 537.56 686.13 522.99 675.83 514.09 666.93 C 507.65 652.52 502.20 637.43 498.22 622.12 Z" />
</g>
<g id="#fdfefeff">
<path fill="#fdfefe" stroke="#fdfefe" stroke-width="0.09375" opacity="1.00" d=" M 509.62 643.41 C 504.03 630.10 496.81 609.47 512.67 600.40 C 512.81 603.26 512.96 606.28 514.97 608.54 C 510.71 624.83 518.73 642.80 527.57 656.44 C 535.04 664.11 550.05 662.46 552.53 675.28 C 550.62 674.69 549.73 672.86 548.63 671.38 C 549.05 673.12 549.48 674.88 549.84 676.65 C 547.60 676.76 545.32 677.12 543.11 676.69 C 526.10 674.00 514.93 658.71 509.62 643.41 Z" />
<path fill="#fdfefe" stroke="#fdfefe" stroke-width="0.09375" opacity="1.00" d=" M 544.80 656.26 C 545.29 646.97 557.71 647.40 563.58 651.50 C 573.70 659.82 581.66 671.36 584.37 684.31 C 581.84 688.19 581.17 692.85 579.42 697.07 C 566.39 684.47 564.15 663.18 547.14 653.84 C 546.35 654.64 545.58 655.45 544.80 656.26 Z" />
</g>
<g id="#bac0c5ff">
<path fill="#bac0c5" stroke="#bac0c5" stroke-width="0.09375" opacity="1.00" d=" M 544.80 656.26 C 545.58 655.45 546.35 654.64 547.14 653.84 C 564.15 663.18 566.39 684.47 579.42 697.07 C 581.17 692.85 581.84 688.19 584.37 684.31 L 584.59 683.92 C 585.11 689.67 589.46 698.11 582.79 701.81 C 577.32 705.87 569.77 701.61 568.46 695.44 C 563.55 680.75 556.03 667.06 544.80 656.26 Z" />
</g>
<g id="#fafcfcff">
<path fill="#fafcfc" stroke="#fafcfc" stroke-width="0.09375" opacity="1.00" d=" M 584.86 676.41 C 599.18 675.47 609.03 686.27 620.42 692.22 C 622.40 692.61 624.13 691.37 625.90 690.70 C 626.77 690.78 628.53 690.95 629.40 691.03 C 625.19 693.17 620.79 694.91 616.74 697.36 C 610.14 700.78 601.58 700.88 596.57 707.01 C 622.97 693.34 652.49 710.00 675.00 724.25 C 695.20 739.10 713.66 756.26 729.16 776.01 C 726.42 777.82 723.66 779.61 721.04 781.59 C 717.40 784.86 712.60 786.72 709.40 790.45 C 693.71 770.07 676.85 750.38 657.01 733.91 C 640.17 720.04 617.47 703.16 594.82 711.71 C 594.47 711.26 593.76 710.37 593.41 709.93 C 589.60 714.39 587.58 720.15 586.50 725.85 C 586.24 728.91 586.28 731.99 586.24 735.07 C 584.29 734.64 582.34 734.24 580.43 733.73 C 580.40 733.25 580.34 732.29 580.32 731.82 C 580.19 726.43 579.95 720.98 581.00 715.67 C 583.61 706.06 591.86 700.40 600.19 696.15 C 597.63 691.33 593.08 687.42 587.51 686.81 C 586.39 683.41 585.22 679.99 584.86 676.41 Z" />
</g>
<g id="#fbfdfdff">
<path fill="#fbfdfd" stroke="#fbfdfd" stroke-width="0.09375" opacity="1.00" d=" M 544.33 725.94 C 537.28 712.20 542.45 689.75 559.80 688.16 C 558.41 690.94 560.50 693.54 560.83 696.31 C 548.42 708.76 563.48 728.44 575.59 735.46 C 580.58 739.35 588.89 737.05 590.91 744.64 C 573.68 746.59 555.75 736.44 547.72 721.13 C 546.55 722.70 545.41 724.30 544.33 725.94 Z" />
</g>
<g id="#fdfdfeff">
<path fill="#fdfdfe" stroke="#fdfdfe" stroke-width="0.09375" opacity="1.00" d=" M 660.98 695.50 C 707.38 690.51 756.64 699.32 795.53 726.08 C 794.00 726.09 792.48 726.06 790.97 726.02 C 780.90 723.33 767.61 723.76 761.91 734.00 C 752.33 749.54 760.63 768.99 770.88 782.01 C 784.16 800.28 806.50 814.96 829.92 811.77 C 830.60 811.74 831.96 811.68 832.64 811.66 C 831.36 812.41 830.09 813.17 828.82 813.93 C 829.70 814.06 831.44 814.33 832.32 814.46 C 825.97 817.30 818.89 818.20 811.98 817.81 C 811.70 817.56 811.13 817.07 810.85 816.82 C 796.22 816.98 783.12 809.57 772.56 800.03 C 782.59 815.90 809.21 821.52 807.37 843.97 C 808.46 852.93 798.09 854.32 795.19 861.03 C 796.44 867.67 800.42 873.44 803.03 879.62 C 802.41 880.03 801.79 880.46 801.19 880.90 C 799.14 876.66 797.43 872.19 794.51 868.45 C 794.60 869.66 794.79 872.07 794.88 873.28 C 781.02 849.36 768.90 824.32 752.47 801.99 C 752.14 802.45 751.48 803.37 751.15 803.82 C 749.75 793.30 739.76 786.73 733.91 778.51 C 738.41 773.31 744.97 770.35 749.20 764.85 C 743.11 766.85 737.62 770.19 732.34 773.74 C 716.83 754.79 699.91 736.60 679.67 722.64 C 667.13 714.58 654.40 706.08 639.69 702.60 C 647.27 701.77 653.28 695.89 660.98 695.50 M 644.46 702.73 C 669.16 706.74 691.16 719.09 712.10 732.10 C 707.22 725.23 699.82 720.93 692.93 716.38 C 696.86 715.07 702.94 717.26 704.71 712.29 C 714.15 714.04 720.54 723.97 730.17 723.65 C 728.34 722.23 725.77 722.34 723.96 720.83 C 728.72 717.23 735.48 716.17 740.97 718.65 C 748.82 716.31 758.84 714.24 765.95 719.41 C 761.25 719.46 756.91 721.61 753.12 724.21 C 755.88 731.75 765.84 723.59 770.78 721.47 C 764.62 715.28 755.89 713.04 747.90 710.24 C 715.02 699.40 678.05 693.79 644.46 702.73 Z" />
</g>
<g id="#727c87ff">
<path fill="#727c87" stroke="#727c87" stroke-width="0.09375" opacity="1.00" d=" M 596.57 707.01 C 601.58 700.88 610.14 700.78 616.74 697.36 C 616.68 697.96 616.57 699.15 616.51 699.75 C 624.36 699.48 632.57 698.51 639.69 702.60 C 654.40 706.08 667.13 714.58 679.67 722.64 C 677.94 723.05 676.32 722.17 674.74 721.69 C 675.07 722.38 675.74 723.77 676.07 724.47 L 675.00 724.25 C 652.49 710.00 622.97 693.34 596.57 707.01 Z" />
</g>
<g id="#b0b6bdff">
<path fill="#b0b6bd" stroke="#b0b6bd" stroke-width="0.09375" opacity="1.00" d=" M 644.46 702.73 C 678.05 693.79 715.02 699.40 747.90 710.24 C 755.89 713.04 764.62 715.28 770.78 721.47 C 765.84 723.59 755.88 731.75 753.12 724.21 C 756.91 721.61 761.25 719.46 765.95 719.41 C 758.84 714.24 748.82 716.31 740.97 718.65 C 735.48 716.17 728.72 717.23 723.96 720.83 C 725.77 722.34 728.34 722.23 730.17 723.65 C 720.54 723.97 714.15 714.04 704.71 712.29 C 702.94 717.26 696.86 715.07 692.93 716.38 C 699.82 720.93 707.22 725.23 712.10 732.10 C 691.16 719.09 669.16 706.74 644.46 702.73 Z" />
</g>
<g id="#535f6bff">
<path fill="#535f6b" stroke="#535f6b" stroke-width="0.09375" opacity="1.00" d=" M 594.82 711.71 C 617.47 703.16 640.17 720.04 657.01 733.91 C 676.85 750.38 693.71 770.07 709.40 790.45 C 709.20 790.69 708.80 791.18 708.59 791.43 C 687.10 781.35 669.16 763.79 645.70 757.34 C 645.14 759.53 644.39 761.67 643.30 763.66 L 643.24 762.43 C 643.50 758.41 642.22 754.33 639.12 751.64 C 638.52 752.03 637.34 752.80 636.74 753.19 C 637.50 756.64 639.04 759.84 640.41 763.09 C 637.03 762.22 636.85 757.98 635.43 755.33 C 631.03 755.08 626.62 755.11 622.21 755.27 C 623.63 759.76 626.63 763.95 626.40 768.83 C 618.08 755.54 613.64 730.14 594.35 731.21 C 591.59 731.39 589.26 732.96 586.99 734.38 C 586.74 731.53 586.47 728.69 586.50 725.85 C 587.58 720.15 589.60 714.39 593.41 709.93 C 593.76 710.37 594.47 711.26 594.82 711.71 Z" />
</g>
<g id="#6c7782fe">
<path fill="#6c7782" stroke="#6c7782" stroke-width="0.09375" opacity="1.00" d=" M 851.76 714.61 C 855.74 713.78 859.65 711.99 863.78 712.33 C 857.21 728.36 849.80 744.06 843.08 760.03 C 905.69 831.82 898.58 955.74 824.64 1017.52 C 828.38 1000.01 842.12 987.00 852.95 972.94 C 879.69 922.87 887.82 859.17 864.97 805.63 L 864.62 807.07 C 858.17 793.27 851.35 778.88 841.17 767.56 C 846.37 777.90 849.44 789.17 853.38 800.01 C 853.73 799.56 854.42 798.64 854.77 798.19 C 863.00 822.29 862.17 848.02 867.48 872.67 C 867.68 882.27 872.01 891.86 869.15 901.39 C 870.87 893.29 864.74 887.98 861.40 881.34 C 863.59 864.58 859.68 847.84 857.70 831.22 C 857.28 830.90 856.44 830.27 856.02 829.95 C 856.21 832.22 856.41 834.50 856.55 836.79 C 855.50 837.70 854.94 838.92 854.69 840.27 C 855.70 840.37 856.71 840.48 857.74 840.60 C 856.80 850.18 852.18 859.16 850.46 868.74 C 847.69 863.15 846.68 856.76 843.10 851.58 L 842.75 853.04 C 842.34 852.01 841.93 850.98 841.52 849.98 C 841.38 850.32 841.10 851.02 840.96 851.36 C 838.39 864.78 830.14 879.21 838.65 892.22 C 838.25 892.39 837.46 892.72 837.06 892.88 C 837.38 896.36 838.85 901.85 835.05 903.75 C 830.15 903.08 828.94 897.65 826.02 894.50 L 825.71 896.00 C 823.97 893.00 822.06 890.10 820.01 887.31 C 825.49 884.36 821.47 877.26 825.00 872.99 C 827.39 869.66 828.95 865.63 826.44 861.87 C 834.60 856.31 840.60 845.48 838.51 835.61 C 839.41 826.85 834.66 817.42 840.08 809.43 C 836.72 810.33 833.32 811.10 829.92 811.77 C 806.50 814.96 784.16 800.28 770.88 782.01 C 760.63 768.99 752.33 749.54 761.91 734.00 C 767.61 723.76 780.90 723.33 790.97 726.02 C 793.54 727.06 795.83 728.68 797.87 730.57 C 794.87 731.23 792.30 729.20 789.42 728.97 C 779.30 727.34 766.37 730.54 764.23 742.15 C 760.38 762.09 774.51 780.34 788.69 792.72 C 798.26 799.96 810.30 804.51 822.41 803.71 C 820.52 802.92 818.62 802.16 816.75 801.38 C 835.24 806.57 848.65 787.11 840.58 770.71 C 839.31 777.18 839.57 784.84 834.15 789.56 C 817.79 797.16 800.48 783.67 789.93 771.89 L 789.81 770.42 C 793.67 772.64 796.25 776.59 800.46 778.28 C 800.01 777.21 799.54 776.16 799.14 775.10 L 799.34 774.31 C 800.91 775.54 802.52 776.76 804.16 777.94 C 822.33 755.46 841.75 733.84 861.71 712.91 C 859.52 713.69 857.42 714.60 855.24 715.37 C 854.37 715.18 852.63 714.80 851.76 714.61 Z" />
</g>
<g id="#fefefeff">
<path fill="#fefefe" stroke="#fefefe" stroke-width="0.09375" opacity="1.00" d=" M 855.24 715.37 C 857.42 714.60 859.52 713.69 861.71 712.91 C 841.75 733.84 822.33 755.46 804.16 777.94 C 802.52 776.76 800.91 775.54 799.34 774.31 C 800.78 771.20 802.54 768.24 804.27 765.29 C 802.83 765.67 801.37 765.92 799.89 765.73 C 798.74 767.45 797.65 769.20 796.60 770.98 C 787.99 763.64 779.20 750.24 785.12 739.10 C 807.94 729.73 832.04 723.75 855.24 715.37 Z" />
<path fill="#fefefe" stroke="#fefefe" stroke-width="0.09375" opacity="1.00" d=" M 764.23 742.15 C 766.37 730.54 779.30 727.34 789.42 728.97 C 769.44 735.58 779.36 760.95 789.93 771.89 C 800.48 783.67 817.79 797.16 834.15 789.56 C 832.31 792.67 828.68 793.43 825.49 794.42 C 825.87 795.65 826.25 796.88 826.65 798.13 C 812.55 800.60 799.98 791.67 788.82 784.35 C 786.86 783.63 786.05 785.94 785.06 787.10 C 786.51 788.79 787.98 790.56 788.69 792.72 C 774.51 780.34 760.38 762.09 764.23 742.15 Z" />
</g>
<g id="#b2b9bfff">
<path fill="#b2b9bf" stroke="#b2b9bf" stroke-width="0.09375" opacity="1.00" d=" M 547.72 721.13 C 555.75 736.44 573.68 746.59 590.91 744.64 C 588.89 737.05 580.58 739.35 575.59 735.46 C 584.10 737.43 592.93 735.18 601.00 739.22 C 600.47 740.56 599.90 741.88 599.30 743.20 C 593.84 745.95 587.72 745.56 581.84 746.35 C 586.28 750.13 592.36 748.06 597.49 747.43 C 598.05 756.11 584.51 753.13 579.00 752.20 C 579.85 752.15 581.56 752.04 582.41 751.99 C 570.23 747.43 560.87 737.61 550.56 729.90 C 551.08 732.16 551.81 734.39 552.70 736.54 C 552.15 736.74 551.04 737.15 550.48 737.35 C 547.51 734.44 545.40 730.67 543.70 726.89 L 544.33 725.94 C 545.41 724.30 546.55 722.70 547.72 721.13 Z" />
</g>
<g id="#97a0a8fe">
<path fill="#97a0a8" stroke="#97a0a8" stroke-width="0.09375" opacity="1.00" d=" M 674.74 721.69 C 676.32 722.17 677.94 723.05 679.67 722.64 C 699.91 736.60 716.83 754.79 732.34 773.74 C 737.62 770.19 743.11 766.85 749.20 764.85 C 744.97 770.35 738.41 773.31 733.91 778.51 C 739.76 786.73 749.75 793.30 751.15 803.82 C 751.48 803.37 752.14 802.45 752.47 801.99 C 768.90 824.32 781.02 849.36 794.88 873.28 C 794.79 872.07 794.60 869.66 794.51 868.45 C 797.43 872.19 799.14 876.66 801.19 880.90 C 801.79 880.46 802.41 880.03 803.03 879.62 C 807.22 876.67 811.41 873.72 815.54 870.70 C 809.12 854.78 832.98 840.84 823.82 826.70 C 823.64 824.22 823.33 821.77 822.89 819.34 C 817.88 819.30 812.84 819.45 807.87 818.66 C 809.23 818.35 810.59 818.04 811.98 817.81 C 818.89 818.20 825.97 817.30 832.32 814.46 C 831.44 814.33 829.70 814.06 828.82 813.93 C 830.09 813.17 831.36 812.41 832.64 811.66 C 831.96 811.68 830.60 811.74 829.92 811.77 C 833.32 811.10 836.72 810.33 840.08 809.43 C 834.66 817.42 839.41 826.85 838.51 835.61 C 840.60 845.48 834.60 856.31 826.44 861.87 C 828.95 865.63 827.39 869.66 825.00 872.99 C 821.47 877.26 825.49 884.36 820.01 887.31 C 814.76 890.55 810.16 895.22 804.34 897.30 C 781.43 857.37 760.22 815.98 732.32 779.27 C 730.37 781.09 728.43 782.93 726.54 784.82 C 724.70 783.73 722.87 782.65 721.04 781.59 C 723.66 779.61 726.42 777.82 729.16 776.01 C 713.66 756.26 695.20 739.10 675.00 724.25 L 676.07 724.47 C 675.74 723.77 675.07 722.38 674.74 721.69 Z" />
</g>
<g id="#d9dee1ff">
<path fill="#d9dee1" stroke="#d9dee1" stroke-width="0.09375" opacity="1.00" d=" M 550.56 729.90 C 560.87 737.61 570.23 747.43 582.41 751.99 C 581.56 752.04 579.85 752.15 579.00 752.20 C 568.18 750.59 558.25 744.92 550.48 737.35 C 551.04 737.15 552.15 736.74 552.70 736.54 C 551.81 734.39 551.08 732.16 550.56 729.90 Z" />
</g>
<g id="#fdfefefe">
<path fill="#fdfefe" stroke="#fdfefe" stroke-width="0.09375" opacity="1.00" d=" M 594.35 731.21 C 613.64 730.14 618.08 755.54 626.40 768.83 C 628.69 774.18 630.67 779.73 633.76 784.70 C 661.96 765.89 694.88 788.61 712.78 811.11 C 739.19 842.63 755.72 881.70 763.34 921.89 C 765.60 936.34 767.50 954.82 753.77 964.38 C 759.41 969.92 765.37 975.13 771.27 980.39 C 777.05 985.61 782.93 990.74 788.76 995.91 C 785.04 995.51 782.84 992.18 779.50 990.91 C 779.16 992.18 778.84 993.46 778.52 994.76 C 777.67 993.83 776.83 992.91 776.00 992.01 C 775.35 992.77 774.71 993.53 774.08 994.31 C 763.75 986.22 752.77 978.72 744.10 968.77 C 738.66 968.80 733.21 968.64 727.88 967.32 C 728.18 974.06 731.83 979.97 733.36 986.43 C 729.77 983.32 726.36 979.99 723.35 976.32 C 716.37 967.47 709.61 958.44 702.53 949.70 C 697.38 954.97 690.70 958.92 683.73 961.23 C 688.64 955.43 696.06 951.57 698.55 943.92 C 680.53 943.62 661.78 939.40 647.72 927.55 C 647.16 926.97 646.67 926.37 646.23 925.74 C 641.87 920.37 636.93 915.49 632.35 910.31 C 630.51 904.73 626.61 899.79 621.16 897.41 C 618.36 898.03 615.56 898.63 612.81 899.42 C 611.86 889.79 611.67 880.08 609.78 870.56 C 609.16 870.80 607.91 871.26 607.28 871.50 C 604.15 868.94 600.51 865.85 600.94 861.36 C 603.04 859.50 605.07 857.56 607.14 855.66 C 603.26 839.50 597.49 823.52 588.06 809.72 C 589.88 811.01 591.68 812.33 593.51 813.62 C 593.52 811.52 593.56 809.37 592.64 807.44 C 591.66 804.94 590.94 802.35 590.32 799.75 C 589.86 795.31 588.07 791.19 587.37 786.81 C 594.49 798.91 599.88 812.16 608.68 823.30 C 612.43 813.43 617.27 804.08 622.30 794.82 C 617.98 785.78 610.65 778.74 604.72 770.80 C 605.90 770.32 607.09 769.84 608.29 769.37 C 609.29 769.68 610.30 770.00 611.31 770.33 C 610.69 765.36 608.54 760.80 606.78 756.17 C 605.37 757.43 603.97 758.70 602.57 759.97 C 602.50 759.59 602.36 758.84 602.29 758.47 C 609.01 748.90 603.43 736.56 594.35 731.21 M 653.28 790.34 C 629.82 796.96 620.62 824.45 621.13 846.52 C 621.70 857.08 623.14 867.95 625.49 878.21 C 621.05 842.00 662.52 803.54 696.77 825.34 C 687.96 827.20 678.78 823.00 669.96 826.04 C 638.26 833.32 626.73 873.38 638.30 901.00 L 638.58 900.44 C 644.45 914.94 658.34 925.17 673.04 929.56 C 695.51 937.64 718.35 927.60 737.23 915.66 C 732.85 922.96 728.12 930.33 721.42 935.75 C 718.45 937.67 715.22 939.40 712.32 941.50 C 719.65 952.12 737.00 962.48 748.88 953.18 L 748.96 952.83 C 756.98 944.11 755.23 931.29 753.58 920.58 C 748.12 893.11 736.19 867.38 722.29 843.23 C 718.00 835.83 712.86 828.93 707.50 822.29 C 694.36 805.78 676.56 786.69 653.28 790.34 Z" />
</g>
<g id="#e3e7e9fe">
<path fill="#e3e7e9" stroke="#e3e7e9" stroke-width="0.09375" opacity="1.00" d=" M 301.14 762.10 C 300.83 751.11 311.90 745.16 319.19 738.85 C 305.58 839.38 303.76 940.99 291.29 1041.60 C 284.05 1100.06 278.17 1158.67 271.71 1217.23 C 268.44 1213.61 267.04 1208.86 265.50 1204.35 C 265.52 1179.11 270.47 1154.13 272.62 1129.03 C 284.09 1031.21 291.56 932.97 302.84 835.09 C 302.12 836.65 301.42 838.22 300.73 839.80 C 298.51 839.89 296.30 839.91 294.09 839.87 C 294.03 838.66 293.98 837.46 293.93 836.27 C 295.31 836.70 296.69 837.14 298.07 837.58 C 298.39 834.04 300.13 830.38 299.07 826.87 C 289.03 819.52 301.40 807.10 298.82 797.43 C 298.22 797.89 297.62 798.36 297.02 798.84 C 298.47 786.60 299.65 774.33 301.14 762.10 Z" />
</g>
<g id="#f8fafbff">
<path fill="#f8fafb" stroke="#f8fafb" stroke-width="0.09375" opacity="1.00" d=" M 636.74 753.19 C 637.34 752.80 638.52 752.03 639.12 751.64 C 642.22 754.33 643.50 758.41 643.24 762.43 C 642.29 762.66 641.35 762.87 640.41 763.09 C 639.04 759.84 637.50 756.64 636.74 753.19 Z" />
</g>
<g id="#737e88fe">
<path fill="#737e88" stroke="#737e88" stroke-width="0.09375" opacity="1.00" d=" M 622.21 755.27 C 626.62 755.11 631.03 755.08 635.43 755.33 C 636.85 757.98 637.03 762.22 640.41 763.09 C 641.35 762.87 642.29 762.66 643.24 762.43 L 643.30 763.66 C 644.39 761.67 645.14 759.53 645.70 757.34 C 669.16 763.79 687.10 781.35 708.59 791.43 C 708.80 791.18 709.20 790.69 709.40 790.45 C 712.60 786.72 717.40 784.86 721.04 781.59 C 722.87 782.65 724.70 783.73 726.54 784.82 C 722.53 788.89 718.38 792.96 715.77 798.11 C 741.52 830.47 763.22 866.05 781.03 903.36 C 783.53 899.88 786.37 896.66 788.68 893.05 C 790.46 897.07 792.31 901.06 793.97 905.14 C 793.55 905.52 793.15 905.91 792.76 906.32 C 789.70 906.13 788.64 909.65 786.85 911.50 C 785.53 911.08 784.22 910.66 782.92 910.24 C 780.04 914.03 777.68 919.11 778.09 923.82 C 786.86 934.03 783.08 948.44 782.20 960.27 C 780.82 960.22 779.44 960.17 778.07 960.14 L 778.31 961.03 C 773.59 957.82 769.31 954.05 764.90 950.45 C 759.99 958.40 770.60 963.30 775.86 967.32 C 776.57 966.24 777.32 965.21 778.05 964.16 C 778.01 964.85 777.92 966.24 777.88 966.93 C 778.87 966.01 779.86 965.10 780.86 964.20 C 784.52 971.42 776.39 976.03 776.65 982.49 C 775.06 981.39 773.42 979.25 771.27 980.39 C 765.37 975.13 759.41 969.92 753.77 964.38 C 767.50 954.82 765.60 936.34 763.34 921.89 C 755.72 881.70 739.19 842.63 712.78 811.11 C 694.88 788.61 661.96 765.89 633.76 784.70 C 630.67 779.73 628.69 774.18 626.40 768.83 C 626.63 763.95 623.63 759.76 622.21 755.27 Z" />
</g>
<g id="#8a939cfe">
<path fill="#8a939c" stroke="#8a939c" stroke-width="0.09375" opacity="1.00" d=" M 602.57 759.97 C 603.97 758.70 605.37 757.43 606.78 756.17 C 608.54 760.80 610.69 765.36 611.31 770.33 C 610.30 770.00 609.29 769.68 608.29 769.37 C 607.09 769.84 605.90 770.32 604.72 770.80 C 610.65 778.74 617.98 785.78 622.30 794.82 C 617.27 804.08 612.43 813.43 608.68 823.30 C 599.88 812.16 594.49 798.91 587.37 786.81 C 588.07 791.19 589.86 795.31 590.32 799.75 C 584.96 787.80 581.87 774.42 581.21 761.27 C 581.72 761.34 582.74 761.47 583.24 761.54 C 583.75 762.55 584.25 763.57 584.77 764.60 C 586.75 764.54 588.73 764.47 590.71 764.42 C 591.49 758.60 597.41 757.41 602.29 758.47 C 602.36 758.84 602.50 759.59 602.57 759.97 Z" />
</g>
<g id="#dbe0e3fe">
<path fill="#dbe0e3" stroke="#dbe0e3" stroke-width="0.09375" opacity="1.00" d=" M 841.17 767.56 C 851.35 778.88 858.17 793.27 864.62 807.07 C 881.83 855.23 882.17 912.88 855.37 957.70 C 857.68 946.63 861.83 934.81 865.68 923.57 C 869.13 915.38 861.68 908.52 857.94 901.91 C 859.03 895.04 860.70 888.27 861.40 881.34 C 864.74 887.98 870.87 893.29 869.15 901.39 C 872.01 891.86 867.68 882.27 867.48 872.67 C 862.17 848.02 863.00 822.29 854.77 798.19 C 854.42 798.64 853.73 799.56 853.38 800.01 C 849.44 789.17 846.37 777.90 841.17 767.56 Z" />
</g>
<g id="#c9ced3ff">
<path fill="#c9ced3" stroke="#c9ced3" stroke-width="0.09375" opacity="1.00" d=" M 840.58 770.71 C 848.65 787.11 835.24 806.57 816.75 801.38 C 818.62 802.16 820.52 802.92 822.41 803.71 C 810.30 804.51 798.26 799.96 788.69 792.72 C 787.98 790.56 786.51 788.79 785.06 787.10 C 786.05 785.94 786.86 783.63 788.82 784.35 C 799.98 791.67 812.55 800.60 826.65 798.13 C 826.25 796.88 825.87 795.65 825.49 794.42 C 828.68 793.43 832.31 792.67 834.15 789.56 C 839.57 784.84 839.31 777.18 840.58 770.71 Z" />
</g>
<g id="#fbfcfcff">
<path fill="#fbfcfc" stroke="#fbfcfc" stroke-width="0.09375" opacity="1.00" d=" M 732.32 779.27 C 760.22 815.98 781.43 857.37 804.34 897.30 C 810.16 895.22 814.76 890.55 820.01 887.31 C 822.06 890.10 823.97 893.00 825.71 896.00 C 826.74 898.03 827.82 900.05 828.91 902.07 C 826.34 908.19 822.95 913.89 819.73 919.67 C 817.45 915.03 816.02 909.99 813.26 905.60 C 811.91 905.94 810.57 906.28 809.24 906.64 C 810.61 910.73 812.04 914.80 813.43 918.89 L 813.41 920.15 C 812.77 919.66 811.48 918.68 810.84 918.19 C 810.42 928.66 815.55 938.32 815.76 949.12 C 809.69 937.54 806.91 924.41 800.03 913.27 C 795.54 917.85 791.90 924.17 797.10 929.79 C 807.99 958.20 817.62 988.29 817.57 1019.04 C 816.98 1016.66 816.44 1014.27 816.17 1011.84 C 813.70 978.75 802.98 946.91 788.93 917.04 C 786.30 912.99 790.80 909.50 792.76 906.32 C 793.15 905.91 793.55 905.52 793.97 905.14 C 792.31 901.06 790.46 897.07 788.68 893.05 C 786.37 896.66 783.53 899.88 781.03 903.36 C 763.22 866.05 741.52 830.47 715.77 798.11 C 718.38 792.96 722.53 788.89 726.54 784.82 C 728.43 782.93 730.37 781.09 732.32 779.27 Z" />
</g>
<g id="#6d7680fd">
<path fill="#6d7680" stroke="#6d7680" stroke-width="0.09375" opacity="1.00" d=" M 454.01 809.98 C 479.50 793.12 510.11 781.37 540.84 783.26 C 537.31 783.97 533.44 783.59 530.24 785.44 C 532.41 785.36 534.57 785.11 536.74 784.92 C 531.26 788.59 524.36 789.08 518.82 792.68 C 509.98 792.98 501.36 795.60 492.80 797.67 C 480.24 801.09 468.59 807.29 456.00 810.52 C 462.60 810.76 471.56 812.70 471.47 821.04 C 470.72 836.40 457.23 848.02 444.42 854.52 C 435.40 858.21 429.84 849.81 425.57 843.48 C 427.36 851.95 431.94 864.46 442.93 862.26 C 460.30 859.68 475.30 846.37 482.03 830.36 C 483.07 830.89 484.12 831.42 485.18 831.95 C 477.85 850.62 462.03 868.47 440.95 870.19 C 432.76 870.31 427.13 862.98 427.58 855.13 C 427.12 855.83 426.68 856.54 426.26 857.27 C 420.35 870.83 419.95 886.36 420.73 900.98 C 419.80 900.45 418.89 899.90 417.96 899.39 C 420.98 917.03 425.33 935.80 437.72 949.37 C 454.05 957.81 468.53 968.58 482.02 980.83 C 476.39 971.70 475.46 957.67 464.00 954.08 C 457.24 950.47 451.57 943.40 443.30 943.77 C 443.17 944.61 442.91 946.28 442.78 947.11 C 430.84 937.10 428.61 919.26 428.68 904.49 C 430.40 905.07 432.13 905.67 433.86 906.26 C 434.28 910.08 434.84 913.88 435.49 917.67 C 436.02 924.10 438.29 930.90 444.98 933.16 C 455.88 938.24 460.92 950.04 471.35 955.28 C 470.17 951.41 468.50 947.73 467.18 943.93 C 464.76 935.03 462.96 925.85 463.70 916.58 C 465.81 916.58 467.94 916.60 470.06 916.61 C 471.90 941.29 479.79 965.85 494.84 985.70 C 506.69 999.97 523.12 1013.64 542.94 1011.76 C 514.50 1018.01 484.61 1004.85 461.88 987.81 C 449.30 991.56 436.83 996.30 424.00 998.95 C 426.16 985.83 430.46 972.98 432.84 960.04 C 426.15 953.04 421.90 944.30 418.30 935.42 C 414.74 918.63 412.22 901.55 412.90 884.34 C 413.64 869.69 416.47 854.88 424.08 842.16 C 418.67 829.44 411.36 816.93 409.16 803.25 C 424.20 804.80 438.98 808.88 454.01 809.98 M 410.29 804.77 C 420.74 818.49 432.39 831.25 442.73 845.04 C 442.57 844.13 442.24 842.32 442.08 841.42 C 444.12 843.23 446.14 845.08 448.13 846.96 C 458.12 841.00 472.16 827.71 464.42 815.56 C 446.70 810.88 428.15 809.24 410.29 804.77 M 439.79 952.41 C 436.00 965.22 436.06 979.66 428.61 991.05 C 437.74 984.63 446.74 977.95 456.32 972.11 C 456.68 961.52 446.89 958.07 439.79 952.41 Z" />
</g>
<g id="#fdfdfefe">
<path fill="#fdfdfe" stroke="#fdfdfe" stroke-width="0.09375" opacity="1.00" d=" M 540.84 783.26 C 552.52 783.29 563.82 788.32 572.88 795.52 C 543.64 782.84 514.40 804.68 500.74 829.73 C 502.84 830.28 504.92 831.05 506.61 832.47 C 512.57 821.08 521.79 811.07 533.13 804.84 C 537.21 809.74 540.39 815.27 544.07 820.44 C 542.68 813.93 539.51 807.98 536.70 802.01 C 549.93 795.11 568.07 794.70 579.10 805.86 C 592.63 816.44 600.34 838.53 587.24 852.42 C 592.46 869.10 593.74 886.61 592.90 904.01 C 593.61 904.13 595.04 904.37 595.76 904.48 C 598.84 905.31 602.90 904.82 605.28 906.87 C 602.16 936.48 591.91 967.25 568.20 986.77 C 554.96 998.51 534.37 998.23 521.58 985.96 C 523.78 983.33 526.91 982.71 529.96 984.32 C 529.29 985.32 528.61 986.31 527.96 987.34 C 528.86 986.92 529.76 986.50 530.66 986.08 C 545.63 995.96 565.25 985.96 574.46 972.70 C 569.82 969.77 563.81 976.23 559.31 970.60 C 554.59 962.59 543.98 968.53 536.68 963.88 C 536.10 963.74 534.93 963.45 534.35 963.31 C 526.04 958.32 518.95 951.64 514.04 943.25 C 510.00 947.16 505.99 951.30 503.64 956.48 C 503.21 957.14 502.34 958.44 501.91 959.09 C 494.72 948.31 516.46 942.50 507.96 930.95 C 504.10 933.71 500.03 938.25 495.75 941.34 C 488.47 925.49 488.17 906.60 488.53 889.25 C 492.88 891.22 497.52 892.51 502.24 893.21 C 502.91 889.87 503.09 886.47 503.08 883.08 C 498.36 882.27 493.62 881.60 488.93 880.68 C 490.84 867.07 493.90 853.59 499.89 841.15 C 498.76 839.96 497.61 838.79 496.45 837.65 C 489.68 849.16 486.34 862.25 484.17 875.31 C 478.65 913.92 484.86 956.87 511.15 987.14 L 510.86 988.25 C 498.69 976.65 494.39 959.17 480.72 948.79 C 481.19 954.89 488.82 960.09 485.34 966.30 C 487.40 973.35 492.58 978.83 494.84 985.70 C 479.79 965.85 471.90 941.29 470.06 916.61 C 467.94 916.60 465.81 916.58 463.70 916.58 C 462.96 925.85 464.76 935.03 467.18 943.93 L 466.63 945.27 C 462.16 936.03 464.30 924.83 458.98 915.99 C 451.49 912.59 443.48 909.83 435.42 907.96 C 435.91 911.18 436.36 914.47 435.49 917.67 C 434.84 913.88 434.28 910.08 433.86 906.26 C 432.13 905.67 430.40 905.07 428.68 904.49 C 427.88 904.21 427.07 903.94 426.28 903.68 C 425.59 888.11 426.90 872.61 426.26 857.27 C 426.68 856.54 427.12 855.83 427.58 855.13 C 427.13 862.98 432.76 870.31 440.95 870.19 C 462.03 868.47 477.85 850.62 485.18 831.95 C 484.12 831.42 483.07 830.89 482.03 830.36 C 475.30 846.37 460.30 859.68 442.93 862.26 C 431.94 864.46 427.36 851.95 425.57 843.48 C 429.84 849.81 435.40 858.21 444.42 854.52 C 457.23 848.02 470.72 836.40 471.47 821.04 C 471.56 812.70 462.60 810.76 456.00 810.52 C 468.59 807.29 480.24 801.09 492.80 797.67 C 493.36 797.81 494.49 798.08 495.05 798.21 C 486.90 801.24 478.62 804.01 470.75 807.72 C 475.58 811.02 477.86 816.30 479.87 821.55 C 484.29 817.08 488.91 812.12 492.06 807.22 C 504.23 811.88 510.28 798.77 518.82 792.68 C 524.36 789.08 531.26 788.59 536.74 784.92 C 534.57 785.11 532.41 785.36 530.24 785.44 C 533.44 783.59 537.31 783.97 540.84 783.26 M 558.87 804.80 C 560.03 805.15 561.19 805.49 562.37 805.84 C 562.61 808.68 562.56 811.55 562.47 814.41 C 560.73 820.23 551.94 816.04 552.09 821.80 C 567.23 822.63 579.03 833.82 585.99 846.03 C 600.00 829.91 576.58 802.56 558.87 804.80 M 537.77 834.74 C 523.84 843.88 518.68 860.92 514.21 876.08 C 509.86 897.01 510.79 920.81 522.77 939.19 C 528.57 947.62 537.55 956.13 548.60 954.98 C 571.60 949.83 582.43 923.09 583.79 901.71 C 585.22 879.80 581.52 856.20 567.30 838.72 C 560.36 830.03 546.85 828.79 537.77 834.74 M 471.55 869.96 C 471.29 869.46 470.77 868.46 470.51 867.96 C 465.05 878.08 462.57 889.96 461.84 901.42 C 453.94 898.20 446.24 894.54 438.36 891.30 C 439.24 884.64 440.67 878.04 440.66 871.30 C 438.88 871.25 437.11 871.24 435.35 871.27 C 431.82 879.12 434.40 888.38 430.54 896.03 C 442.11 903.12 456.32 909.08 469.99 908.09 C 469.98 893.52 472.21 879.12 473.81 864.71 C 472.60 866.24 471.27 867.86 471.55 869.96 M 590.07 918.68 C 589.09 924.12 586.65 929.21 585.95 934.70 C 589.76 936.37 593.50 938.20 597.08 940.34 C 598.37 934.58 600.64 929.04 600.93 923.10 C 597.47 921.26 593.82 919.79 590.07 918.68 Z" />
</g>
<g id="#6e7984ff">
<path fill="#6e7984" stroke="#6e7984" stroke-width="0.09375" opacity="1.00" d=" M 653.28 790.34 C 676.56 786.69 694.36 805.78 707.50 822.29 L 706.99 823.66 C 693.70 805.18 668.53 815.68 650.03 814.68 C 645.50 814.92 641.41 816.58 638.78 820.43 C 639.15 822.70 639.21 825.02 638.72 827.29 C 637.40 823.52 636.30 819.68 634.90 815.94 C 633.45 815.89 632.00 815.84 630.56 815.80 C 631.68 820.15 633.50 824.28 634.84 828.57 C 630.61 825.84 630.80 820.12 628.71 815.98 C 623.69 825.51 623.83 836.40 621.13 846.52 C 620.62 824.45 629.82 796.96 653.28 790.34 M 651.88 799.95 C 652.07 802.76 652.92 805.46 653.96 808.07 C 654.73 808.01 656.26 807.90 657.03 807.85 C 657.64 804.68 656.42 797.98 651.88 799.95 Z" />
</g>
<g id="#cfd4d8ff">
<path fill="#cfd4d8" stroke="#cfd4d8" stroke-width="0.09375" opacity="1.00" d=" M 492.80 797.67 C 501.36 795.60 509.98 792.98 518.82 792.68 C 510.28 798.77 504.23 811.88 492.06 807.22 C 488.91 812.12 484.29 817.08 479.87 821.55 C 477.86 816.30 475.58 811.02 470.75 807.72 C 478.62 804.01 486.90 801.24 495.05 798.21 C 494.49 798.08 493.36 797.81 492.80 797.67 Z" />
</g>
<g id="#88929cfe">
<path fill="#88929c" stroke="#88929c" stroke-width="0.09375" opacity="1.00" d=" M 500.74 829.73 C 514.40 804.68 543.64 782.84 572.88 795.52 C 580.33 798.29 583.84 809.40 592.64 807.44 C 593.56 809.37 593.52 811.52 593.51 813.62 C 591.68 812.33 589.88 811.01 588.06 809.72 C 597.49 823.52 603.26 839.50 607.14 855.66 C 605.07 857.56 603.04 859.50 600.94 861.36 C 600.51 865.85 604.15 868.94 607.28 871.50 C 604.16 872.68 602.37 869.02 600.35 867.32 C 600.85 880.39 588.94 891.15 595.76 904.48 C 595.04 904.37 593.61 904.13 592.90 904.01 C 593.74 886.61 592.46 869.10 587.24 852.42 C 600.34 838.53 592.63 816.44 579.10 805.86 C 568.07 794.70 549.93 795.11 536.70 802.01 C 539.51 807.98 542.68 813.93 544.07 820.44 C 540.39 815.27 537.21 809.74 533.13 804.84 C 521.79 811.07 512.57 821.08 506.61 832.47 C 504.92 831.05 502.84 830.28 500.74 829.73 Z" />
</g>
<g id="#f9fbfdff">
<path fill="#f9fbfd" stroke="#f9fbfd" stroke-width="0.09375" opacity="1.00" d=" M 651.88 799.95 C 656.42 797.98 657.64 804.68 657.03 807.85 C 656.26 807.90 654.73 808.01 653.96 808.07 C 652.92 805.46 652.07 802.76 651.88 799.95 Z" />
</g>
<g id="#b8bec4fe">
<path fill="#b8bec4" stroke="#b8bec4" stroke-width="0.09375" opacity="1.00" d=" M 772.56 800.03 C 783.12 809.57 796.22 816.98 810.85 816.82 C 811.13 817.07 811.70 817.56 811.98 817.81 C 810.59 818.04 809.23 818.35 807.87 818.66 C 812.84 819.45 817.88 819.30 822.89 819.34 C 823.33 821.77 823.64 824.22 823.82 826.70 C 832.98 840.84 809.12 854.78 815.54 870.70 C 811.41 873.72 807.22 876.67 803.03 879.62 C 800.42 873.44 796.44 867.67 795.19 861.03 C 798.09 854.32 808.46 852.93 807.37 843.97 C 809.21 821.52 782.59 815.90 772.56 800.03 Z" />
</g>
<g id="#bbc2c8ff">
<path fill="#bbc2c8" stroke="#bbc2c8" stroke-width="0.09375" opacity="1.00" d=" M 558.87 804.80 C 576.58 802.56 600.00 829.91 585.99 846.03 C 579.03 833.82 567.23 822.63 552.09 821.80 C 551.94 816.04 560.73 820.23 562.47 814.41 C 562.56 811.55 562.61 808.68 562.37 805.84 C 561.19 805.49 560.03 805.15 558.87 804.80 Z" />
</g>
<g id="#535e6afe">
<path fill="#535e6a" stroke="#535e6a" stroke-width="0.09375" opacity="1.00" d=" M 864.97 805.63 C 887.82 859.17 879.69 922.87 852.95 972.94 C 842.12 987.00 828.38 1000.01 824.64 1017.52 L 824.61 1017.78 C 823.22 1019.10 821.75 1020.39 819.94 1021.11 C 827.05 1009.99 825.97 995.72 825.97 982.98 C 824.17 961.28 820.63 939.49 813.43 918.89 C 812.04 914.80 810.61 910.73 809.24 906.64 C 810.57 906.28 811.91 905.94 813.26 905.60 C 816.02 909.99 817.45 915.03 819.73 919.67 C 822.95 913.89 826.34 908.19 828.91 902.07 C 827.82 900.05 826.74 898.03 825.71 896.00 L 826.02 894.50 C 828.94 897.65 830.15 903.08 835.05 903.75 C 838.85 901.85 837.38 896.36 837.06 892.88 C 837.46 892.72 838.25 892.39 838.65 892.22 C 830.14 879.21 838.39 864.78 840.96 851.36 C 841.93 860.94 837.70 869.85 835.97 879.02 C 837.29 885.37 840.37 891.30 843.22 897.11 C 846.31 890.54 851.15 884.25 851.96 876.96 C 848.80 869.03 844.95 861.35 842.75 853.04 L 843.10 851.58 C 846.68 856.76 847.69 863.15 850.46 868.74 C 852.18 859.16 856.80 850.18 857.74 840.60 C 856.71 840.48 855.70 840.37 854.69 840.27 C 854.94 838.92 855.50 837.70 856.55 836.79 C 856.41 834.50 856.21 832.22 856.02 829.95 C 856.44 830.27 857.28 830.90 857.70 831.22 C 859.68 847.84 863.59 864.58 861.40 881.34 C 860.70 888.27 859.03 895.04 857.94 901.91 C 861.68 908.52 869.13 915.38 865.68 923.57 C 861.32 919.58 859.68 913.60 856.27 908.88 C 853.02 931.29 842.65 951.88 831.37 971.12 C 832.45 970.50 833.57 969.93 834.66 969.32 C 835.23 971.13 835.81 972.96 836.37 974.80 C 838.10 970.38 840.93 966.55 843.82 962.85 C 843.92 966.82 842.73 970.63 840.85 974.10 C 846.73 969.64 851.61 964.03 855.37 957.70 C 882.17 912.88 881.83 855.23 864.62 807.07 L 864.97 805.63 Z" />
</g>
<g id="#8f98a0fe">
<path fill="#8f98a0" stroke="#8f98a0" stroke-width="0.09375" opacity="1.00" d=" M 650.03 814.68 C 668.53 815.68 693.70 805.18 706.99 823.66 L 707.50 822.29 C 712.86 828.93 718.00 835.83 722.29 843.23 C 722.16 852.29 733.87 859.43 730.09 868.96 C 732.18 881.33 729.22 895.13 720.13 904.15 C 716.48 909.49 707.90 907.46 704.34 912.56 C 702.79 913.38 701.29 914.28 699.80 915.17 C 701.88 918.11 706.00 917.37 709.13 917.23 C 706.90 917.60 704.67 917.88 702.46 918.28 C 705.63 920.35 709.40 919.04 712.78 918.35 C 712.63 919.09 712.49 919.84 712.35 920.60 C 710.44 921.54 708.56 922.54 706.79 923.73 C 724.11 921.48 731.86 903.93 740.05 890.86 C 744.35 911.51 721.37 924.42 703.98 927.19 C 704.91 927.67 705.86 928.16 706.81 928.66 C 695.69 932.44 684.17 929.09 673.04 929.56 C 658.34 925.17 644.45 914.94 638.58 900.44 L 639.14 899.33 C 642.34 903.58 644.22 908.77 648.23 912.42 C 662.61 910.13 677.55 916.28 692.05 914.21 C 702.94 908.71 713.90 900.10 716.88 887.73 C 723.21 889.19 726.70 879.16 721.35 876.13 C 722.34 870.17 724.22 864.14 721.97 858.19 C 723.25 859.50 724.54 860.79 725.85 862.08 C 724.45 854.66 718.62 847.00 712.01 844.57 C 710.43 843.06 708.89 841.52 707.28 840.06 C 705.87 834.61 701.59 831.14 696.90 828.50 C 698.34 828.23 699.79 827.96 701.24 827.70 C 699.77 826.87 698.29 826.05 696.77 825.34 C 662.52 803.54 621.05 842.00 625.49 878.21 C 623.14 867.95 621.70 857.08 621.13 846.52 C 623.83 836.40 623.69 825.51 628.71 815.98 C 630.80 820.12 630.61 825.84 634.84 828.57 C 633.50 824.28 631.68 820.15 630.56 815.80 C 632.00 815.84 633.45 815.89 634.90 815.94 C 636.30 819.68 637.40 823.52 638.72 827.29 C 639.21 825.02 639.15 822.70 638.78 820.43 C 641.41 816.58 645.50 814.92 650.03 814.68 Z" />
</g>
<g id="#bdc3c8fe">
<path fill="#bdc3c8" stroke="#bdc3c8" stroke-width="0.09375" opacity="1.00" d=" M 669.96 826.04 C 678.78 823.00 687.96 827.20 696.77 825.34 C 698.29 826.05 699.77 826.87 701.24 827.70 C 699.79 827.96 698.34 828.23 696.90 828.50 C 701.59 831.14 705.87 834.61 707.28 840.06 C 686.97 829.89 655.18 829.76 645.79 854.75 C 647.20 864.55 638.33 876.51 647.62 884.38 C 655.37 888.38 651.46 900.01 660.38 902.28 C 660.04 898.83 659.54 895.42 659.02 892.01 C 670.77 907.75 689.72 898.37 703.58 891.60 C 708.00 877.74 723.86 862.27 709.66 849.14 C 710.48 847.63 711.26 846.11 712.01 844.57 C 718.62 847.00 724.45 854.66 725.85 862.08 C 724.54 860.79 723.25 859.50 721.97 858.19 C 724.22 864.14 722.34 870.17 721.35 876.13 C 726.70 879.16 723.21 889.19 716.88 887.73 C 713.90 900.10 702.94 908.71 692.05 914.21 C 677.55 916.28 662.61 910.13 648.23 912.42 C 644.22 908.77 642.34 903.58 639.14 899.33 L 638.58 900.44 L 638.30 901.00 C 626.73 873.38 638.26 833.32 669.96 826.04 Z" />
</g>
<g id="#5c6672fe">
<path fill="#5c6672" stroke="#5c6672" stroke-width="0.09375" opacity="1.00" d=" M 537.77 834.74 C 546.85 828.79 560.36 830.03 567.30 838.72 C 581.52 856.20 585.22 879.80 583.79 901.71 C 582.47 898.57 582.40 895.15 582.34 891.81 C 580.79 891.31 579.25 890.80 577.72 890.32 C 577.33 891.60 576.95 892.90 576.57 894.20 C 576.09 891.42 575.60 888.64 575.34 885.85 C 575.30 885.28 575.23 884.13 575.20 883.56 C 559.81 884.50 544.42 885.66 529.09 886.89 C 527.79 896.20 527.57 905.65 525.81 914.88 C 526.60 915.41 527.41 915.97 528.21 916.53 C 531.85 919.20 535.78 921.45 539.80 923.50 C 537.72 923.99 535.73 923.19 533.81 922.51 C 534.81 924.46 535.77 926.44 536.65 928.46 C 530.90 925.16 525.00 922.01 518.78 919.72 C 520.40 928.50 528.50 932.44 535.55 936.31 L 535.36 937.39 C 534.54 937.44 532.88 937.54 532.06 937.59 C 534.66 941.83 538.66 945.72 537.74 951.16 C 541.24 952.74 544.87 954.03 548.60 954.98 C 537.55 956.13 528.57 947.62 522.77 939.19 C 510.79 920.81 509.86 897.01 514.21 876.08 C 518.68 860.92 523.84 843.88 537.77 834.74 M 533.39 863.37 C 530.87 864.34 532.72 867.77 535.02 867.12 C 546.71 863.59 559.05 862.68 571.10 860.76 C 570.97 858.72 570.64 856.71 570.10 854.75 C 557.66 856.69 545.22 859.05 533.39 863.37 Z" />
</g>
<g id="#f1f3f5fe">
<path fill="#f1f3f5" stroke="#f1f3f5" stroke-width="0.09375" opacity="1.00" d=" M 645.79 854.75 C 655.18 829.76 686.97 829.89 707.28 840.06 C 708.89 841.52 710.43 843.06 712.01 844.57 C 711.26 846.11 710.48 847.63 709.66 849.14 C 723.86 862.27 708.00 877.74 703.58 891.60 C 689.72 898.37 670.77 907.75 659.02 892.01 C 659.54 895.42 660.04 898.83 660.38 902.28 C 651.46 900.01 655.37 888.38 647.62 884.38 C 638.33 876.51 647.20 864.55 645.79 854.75 Z" />
</g>
<g id="#636e79fe">
<path fill="#636e79" stroke="#636e79" stroke-width="0.09375" opacity="1.00" d=" M 730.09 868.96 C 733.87 859.43 722.16 852.29 722.29 843.23 C 736.19 867.38 748.12 893.11 753.58 920.58 C 755.23 931.29 756.98 944.11 748.96 952.83 C 749.50 949.25 751.44 946.08 751.79 942.47 C 742.91 936.48 731.95 934.44 721.42 935.75 C 728.12 930.33 732.85 922.96 737.23 915.66 C 718.35 927.60 695.51 937.64 673.04 929.56 C 684.17 929.09 695.69 932.44 706.81 928.66 C 705.86 928.16 704.91 927.67 703.98 927.19 C 721.37 924.42 744.35 911.51 740.05 890.86 C 731.86 903.93 724.11 921.48 706.79 923.73 C 708.56 922.54 710.44 921.54 712.35 920.60 C 712.49 919.84 712.63 919.09 712.78 918.35 C 709.40 919.04 705.63 920.35 702.46 918.28 C 704.67 917.88 706.90 917.60 709.13 917.23 C 715.23 916.02 720.96 912.60 724.22 907.20 C 717.50 908.61 710.86 910.42 704.34 912.56 C 707.90 907.46 716.48 909.49 720.13 904.15 C 729.22 895.13 732.18 881.33 730.09 868.96 Z" />
</g>
<g id="#dbdfe3fe">
<path fill="#dbdfe3" stroke="#dbdfe3" stroke-width="0.09375" opacity="1.00" d=" M 840.96 851.36 C 841.10 851.02 841.38 850.32 841.52 849.98 C 841.93 850.98 842.34 852.01 842.75 853.04 C 844.95 861.35 848.80 869.03 851.96 876.96 C 851.15 884.25 846.31 890.54 843.22 897.11 C 840.37 891.30 837.29 885.37 835.97 879.02 C 837.70 869.85 841.93 860.94 840.96 851.36 Z" />
</g>
<g id="#9da4abfe">
<path fill="#9da4ab" stroke="#9da4ab" stroke-width="0.09375" opacity="1.00" d=" M 533.39 863.37 C 545.22 859.05 557.66 856.69 570.10 854.75 C 570.64 856.71 570.97 858.72 571.10 860.76 C 559.05 862.68 546.71 863.59 535.02 867.12 C 532.72 867.77 530.87 864.34 533.39 863.37 Z" />
</g>
<g id="#979fa6fe">
<path fill="#979fa6" stroke="#979fa6" stroke-width="0.09375" opacity="1.00" d=" M 420.73 900.98 C 419.95 886.36 420.35 870.83 426.26 857.27 C 426.90 872.61 425.59 888.11 426.28 903.68 C 427.07 903.94 427.88 904.21 428.68 904.49 C 428.61 919.26 430.84 937.10 442.78 947.11 C 442.91 946.28 443.17 944.61 443.30 943.77 C 451.57 943.40 457.24 950.47 464.00 954.08 C 475.46 957.67 476.39 971.70 482.02 980.83 C 468.53 968.58 454.05 957.81 437.72 949.37 C 425.33 935.80 420.98 917.03 417.96 899.39 C 418.89 899.90 419.80 900.45 420.73 900.98 Z" />
</g>
<g id="#8c959efe">
<path fill="#8c959e" stroke="#8c959e" stroke-width="0.09375" opacity="1.00" d=" M 471.55 869.96 C 471.27 867.86 472.60 866.24 473.81 864.71 C 472.21 879.12 469.98 893.52 469.99 908.09 C 456.32 909.08 442.11 903.12 430.54 896.03 C 434.40 888.38 431.82 879.12 435.35 871.27 C 437.11 871.24 438.88 871.25 440.66 871.30 C 440.67 878.04 439.24 884.64 438.36 891.30 C 446.24 894.54 453.94 898.20 461.84 901.42 C 462.57 889.96 465.05 878.08 470.51 867.96 C 470.77 868.46 471.29 869.46 471.55 869.96 Z" />
<path fill="#8c959e" stroke="#8c959e" stroke-width="0.09375" opacity="1.00" d=" M 712.32 941.50 C 715.22 939.40 718.45 937.67 721.42 935.75 C 731.95 934.44 742.91 936.48 751.79 942.47 C 751.44 946.08 749.50 949.25 748.96 952.83 L 748.88 953.18 C 737.00 962.48 719.65 952.12 712.32 941.50 Z" />
</g>
<g id="#717b85fe">
<path fill="#717b85" stroke="#717b85" stroke-width="0.09375" opacity="1.00" d=" M 484.17 875.31 C 485.84 887.29 483.46 900.14 484.41 912.52 C 485.13 912.51 485.86 912.51 486.59 912.52 C 486.58 904.21 486.47 895.91 486.77 887.62 C 487.21 888.02 488.09 888.84 488.53 889.25 C 488.17 906.60 488.47 925.49 495.75 941.34 C 500.03 938.25 504.10 933.71 507.96 930.95 C 516.46 942.50 494.72 948.31 501.91 959.09 C 502.34 958.44 503.21 957.14 503.64 956.48 C 503.30 957.96 502.94 959.44 502.53 960.92 C 506.44 969.69 512.03 977.74 519.48 983.87 C 519.20 982.67 518.93 981.48 518.67 980.30 C 523.83 974.88 525.46 962.88 534.35 963.31 C 534.93 963.45 536.10 963.74 536.68 963.88 C 535.64 968.37 532.26 972.02 532.13 976.77 C 533.74 976.34 535.35 975.89 536.97 975.47 C 535.01 979.08 533.32 982.90 530.66 986.08 C 529.76 986.50 528.86 986.92 527.96 987.34 C 528.61 986.31 529.29 985.32 529.96 984.32 C 526.91 982.71 523.78 983.33 521.58 985.96 C 534.37 998.23 554.96 998.51 568.20 986.77 L 569.71 986.94 C 567.46 990.11 563.92 991.82 560.51 993.43 C 562.75 994.31 564.82 995.63 565.74 997.98 C 562.38 1000.00 558.88 1001.76 555.36 1003.46 C 538.91 1008.41 521.87 999.33 511.15 987.14 C 484.86 956.87 478.65 913.92 484.17 875.31 Z" />
</g>
<g id="#ced2d6fe">
<path fill="#ced2d6" stroke="#ced2d6" stroke-width="0.09375" opacity="1.00" d=" M 529.09 886.89 C 544.42 885.66 559.81 884.50 575.20 883.56 C 575.23 884.13 575.30 885.28 575.34 885.85 C 575.35 888.12 575.22 890.39 575.09 892.67 C 559.97 891.43 544.81 893.10 529.67 893.03 C 529.66 898.17 535.41 898.82 539.34 898.16 C 551.15 898.23 563.59 898.90 575.00 895.51 C 574.99 897.70 575.00 899.90 574.88 902.10 C 561.44 906.62 539.69 901.35 533.58 917.41 C 531.85 916.82 530.06 916.28 528.21 916.53 C 527.41 915.97 526.60 915.41 525.81 914.88 C 527.57 905.65 527.79 896.20 529.09 886.89 Z" />
</g>
<g id="#e3e6e9fe">
<path fill="#e3e6e9" stroke="#e3e6e9" stroke-width="0.09375" opacity="1.00" d=" M 410.20 886.14 C 410.88 885.69 412.23 884.79 412.90 884.34 C 412.22 901.55 414.74 918.63 418.30 935.42 L 417.84 934.89 C 411.39 928.66 412.02 919.11 409.97 911.05 C 398.51 910.75 387.07 909.96 375.62 909.43 C 386.99 905.12 397.41 898.37 407.60 891.73 C 407.66 889.55 408.84 887.73 410.20 886.14 Z" />
</g>
<g id="#788089fe">
<path fill="#788089" stroke="#788089" stroke-width="0.09375" opacity="1.00" d=" M 370.70 908.79 C 384.04 901.55 396.64 892.88 410.20 886.14 C 408.84 887.73 407.66 889.55 407.60 891.73 C 397.41 898.37 386.99 905.12 375.62 909.43 C 387.07 909.96 398.51 910.75 409.97 911.05 C 412.02 919.11 411.39 928.66 417.84 934.89 C 400.70 929.40 384.88 920.15 369.00 911.71 C 366.83 910.74 369.71 909.29 370.70 908.79 Z" />
</g>
<g id="#b2b8befe">
<path fill="#b2b8be" stroke="#b2b8be" stroke-width="0.09375" opacity="1.00" d=" M 575.34 885.85 C 575.60 888.64 576.09 891.42 576.57 894.20 C 576.95 892.90 577.33 891.60 577.72 890.32 C 579.25 890.80 580.79 891.31 582.34 891.81 C 582.40 895.15 582.47 898.57 583.79 901.71 C 582.43 923.09 571.60 949.83 548.60 954.98 C 544.87 954.03 541.24 952.74 537.74 951.16 C 538.66 945.72 534.66 941.83 532.06 937.59 C 532.88 937.54 534.54 937.44 535.36 937.39 L 535.55 936.31 C 543.62 939.62 551.45 947.86 560.76 944.12 C 569.56 931.83 574.25 917.28 574.88 902.10 C 575.00 899.90 574.99 897.70 575.00 895.51 C 563.59 898.90 551.15 898.23 539.34 898.16 C 535.41 898.82 529.66 898.17 529.67 893.03 C 544.81 893.10 559.97 891.43 575.09 892.67 C 575.22 890.39 575.35 888.12 575.34 885.85 Z" />
</g>
<g id="#fbfcfdfe">
<path fill="#fbfcfd" stroke="#fbfcfd" stroke-width="0.09375" opacity="1.00" d=" M 533.58 917.41 C 539.69 901.35 561.44 906.62 574.88 902.10 C 574.25 917.28 569.56 931.83 560.76 944.12 C 551.45 947.86 543.62 939.62 535.55 936.31 C 528.50 932.44 520.40 928.50 518.78 919.72 C 525.00 922.01 530.90 925.16 536.65 928.46 C 544.12 932.98 551.89 937.08 560.15 940.00 C 559.24 938.85 558.34 937.72 557.45 936.60 C 558.08 936.42 559.34 936.06 559.97 935.89 C 554.01 930.61 546.93 926.91 539.80 923.50 C 535.78 921.45 531.85 919.20 528.21 916.53 C 530.06 916.28 531.85 916.82 533.58 917.41 Z" />
</g>
<g id="#5858585b">
<path fill="#585858" stroke="#585858" stroke-width="0.09375" opacity="0.36" d=" M 613.62 902.66 C 615.83 902.34 618.02 901.91 620.20 901.40 C 624.83 903.55 628.01 907.72 632.35 910.31 C 636.93 915.49 641.87 920.37 646.23 925.74 C 640.36 924.03 634.52 920.15 630.04 915.84 C 623.53 914.48 619.15 907.88 611.99 911.82 C 612.36 908.74 613.00 905.70 613.62 902.66 Z" />
</g>
<g id="#58626efe">
<path fill="#58626e" stroke="#58626e" stroke-width="0.09375" opacity="1.00" d=" M 786.85 911.50 C 788.64 909.65 789.70 906.13 792.76 906.32 C 790.80 909.50 786.30 912.99 788.93 917.04 C 802.98 946.91 813.70 978.75 816.17 1011.84 C 816.25 1014.09 816.27 1016.34 816.34 1018.60 C 806.46 1011.88 798.10 1003.29 788.76 995.91 C 782.93 990.74 777.05 985.61 771.27 980.39 C 773.42 979.25 775.06 981.39 776.65 982.49 C 776.39 976.03 784.52 971.42 780.86 964.20 C 779.86 965.10 778.87 966.01 777.88 966.93 C 777.92 966.24 778.01 964.85 778.05 964.16 C 778.33 963.12 778.79 962.07 778.31 961.03 L 778.07 960.14 C 779.44 960.17 780.82 960.22 782.20 960.27 C 783.08 948.44 786.86 934.03 778.09 923.82 C 777.68 919.11 780.04 914.03 782.92 910.24 C 784.22 910.66 785.53 911.08 786.85 911.50 Z" />
</g>
<g id="#eef0f3ff">
<path fill="#eef0f3" stroke="#eef0f3" stroke-width="0.09375" opacity="1.00" d=" M 704.34 912.56 C 710.86 910.42 717.50 908.61 724.22 907.20 C 720.96 912.60 715.23 916.02 709.13 917.23 C 706.00 917.37 701.88 918.11 699.80 915.17 C 701.29 914.28 702.79 913.38 704.34 912.56 Z" />
</g>
<g id="#b9bfc5fe">
<path fill="#b9bfc5" stroke="#b9bfc5" stroke-width="0.09375" opacity="1.00" d=" M 435.42 907.96 C 443.48 909.83 451.49 912.59 458.98 915.99 C 464.30 924.83 462.16 936.03 466.63 945.27 L 467.18 943.93 C 468.50 947.73 470.17 951.41 471.35 955.28 C 460.92 950.04 455.88 938.24 444.98 933.16 C 438.29 930.90 436.02 924.10 435.49 917.67 C 436.36 914.47 435.91 911.18 435.42 907.96 Z" />
</g>
<g id="#a8aeb3fe">
<path fill="#a8aeb3" stroke="#a8aeb3" stroke-width="0.09375" opacity="1.00" d=" M 856.27 908.88 C 859.68 913.60 861.32 919.58 865.68 923.57 C 861.83 934.81 857.68 946.63 855.37 957.70 C 851.61 964.03 846.73 969.64 840.85 974.10 C 842.73 970.63 843.92 966.82 843.82 962.85 C 840.93 966.55 838.10 970.38 836.37 974.80 C 835.81 972.96 835.23 971.13 834.66 969.32 C 833.57 969.93 832.45 970.50 831.37 971.12 C 842.65 951.88 853.02 931.29 856.27 908.88 Z" />
</g>
<g id="#d6daddfe">
<path fill="#d6dadd" stroke="#d6dadd" stroke-width="0.09375" opacity="1.00" d=" M 797.10 929.79 C 791.90 924.17 795.54 917.85 800.03 913.27 C 806.91 924.41 809.69 937.54 815.76 949.12 C 815.55 938.32 810.42 928.66 810.84 918.19 C 811.48 918.68 812.77 919.66 813.41 920.15 L 813.43 918.89 C 820.63 939.49 824.17 961.28 825.97 982.98 C 825.97 995.72 827.05 1009.99 819.94 1021.11 C 818.94 1021.76 817.87 1022.26 816.73 1022.60 C 800.90 1016.56 787.92 1004.09 774.08 994.31 C 774.71 993.53 775.35 992.77 776.00 992.01 C 776.83 992.91 777.67 993.83 778.52 994.76 C 778.84 993.46 779.16 992.18 779.50 990.91 C 782.84 992.18 785.04 995.51 788.76 995.91 C 798.10 1003.29 806.46 1011.88 816.34 1018.60 C 816.27 1016.34 816.25 1014.09 816.17 1011.84 C 816.44 1014.27 816.98 1016.66 817.57 1019.04 C 817.62 988.29 807.99 958.20 797.10 929.79 Z" />
</g>
<g id="#b5b9bffe">
<path fill="#b5b9bf" stroke="#b5b9bf" stroke-width="0.09375" opacity="1.00" d=" M 533.81 922.51 C 535.73 923.19 537.72 923.99 539.80 923.50 C 546.93 926.91 554.01 930.61 559.97 935.89 C 559.34 936.06 558.08 936.42 557.45 936.60 C 558.34 937.72 559.24 938.85 560.15 940.00 C 551.89 937.08 544.12 932.98 536.65 928.46 C 535.77 926.44 534.81 924.46 533.81 922.51 Z" />
</g>
<g id="#9ba3abfd">
<path fill="#9ba3ab" stroke="#9ba3ab" stroke-width="0.09375" opacity="1.00" d=" M 647.72 927.55 C 661.78 939.40 680.53 943.62 698.55 943.92 C 696.06 951.57 688.64 955.43 683.73 961.23 C 690.70 958.92 697.38 954.97 702.53 949.70 C 709.61 958.44 716.37 967.47 723.35 976.32 C 722.28 979.60 726.10 981.64 727.78 983.95 C 720.01 980.88 710.16 978.13 703.85 985.57 C 682.40 969.17 663.37 949.47 647.72 927.55 Z" />
</g>
<g id="#b6bdc3fe">
<path fill="#b6bdc3" stroke="#b6bdc3" stroke-width="0.09375" opacity="1.00" d=" M 503.64 956.48 C 505.99 951.30 510.00 947.16 514.04 943.25 C 518.95 951.64 526.04 958.32 534.35 963.31 C 525.46 962.88 523.83 974.88 518.67 980.30 C 518.93 981.48 519.20 982.67 519.48 983.87 C 512.03 977.74 506.44 969.69 502.53 960.92 C 502.94 959.44 503.30 957.96 503.64 956.48 Z" />
</g>
<g id="#d5d9dcfe">
<path fill="#d5d9dc" stroke="#d5d9dc" stroke-width="0.09375" opacity="1.00" d=" M 480.72 948.79 C 494.39 959.17 498.69 976.65 510.86 988.25 L 511.15 987.14 C 521.87 999.33 538.91 1008.41 555.36 1003.46 C 555.04 1004.38 554.72 1005.29 554.40 1006.24 C 557.11 1005.38 559.88 1003.79 562.80 1004.65 C 556.91 1008.55 549.94 1011.00 542.94 1011.76 C 523.12 1013.64 506.69 999.97 494.84 985.70 C 492.58 978.83 487.40 973.35 485.34 966.30 C 488.82 960.09 481.19 954.89 480.72 948.79 Z" />
</g>
<g id="#c0c6cafe">
<path fill="#c0c6ca" stroke="#c0c6ca" stroke-width="0.09375" opacity="1.00" d=" M 764.90 950.45 C 769.31 954.05 773.59 957.82 778.31 961.03 C 778.79 962.07 778.33 963.12 778.05 964.16 C 777.32 965.21 776.57 966.24 775.86 967.32 C 770.60 963.30 759.99 958.40 764.90 950.45 Z" />
</g>
<g id="#e0e4e7fd">
<path fill="#e0e4e7" stroke="#e0e4e7" stroke-width="0.09375" opacity="1.00" d=" M 439.79 952.41 C 446.89 958.07 456.68 961.52 456.32 972.11 C 446.74 977.95 437.74 984.63 428.61 991.05 C 436.06 979.66 436.00 965.22 439.79 952.41 Z" />
</g>
<g id="#cacfd4fe">
<path fill="#cacfd4" stroke="#cacfd4" stroke-width="0.09375" opacity="1.00" d=" M 536.68 963.88 C 543.98 968.53 554.59 962.59 559.31 970.60 C 563.81 976.23 569.82 969.77 574.46 972.70 C 565.25 985.96 545.63 995.96 530.66 986.08 C 533.32 982.90 535.01 979.08 536.97 975.47 C 535.35 975.89 533.74 976.34 532.13 976.77 C 532.26 972.02 535.64 968.37 536.68 963.88 Z" />
</g>
<g id="#78818afd">
<path fill="#78818a" stroke="#78818a" stroke-width="0.09375" opacity="1.00" d=" M 727.88 967.32 C 733.21 968.64 738.66 968.80 744.10 968.77 C 752.77 978.72 763.75 986.22 774.08 994.31 C 787.92 1004.09 800.90 1016.56 816.73 1022.60 L 817.25 1022.67 C 776.03 1032.39 736.16 1008.77 703.85 985.57 C 710.16 978.13 720.01 980.88 727.78 983.95 C 726.10 981.64 722.28 979.60 723.35 976.32 C 726.36 979.99 729.77 983.32 733.36 986.43 C 731.83 979.97 728.18 974.06 727.88 967.32 Z" />
</g>
<g id="#b1b8bffe">
<path fill="#b1b8bf" stroke="#b1b8bf" stroke-width="0.09375" opacity="1.00" d=" M 291.29 1041.60 C 292.51 1048.55 292.33 1055.71 292.38 1062.77 C 296.02 1066.95 289.91 1072.25 292.47 1076.87 C 289.07 1079.74 288.57 1084.50 289.37 1088.64 C 288.54 1104.41 287.36 1120.34 287.31 1136.19 C 287.84 1134.07 288.37 1131.97 288.76 1129.84 C 282.14 1204.17 275.27 1278.50 267.85 1352.78 C 264.21 1350.89 260.64 1348.86 257.10 1346.80 C 258.53 1337.08 262.74 1326.54 260.34 1316.98 C 263.60 1284.37 270.35 1251.71 270.19 1218.99 C 263.17 1227.34 266.42 1240.46 263.38 1250.80 C 263.13 1250.79 262.62 1250.78 262.37 1250.77 C 261.49 1231.67 264.50 1211.73 260.60 1193.27 C 261.95 1197.08 263.93 1200.62 265.50 1204.35 C 267.04 1208.86 268.44 1213.61 271.71 1217.23 C 278.17 1158.67 284.05 1100.06 291.29 1041.60 Z" />
</g>
<g id="#e2e6e8fe">
<path fill="#e2e6e8" stroke="#e2e6e8" stroke-width="0.09375" opacity="1.00" d=" M 219.78 1196.07 C 225.93 1189.06 229.66 1179.62 237.04 1173.81 C 229.71 1228.36 223.88 1283.20 217.96 1337.96 C 214.00 1338.24 210.02 1338.13 206.06 1338.26 C 207.63 1290.68 215.58 1243.50 219.78 1196.07 Z" />
</g>
<g id="#dee3e5fe">
<path fill="#dee3e5" stroke="#dee3e5" stroke-width="0.09375" opacity="1.00" d=" M 239.61 1286.01 C 244.65 1249.43 246.28 1212.03 253.34 1175.80 C 254.86 1182.00 258.70 1187.23 260.60 1193.27 C 264.50 1211.73 261.49 1231.67 262.37 1250.77 C 262.62 1250.78 263.13 1250.79 263.38 1250.80 C 266.42 1240.46 263.17 1227.34 270.19 1218.99 C 270.35 1251.71 263.60 1284.37 260.34 1316.98 C 257.75 1326.76 259.84 1338.61 254.00 1347.01 C 246.60 1344.16 239.11 1341.59 231.49 1339.42 C 233.79 1316.55 234.71 1293.26 237.79 1270.60 C 238.49 1275.72 238.63 1280.91 239.61 1286.01 Z" />
</g>
<g id="#a0a6abfd">
<path fill="#a0a6ab" stroke="#a0a6ab" stroke-width="0.09375" opacity="1.00" d=" M 192.83 1351.59 C 213.76 1350.49 235.11 1352.98 254.89 1360.14 C 254.73 1360.54 254.41 1361.35 254.25 1361.75 C 256.37 1362.75 258.87 1363.53 259.95 1365.84 C 253.84 1373.54 253.16 1384.46 244.95 1390.77 C 245.49 1391.52 246.04 1392.29 246.59 1393.08 C 245.40 1392.51 244.22 1391.96 243.04 1391.41 C 242.97 1392.05 242.82 1393.33 242.75 1393.97 C 223.25 1396.56 202.85 1393.80 185.25 1384.75 C 187.32 1374.29 189.51 1363.84 190.08 1353.16 C 192.41 1352.87 194.74 1352.64 197.08 1352.40 C 195.66 1352.09 194.25 1351.82 192.83 1351.59 Z" />
</g>
</svg>
