<?xml version="1.0" encoding="UTF-8" ?>
<!DOCTYPE svg PUBLIC "-//W3C//DTD SVG 1.1//EN" "http://www.w3.org/Graphics/SVG/1.1/DTD/svg11.dtd">
<svg width="1024pt" height="1024pt" viewBox="0 0 1024 1024" version="1.1" xmlns="http://www.w3.org/2000/svg">
<g id="#fefefefe">
<path fill="#fefefe" opacity="1.00" d=" M 602.66 257.66 C 614.31 249.56 627.52 242.50 642.04 242.13 C 651.28 241.83 660.36 244.33 668.88 247.72 C 687.44 254.69 703.76 266.15 720.41 276.67 C 729.26 282.35 738.44 288.31 749.06 289.87 C 755.64 290.80 762.36 291.51 768.99 290.71 C 763.56 300.20 753.26 306.02 742.85 308.46 C 727.42 311.88 710.53 311.85 696.16 304.63 C 688.55 300.38 679.54 297.28 670.81 299.53 C 661.08 301.88 652.76 307.89 645.31 314.32 C 640.09 319.82 634.61 325.34 630.97 332.04 C 638.38 326.23 646.66 321.65 655.07 317.46 C 653.87 321.75 651.34 325.51 649.82 329.69 C 642.83 345.15 641.22 362.65 632.50 377.39 C 625.09 390.69 613.51 402.16 599.04 407.46 C 594.78 409.11 590.12 409.25 585.85 410.87 C 588.65 412.20 591.82 412.01 594.81 412.56 C 600.76 413.68 607.05 413.80 612.86 411.90 C 620.21 409.54 626.50 404.86 632.37 400.08 C 634.02 412.13 632.65 424.40 628.90 435.94 C 624.31 451.66 615.73 465.84 605.78 478.69 C 608.79 488.85 605.87 499.78 600.82 508.79 C 590.77 525.10 574.28 535.92 558.00 545.26 C 553.29 548.39 547.73 550.22 543.29 553.66 C 544.52 553.52 545.58 552.85 546.75 552.46 C 559.46 550.74 572.05 547.69 584.00 542.99 C 595.96 538.41 607.58 531.60 615.15 521.00 C 621.60 512.32 624.60 501.56 625.55 490.92 C 626.06 487.67 625.87 484.28 627.04 481.17 C 631.09 506.64 635.94 532.11 636.99 557.94 C 627.82 555.72 618.23 553.81 608.81 555.53 C 601.74 556.39 595.24 559.41 588.42 561.25 C 594.90 562.24 601.53 561.69 608.01 562.91 C 617.64 564.08 628.16 566.43 634.69 574.25 C 640.88 581.37 642.79 590.99 644.36 600.02 C 631.71 595.19 618.25 593.04 605.07 590.11 C 564.16 582.11 522.91 574.92 481.19 573.11 C 463.41 572.35 445.57 573.18 427.89 575.19 C 423.39 575.88 418.97 576.98 414.53 577.99 C 421.11 563.41 431.12 550.65 442.82 539.84 C 457.93 526.04 474.03 513.19 491.70 502.81 C 494.01 501.42 497.06 500.81 498.59 498.44 C 498.22 498.62 497.48 499.00 497.12 499.18 C 480.45 501.23 465.12 508.57 450.74 516.86 C 450.42 517.03 449.76 517.37 449.43 517.54 C 454.64 503.70 460.33 490.03 466.39 476.53 C 474.53 458.86 482.27 441.00 490.27 423.26 C 506.51 384.97 525.65 347.69 550.10 313.95 C 554.79 307.10 559.73 300.40 565.29 294.24 C 576.32 280.71 588.35 267.78 602.66 257.66 M 615.60 433.40 C 600.22 453.26 578.00 467.41 553.88 474.09 C 567.72 475.56 582.99 475.10 594.82 466.82 C 605.90 458.64 612.07 445.80 616.58 433.14 C 616.33 433.20 615.84 433.34 615.60 433.40 Z" />
<path fill="#fefefe" opacity="1.00" d=" M 426.87 586.64 C 456.23 582.75 485.98 583.54 515.43 585.87 C 549.34 588.83 583.18 593.73 616.14 602.38 C 625.26 604.95 634.75 607.09 642.93 612.06 C 649.93 616.26 653.55 624.15 655.51 631.78 C 641.23 625.56 626.33 620.86 611.17 617.30 C 588.12 611.78 564.68 608.07 541.13 605.47 C 498.62 600.77 455.30 599.66 413.01 607.02 C 408.05 607.85 403.11 608.79 398.13 609.48 C 400.65 601.71 404.15 592.62 412.42 589.47 C 417.03 587.72 422.05 587.51 426.87 586.64 Z" />
<path fill="#fefefe" opacity="1.00" d=" M 401.04 617.07 C 437.13 612.27 473.69 610.56 510.04 612.91 C 552.65 615.34 595.44 620.77 636.11 634.16 C 641.34 636.32 646.98 637.43 652.06 639.98 C 651.35 640.09 650.62 640.18 649.92 640.29 C 643.75 638.60 637.24 639.15 630.96 638.09 C 611.31 636.83 591.78 634.25 572.15 632.81 C 580.30 635.29 588.73 636.59 597.00 638.59 C 611.94 642.40 627.06 645.54 641.78 650.20 C 663.87 656.29 683.66 668.35 702.74 680.68 C 694.89 670.12 684.72 661.66 675.17 652.75 C 682.25 655.16 689.14 658.10 696.16 660.68 C 713.69 667.85 730.36 676.88 747.21 685.49 C 755.16 690.02 763.26 694.35 770.89 699.42 C 772.71 700.80 775.49 702.37 774.66 705.12 C 774.26 707.76 771.19 708.52 769.10 709.36 C 753.23 714.17 736.58 715.66 720.07 716.15 C 711.14 716.42 702.17 716.70 693.25 716.06 C 683.88 714.07 674.93 710.24 666.46 705.94 C 666.48 707.09 667.77 707.47 668.46 708.24 C 671.44 711.11 674.54 713.87 677.97 716.21 C 670.50 716.65 662.73 716.73 655.44 714.72 C 643.89 708.74 635.41 698.54 625.55 690.33 C 627.87 698.37 632.00 705.84 634.80 713.64 C 591.83 710.76 549.77 700.59 508.22 689.76 C 451.51 675.98 394.62 660.49 336.01 657.87 C 318.95 657.66 301.57 658.21 285.06 662.90 C 281.28 664.42 275.65 665.46 274.79 670.19 C 275.28 674.71 279.50 677.48 282.79 680.06 C 295.32 688.88 309.78 694.65 324.47 698.76 C 352.04 705.98 380.69 707.36 409.05 708.00 C 410.17 708.00 411.23 708.27 412.21 708.83 C 388.38 713.16 363.67 712.84 339.88 708.26 C 324.96 705.22 310.42 700.56 296.44 694.56 C 289.73 691.15 282.76 688.11 276.78 683.46 C 271.00 679.32 264.88 674.27 263.35 666.95 C 262.21 661.77 266.97 658.31 270.62 655.67 C 279.21 650.38 288.56 646.40 298.13 643.25 C 331.58 631.56 365.97 622.33 401.04 617.07 Z" />
</g>
</svg>
