<?xml version="1.0" encoding="UTF-8" ?>
<!DOCTYPE svg PUBLIC "-//W3C//DTD SVG 1.1//EN" "http://www.w3.org/Graphics/SVG/1.1/DTD/svg11.dtd">
<svg viewBox="108.77 52.86 848.8 848.8" version="1.1" xmlns="http://www.w3.org/2000/svg">
<g id="#fdfdfdfe">
<path fill="#fdfdfd" opacity="1.00" d=" M 824.86 76.88 C 827.71 78.39 829.17 81.40 831.54 83.46 C 837.93 89.75 841.53 99.13 839.12 108.00 C 837.09 113.86 832.66 118.47 830.30 124.18 C 827.98 129.85 827.67 136.71 831.06 142.04 C 832.57 144.23 833.84 147.53 836.88 147.80 C 843.81 145.30 844.98 137.11 849.34 132.05 C 850.75 133.21 850.54 135.23 850.66 136.87 C 849.61 147.19 845.91 156.95 842.91 166.80 C 837.60 179.04 830.85 190.86 821.68 200.64 C 817.93 205.66 812.64 209.06 807.67 212.72 C 806.63 213.48 805.34 213.67 804.16 214.04 C 805.46 208.53 807.23 203.11 810.12 198.22 C 813.31 193.30 815.71 187.94 818.76 182.94 C 812.02 188.20 804.17 192.00 797.96 197.93 C 795.58 200.85 792.94 203.56 790.58 206.50 C 788.79 213.20 789.42 220.21 789.38 227.06 C 788.77 240.99 781.53 253.63 772.13 263.57 C 771.05 263.63 769.97 263.69 768.90 263.75 C 764.59 271.20 761.26 279.20 756.38 286.32 C 748.53 299.73 738.74 311.88 728.46 323.49 C 720.33 333.81 709.87 341.99 701.40 352.01 C 705.80 349.48 710.87 348.84 715.72 347.64 C 719.94 346.71 722.89 343.00 727.08 342.04 C 725.12 346.45 722.03 350.26 719.04 354.02 C 709.05 367.28 699.35 380.83 687.86 392.86 C 679.06 401.05 669.27 408.26 658.35 413.36 C 652.92 416.75 647.03 419.92 643.24 425.23 C 640.71 427.85 638.89 431.01 637.16 434.18 C 643.55 431.56 649.64 428.19 655.36 424.30 C 657.13 423.14 658.45 421.31 660.48 420.56 C 658.79 426.43 654.58 431.17 651.16 436.12 C 644.43 445.76 633.98 451.91 623.40 456.49 C 618.79 458.51 615.08 462.06 611.81 465.79 C 606.34 471.59 602.01 478.33 597.62 484.94 C 606.76 482.02 613.28 474.62 620.60 468.87 C 620.66 475.22 617.21 480.76 614.32 486.17 C 611.60 491.35 606.67 494.75 602.10 498.16 C 595.06 502.69 587.55 506.41 580.04 510.08 C 568.27 516.77 556.44 525.55 551.79 538.82 C 555.39 537.83 558.25 535.39 560.77 532.74 C 566.03 526.36 574.41 524.20 581.75 521.16 C 581.54 524.73 577.85 526.31 575.98 528.98 C 569.85 536.47 564.68 544.95 556.68 550.69 C 551.40 554.75 545.15 557.17 539.41 560.46 C 536.46 562.29 532.62 562.55 530.19 565.20 C 523.48 571.69 519.50 580.34 513.10 587.10 C 523.51 588.30 534.58 585.54 542.54 578.54 C 544.71 576.80 546.18 574.17 548.75 573.00 C 546.71 580.78 541.81 587.57 536.32 593.34 C 532.52 596.46 528.29 599.17 523.69 600.96 C 516.78 603.11 509.04 602.95 502.79 606.97 C 499.87 608.61 498.36 611.77 496.29 614.27 C 494.47 617.01 492.28 619.88 492.22 623.31 C 494.78 623.51 497.30 624.01 499.72 624.90 C 496.91 627.18 495.79 630.75 493.34 633.33 C 487.39 639.85 480.67 645.82 472.83 649.98 C 467.69 652.39 462.08 653.54 456.54 654.62 C 454.70 655.48 452.75 655.83 450.76 655.36 C 450.70 654.90 450.57 654.00 450.51 653.55 C 457.79 647.99 466.16 644.15 474.18 639.82 C 470.02 638.93 466.09 641.04 461.99 641.30 C 455.91 641.43 450.37 644.36 445.17 647.24 C 440.00 650.01 436.56 654.89 432.66 659.12 C 427.38 656.17 428.22 648.70 429.43 643.65 C 431.46 631.50 433.69 618.77 440.96 608.49 C 435.88 612.52 430.36 616.06 424.30 618.42 C 421.06 619.59 417.45 619.71 414.27 618.32 C 415.67 612.35 414.41 606.37 414.48 600.35 C 417.77 601.52 421.28 601.66 424.71 602.19 C 431.69 600.26 437.59 595.63 442.74 590.68 C 450.94 584.68 458.13 577.44 464.94 569.93 C 466.52 568.36 467.96 566.49 470.15 565.75 C 470.76 571.51 469.40 577.29 467.91 582.82 C 466.61 586.31 465.25 590.22 461.72 592.04 C 460.34 590.22 460.72 587.95 460.64 585.84 C 459.07 589.68 456.32 592.98 455.33 597.06 C 453.44 604.04 450.98 610.90 447.38 617.19 C 443.84 623.60 441.28 630.47 439.22 637.48 C 449.26 629.84 456.68 619.42 466.32 611.31 C 479.06 600.76 490.77 589.05 501.63 576.60 C 518.93 555.90 536.60 535.51 553.23 514.25 C 562.55 502.95 572.71 492.36 581.76 480.85 C 587.34 474.07 592.85 467.23 598.29 460.34 C 607.58 449.60 616.68 438.69 625.63 427.66 C 631.18 421.80 635.44 414.89 640.69 408.76 C 647.23 401.54 652.63 393.39 658.56 385.67 C 664.57 377.91 669.50 369.38 675.62 361.71 C 681.94 352.72 688.95 344.23 694.97 335.03 C 704.15 324.13 712.52 312.59 721.52 301.55 C 729.73 290.66 737.98 279.75 744.80 267.92 C 750.31 260.31 755.06 252.19 760.26 244.37 C 763.76 238.25 766.16 231.60 769.01 225.17 C 770.23 221.12 770.91 216.92 771.49 212.74 C 766.20 219.97 759.47 225.90 753.78 232.78 C 745.07 242.07 736.25 251.39 725.99 258.99 C 718.95 264.93 711.26 270.09 704.71 276.59 C 702.69 279.03 703.36 282.28 703.49 285.19 C 705.03 285.43 706.57 285.79 708.00 286.48 C 713.04 284.82 717.50 281.97 721.20 278.17 C 728.15 273.27 733.14 266.29 739.36 260.62 C 740.04 260.49 741.38 260.23 742.06 260.10 C 739.09 267.59 734.46 274.19 729.60 280.56 C 721.63 291.80 712.59 302.22 703.95 312.95 C 698.52 320.16 694.13 328.26 687.47 334.48 C 685.60 336.17 684.35 338.58 682.02 339.69 C 683.48 333.54 687.55 328.18 688.71 321.91 C 688.83 318.32 687.65 314.34 690.01 311.21 C 689.35 311.37 688.02 311.69 687.36 311.85 C 687.53 309.79 688.39 307.92 689.68 306.32 C 688.81 305.61 687.96 304.89 687.13 304.17 C 686.75 298.75 689.65 293.94 690.59 288.74 C 690.57 286.44 690.38 284.15 690.72 281.87 C 691.20 282.39 692.15 283.44 692.63 283.97 C 693.67 280.01 695.91 276.63 698.99 273.96 C 692.77 278.43 686.14 282.34 680.31 287.32 C 676.25 291.28 674.21 297.23 674.74 302.81 C 676.56 308.32 677.26 314.20 676.38 319.96 C 673.99 328.70 669.26 336.55 663.49 343.46 C 662.03 352.89 663.61 363.11 659.02 371.85 C 656.37 376.14 654.08 380.85 650.07 384.07 C 647.67 386.02 645.88 388.84 643.06 390.15 C 643.71 387.18 645.54 384.71 646.92 382.05 C 651.31 374.10 653.37 364.82 652.45 355.76 C 652.11 353.08 651.60 350.41 651.52 347.71 C 651.18 348.31 650.86 348.92 650.56 349.54 C 650.61 345.88 651.41 341.42 648.73 338.53 C 648.56 341.05 648.71 343.58 648.47 346.10 C 646.03 355.49 641.25 364.03 636.41 372.37 C 635.08 374.29 635.27 376.66 635.38 378.87 C 636.26 378.26 637.13 377.65 638.02 377.04 C 638.58 377.18 639.71 377.46 640.28 377.60 C 640.50 379.44 640.98 381.29 640.70 383.15 C 640.22 381.58 639.92 379.96 639.44 378.40 C 639.23 380.60 639.42 382.82 639.37 385.03 C 634.51 394.17 624.73 399.04 615.46 402.60 C 613.13 403.36 611.66 405.38 609.84 406.88 C 604.20 410.46 600.39 416.21 596.82 421.72 C 592.79 430.13 592.19 440.00 586.88 447.85 C 583.14 451.97 579.71 456.41 575.55 460.14 C 574.95 460.35 573.75 460.76 573.15 460.97 C 574.47 456.09 577.42 451.90 579.27 447.24 C 580.02 442.69 579.73 438.00 579.53 433.40 C 578.17 429.24 576.45 425.12 573.77 421.62 C 575.39 428.54 574.91 436.07 571.52 442.42 C 568.24 448.57 563.49 453.76 559.16 459.18 C 553.93 464.63 547.53 468.84 542.56 474.57 C 538.94 478.92 534.45 482.65 531.90 487.80 C 530.04 491.12 528.99 494.79 528.32 498.52 C 528.82 498.10 529.84 497.24 530.35 496.82 C 530.44 496.06 530.64 494.54 530.74 493.78 C 532.12 497.77 532.02 502.25 530.11 506.06 C 528.01 509.56 524.69 512.04 521.74 514.78 C 519.74 516.52 517.70 518.45 514.99 518.92 C 516.16 515.06 518.87 511.81 519.65 507.80 C 520.67 503.92 520.70 499.88 520.32 495.92 C 520.01 492.07 522.04 488.64 523.05 485.06 C 519.34 490.29 513.93 493.93 510.06 499.03 C 507.31 502.37 505.11 506.11 502.89 509.82 C 500.46 514.95 500.29 520.77 498.25 526.04 C 493.79 535.51 485.92 543.04 476.92 548.22 C 474.78 548.64 472.58 548.25 470.43 548.33 C 469.40 544.67 473.80 543.70 476.04 541.98 C 479.72 539.08 484.22 536.89 486.67 532.74 C 489.50 528.47 491.38 523.09 490.24 517.95 C 488.49 513.00 486.82 508.01 485.55 502.91 C 485.32 514.97 478.69 526.00 469.54 533.53 C 465.69 537.05 462.00 540.78 457.78 543.87 C 454.33 546.14 452.38 549.96 450.73 553.61 C 449.41 559.84 450.14 566.46 447.58 572.42 C 444.54 579.41 438.56 584.47 432.99 589.41 C 431.21 589.65 429.40 589.66 427.61 589.72 C 429.84 585.10 433.70 581.43 435.42 576.53 C 438.84 566.36 438.57 554.97 433.99 545.18 C 435.79 551.19 432.88 556.90 430.29 562.18 C 427.42 566.89 423.41 570.99 418.46 573.51 C 414.41 575.93 409.31 577.93 407.98 582.98 C 405.98 591.78 409.38 601.50 405.05 609.86 C 402.03 616.16 394.64 618.13 388.45 619.76 C 391.03 615.24 391.47 610.02 392.45 605.02 C 392.55 600.35 391.15 595.73 389.24 591.51 C 385.37 583.80 378.07 578.87 372.41 572.63 C 372.17 580.20 374.77 587.50 374.84 595.04 C 368.00 588.82 364.30 579.92 362.73 570.96 C 361.50 562.36 365.12 553.94 370.16 547.17 C 376.39 540.42 383.31 534.32 389.58 527.62 C 393.27 522.27 396.65 515.59 395.01 508.93 C 394.54 505.61 393.32 502.49 392.27 499.34 C 399.57 503.85 404.00 512.40 404.03 520.87 C 403.30 525.64 402.27 530.45 399.67 534.59 C 396.22 541.23 389.25 545.55 386.99 552.88 C 385.44 557.27 386.19 562.27 388.99 566.00 C 390.68 567.68 393.02 568.41 395.06 569.56 C 395.52 562.41 398.72 555.94 401.60 549.52 C 402.04 549.18 402.91 548.49 403.35 548.14 C 403.00 553.89 404.48 559.53 406.22 564.95 C 410.35 564.92 413.17 561.47 415.20 558.26 C 418.81 552.77 420.97 545.67 418.77 539.22 C 417.43 534.05 414.43 529.38 413.75 524.05 C 412.76 515.14 417.50 506.69 423.66 500.62 C 429.85 495.57 436.49 491.07 442.25 485.50 C 442.25 486.20 442.21 486.90 442.14 487.60 C 439.01 493.21 436.32 499.11 434.33 505.21 C 432.62 510.22 434.60 515.43 437.29 519.68 C 439.71 519.47 442.55 520.34 444.49 518.42 C 447.87 516.25 448.85 512.24 449.97 508.66 C 450.52 508.65 451.63 508.62 452.19 508.61 C 453.61 515.29 449.77 521.70 445.99 526.92 C 445.33 528.31 443.84 528.53 442.52 528.91 C 441.85 532.74 443.20 536.38 443.99 540.06 C 446.25 536.61 445.98 531.95 449.00 528.97 C 451.97 525.49 456.41 523.77 459.69 520.61 C 462.18 518.04 466.22 517.43 468.10 514.22 C 474.61 505.31 472.85 493.49 471.51 483.27 C 471.62 487.62 469.83 491.70 469.52 496.02 C 469.08 495.78 468.19 495.30 467.75 495.06 C 467.42 489.73 466.27 484.47 464.63 479.40 C 464.18 475.87 464.09 472.26 464.58 468.73 C 467.25 458.41 475.25 450.69 483.47 444.44 C 487.94 440.30 493.12 436.36 495.23 430.40 C 496.59 426.09 497.45 421.61 497.63 417.09 L 499.08 416.34 C 500.73 420.14 500.69 424.36 501.54 428.37 C 502.73 434.87 500.61 441.48 496.98 446.86 C 493.78 452.81 487.84 456.87 485.34 463.25 C 484.23 465.67 484.31 468.40 484.31 471.01 C 483.85 475.63 487.43 479.39 490.67 482.22 C 494.48 483.04 498.46 482.69 501.60 480.22 C 502.00 476.31 500.58 472.68 499.59 469.01 C 500.31 458.06 507.54 449.38 514.37 441.42 C 521.16 433.68 525.13 423.03 523.19 412.74 C 520.93 403.79 517.58 395.16 514.17 386.59 C 514.13 389.31 514.68 392.00 514.73 394.71 C 514.34 398.26 513.09 401.66 511.76 404.96 C 511.82 399.87 510.00 395.02 509.71 389.99 C 510.43 381.60 514.55 373.98 518.81 366.88 C 523.38 360.79 529.35 355.92 535.36 351.31 C 539.03 348.84 542.84 346.45 547.12 345.21 C 544.78 348.73 541.10 351.24 539.20 355.11 C 533.92 363.36 531.76 373.59 534.05 383.18 C 534.96 386.90 536.82 390.50 539.84 392.95 C 544.49 389.71 547.02 384.52 548.72 379.27 C 549.38 380.50 550.61 381.59 550.34 383.13 C 550.21 387.72 550.59 392.33 550.21 396.91 C 547.67 404.04 543.78 411.27 537.33 415.56 C 536.04 421.83 537.03 428.42 534.62 434.47 C 531.85 444.06 522.56 449.21 516.77 456.72 C 514.18 459.74 514.25 463.82 514.29 467.57 C 517.13 467.55 520.34 468.45 522.85 466.67 C 527.24 464.13 529.60 459.40 532.17 455.23 C 535.17 450.28 536.49 444.43 539.75 439.65 C 541.00 444.84 540.12 450.20 540.84 455.44 C 548.31 447.39 552.96 436.82 554.46 425.98 C 554.95 415.09 555.93 404.05 559.67 393.72 C 563.51 387.16 568.36 380.77 575.15 377.04 C 585.22 371.35 595.56 365.60 603.44 356.96 C 604.01 356.68 605.15 356.14 605.72 355.87 C 605.28 361.14 601.61 365.41 598.72 369.63 C 594.53 376.58 588.03 381.65 582.58 387.53 C 580.75 390.63 578.78 394.18 579.65 397.91 C 579.19 398.37 578.26 399.27 577.80 399.73 C 578.30 399.33 579.31 398.55 579.82 398.16 C 585.12 400.86 592.01 400.18 596.95 396.88 C 605.98 391.00 616.39 384.29 618.48 372.83 C 619.75 368.06 613.28 365.53 614.50 360.84 C 621.21 360.38 625.06 354.10 627.33 348.49 C 630.82 340.25 631.33 331.11 630.46 322.30 C 629.59 319.18 629.74 315.94 629.56 312.75 C 628.01 316.54 626.82 320.49 624.89 324.13 C 621.28 321.02 621.19 315.66 621.43 311.26 C 622.25 303.95 626.90 297.95 631.21 292.29 C 634.37 288.43 638.46 285.50 642.05 282.08 C 645.88 278.38 650.67 275.96 655.04 272.99 C 657.55 271.07 660.16 269.27 663.05 267.96 C 661.84 271.66 658.99 274.55 656.80 277.71 C 652.84 281.91 649.55 286.80 647.23 292.08 C 645.94 297.95 645.18 304.79 649.03 309.91 C 652.41 314.57 660.40 312.10 661.66 306.79 C 664.06 298.28 666.82 289.47 672.51 282.54 C 679.04 276.70 684.22 269.61 690.57 263.59 C 693.15 260.84 695.54 257.90 697.90 254.95 C 700.31 251.23 702.51 247.34 705.68 244.19 C 706.68 245.01 707.70 245.82 708.77 246.57 C 708.69 248.98 708.33 251.37 707.47 253.63 C 710.94 250.23 713.96 246.21 715.34 241.49 C 717.04 235.17 718.46 228.75 719.40 222.26 C 720.11 215.85 719.35 209.36 719.90 202.95 C 720.17 202.44 720.71 201.42 720.99 200.90 C 724.99 206.00 728.35 211.76 730.07 218.04 C 731.66 226.22 730.19 234.81 726.52 242.24 C 732.46 237.34 738.41 232.37 743.29 226.37 C 746.01 221.93 745.98 216.51 745.48 211.50 C 744.46 214.14 744.89 217.00 744.45 219.74 C 743.81 215.32 745.81 210.54 743.38 206.47 C 739.92 199.40 738.85 190.74 742.38 183.49 C 746.02 175.27 753.46 169.80 760.07 164.09 C 763.94 160.28 768.43 156.66 770.28 151.35 C 772.81 145.88 771.14 139.78 771.17 134.03 C 776.27 139.26 781.55 145.52 781.61 153.24 C 781.98 156.87 780.43 160.36 778.16 163.12 C 773.64 168.61 768.03 173.06 762.62 177.62 C 758.94 181.04 756.83 185.91 757.35 190.96 C 756.92 193.92 759.36 196.00 760.88 198.22 C 761.88 199.84 763.99 199.89 765.59 200.62 C 768.30 197.67 770.14 194.01 770.56 190.01 C 772.79 188.48 774.95 186.48 777.80 186.34 C 782.68 185.68 787.81 184.01 791.02 180.05 C 795.37 174.75 796.81 167.88 799.66 161.80 C 800.20 160.02 801.86 159.24 803.55 158.85 C 804.02 161.65 803.26 164.37 802.65 167.08 C 802.98 170.01 802.89 173.58 805.84 175.20 C 811.59 171.87 815.36 166.29 818.36 160.52 C 821.09 153.86 821.17 145.89 817.23 139.69 C 814.50 135.83 812.69 131.42 811.19 126.96 C 809.53 129.86 808.31 133.08 805.92 135.50 C 804.16 130.78 806.03 125.53 808.15 121.22 C 811.44 114.60 818.81 111.92 823.65 106.71 C 823.56 104.76 823.73 102.83 824.07 100.92 C 824.28 101.66 824.70 103.14 824.92 103.89 C 829.68 95.60 827.58 85.50 824.86 76.88 M 678.82 376.78 C 674.97 381.78 672.10 387.42 669.05 392.92 C 674.25 389.32 679.74 385.79 683.63 380.72 C 685.83 375.60 688.52 370.73 691.31 365.91 C 687.38 369.81 682.46 372.59 678.82 376.78 M 473.09 611.12 C 467.15 616.28 459.91 621.35 458.03 629.46 C 461.73 628.14 465.75 628.44 469.52 627.37 C 472.33 626.16 475.09 624.50 476.74 621.85 C 480.34 616.69 483.42 611.09 485.24 605.05 C 480.89 606.41 476.56 608.09 473.09 611.12 Z" />
<path fill="#fdfdfd" opacity="1.00" d=" M 792.58 118.13 C 794.54 113.16 797.51 108.67 801.20 104.81 C 803.09 107.33 803.02 110.85 801.68 113.60 C 799.99 117.31 797.63 121.18 793.82 122.93 C 792.07 122.02 792.62 119.72 792.58 118.13 Z" />
<path fill="#fdfdfd" opacity="1.00" d=" M 690.42 181.43 C 692.08 180.15 693.56 178.46 695.77 178.15 C 691.40 186.11 685.32 194.70 687.73 204.26 C 690.61 212.32 697.65 218.58 698.60 227.40 C 698.99 234.10 696.53 240.98 691.95 245.91 C 687.54 251.09 683.45 257.11 677.12 260.06 C 677.71 255.21 681.15 251.01 680.73 245.95 C 681.39 239.55 677.76 233.82 673.93 229.05 C 669.86 224.26 667.49 217.69 669.14 211.45 C 670.10 206.10 672.65 201.22 675.81 196.86 C 680.06 191.18 684.82 185.82 690.42 181.43 Z" />
<path fill="#fdfdfd" opacity="1.00" d=" M 804.34 233.03 C 805.91 232.21 807.47 231.37 808.96 230.38 C 809.68 230.61 811.12 231.06 811.84 231.29 C 811.96 233.47 811.32 235.55 809.86 237.20 C 808.48 237.44 807.10 237.58 805.72 237.62 C 805.22 236.10 804.73 234.57 804.34 233.03 Z" />
<path fill="#fdfdfd" opacity="1.00" d=" M 652.92 251.30 C 655.86 245.72 660.55 241.12 661.84 234.74 C 665.66 238.40 664.95 243.95 664.12 248.63 C 662.10 252.14 660.69 258.15 655.64 257.87 C 654.25 255.94 651.37 253.96 652.92 251.30 Z" />
<path fill="#fdfdfd" opacity="1.00" d=" M 604.64 259.64 C 609.38 254.39 610.79 247.18 612.91 240.70 C 615.07 248.35 616.24 257.70 624.07 261.86 C 625.77 263.66 629.74 262.85 629.97 265.70 C 628.13 266.03 626.29 266.26 624.46 266.53 C 622.02 267.99 619.71 269.71 617.72 271.74 C 615.01 276.00 615.13 281.32 613.01 285.83 C 611.19 281.89 611.11 277.42 609.33 273.49 C 607.19 268.51 601.56 266.37 596.65 265.29 C 598.80 262.72 602.14 261.76 604.64 259.64 Z" />
<path fill="#fdfdfd" opacity="1.00" d=" M 781.73 268.71 C 788.76 266.77 793.81 261.13 799.59 257.00 C 800.35 264.76 793.51 269.83 788.34 274.36 C 784.21 276.91 779.36 278.56 774.49 278.65 C 774.22 274.13 777.55 270.07 781.73 268.71 Z" />
<path fill="#fdfdfd" opacity="1.00" d=" M 585.22 314.94 C 585.62 306.60 590.15 298.85 595.56 292.79 C 594.34 298.65 594.87 304.75 596.65 310.46 C 598.58 315.16 600.69 319.79 602.46 324.56 C 604.71 330.90 602.70 337.80 599.57 343.47 C 597.67 347.48 594.37 350.57 592.25 354.45 C 591.21 354.49 590.18 354.55 589.15 354.63 C 591.83 349.46 592.01 343.63 592.50 337.97 C 591.97 333.02 590.77 328.05 588.27 323.71 C 586.98 320.92 585.09 318.14 585.22 314.94 Z" />
<path fill="#fdfdfd" opacity="1.00" d=" M 764.18 297.82 C 765.28 295.92 767.36 296.36 769.20 296.49 C 769.26 297.42 769.39 299.27 769.45 300.19 C 767.90 301.03 766.27 301.73 764.48 301.54 C 764.40 300.61 764.25 298.75 764.18 297.82 Z" />
<path fill="#fdfdfd" opacity="1.00" d=" M 754.31 332.25 C 759.52 330.50 763.84 326.80 768.98 325.03 C 766.82 329.84 763.13 333.80 759.33 337.38 C 755.07 340.94 750.93 344.82 745.83 347.16 C 743.33 347.53 740.81 347.59 738.31 347.81 C 738.38 344.94 738.25 341.69 740.61 339.61 C 743.91 335.21 749.38 333.89 754.31 332.25 Z" />
<path fill="#fdfdfd" opacity="1.00" d=" M 568.16 351.20 C 572.00 346.32 574.98 340.74 576.87 334.82 C 578.17 336.45 580.09 337.84 580.44 340.03 C 578.89 349.00 572.57 357.69 563.37 359.79 C 562.41 355.80 565.76 353.63 568.16 351.20 Z" />
<path fill="#fdfdfd" opacity="1.00" d=" M 671.06 346.99 C 671.69 346.12 672.34 345.26 672.96 344.38 C 673.91 345.97 674.89 347.55 675.82 349.17 C 674.45 350.07 673.10 351.00 671.77 351.93 C 671.52 350.28 671.30 348.63 671.06 346.99 Z" />
<path fill="#fdfdfd" opacity="1.00" d=" M 729.45 375.02 C 728.93 371.18 731.91 368.36 734.00 365.54 C 734.73 369.13 738.25 370.33 741.07 371.91 C 739.00 373.40 737.02 375.02 734.90 376.43 C 732.92 377.39 731.03 376.09 729.45 375.02 Z" />
<path fill="#fdfdfd" opacity="1.00" d=" M 596.85 382.25 C 598.56 383.38 600.36 384.45 602.36 385.00 C 600.39 385.35 598.50 386.01 596.66 386.76 C 596.67 385.25 596.73 383.75 596.85 382.25 Z" />
<path fill="#fdfdfd" opacity="1.00" d=" M 711.04 384.63 C 712.55 384.68 714.07 384.73 715.60 384.80 C 716.27 387.68 713.54 389.47 712.12 391.60 C 710.54 391.58 708.96 391.56 707.40 391.52 C 706.51 388.45 709.30 386.63 711.04 384.63 Z" />
<path fill="#fdfdfd" opacity="1.00" d=" M 485.06 394.27 C 487.25 391.19 489.94 388.51 492.16 385.45 C 493.10 389.25 494.10 393.04 494.83 396.89 C 492.30 401.02 488.47 404.09 484.12 406.13 C 483.21 405.13 482.27 404.16 481.33 403.21 C 482.67 400.27 483.61 397.15 485.06 394.27 Z" />
<path fill="#fdfdfd" opacity="1.00" d=" M 692.16 403.07 C 693.39 403.13 694.63 403.20 695.88 403.28 C 696.01 405.25 695.44 407.11 694.57 408.85 C 692.94 408.85 691.52 408.19 690.28 407.21 C 690.92 405.83 691.54 404.46 692.16 403.07 Z" />
<path fill="#fdfdfd" opacity="1.00" d=" M 607.03 421.20 C 608.74 417.47 612.41 414.06 616.73 414.17 C 616.75 419.58 613.87 424.81 609.91 428.40 C 609.06 428.56 607.37 428.88 606.52 429.04 C 604.38 426.66 606.17 423.70 607.03 421.20 Z" />
<path fill="#fdfdfd" opacity="1.00" d=" M 475.73 422.21 C 476.13 419.57 479.05 419.03 480.91 420.64 C 480.52 422.23 481.34 424.97 479.11 425.46 C 476.98 426.54 474.44 424.41 475.73 422.21 Z" />
<path fill="#fdfdfd" opacity="1.00" d=" M 451.10 433.01 L 452.65 433.63 C 455.16 437.43 457.60 441.42 458.66 445.91 C 461.52 454.20 453.40 463.48 444.79 462.57 C 444.19 460.05 442.55 457.03 444.67 454.76 C 449.50 448.68 452.64 440.87 451.10 433.01 Z" />
<path fill="#fdfdfd" opacity="1.00" d=" M 411.06 463.53 C 412.61 466.47 413.34 469.87 415.51 472.47 C 417.20 474.01 419.11 475.29 420.91 476.72 C 418.59 478.34 416.24 480.18 415.07 482.84 C 413.88 485.12 413.62 487.82 412.07 489.92 C 410.78 486.92 410.46 483.34 408.11 480.90 C 406.42 479.30 404.36 478.15 402.47 476.84 C 404.57 475.25 407.79 474.59 408.68 471.80 C 409.92 469.19 410.17 466.25 411.06 463.53 Z" />
<path fill="#fdfdfd" opacity="1.00" d=" M 553.20 477.12 C 557.62 472.79 564.25 472.97 570.00 472.42 C 566.47 475.42 563.06 478.55 559.41 481.40 C 556.21 485.28 553.22 489.45 548.80 492.07 C 545.78 486.82 548.89 480.54 553.20 477.12 Z" />
<path fill="#fdfdfd" opacity="1.00" d=" M 503.90 543.89 C 510.48 537.76 514.66 529.60 521.24 523.46 C 522.78 526.94 520.89 530.43 519.66 533.65 C 516.18 542.40 508.54 548.94 500.02 552.58 C 499.26 552.19 497.75 551.41 497.00 551.03 C 498.29 547.84 501.67 546.33 503.90 543.89 Z" />
<path fill="#fdfdfd" opacity="1.00" d=" M 481.24 565.08 C 483.26 563.03 484.78 559.37 488.29 560.40 C 488.62 561.05 489.28 562.37 489.60 563.02 C 489.07 564.16 488.55 565.31 488.05 566.47 C 485.72 566.44 482.96 567.11 481.24 565.08 Z" />
<path fill="#fdfdfd" opacity="1.00" d=" M 344.70 602.15 C 350.12 605.65 354.32 610.69 359.79 614.11 C 365.28 617.58 370.56 621.39 376.19 624.64 C 380.06 626.31 384.19 627.30 388.14 628.79 C 389.11 631.95 389.73 635.19 389.60 638.52 C 384.70 639.03 379.99 637.17 375.37 635.84 C 367.32 633.37 361.59 626.48 353.55 624.04 C 354.81 625.98 356.00 627.97 357.13 630.00 C 361.26 636.41 368.15 640.30 372.69 646.38 C 376.29 651.35 381.69 654.74 384.65 660.20 C 382.48 660.94 380.58 663.04 378.13 662.46 C 370.45 658.68 365.17 651.68 359.00 645.98 C 352.62 638.50 343.98 633.32 335.10 629.30 C 338.81 625.10 340.77 619.70 342.14 614.36 C 343.17 610.33 344.50 606.33 344.70 602.15 Z" />
<path fill="#fdfdfd" opacity="1.00" d=" M 381.19 603.54 C 382.87 603.23 384.08 606.32 382.16 606.82 C 380.32 607.26 379.56 604.18 381.19 603.54 Z" />
<path fill="#fdfdfd" opacity="1.00" d=" M 424.93 623.50 C 428.49 623.19 428.35 617.68 431.75 617.38 C 431.35 621.92 428.90 625.98 427.50 630.29 C 423.61 637.86 425.04 647.76 418.82 654.15 C 413.27 656.62 406.55 657.77 402.47 662.66 C 408.37 662.20 414.17 660.92 419.98 659.85 C 422.62 659.18 425.24 660.86 426.84 662.87 C 425.95 664.31 425.56 666.23 423.89 667.02 C 418.56 670.16 412.52 671.74 406.82 674.03 C 404.19 674.80 403.16 677.60 401.55 679.55 C 401.47 681.71 401.64 683.93 400.35 685.82 C 397.22 685.21 394.09 684.59 390.94 684.09 C 388.39 682.84 385.98 681.35 383.43 680.12 C 383.51 678.54 383.61 676.96 383.71 675.40 C 388.67 677.97 393.04 681.58 398.14 683.95 C 398.35 682.44 398.50 680.93 398.68 679.42 C 393.75 678.20 389.29 675.67 385.13 672.84 C 382.91 670.15 381.22 667.01 379.94 663.77 C 382.75 662.35 385.66 661.05 388.30 659.33 C 390.74 656.51 390.87 652.65 391.79 649.21 C 392.94 645.73 392.12 641.90 393.69 638.53 C 395.16 635.38 395.84 631.94 395.29 628.47 C 401.09 629.33 406.82 627.99 412.56 627.47 C 416.71 626.22 420.62 624.22 424.93 623.50 M 422.58 626.54 C 418.50 629.20 415.72 633.72 410.96 635.33 C 408.21 636.25 405.45 637.28 402.56 637.64 C 403.65 641.54 403.95 645.87 402.26 649.66 C 403.79 648.61 405.43 647.72 407.16 647.04 C 410.95 645.51 413.80 642.48 416.67 639.69 C 420.91 635.81 422.28 629.57 427.38 626.51 C 425.78 626.48 424.17 626.35 422.58 626.54 Z" />
<path fill="#fdfdfd" opacity="1.00" d=" M 520.93 620.79 C 524.69 620.36 526.85 616.43 530.64 616.06 C 530.91 621.23 526.18 624.59 522.97 627.98 C 518.92 631.95 512.24 631.16 508.84 635.88 C 506.97 630.98 505.43 625.45 507.69 620.40 C 512.16 619.95 516.52 622.16 520.93 620.79 Z" />
<path fill="#fdfdfd" opacity="1.00" d=" M 471.02 658.61 C 478.63 658.33 484.57 652.56 491.99 651.55 C 495.36 651.32 498.70 651.90 501.96 652.70 C 500.02 655.92 496.11 657.12 493.04 659.03 C 487.21 661.29 481.32 663.94 475.00 664.30 C 471.15 664.01 467.16 663.22 463.90 661.05 C 465.44 658.79 468.62 659.09 471.02 658.61 Z" />
<path fill="#fdfdfd" opacity="1.00" d=" M 366.08 667.38 C 371.86 670.79 372.01 678.73 376.96 683.02 C 381.64 688.59 388.65 691.09 395.34 693.32 C 397.05 693.82 398.52 694.86 400.06 695.76 C 399.40 698.67 396.50 699.98 394.14 701.32 C 392.10 702.35 390.28 703.91 388.03 704.45 C 379.88 702.77 371.88 698.94 366.62 692.32 C 363.72 688.79 362.81 684.19 361.71 679.89 C 361.87 675.40 364.18 671.34 366.08 667.38 Z" />
<path fill="#fdfdfd" opacity="1.00" d=" M 423.92 671.72 C 429.40 670.44 435.13 668.13 440.77 669.94 C 447.86 674.79 453.04 681.91 459.47 687.57 C 463.29 691.50 468.55 693.81 471.82 698.30 C 466.92 699.21 462.10 700.57 457.57 702.64 C 453.91 704.83 450.83 707.85 447.81 710.82 C 441.13 704.02 432.00 700.84 423.91 696.16 C 418.58 693.07 412.31 691.57 407.65 687.39 C 406.23 686.19 404.76 685.06 403.32 683.91 C 403.71 682.82 404.11 681.74 404.51 680.66 C 406.55 680.00 408.38 678.90 409.99 677.50 C 416.76 682.28 424.75 684.79 431.84 689.00 C 436.99 691.73 442.63 693.33 447.91 695.76 C 448.21 695.33 448.80 694.48 449.10 694.06 C 445.36 688.71 439.74 685.32 435.07 680.89 C 431.12 677.87 426.12 676.82 421.46 675.36 C 422.29 674.14 423.10 672.93 423.92 671.72 Z" />
<path fill="#fdfdfd" opacity="1.00" d=" M 358.20 685.04 C 358.58 683.67 359.96 682.88 360.80 681.80 C 358.61 685.84 360.64 690.70 362.35 694.59 C 368.58 700.50 376.18 705.88 384.99 706.72 C 383.92 708.26 382.85 709.80 381.83 711.38 C 375.56 709.50 368.33 711.62 362.43 708.62 C 360.61 703.49 360.72 697.99 359.43 692.75 C 358.84 690.21 358.34 687.64 358.20 685.04 Z" />
<path fill="#fdfdfd" opacity="1.00" d=" M 343.48 705.05 C 348.26 699.54 351.93 693.20 356.46 687.51 C 354.46 690.37 356.04 693.72 356.23 696.85 C 356.49 700.91 357.73 704.80 358.72 708.73 C 353.72 708.03 348.73 707.14 343.66 707.25 C 343.61 706.70 343.53 705.60 343.48 705.05 Z" />
<path fill="#fdfdfd" opacity="1.00" d=" M 326.19 726.65 C 330.75 720.71 335.36 714.78 340.21 709.08 C 341.94 714.67 342.29 720.64 343.90 726.32 C 337.99 726.30 332.07 726.10 326.19 726.65 Z" />
<path fill="#fdfdfd" opacity="1.00" d=" M 344.51 710.57 C 349.57 711.39 354.69 711.81 359.73 712.82 C 360.83 717.35 361.78 721.93 362.98 726.46 C 357.91 726.21 352.83 726.20 347.76 726.34 C 345.86 721.30 345.69 715.80 344.51 710.57 Z" />
<path fill="#fdfdfd" opacity="1.00" d=" M 363.44 713.06 C 368.22 713.74 373.04 713.74 377.86 713.74 C 373.54 717.79 370.13 722.68 365.87 726.78 C 366.05 722.05 364.48 717.59 363.44 713.06 Z" />
<path fill="#fdfdfd" opacity="1.00" d=" M 305.68 751.81 C 311.73 743.88 318.21 736.27 324.40 728.45 C 323.61 734.82 326.24 740.85 326.76 747.14 C 319.55 747.83 312.69 750.25 305.68 751.81 Z" />
<path fill="#fdfdfd" opacity="1.00" d=" M 326.64 730.41 C 332.56 730.71 338.38 729.37 344.30 729.68 C 345.89 734.12 346.71 738.78 347.84 743.35 C 342.05 743.92 336.43 745.51 330.71 746.47 C 329.87 741.01 329.10 735.42 326.64 730.41 Z" />
<path fill="#fdfdfd" opacity="1.00" d=" M 348.19 729.61 C 353.12 729.78 358.05 729.81 362.98 729.53 C 359.91 734.53 356.48 739.61 351.99 743.41 C 350.91 738.76 349.72 734.13 348.19 729.61 Z" />
<path fill="#fdfdfd" opacity="1.00" d=" M 331.08 749.78 C 337.87 749.40 344.36 747.21 350.86 745.38 C 350.03 748.62 346.80 750.31 345.17 753.11 C 341.28 757.66 338.70 763.42 333.79 767.01 C 333.10 761.24 332.48 755.43 331.08 749.78 Z" />
<path fill="#fdfdfd" opacity="1.00" d=" M 333.48 747.18 C 334.68 746.24 335.34 746.48 335.45 747.89 C 334.21 748.81 333.56 748.57 333.48 747.18 Z" />
<path fill="#fdfdfd" opacity="1.00" d=" M 306.66 755.05 C 313.49 753.04 320.54 752.11 327.46 750.51 C 328.57 756.76 329.88 762.98 330.72 769.27 C 323.81 770.95 316.84 772.50 309.81 773.53 C 309.67 767.25 308.12 761.12 306.66 755.05 Z" />
<path fill="#fdfdfd" opacity="1.00" d=" M 282.98 779.69 C 289.40 771.31 296.62 763.55 303.14 755.25 C 304.87 761.46 304.98 768.00 306.60 774.25 C 298.77 776.25 290.77 777.52 282.98 779.69 Z" />
<path fill="#fdfdfd" opacity="1.00" d=" M 310.32 777.66 C 316.58 776.35 322.89 775.28 329.03 773.39 C 324.10 782.55 315.43 789.36 311.51 799.06 C 311.94 791.91 311.77 784.70 310.32 777.66 Z" />
<path fill="#fdfdfd" opacity="1.00" d=" M 284.44 782.88 C 291.81 781.76 299.05 779.89 306.32 778.25 C 307.54 780.98 307.21 783.97 307.57 786.87 C 308.09 790.91 308.73 794.93 309.43 798.95 C 308.48 801.35 305.51 801.88 303.31 801.06 C 294.82 798.14 287.60 791.27 284.44 782.88 Z" />
<path fill="#fdfdfd" opacity="1.00" d=" M 270.34 787.68 C 273.91 786.11 277.50 784.57 281.18 783.29 C 282.96 791.47 289.26 797.55 296.11 801.82 C 298.93 803.37 301.94 804.67 305.22 804.73 C 303.44 807.80 301.45 810.80 298.86 813.26 C 292.23 814.95 286.43 810.38 281.79 806.23 C 276.54 801.13 271.74 795.06 270.34 787.68 Z" />
<path fill="#fdfdfd" opacity="1.00" d=" M 256.57 796.83 C 258.59 794.23 260.18 791.21 262.95 789.30 C 262.84 797.66 268.30 804.49 273.91 810.09 C 277.78 813.36 282.34 815.70 286.86 817.96 C 289.74 819.45 293.14 819.83 296.26 818.92 C 293.48 822.00 291.52 826.52 286.92 827.19 C 280.44 827.64 274.64 824.18 269.64 820.39 C 262.78 814.31 258.34 805.74 256.57 796.83 Z" />
<path fill="#fdfdfd" opacity="1.00" d=" M 232.50 808.66 C 240.52 807.69 248.50 806.46 256.50 805.35 C 256.54 807.67 257.19 810.09 256.50 812.37 C 252.74 814.92 248.45 817.01 245.50 820.52 C 243.53 827.07 241.33 833.70 241.21 840.62 C 246.13 833.53 252.07 826.68 259.87 822.72 C 262.31 822.12 265.30 818.99 267.30 822.04 C 268.63 827.22 263.60 830.32 260.70 833.72 C 254.75 838.73 248.37 843.54 244.06 850.13 C 252.69 846.67 262.10 844.99 270.06 839.99 C 273.32 837.53 273.99 833.17 274.81 829.44 C 277.67 829.65 281.97 828.55 283.36 831.93 C 283.74 838.17 283.24 844.44 283.92 850.68 C 266.57 852.99 250.05 859.48 234.69 867.70 C 228.26 870.82 222.20 874.68 215.68 877.63 C 225.34 855.94 232.63 832.61 232.50 808.66 Z" />
</g>
</svg>
