<?xml version="1.0" encoding="UTF-8" ?>
<!DOCTYPE svg PUBLIC "-//W3C//DTD SVG 1.1//EN" "http://www.w3.org/Graphics/SVG/1.1/DTD/svg11.dtd">
<svg viewBox="176.75 145.93 674.1 674.1" version="1.1" xmlns="http://www.w3.org/2000/svg">
<g id="#fefefefe">
<path fill="#fefefe" opacity="1.00" d=" M 692.36 234.42 C 704.58 222.30 721.41 215.04 738.57 214.30 C 733.70 218.21 728.59 221.99 725.05 227.22 C 717.40 238.43 712.62 252.21 714.48 265.88 C 717.97 293.66 746.40 315.32 774.07 312.01 C 784.51 310.50 794.74 306.44 802.92 299.70 C 800.52 305.72 798.16 311.84 794.46 317.21 C 786.58 328.63 774.93 337.34 761.80 341.80 C 747.66 345.97 732.16 346.48 718.15 341.51 C 703.40 336.40 690.59 325.95 682.41 312.67 C 674.16 299.12 671.18 282.53 673.88 266.93 C 676.39 254.49 683.03 242.99 692.36 234.42 Z" />
<path fill="#fefefe" opacity="1.00" d=" M 603.98 217.64 C 604.25 217.51 604.81 217.24 605.08 217.11 C 606.89 226.55 610.06 237.13 618.91 242.29 C 623.30 245.49 628.96 246.18 633.68 248.39 C 626.18 250.74 617.68 252.91 612.91 259.73 C 608.03 265.87 607.78 273.97 605.80 281.25 C 603.21 279.33 603.13 275.95 602.37 273.11 C 600.62 265.91 597.42 258.27 590.60 254.51 C 586.38 251.50 581.04 250.77 576.72 248.02 C 585.31 245.34 594.92 241.70 599.33 233.21 C 601.73 228.32 602.88 222.94 603.98 217.64 Z" />
<path fill="#fefefe" opacity="1.00" d=" M 287.00 255.96 C 314.03 243.81 347.66 247.36 371.11 265.67 C 380.02 272.97 388.33 281.21 394.57 290.96 C 395.88 294.77 392.39 297.82 389.80 300.03 C 384.27 304.97 376.99 306.80 370.20 309.28 C 365.06 310.11 359.86 307.84 354.85 309.66 C 352.90 311.49 352.08 314.66 349.19 315.30 C 346.54 315.40 343.49 315.56 341.43 313.55 C 338.77 311.45 338.12 307.88 338.29 304.68 C 340.86 301.11 344.16 298.16 348.09 296.16 C 354.03 292.79 353.31 284.98 355.48 279.35 C 357.21 277.79 358.92 276.13 359.74 273.90 C 359.26 273.46 358.30 272.58 357.83 272.14 C 351.34 267.07 343.35 264.40 335.48 262.35 C 321.46 258.81 306.38 261.29 293.61 267.80 C 295.66 269.68 297.61 271.69 299.85 273.36 C 302.83 274.74 306.11 275.39 309.06 276.85 C 310.90 281.07 313.16 286.30 310.51 290.65 C 307.58 291.40 304.60 290.49 301.79 289.71 C 299.56 290.56 297.09 291.57 295.94 293.82 C 292.24 299.19 292.13 306.06 289.06 311.73 C 284.20 311.84 279.92 307.90 274.98 309.43 C 271.93 311.18 269.49 313.78 266.97 316.19 C 270.00 317.07 273.01 318.01 276.01 319.00 C 277.06 320.00 278.60 321.16 278.16 322.85 C 277.44 325.73 278.40 330.03 275.15 331.55 C 269.73 332.59 265.82 327.75 261.13 325.95 C 258.92 324.98 256.55 323.95 255.04 321.99 C 252.95 318.99 252.01 315.41 250.82 312.02 C 245.62 327.78 247.22 345.20 253.22 360.51 C 254.15 362.76 254.97 365.06 255.75 367.38 C 256.14 367.52 256.92 367.80 257.31 367.94 C 256.75 367.98 255.63 368.04 255.07 368.07 C 250.96 367.38 245.50 368.30 243.05 364.03 C 237.56 354.72 235.90 343.66 235.59 333.01 C 235.75 300.33 256.69 268.45 287.00 255.96 Z" />
<path fill="#fefefe" opacity="1.00" d=" M 383.68 256.66 C 395.75 253.55 408.77 252.10 420.95 255.39 C 427.45 256.95 433.30 261.66 435.48 268.07 C 437.31 277.02 432.77 285.74 427.68 292.79 C 422.10 299.77 416.17 306.54 409.19 312.17 C 395.50 324.89 379.48 334.70 363.55 344.32 C 342.32 356.35 320.71 367.81 298.15 377.17 C 277.70 385.37 256.65 392.91 234.59 395.17 C 226.15 395.82 217.19 396.36 209.27 392.81 C 202.95 390.14 197.97 384.03 197.59 377.05 C 196.65 369.26 200.03 361.76 204.37 355.51 C 209.95 347.34 216.88 340.19 224.22 333.61 C 223.65 336.14 223.53 338.93 222.03 341.17 C 218.04 348.07 213.14 354.64 211.08 362.47 C 209.93 367.42 211.33 373.73 216.51 375.78 C 226.38 380.10 237.57 379.15 248.04 378.31 C 270.07 375.53 291.29 368.31 311.70 359.79 C 328.71 352.35 345.03 343.41 360.93 333.85 C 377.14 324.12 392.11 312.17 404.53 297.87 C 410.06 291.24 415.38 284.13 418.03 275.81 C 419.15 272.33 419.05 267.60 415.44 265.63 C 406.11 258.70 393.97 259.98 383.06 258.95 C 383.22 258.38 383.53 257.24 383.68 256.66 Z" />
<path fill="#fefefe" opacity="1.00" d=" M 337.54 280.22 C 339.30 278.34 341.35 276.56 344.00 276.17 C 346.37 280.09 346.11 285.02 344.25 289.08 C 343.54 289.56 342.84 290.05 342.15 290.55 C 340.55 290.88 338.95 291.20 337.36 291.54 L 337.35 290.85 C 336.90 290.68 336.01 290.35 335.57 290.18 C 334.65 286.69 336.41 283.41 337.54 280.22 Z" />
<path fill="#fefefe" opacity="1.00" d=" M 443.93 317.50 C 479.48 304.91 517.59 302.69 554.97 301.71 C 579.04 302.02 603.52 303.08 626.58 310.65 C 633.59 313.10 641.05 316.34 645.20 322.85 C 647.92 326.80 647.47 331.89 647.21 336.43 L 646.44 336.57 L 646.72 337.59 C 641.20 337.74 635.99 339.80 630.80 341.48 C 622.85 343.96 614.83 346.24 606.99 349.06 C 604.94 349.88 602.69 349.80 600.53 349.86 C 610.74 342.42 621.56 335.79 631.22 327.62 C 625.74 323.03 618.62 321.10 611.93 319.00 C 596.29 314.97 580.12 313.07 563.97 313.11 C 544.94 312.50 525.91 314.40 507.14 317.45 C 488.67 320.03 470.33 324.07 452.89 330.76 C 449.98 331.95 447.25 333.53 444.52 335.08 C 463.54 345.59 485.42 348.81 506.74 351.02 C 523.44 352.21 540.22 352.75 556.96 351.83 C 563.03 352.12 569.19 350.96 575.19 352.10 C 568.60 354.40 561.59 355.06 554.88 356.88 C 540.06 360.76 524.87 364.54 511.73 372.74 C 504.19 378.06 498.44 386.51 498.53 395.99 C 498.14 403.70 500.18 411.20 500.69 418.84 C 494.20 417.79 487.60 417.84 481.12 416.76 C 467.08 415.00 453.16 411.94 439.85 407.10 C 432.43 404.65 425.38 400.83 419.72 395.40 C 419.08 394.57 417.95 393.65 418.51 392.49 C 423.15 379.94 424.11 366.30 422.94 353.06 C 422.91 345.44 421.02 337.34 424.03 330.06 C 428.69 323.45 436.74 320.50 443.93 317.50 M 438.35 368.30 C 439.03 375.61 438.16 383.01 436.48 390.14 C 445.22 393.92 454.34 396.69 463.69 398.47 C 452.60 389.20 441.68 377.89 438.49 363.34 C 438.37 364.99 438.11 366.64 438.35 368.30 Z" />
<path fill="#fefefe" opacity="1.00" d=" M 394.42 336.64 C 399.67 333.46 404.80 330.07 409.34 325.92 C 413.49 351.81 403.66 379.48 383.97 396.82 C 370.57 408.52 353.77 416.25 336.17 418.84 C 316.12 421.95 295.53 417.20 277.44 408.45 C 272.83 406.12 267.90 404.39 263.64 401.41 C 269.83 399.31 276.23 397.87 282.26 395.31 C 282.53 395.42 283.07 395.63 283.33 395.74 C 293.94 404.33 307.72 407.45 321.00 408.81 C 337.60 409.60 354.32 404.46 367.56 394.42 C 379.14 386.01 388.38 373.73 391.04 359.46 C 387.25 360.32 383.56 361.62 379.77 362.42 C 376.59 362.79 374.99 359.37 374.04 356.91 C 373.43 355.07 372.73 353.26 372.25 351.38 C 379.50 346.26 387.13 341.71 394.42 336.64 Z" />
<path fill="#fefefe" opacity="1.00" d=" M 285.26 333.73 C 289.57 331.36 294.51 334.43 299.08 334.08 C 303.08 333.49 307.15 333.95 311.08 334.80 C 315.95 336.86 318.23 343.03 317.68 348.01 C 317.91 350.08 315.35 349.43 314.09 349.96 C 307.65 352.82 300.76 354.52 294.16 356.98 C 289.48 358.63 284.79 360.60 279.73 360.56 C 278.05 358.37 276.12 355.96 276.40 353.02 C 276.70 345.79 280.08 338.75 285.26 333.73 Z" />
<path fill="#fefefe" opacity="1.00" d=" M 796.34 347.18 C 798.07 355.38 799.73 364.74 806.39 370.62 C 811.02 374.91 817.26 376.47 822.95 378.84 C 814.14 381.40 804.87 386.53 801.39 395.52 C 799.31 400.27 798.68 405.47 796.99 410.35 C 794.24 403.98 794.26 396.56 790.15 390.78 C 785.61 384.00 777.46 381.13 769.95 379.06 C 775.43 376.12 781.98 375.11 786.62 370.69 C 793.47 364.96 795.00 355.49 796.34 347.18 Z" />
<path fill="#fefefe" opacity="1.00" d=" M 630.56 359.89 C 653.67 358.61 676.96 358.70 699.93 361.82 C 712.04 363.92 724.44 365.93 735.58 371.40 C 741.37 374.27 746.99 378.81 748.22 385.52 C 748.82 391.75 746.94 397.86 746.49 404.05 C 744.99 415.01 746.98 426.20 750.76 436.51 C 752.33 440.88 755.21 444.71 756.49 449.18 C 755.83 452.57 752.64 454.85 750.35 457.24 C 737.66 467.92 722.06 474.64 706.18 479.03 C 681.72 485.89 656.33 489.15 630.96 489.74 C 598.00 490.81 564.93 484.20 534.61 471.34 C 528.06 468.21 521.57 464.70 516.01 460.00 C 514.22 458.18 511.27 456.08 512.59 453.14 C 515.89 442.82 517.00 431.85 516.28 421.06 C 515.74 412.33 513.83 403.68 514.29 394.90 C 514.61 391.42 516.51 388.24 519.21 386.08 C 524.31 381.08 531.13 378.56 537.59 375.83 C 556.94 368.95 577.33 365.66 597.61 362.85 C 608.56 361.55 619.54 360.38 630.56 359.89 M 648.83 370.19 C 632.28 370.52 615.82 372.42 599.51 375.17 C 577.34 379.32 555.03 384.48 534.90 394.99 C 557.14 406.48 582.17 411.11 606.89 413.51 C 640.31 416.35 675.26 414.45 706.19 400.35 C 712.23 397.79 717.81 394.15 722.65 389.73 C 724.59 387.99 725.80 385.63 725.45 382.97 C 720.27 379.11 714.06 377.09 707.88 375.49 C 698.46 372.96 688.76 371.65 679.08 370.72 C 669.00 370.36 658.91 369.27 648.83 370.19 M 681.86 430.38 C 664.41 435.95 646.68 440.71 628.67 444.12 C 623.97 444.98 619.21 445.53 614.62 446.88 C 631.08 448.85 647.70 447.55 664.11 445.69 C 674.57 444.27 684.80 441.57 695.16 439.58 C 698.12 439.13 700.98 438.24 703.84 437.38 C 703.62 437.77 703.18 438.55 702.96 438.95 C 697.34 444.60 690.57 448.94 683.79 453.05 L 684.38 452.85 C 673.12 459.52 661.32 465.29 649.00 469.73 C 640.86 472.86 632.62 475.94 623.96 477.22 C 655.06 478.18 686.20 471.98 715.12 460.66 C 723.06 456.88 731.62 453.52 737.73 446.94 C 738.11 444.17 736.29 441.56 735.68 438.89 C 732.87 428.60 731.93 417.55 734.20 407.09 C 734.49 405.80 735.06 403.21 735.35 401.92 C 720.48 416.09 700.86 423.55 681.86 430.38 M 531.63 421.45 C 531.75 427.28 531.86 433.15 530.89 438.93 C 530.61 443.33 529.00 447.57 529.21 452.01 C 535.21 455.47 541.31 458.82 547.85 461.16 C 553.70 463.60 560.02 464.45 566.16 465.87 C 561.67 462.35 557.13 458.89 552.97 454.99 C 549.39 451.56 546.38 447.60 543.13 443.87 C 537.96 437.14 534.83 429.23 531.63 421.45 Z" />
<path fill="#fefefe" opacity="1.00" d=" M 308.14 384.87 C 318.07 379.48 328.98 375.22 337.04 367.04 C 338.26 367.46 338.16 368.79 338.33 369.85 C 338.86 374.33 339.06 378.88 338.44 383.37 C 334.31 383.76 330.51 385.53 327.55 388.43 C 325.97 392.99 324.43 397.60 324.06 402.46 C 321.14 402.93 318.30 401.98 315.44 401.52 C 312.94 397.16 310.89 392.56 309.15 387.84 C 308.78 386.85 308.46 385.86 308.14 384.87 Z" />
<path fill="#fefefe" opacity="1.00" d=" M 432.53 420.31 C 433.95 421.28 435.37 422.25 436.83 423.18 C 446.03 427.44 456.15 428.65 466.07 430.10 C 468.17 430.25 470.28 430.32 472.40 430.38 C 472.78 437.30 473.21 444.28 474.44 451.10 C 480.74 452.90 487.04 454.73 493.51 455.79 C 493.46 456.10 493.36 456.72 493.31 457.03 C 487.46 458.58 481.51 459.81 475.81 461.88 C 473.33 462.37 470.52 464.30 468.17 462.48 C 457.03 455.70 444.88 450.84 433.39 444.71 C 433.32 442.76 433.29 440.81 433.24 438.86 C 432.38 432.73 432.55 426.49 432.53 420.31 Z" />
<path fill="#fefefe" opacity="1.00" d=" M 352.21 459.85 C 366.97 455.59 381.96 452.07 397.12 449.56 C 396.78 451.13 395.66 452.22 394.25 452.90 C 377.10 461.98 358.67 468.22 340.78 475.64 C 310.45 488.25 280.07 501.41 252.62 519.64 C 243.72 525.45 235.29 532.06 227.86 539.69 C 222.60 545.62 216.88 553.48 219.93 561.83 C 223.00 569.11 230.90 572.27 237.22 576.15 C 236.15 576.37 235.07 576.60 233.99 576.70 C 222.89 575.03 211.66 571.34 203.14 563.78 C 197.67 559.06 194.08 551.18 196.71 544.06 C 199.62 534.03 208.05 527.18 215.51 520.48 C 228.42 509.75 243.64 502.39 258.44 494.69 C 288.49 480.12 320.09 468.92 352.21 459.85 Z" />
<path fill="#fefefe" opacity="1.00" d=" M 419.45 461.47 C 421.97 457.72 426.35 454.99 431.00 455.55 C 439.90 456.88 447.88 461.29 455.81 465.31 C 463.65 469.82 471.73 473.93 479.16 479.12 C 486.38 484.01 494.33 488.28 500.10 494.96 C 501.45 498.25 500.17 502.02 500.26 505.50 L 499.30 505.55 C 499.38 505.85 499.56 506.44 499.65 506.74 C 492.38 499.65 483.71 494.15 475.06 488.91 C 473.22 495.46 470.64 501.75 468.00 508.01 C 475.07 513.24 482.15 518.49 488.81 524.24 C 491.92 526.35 491.15 530.48 491.10 533.71 C 486.19 532.10 482.49 528.35 478.06 525.86 C 461.60 514.78 446.28 501.63 427.78 493.90 C 420.74 490.15 412.41 489.35 404.79 491.69 C 405.13 491.30 405.83 490.52 406.17 490.13 C 410.60 480.58 414.10 470.57 419.45 461.47 Z" />
<path fill="#fefefe" opacity="1.00" d=" M 527.46 485.53 C 539.76 493.18 554.10 496.45 567.99 499.96 C 587.61 504.64 607.84 505.14 627.89 505.89 C 621.45 509.88 614.29 512.48 607.21 515.06 C 599.11 518.02 590.56 519.58 581.97 519.96 C 577.29 520.67 572.81 518.92 568.57 517.22 C 559.42 514.16 550.46 510.52 541.13 508.03 C 538.39 507.23 535.76 506.13 533.25 504.79 C 532.07 504.55 530.90 504.31 529.75 504.07 C 529.51 502.35 529.27 500.63 529.01 498.93 C 528.57 496.88 528.33 494.80 528.20 492.73 C 527.58 490.37 527.48 487.94 527.46 485.53 Z" />
<path fill="#fefefe" opacity="1.00" d=" M 320.47 500.79 C 338.36 493.27 357.35 488.43 376.67 486.60 C 376.69 487.07 376.74 488.03 376.76 488.50 C 347.26 498.94 317.87 509.73 288.49 520.52 C 287.17 520.70 285.84 520.79 284.50 520.77 C 285.38 520.27 286.27 519.79 287.17 519.32 C 296.64 510.61 308.58 505.30 320.47 500.79 Z" />
<path fill="#fefefe" opacity="1.00" d=" M 719.60 493.01 C 722.54 492.85 725.41 492.18 728.21 491.24 C 728.10 496.64 728.62 502.15 727.21 507.44 C 725.50 512.50 721.32 516.11 717.56 519.67 C 706.91 528.78 693.96 534.64 680.88 539.34 C 677.77 540.32 674.57 541.86 671.29 540.54 C 683.10 531.58 695.85 523.85 707.05 514.09 C 713.62 508.97 719.44 501.72 719.60 493.01 Z" />
<path fill="#fefefe" opacity="1.00" d=" M 398.07 506.11 C 402.67 503.60 407.66 500.82 413.09 501.42 C 422.38 503.01 430.72 507.66 438.72 512.40 C 446.44 517.13 453.14 523.31 459.12 530.07 C 453.23 531.61 448.13 535.09 442.49 537.28 C 433.92 540.94 425.55 545.67 416.18 546.93 C 418.34 549.84 420.17 552.97 421.91 556.16 C 423.13 559.13 423.64 562.30 423.85 565.49 C 408.01 569.53 392.77 575.97 376.47 578.19 C 358.26 581.17 339.29 581.76 321.45 576.36 C 312.50 573.64 303.62 569.77 296.66 563.37 C 293.43 560.51 291.37 556.67 289.21 553.01 C 284.00 558.84 277.62 564.75 276.68 572.95 C 275.84 579.21 281.18 583.71 285.75 586.95 C 292.78 591.33 300.47 594.67 308.46 596.86 C 310.87 597.72 313.47 598.12 315.71 599.41 C 299.68 600.61 283.81 594.98 270.38 586.52 C 265.57 583.33 260.71 579.04 259.73 573.05 C 261.79 561.90 268.47 552.09 277.01 544.81 C 290.58 533.45 308.53 528.28 326.06 528.42 C 342.79 527.44 358.69 533.47 374.54 537.83 C 379.62 539.86 385.06 540.75 390.18 542.65 C 391.18 543.04 392.25 543.25 393.33 543.30 C 382.97 534.14 370.32 527.52 356.66 525.04 C 365.75 519.75 376.09 517.24 385.39 512.39 C 389.57 510.19 393.99 508.49 398.07 506.11 Z" />
<path fill="#fefefe" opacity="1.00" d=" M 522.03 511.86 C 526.07 510.39 530.08 512.35 533.89 513.59 C 553.52 520.68 572.35 529.83 591.92 537.08 C 592.97 537.36 593.55 538.03 593.65 539.08 C 593.28 542.28 592.35 545.39 591.19 548.38 C 587.01 547.03 582.71 546.15 578.49 545.00 C 576.30 550.70 574.77 556.61 572.70 562.35 C 576.64 565.68 582.05 566.81 585.74 570.37 C 585.50 574.56 584.41 578.66 583.29 582.69 C 570.79 574.78 557.16 568.87 544.19 561.80 C 531.60 555.60 518.21 550.59 504.26 548.68 C 507.91 539.87 511.88 531.19 515.63 522.41 C 517.44 518.72 518.86 514.65 522.03 511.86 Z" />
<path fill="#fefefe" opacity="1.00" d=" M 661.06 522.75 C 669.94 519.19 679.11 516.39 688.01 512.86 C 682.38 518.80 677.47 526.18 669.81 529.63 C 662.20 529.71 654.64 527.49 647.21 525.95 C 651.95 525.61 656.47 523.93 661.06 522.75 Z" />
<path fill="#fefefe" opacity="1.00" d=" M 613.83 528.66 C 622.03 528.73 630.01 530.91 638.05 532.29 C 644.54 533.89 651.31 534.32 657.63 536.63 C 661.09 538.74 662.99 542.82 663.04 546.80 C 663.18 551.94 662.00 557.00 661.02 562.02 C 659.34 572.09 657.45 582.12 655.52 592.14 C 654.48 595.45 653.92 599.61 650.51 601.38 C 647.87 602.71 644.77 602.38 641.92 602.18 C 629.40 600.38 616.86 598.71 604.45 596.27 C 601.18 595.32 597.10 594.45 595.78 590.84 C 593.56 583.55 596.49 576.11 597.53 568.87 C 599.88 557.95 600.81 546.59 605.17 536.21 C 606.61 532.49 609.76 529.25 613.83 528.66 M 617.28 542.31 C 616.18 547.00 615.17 551.71 614.25 556.44 C 618.87 556.87 623.34 558.25 627.98 558.56 C 627.44 563.21 626.58 567.82 625.58 572.39 C 620.89 571.37 616.06 571.11 611.45 569.72 C 610.26 574.19 609.79 578.81 608.57 583.27 C 619.79 585.72 631.21 587.43 642.64 588.62 C 645.03 575.25 647.68 561.92 649.72 548.49 C 641.56 546.65 633.32 545.14 625.06 543.85 C 622.42 543.57 619.81 543.15 617.28 542.31 Z" />
<path fill="#fefefe" opacity="1.00" d=" M 720.90 535.60 C 723.84 533.99 725.96 531.38 728.08 528.86 C 731.16 538.42 733.28 548.25 736.09 557.89 C 736.70 560.33 738.04 562.98 736.77 565.44 C 733.18 573.67 724.84 578.03 717.78 582.85 C 706.69 589.14 694.88 594.87 682.04 596.20 C 676.92 596.87 671.85 595.56 666.75 595.33 C 669.63 593.68 672.91 593.01 676.14 592.44 C 688.29 589.86 700.96 586.80 710.71 578.64 C 715.99 574.69 719.76 568.69 720.74 562.15 C 721.03 557.16 720.72 552.14 720.11 547.18 C 719.95 547.46 719.64 548.02 719.49 548.30 C 706.14 554.89 691.58 558.93 676.68 559.64 C 675.75 560.34 674.63 560.63 673.54 560.95 L 673.88 559.77 C 673.36 559.67 672.34 559.48 671.83 559.38 C 672.15 557.09 672.06 554.80 671.76 552.53 C 672.88 552.38 674.02 552.24 675.17 552.12 C 690.95 548.51 707.36 544.96 720.90 535.60 Z" />
<path fill="#fefefe" opacity="1.00" d=" M 754.92 553.02 C 760.68 552.42 766.43 553.43 772.08 554.47 C 782.31 556.14 792.42 559.45 801.24 564.99 C 808.91 569.73 815.79 577.46 816.30 586.85 C 817.06 596.30 811.53 604.77 805.51 611.52 C 787.14 631.37 761.85 642.80 736.89 652.00 C 735.61 652.55 734.29 653.04 733.01 653.57 C 733.31 655.52 733.61 657.48 733.85 659.46 C 732.17 659.95 730.48 660.46 728.81 660.96 C 724.90 662.44 720.99 663.99 716.90 664.90 C 716.69 662.28 716.50 659.66 716.38 657.05 C 707.88 659.53 699.22 661.63 690.44 662.79 C 689.82 666.34 690.88 669.89 690.76 673.46 C 678.48 675.63 666.48 679.03 654.36 681.94 C 654.63 680.99 654.91 680.05 655.21 679.12 C 655.57 673.13 655.32 667.09 656.39 661.17 C 633.20 664.61 611.37 673.68 589.79 682.44 C 597.50 676.94 604.34 670.29 612.39 665.24 C 624.01 657.18 637.15 651.39 650.85 647.91 C 672.60 643.05 694.85 640.31 716.13 633.47 C 729.36 629.81 742.15 624.69 754.38 618.48 C 764.63 613.21 774.53 606.95 782.57 598.59 C 787.67 593.48 792.02 586.41 790.65 578.91 C 790.32 575.47 788.41 572.44 786.11 569.98 C 780.70 563.75 773.01 560.20 765.44 557.35 C 761.85 556.09 758.63 553.94 754.92 553.02 Z" />
<path fill="#fefefe" opacity="1.00" d=" M 500.47 561.61 C 503.78 559.92 507.63 559.96 511.17 560.85 C 524.96 564.44 537.59 571.27 549.93 578.21 C 566.63 588.50 582.65 599.84 598.53 611.35 C 595.93 611.81 593.47 610.55 590.97 610.11 C 577.29 607.01 563.68 603.44 549.82 601.17 C 547.17 600.48 544.50 599.76 541.86 599.06 C 552.78 608.67 559.86 621.63 569.36 632.50 C 558.29 628.66 546.72 626.51 535.14 624.91 C 532.45 624.62 529.76 624.23 527.06 624.12 C 531.90 628.62 536.05 633.77 540.60 638.56 C 540.54 638.72 540.42 639.04 540.36 639.20 C 521.32 646.90 501.53 653.68 480.86 654.85 C 458.95 657.10 436.53 654.11 416.06 645.96 C 403.95 640.63 391.77 634.09 383.55 623.40 C 381.16 620.53 379.28 617.31 377.43 614.09 C 370.45 619.02 364.06 625.44 361.68 633.88 C 361.62 638.25 363.42 642.73 366.89 645.48 C 374.29 651.40 383.04 655.34 392.03 658.16 C 410.51 664.73 430.37 666.28 449.83 665.44 C 449.79 665.87 449.70 666.72 449.65 667.15 C 442.44 670.47 434.88 672.96 427.07 674.45 C 415.09 675.86 403.10 673.47 391.68 669.99 C 376.46 665.54 361.48 659.05 349.54 648.42 C 347.47 645.97 344.81 643.45 344.73 640.02 C 344.18 629.11 349.76 618.83 357.07 611.09 C 364.62 602.51 374.98 597.22 385.20 592.53 C 411.93 581.95 442.06 583.37 469.14 591.89 C 477.51 595.06 485.77 598.55 493.82 602.45 C 498.46 605.18 503.11 607.88 507.84 610.47 C 506.90 609.31 505.93 608.17 504.98 607.04 C 495.25 596.49 482.41 589.38 469.02 584.57 C 464.96 583.39 460.79 582.54 456.93 580.76 C 470.85 573.10 485.88 567.80 500.47 561.61 Z" />
<path fill="#fefefe" opacity="1.00" d=" M 671.64 569.59 C 671.99 569.57 672.69 569.53 673.04 569.50 C 676.38 571.79 680.16 573.36 683.55 575.60 C 683.78 576.41 684.03 577.24 684.30 578.07 C 679.23 581.84 673.75 584.98 668.03 587.65 C 669.92 581.79 670.46 575.61 671.64 569.59 Z" />
<path fill="#fefefe" opacity="1.00" d=" M 723.21 589.58 C 728.30 586.86 732.73 583.08 736.31 578.57 C 737.93 584.59 738.85 590.76 739.58 596.95 C 740.29 601.72 736.30 605.25 732.95 607.93 C 726.66 611.81 719.92 615.33 712.65 616.88 C 715.90 612.13 721.50 608.96 723.09 603.09 C 725.04 598.76 723.89 594.03 723.21 589.58 Z" />
<path fill="#fefefe" opacity="1.00" d=" M 253.25 592.17 C 254.81 591.83 255.67 593.39 256.76 594.17 C 263.87 600.21 272.26 604.49 280.76 608.26 C 292.61 613.21 305.16 617.16 318.11 617.46 C 323.99 617.87 329.91 617.95 335.80 617.59 C 334.43 621.06 331.61 623.62 329.90 626.90 C 329.02 627.75 328.50 629.37 327.05 629.35 C 322.40 629.34 317.72 629.45 313.10 628.93 C 310.41 628.75 307.71 628.61 305.01 628.60 C 304.09 632.74 303.00 636.85 301.85 640.94 C 301.67 642.57 301.59 644.21 301.57 645.87 C 296.15 645.06 290.73 644.17 285.51 642.44 C 286.54 637.33 286.31 632.08 287.48 626.99 C 286.36 626.63 285.24 626.27 284.13 625.91 C 280.82 624.34 277.53 622.70 274.55 620.57 C 272.16 626.23 269.61 631.94 268.30 637.96 C 261.05 634.03 253.61 630.21 247.47 624.60 C 246.60 613.56 248.77 602.31 253.25 592.17 Z" />
<path fill="#fefefe" opacity="1.00" d=" M 815.59 628.64 C 822.00 622.97 827.84 616.53 831.40 608.65 C 833.08 620.68 828.99 633.10 821.32 642.38 C 810.51 655.98 795.72 665.64 780.75 674.08 C 750.08 690.41 716.69 700.75 683.09 709.11 C 662.23 713.92 641.25 718.33 620.07 721.52 C 603.16 724.29 586.16 726.76 569.03 727.58 C 560.13 727.68 551.25 728.36 542.35 728.37 C 542.42 727.98 542.57 727.20 542.64 726.81 C 549.72 723.57 557.42 722.26 564.92 720.35 C 587.38 715.40 609.88 710.59 632.10 704.63 C 658.47 697.79 684.77 690.53 710.60 681.81 C 740.38 671.77 769.74 659.87 796.57 643.36 C 803.28 638.94 809.66 634.04 815.59 628.64 Z" />
<path fill="#fefefe" opacity="1.00" d=" M 617.95 611.71 C 626.60 613.42 635.28 615.17 644.10 615.63 C 648.43 615.87 652.48 614.11 656.68 613.40 C 655.83 616.31 655.26 619.30 654.41 622.22 C 652.62 623.23 650.78 624.15 648.93 625.01 C 640.93 627.28 633.06 630.03 625.58 633.70 C 625.08 630.06 624.45 626.41 622.99 623.02 C 621.35 619.23 619.68 615.46 617.95 611.71 Z" />
<path fill="#fefefe" opacity="1.00" d=" M 520.09 681.68 C 555.55 672.23 589.01 656.80 622.01 641.02 C 620.86 644.29 617.92 646.29 615.45 648.50 C 602.40 660.20 589.05 671.56 575.03 682.08 C 570.80 685.05 567.16 689.36 561.86 690.38 C 556.25 691.68 550.89 693.92 545.24 695.05 C 545.32 698.64 546.57 702.05 547.63 705.46 C 537.52 708.70 527.17 711.12 516.90 713.80 C 516.39 710.08 516.63 706.25 515.63 702.61 C 510.33 704.51 504.66 704.78 499.17 705.82 C 499.81 709.54 500.49 713.26 500.85 717.03 C 485.76 719.17 470.66 721.13 455.46 722.22 C 455.34 717.17 454.36 712.21 453.71 707.21 C 447.62 707.62 441.49 707.63 435.40 707.27 C 436.19 712.32 436.41 717.46 437.36 722.49 C 427.33 723.03 417.34 721.93 407.34 721.52 C 407.60 715.98 407.30 710.43 407.60 704.89 C 402.94 703.93 398.25 703.09 393.71 701.65 C 392.45 707.29 391.69 713.03 390.55 718.71 C 383.25 716.75 375.63 715.87 368.39 713.53 C 369.74 707.94 370.48 702.25 371.54 696.62 C 366.62 694.82 361.52 693.38 357.06 690.55 C 355.42 695.78 353.92 701.06 352.29 706.30 C 352.06 706.59 351.60 707.16 351.37 707.44 C 342.99 702.96 334.39 698.66 327.32 692.18 C 328.67 679.87 328.78 666.90 334.76 655.70 C 337.52 658.82 340.88 661.35 344.44 663.49 C 358.43 672.72 374.38 678.42 390.44 682.87 C 407.66 687.12 425.33 689.27 443.02 690.29 C 468.93 690.94 494.98 688.17 520.09 681.68 Z" />
<path fill="#fefefe" opacity="1.00" d=" M 747.80 705.04 C 762.00 700.39 776.31 695.84 789.73 689.20 C 785.29 694.04 779.61 697.49 774.36 701.37 C 750.66 717.21 723.00 725.53 695.60 732.37 C 660.32 740.93 624.26 745.78 588.16 749.31 C 564.84 751.13 541.41 752.27 518.02 751.30 C 501.31 750.12 484.41 749.72 468.07 745.75 C 473.30 744.77 478.64 745.42 483.93 745.30 C 526.46 744.66 568.95 741.61 611.12 736.00 C 657.43 729.52 703.49 720.16 747.80 705.04 Z" />
</g>
</svg>
