<?xml version="1.0" encoding="UTF-8" ?>
<!DOCTYPE svg PUBLIC "-//W3C//DTD SVG 1.1//EN" "http://www.w3.org/Graphics/SVG/1.1/DTD/svg11.dtd">
<svg viewBox="188.27 166.04 650.06 650.06" version="1.1" xmlns="http://www.w3.org/2000/svg">
<g id="#ffffffff">
<path fill="#ffffff" opacity="1.00" d=" M 562.24 238.85 C 580.00 232.12 599.02 228.92 618.00 228.85 C 639.36 228.62 660.84 232.37 680.68 240.37 C 715.80 254.76 746.34 280.25 766.46 312.46 C 769.74 318.23 773.19 324.17 774.09 330.86 C 775.03 337.95 770.93 345.45 764.32 348.27 C 757.14 351.93 748.41 350.23 741.76 346.20 C 725.56 336.51 710.89 324.13 693.44 316.62 C 685.29 313.02 675.27 312.47 667.59 317.51 C 658.73 323.55 653.79 333.64 650.49 343.53 C 647.04 353.58 645.93 364.21 643.94 374.57 C 632.43 376.94 620.85 379.01 609.26 380.95 C 621.42 384.97 633.81 388.34 645.70 393.12 C 648.05 404.77 651.32 416.21 654.28 427.72 C 656.71 437.80 659.55 447.76 662.28 457.75 C 673.78 502.60 686.09 547.23 698.15 591.93 C 695.58 593.39 692.71 594.17 689.88 594.93 C 624.43 611.99 556.28 614.75 488.96 612.92 C 447.27 611.01 405.46 606.92 364.97 596.38 C 361.73 595.37 358.35 594.71 355.32 593.13 C 380.51 520.93 406.22 448.55 441.78 380.65 C 460.23 345.39 479.76 310.21 505.93 280.00 C 515.82 269.15 526.46 258.79 538.99 250.99 C 546.24 246.05 554.33 242.57 562.24 238.85 M 489.62 385.30 C 488.23 387.16 487.04 389.17 486.19 391.34 C 482.25 400.89 478.54 410.56 475.21 420.34 C 474.87 421.38 474.42 422.86 473.04 422.77 C 460.76 423.84 448.45 424.95 436.34 427.36 C 433.26 428.73 433.77 432.94 436.16 434.75 C 444.89 442.46 454.39 449.28 463.24 456.85 C 464.36 457.66 464.69 458.71 464.23 460.02 C 461.48 469.84 458.92 479.71 456.33 489.58 C 455.81 491.47 455.86 493.46 455.78 495.41 C 457.20 497.58 459.93 499.12 462.47 497.81 C 473.02 492.20 482.37 484.54 492.89 478.89 C 503.07 484.17 512.42 491.00 522.57 496.41 C 524.72 497.58 527.74 498.79 529.84 496.86 C 532.09 495.36 530.95 492.43 530.50 490.31 C 527.50 479.45 524.40 468.62 521.45 457.75 C 521.61 457.40 521.93 456.70 522.09 456.34 C 530.86 448.66 540.14 441.53 548.90 433.83 C 550.92 432.34 552.63 428.82 549.89 427.15 C 543.63 424.21 536.40 425.56 529.77 424.18 C 522.59 423.96 515.43 423.29 508.28 422.65 C 503.38 411.62 500.01 399.95 494.85 389.03 C 493.93 386.91 492.11 385.02 489.62 385.30 M 616.90 452.42 C 602.47 454.60 588.73 462.02 579.54 473.43 C 571.22 483.27 566.71 496.20 567.01 509.06 C 567.38 523.14 573.10 537.01 582.75 547.26 C 592.36 557.47 606.16 563.39 620.09 564.07 C 636.07 564.90 652.21 558.80 663.76 547.76 C 665.55 545.64 667.67 543.55 668.33 540.76 C 662.24 541.75 656.15 543.23 649.94 542.95 C 628.87 542.79 609.02 527.40 603.53 507.09 C 600.92 496.97 601.66 485.83 606.66 476.55 C 611.97 465.94 621.62 458.39 631.84 452.82 C 626.97 451.52 621.84 451.52 616.90 452.42 M 521.72 515.68 C 517.76 522.30 515.63 529.91 511.68 536.49 C 504.37 537.73 496.95 539.05 489.51 539.43 C 494.93 544.80 500.90 549.59 506.30 554.97 C 504.88 560.60 503.49 566.26 502.30 571.95 C 501.24 574.37 504.30 576.85 506.50 575.60 C 512.57 572.69 518.32 569.05 524.59 566.60 C 530.77 569.88 536.67 573.71 543.18 576.32 C 544.03 575.56 544.88 574.80 545.74 574.05 C 544.53 567.97 542.91 561.99 541.40 555.98 C 541.26 555.01 540.58 553.68 541.64 552.97 C 546.52 548.38 551.82 544.06 555.80 538.62 C 547.96 537.57 539.81 537.96 532.15 536.14 C 528.19 529.61 525.56 522.31 521.72 515.68 Z" />
<path fill="#ffffff" opacity="1.00" d=" M 259.04 640.03 C 281.85 631.13 305.53 624.17 329.80 620.74 C 335.95 623.10 341.81 626.21 348.23 627.84 C 388.86 639.12 431.01 643.60 472.97 646.04 C 528.09 649.15 583.50 647.09 638.20 639.70 C 663.75 636.07 689.49 631.81 713.69 622.53 C 715.39 621.95 717.05 620.62 718.94 621.24 C 733.40 624.28 747.69 628.20 761.63 633.10 C 777.25 638.68 792.71 645.19 806.49 654.55 C 812.00 658.48 817.74 663.17 819.66 669.97 C 821.13 676.66 816.42 682.59 811.72 686.74 C 803.32 693.90 793.43 699.05 783.53 703.80 C 755.65 716.23 726.23 724.87 696.53 731.72 C 649.04 742.56 600.59 749.00 552.00 751.93 C 542.63 751.85 533.30 752.91 523.94 752.97 C 489.59 753.66 455.19 753.42 420.94 750.65 C 380.91 747.09 340.95 741.42 302.04 731.17 C 283.79 726.59 265.79 720.92 248.39 713.72 C 238.72 709.41 229.05 704.86 220.56 698.46 C 214.63 694.36 208.62 689.22 206.87 681.90 C 205.63 675.15 210.32 669.22 214.92 664.87 C 227.79 653.73 243.58 646.75 259.04 640.03 Z" />
</g>
</svg>
