<?xml version="1.0" encoding="UTF-8" ?>
<!DOCTYPE svg PUBLIC "-//W3C//DTD SVG 1.1//EN" "http://www.w3.org/Graphics/SVG/1.1/DTD/svg11.dtd">
<svg width="1024pt" height="1536pt" viewBox="0 0 1024 1536" version="1.1" xmlns="http://www.w3.org/2000/svg">
<g id="#fefefefe">
<path fill="#fefefe" opacity="1.00" d=" M 592.92 501.11 C 604.39 499.13 616.38 500.45 627.12 504.97 C 647.92 512.95 665.71 527.03 681.21 542.77 C 687.50 549.60 693.58 556.66 698.77 564.38 C 705.08 573.27 711.03 583.02 712.23 594.09 C 713.64 602.74 710.84 612.26 703.94 617.93 C 698.57 622.74 691.02 623.72 684.09 623.48 C 669.35 622.51 655.56 615.79 644.00 606.88 C 637.58 602.09 631.51 596.76 626.63 590.38 C 616.68 579.31 609.24 566.00 605.19 551.66 C 605.28 574.13 613.50 596.24 626.72 614.30 C 632.38 621.89 638.71 628.93 645.21 635.81 C 649.02 640.50 653.55 646.16 651.90 652.63 C 650.30 655.55 646.64 655.40 643.91 654.48 C 631.86 650.96 620.57 645.30 608.72 641.21 C 593.36 634.75 577.38 629.95 561.50 624.97 C 564.28 627.17 567.47 628.71 570.54 630.43 C 593.87 644.16 617.01 658.63 637.20 676.79 C 640.32 679.73 643.80 682.63 645.22 686.83 C 651.14 702.90 657.04 718.97 663.12 734.97 C 668.57 751.78 675.45 768.10 680.88 784.91 C 690.00 811.04 699.01 837.23 707.51 863.58 C 708.54 867.24 710.07 870.79 710.66 874.58 C 701.47 867.93 690.56 864.28 680.09 860.14 C 657.06 851.03 632.68 845.85 608.12 843.00 C 602.33 841.73 596.39 841.94 590.53 841.36 C 611.57 846.38 632.08 853.35 652.46 860.58 C 657.91 862.75 663.67 864.37 668.64 867.58 C 657.18 864.43 645.77 861.01 634.10 858.73 C 606.98 852.59 579.55 847.51 551.79 845.57 C 493.01 840.70 433.17 844.01 375.99 859.11 C 353.53 864.97 330.82 872.19 311.63 885.64 L 311.26 884.25 C 312.75 877.09 314.28 869.85 317.15 863.10 C 320.07 856.39 326.30 852.12 332.11 848.11 C 345.43 839.39 360.00 832.74 374.79 826.92 C 401.90 816.14 430.16 808.76 457.91 799.88 C 462.72 798.48 467.76 797.76 472.40 795.79 C 463.22 796.25 454.13 797.95 445.00 799.02 C 421.03 802.23 397.35 807.79 374.49 815.71 C 370.57 817.06 366.86 819.03 362.76 819.84 C 371.34 812.92 380.67 806.96 389.82 800.82 C 404.81 790.99 419.88 781.05 436.48 774.09 C 433.79 774.04 431.18 774.73 428.60 775.39 C 406.74 780.24 385.66 788.40 366.04 799.16 C 356.02 805.15 345.88 811.27 337.68 819.71 C 336.15 821.08 335.04 823.05 333.04 823.80 C 339.05 805.42 345.00 786.99 352.46 769.13 C 368.88 730.03 387.14 691.56 409.40 655.41 C 428.09 625.01 449.74 596.29 475.18 571.21 C 495.46 550.69 518.30 532.49 543.73 518.73 C 559.17 510.62 575.62 503.85 592.92 501.11 Z" />
<path fill="#fefefe" opacity="1.00" d=" M 453.96 861.07 C 478.84 858.76 503.91 857.27 528.92 858.70 C 580.48 860.55 631.96 868.67 681.19 884.25 C 690.80 887.12 700.16 890.77 709.32 894.85 C 715.81 897.87 722.40 901.35 727.09 906.91 C 732.98 915.95 733.80 927.09 735.71 937.44 C 737.17 947.91 739.70 959.15 735.22 969.25 C 730.54 978.90 720.44 984.06 711.00 988.03 C 688.37 996.31 664.11 999.63 640.08 999.11 C 628.68 999.09 617.35 997.75 605.99 996.97 C 629.53 993.11 653.44 990.88 676.44 984.24 C 687.40 981.26 698.27 977.20 707.72 970.80 C 709.75 968.84 713.48 966.88 712.69 963.56 C 709.97 959.36 705.35 957.02 701.05 954.80 C 683.30 945.65 663.77 940.87 644.43 936.41 C 609.77 929.01 574.45 924.93 539.04 923.88 C 487.47 921.95 435.50 924.49 384.90 935.02 C 364.98 939.54 345.00 944.59 326.44 953.31 C 320.77 956.07 314.96 959.17 311.00 964.23 C 311.03 967.82 313.31 970.83 315.99 973.02 C 325.55 981.21 337.60 985.69 349.43 989.50 C 380.16 999.01 412.16 1003.60 444.06 1007.07 C 437.09 1008.12 430.02 1008.07 423.02 1008.83 C 397.53 1009.33 372.05 1006.60 347.10 1001.41 C 331.72 997.87 316.17 993.70 302.51 985.52 C 296.31 981.59 290.65 976.27 287.78 969.38 C 285.17 962.17 285.60 954.37 286.18 946.86 C 287.13 939.87 287.99 932.86 289.72 926.01 C 291.29 919.56 291.81 912.49 295.87 906.98 C 298.86 902.76 303.55 900.28 307.97 897.85 C 326.42 888.02 346.73 882.54 366.69 876.72 C 395.27 869.05 424.53 864.02 453.96 861.07 Z" />
</g>
</svg>
