<?xml version="1.0" encoding="UTF-8" ?>
<!DOCTYPE svg PUBLIC "-//W3C//DTD SVG 1.1//EN" "http://www.w3.org/Graphics/SVG/1.1/DTD/svg11.dtd">
<svg width="244pt" height="179pt" viewBox="0 0 244 179" version="1.1" xmlns="http://www.w3.org/2000/svg">
<g id="#fdfefefe">
<path fill="#fdfefe" opacity="1.00" d=" M 52.35 18.40 C 61.75 8.28 74.84 0.88 88.94 0.95 C 97.94 1.26 107.41 3.77 113.81 10.46 C 121.41 17.19 124.21 28.03 123.27 37.86 C 121.03 50.84 116.47 63.47 109.82 74.84 C 107.73 79.52 104.26 83.44 101.05 87.36 C 111.65 79.30 118.94 68.02 127.06 57.68 C 129.03 55.07 131.63 52.89 134.67 51.66 C 140.77 49.80 147.90 53.81 149.45 60.01 C 151.42 67.10 148.78 74.40 145.93 80.85 C 138.96 95.07 128.87 107.68 117.02 118.11 C 114.57 119.90 112.35 122.14 109.52 123.30 C 107.26 124.26 105.11 122.71 103.10 121.88 C 95.78 118.85 88.48 115.76 81.05 113.02 C 72.62 109.64 63.76 107.50 55.08 104.84 C 45.98 102.75 36.63 101.16 28.04 97.39 C 26.23 96.63 24.27 95.17 24.37 92.98 C 25.88 78.37 28.56 63.77 33.55 49.90 C 38.08 38.51 44.06 27.50 52.35 18.40 Z" />
<path fill="#fdfefe" opacity="1.00" d=" M 158.72 43.87 C 166.10 30.68 179.25 19.30 194.93 18.52 C 209.76 17.16 224.69 24.93 232.97 37.12 C 238.13 45.70 238.86 56.40 236.29 65.95 C 233.03 77.89 224.68 87.68 215.12 95.20 C 205.83 103.06 194.41 107.58 183.44 112.46 C 191.12 111.55 198.93 111.05 206.32 108.56 C 214.61 106.15 221.27 100.17 229.46 97.59 C 235.89 95.96 242.18 100.72 244.00 106.77 L 244.00 111.77 L 243.14 105.52 C 244.29 113.65 238.19 120.00 232.21 124.40 C 222.06 131.44 210.01 135.29 197.97 137.62 C 193.53 138.47 189.09 139.69 184.53 139.53 C 180.42 136.71 176.86 133.18 172.72 130.39 C 166.65 126.16 160.00 122.88 153.58 119.24 C 148.84 116.50 143.22 115.11 139.33 111.09 C 145.59 100.42 152.93 90.26 157.21 78.56 C 159.04 73.63 160.60 68.38 159.99 63.07 C 159.39 58.19 157.46 53.61 156.60 48.79 C 156.53 46.94 157.93 45.44 158.72 43.87 Z" />
<path fill="#fdfefe" opacity="1.00" d=" M 11.01 101.07 C 14.42 99.18 18.65 99.60 22.17 100.93 C 25.04 101.90 26.42 105.86 29.88 105.05 C 35.61 104.72 41.84 106.64 44.91 111.83 C 47.92 110.58 51.24 109.91 54.46 110.76 C 58.82 111.85 63.88 113.41 65.94 117.81 C 73.69 116.22 83.00 117.35 87.91 124.27 C 94.59 124.43 101.63 125.63 106.68 130.38 C 106.95 132.37 107.33 134.49 106.44 136.40 C 105.16 138.72 102.66 139.96 100.22 140.69 C 108.76 142.54 108.52 155.04 102.58 159.66 C 101.52 161.52 98.22 160.55 98.91 157.93 C 100.40 163.38 95.42 169.06 89.95 168.64 C 85.36 168.54 80.47 167.06 77.89 162.99 C 70.59 167.63 61.39 163.03 56.73 156.72 C 51.59 158.00 45.97 158.33 41.04 156.07 C 36.82 154.31 32.17 150.97 32.15 145.90 C 26.76 149.22 19.61 147.93 14.80 144.17 C 12.03 141.56 9.00 137.49 11.27 133.61 C 5.53 135.08 0.29 130.16 0.00 124.51 L 0.00 125.29 C -0.72 119.38 3.78 113.77 9.76 113.89 C 5.90 110.40 7.29 104.08 11.01 101.07 Z" />
<path fill="#fdfefe" opacity="1.00" d=" M 129.32 118.39 C 131.40 116.56 134.35 117.28 136.54 118.47 C 137.78 120.23 139.18 121.86 140.68 123.40 C 144.94 123.64 149.37 124.31 152.87 126.95 C 157.36 129.88 161.99 133.26 163.98 138.45 C 167.25 140.58 171.40 140.24 174.79 142.12 C 178.34 143.57 181.85 146.84 181.45 151.00 C 181.57 154.15 179.24 156.91 176.32 157.82 C 177.23 160.11 178.63 162.41 178.45 164.97 C 178.33 167.61 176.78 169.98 174.84 171.67 C 171.59 174.90 166.32 174.04 162.43 172.56 C 162.32 177.19 156.25 177.91 152.82 179.00 L 154.79 179.00 C 150.71 178.45 146.34 178.37 142.69 176.22 C 139.06 174.00 135.59 170.65 135.20 166.19 C 128.24 167.62 119.83 163.67 118.70 156.17 C 119.01 155.38 119.62 153.82 119.93 153.03 C 118.35 152.24 116.76 151.20 116.31 149.36 C 114.79 145.17 117.91 140.86 121.59 139.05 C 119.13 137.27 117.31 134.45 117.56 131.32 C 118.30 128.21 121.23 126.24 124.18 125.48 C 125.82 123.08 127.22 120.43 129.32 118.39 Z" />
</g>
</svg>
