<?xml version="1.0" encoding="UTF-8" ?>
<!DOCTYPE svg PUBLIC "-//W3C//DTD SVG 1.1//EN" "http://www.w3.org/Graphics/SVG/1.1/DTD/svg11.dtd">
<svg viewBox="-31.85 -8.46 298.92 298.92" version="1.1" xmlns="http://www.w3.org/2000/svg">
<g id="#fefefefe">
<path fill="#fefefe" opacity="1.00" d=" M 200.27 0.00 L 202.53 0.00 C 204.13 5.83 205.21 11.91 204.76 17.97 C 204.92 19.44 202.98 19.35 202.04 19.64 C 186.16 22.21 170.29 25.15 154.22 26.25 C 153.43 26.38 151.89 26.25 152.30 24.99 C 152.35 19.53 150.74 14.20 150.76 8.75 C 161.64 6.19 172.87 5.43 183.90 3.60 C 189.01 3.02 193.97 1.43 199.13 1.24 C 199.41 0.93 199.98 0.31 200.27 0.00 Z" />
<path fill="#fefefe" opacity="1.00" d=" M 32.52 1.44 C 36.70 0.94 40.79 2.16 44.91 2.71 C 58.56 5.11 72.37 6.50 86.07 8.56 C 85.06 14.56 84.22 20.59 82.97 26.53 C 71.97 25.44 60.85 24.36 49.89 22.58 C 43.46 21.33 36.84 21.09 30.55 19.13 C 30.20 13.16 31.67 7.31 32.52 1.44 Z" />
<path fill="#fefefe" opacity="1.00" d=" M 92.59 17.95 C 92.43 14.50 95.30 11.15 98.88 11.40 C 109.92 11.38 120.96 11.55 132.00 11.36 C 134.71 11.39 137.99 10.62 140.11 12.81 C 143.09 15.27 142.92 19.44 143.15 22.96 C 143.09 30.97 143.25 39.00 142.88 47.01 C 142.77 49.70 143.03 52.48 142.13 55.07 C 141.03 56.89 139.24 58.61 137.00 58.73 C 124.33 58.71 111.66 58.80 98.98 58.74 C 95.53 58.77 92.34 55.53 92.52 52.06 C 92.26 40.69 92.46 29.32 92.59 17.95 M 104.83 22.78 C 104.88 31.26 104.65 39.74 104.64 48.23 C 113.17 48.37 121.70 48.31 130.23 48.27 C 130.28 45.28 130.28 42.29 130.33 39.30 C 127.40 38.50 124.35 38.74 121.36 38.56 C 121.27 36.76 121.25 34.95 121.30 33.14 C 121.76 33.22 122.68 33.37 123.14 33.45 C 125.21 31.88 127.92 32.49 130.34 32.25 C 130.34 29.10 130.35 25.95 130.38 22.81 C 121.86 22.73 113.34 22.82 104.83 22.78 Z" />
<path fill="#fefefe" opacity="1.00" d=" M 27.48 43.04 C 28.27 43.40 29.07 43.77 29.86 44.14 C 47.66 46.69 65.35 50.25 83.33 51.34 C 84.22 54.42 84.64 57.84 86.81 60.35 C 89.87 63.75 94.49 65.46 99.01 65.44 C 111.69 65.55 124.37 65.39 137.05 65.39 C 141.45 65.28 146.32 64.51 149.40 61.03 C 152.42 58.66 151.23 54.24 153.61 51.52 C 171.17 49.84 188.81 47.51 205.99 43.72 C 206.35 43.70 207.07 43.67 207.43 43.65 C 211.06 67.03 214.12 90.49 216.63 114.01 C 217.87 129.07 219.66 144.10 219.87 159.23 C 220.50 165.48 220.79 171.76 220.77 178.04 C 221.54 189.37 221.69 200.75 221.53 212.11 C 221.72 215.58 219.39 218.60 216.46 220.18 C 207.36 223.72 197.70 225.51 188.02 226.57 C 179.00 227.33 170.03 229.34 160.94 228.39 C 153.19 227.80 144.79 228.23 137.76 224.39 C 132.67 221.56 132.47 215.20 131.51 210.13 C 129.39 187.35 127.68 164.52 125.41 141.74 C 125.13 139.02 128.36 139.18 130.13 138.45 C 137.45 136.82 143.66 132.42 150.03 128.69 C 135.29 131.64 120.00 133.01 105.06 130.95 C 101.29 130.35 97.50 129.85 93.71 129.37 C 99.13 133.10 104.60 136.81 110.76 139.23 C 111.56 141.93 110.39 144.65 110.07 147.33 C 107.38 167.84 104.45 188.33 102.57 208.94 C 101.29 213.94 102.02 220.03 97.93 223.86 C 94.30 227.45 88.88 227.59 84.12 228.22 C 73.80 228.80 63.39 229.34 53.12 227.89 C 41.56 227.06 29.99 225.30 19.04 221.43 C 16.92 220.38 14.50 218.78 14.35 216.18 C 13.06 210.08 14.47 203.88 14.05 197.73 C 14.43 150.97 18.49 104.29 24.67 57.94 C 25.54 52.97 25.69 47.80 27.48 43.04 Z" />
<path fill="#fefefe" opacity="1.00" d=" M 5.42 244.89 C -0.12 241.13 1.66 231.41 8.03 229.60 C 12.42 228.44 16.44 231.22 19.21 234.35 C 23.47 234.42 27.77 233.39 31.99 234.40 C 35.42 234.90 38.41 236.74 41.18 238.72 C 42.61 240.17 44.53 238.91 46.14 238.57 C 52.26 236.23 59.05 237.81 64.78 240.49 C 69.51 236.73 76.33 237.44 81.67 239.45 C 82.41 240.55 83.15 241.66 83.89 242.77 C 86.07 240.16 88.37 237.25 91.90 236.51 C 96.51 235.35 101.64 233.41 106.20 235.78 C 107.15 238.13 107.82 240.58 108.34 243.06 C 107.76 244.52 107.19 245.97 106.59 247.42 C 105.50 248.19 104.42 248.98 103.34 249.78 C 105.49 252.03 108.10 254.54 107.65 257.97 C 107.32 262.47 106.43 267.67 102.60 270.58 C 99.01 273.62 93.23 274.68 89.38 271.51 C 88.56 278.15 81.80 282.79 75.14 281.15 L 81.53 282.00 L 76.70 282.00 C 73.42 281.66 70.29 280.67 67.30 279.33 C 65.76 277.97 64.20 276.63 62.67 275.27 C 57.59 281.05 48.87 281.88 41.89 279.65 C 38.58 278.74 36.13 275.86 35.46 272.52 C 29.19 276.88 19.63 277.74 13.79 272.20 C 11.25 270.19 10.54 266.84 10.45 263.77 C 6.80 264.14 2.67 262.57 1.45 258.84 C 0.52 253.95 0.71 247.84 5.42 244.89 Z" />
<path fill="#fefefe" opacity="1.00" d=" M 216.00 234.49 C 218.61 231.80 222.08 229.47 226.03 230.28 C 229.90 230.64 231.86 234.50 232.25 237.96 C 231.73 240.73 231.02 243.73 228.32 245.19 C 232.56 248.18 235.83 253.89 233.35 259.01 C 231.98 262.50 228.14 263.71 224.77 264.33 C 224.49 270.52 218.83 275.20 212.91 275.69 C 208.21 276.01 203.26 275.72 199.04 273.41 C 198.56 274.75 198.05 276.08 197.54 277.41 C 194.25 280.25 190.16 282.11 185.60 281.10 L 191.78 282.00 L 187.45 282.00 C 181.90 281.59 175.81 280.42 171.78 276.24 C 164.74 283.92 149.73 281.62 146.36 271.45 C 143.06 273.45 138.90 274.36 135.28 272.62 C 126.24 269.20 124.17 255.28 131.56 249.22 C 130.17 247.38 128.15 245.60 128.21 243.09 C 127.91 240.05 129.51 236.76 132.39 235.53 C 137.83 234.62 143.60 235.85 148.12 239.05 L 147.35 239.50 C 148.72 239.80 150.14 240.37 151.51 239.70 C 157.44 237.62 164.72 236.95 170.01 240.97 C 172.67 238.92 176.02 238.30 179.21 237.53 C 183.89 236.58 188.45 238.39 192.90 239.57 C 197.16 234.68 203.96 234.01 210.02 233.52 C 212.08 233.18 214.06 233.91 216.00 234.49 Z" />
</g>
</svg>
