<?xml version="1.0" encoding="UTF-8" ?>
<!DOCTYPE svg PUBLIC "-//W3C//DTD SVG 1.1//EN" "http://www.w3.org/Graphics/SVG/1.1/DTD/svg11.dtd">
<svg viewBox="275.12 465.81 540.11 540.11" version="1.1" xmlns="http://www.w3.org/2000/svg">
<g id="#fefefefe">
<path fill="#fefefe" opacity="1.00" d=" M 487.28 554.22 C 517.36 534.38 551.53 518.72 587.93 516.48 C 604.13 515.34 620.48 518.82 635.10 525.82 C 651.78 534.33 666.71 545.86 680.55 558.40 C 699.35 575.80 714.71 596.80 726.29 619.60 C 737.81 644.84 744.74 672.92 742.00 700.77 C 749.72 698.60 758.20 696.59 766.00 699.54 C 767.99 700.06 769.33 701.71 770.82 703.04 C 770.35 705.13 770.04 707.66 768.01 708.86 C 766.46 709.88 765.08 711.11 763.92 712.55 C 770.93 709.53 779.49 709.82 785.99 713.97 C 788.72 715.66 790.54 718.88 790.16 722.13 C 789.67 725.44 786.49 727.17 784.17 729.13 C 793.15 731.86 799.95 740.67 799.94 750.10 C 799.69 757.50 793.10 763.23 786.15 764.53 C 781.33 765.84 776.39 764.65 771.61 763.87 C 775.55 767.39 781.84 770.83 780.84 777.04 C 780.35 782.82 774.94 786.35 770.12 788.52 C 762.07 791.41 752.82 792.09 744.93 788.35 C 739.86 786.55 736.40 782.25 733.42 778.01 C 733.68 781.29 735.17 785.01 732.96 787.94 C 731.77 790.16 728.77 790.39 726.76 789.24 C 718.90 785.33 714.26 776.59 714.13 767.98 C 713.81 763.05 715.13 758.23 715.59 753.36 C 714.57 753.51 714.44 754.95 714.21 755.71 C 712.92 760.38 710.38 764.70 707.17 768.30 C 704.95 771.00 700.43 770.14 698.84 767.20 C 695.65 761.49 695.72 753.95 699.22 748.37 C 701.33 744.45 704.97 741.72 707.79 738.35 C 703.80 740.00 699.33 742.46 695.16 739.72 C 693.37 735.57 695.94 731.33 698.15 727.91 C 702.42 722.27 709.31 719.57 716.09 718.39 C 712.61 717.33 709.06 716.09 706.27 713.67 C 705.41 712.07 707.28 711.08 708.25 710.21 C 713.84 705.93 721.10 705.36 727.76 704.00 C 725.61 702.45 723.04 701.79 720.48 701.29 C 713.88 700.00 708.18 696.06 703.14 691.79 C 697.75 687.60 693.07 682.61 687.91 678.16 C 672.44 664.26 657.56 649.64 644.35 633.55 C 630.83 617.72 621.92 598.49 615.33 578.90 C 615.92 591.68 617.36 604.49 620.47 616.93 C 621.28 620.36 622.90 623.60 622.97 627.19 C 611.60 611.61 600.47 595.83 588.79 580.48 C 589.03 582.83 590.12 584.95 590.89 587.16 C 593.98 596.10 596.63 605.20 600.42 613.88 C 609.10 634.49 623.39 652.41 640.14 667.06 C 618.29 662.82 597.14 655.38 576.88 646.23 C 571.22 643.85 565.81 640.95 560.66 637.61 C 563.23 640.93 566.46 643.62 569.67 646.29 C 584.74 659.54 602.07 669.87 619.76 679.19 C 625.30 682.40 631.22 684.91 636.68 688.26 C 640.12 690.22 642.35 693.73 643.77 697.34 C 657.51 729.13 668.85 761.91 679.01 795.00 C 682.64 808.32 686.37 821.65 689.31 835.13 C 685.58 832.35 681.03 831.12 676.90 829.10 C 647.43 816.83 616.36 808.81 585.02 803.04 C 552.62 797.29 519.83 793.42 486.91 792.56 C 446.09 791.22 404.88 794.63 365.44 805.61 C 351.03 809.63 337.22 815.42 323.32 820.87 C 330.98 811.96 341.83 806.62 351.95 800.98 C 363.30 795.14 375.34 790.76 387.27 786.26 C 403.05 780.16 419.63 776.59 436.03 772.62 C 447.81 770.25 459.63 767.79 471.66 767.24 C 471.65 767.11 471.63 766.86 471.62 766.73 C 457.74 766.26 443.81 764.95 429.94 766.41 C 398.06 768.97 367.15 779.56 339.09 794.63 C 347.07 784.16 357.11 775.48 367.33 767.27 C 379.93 757.76 392.59 748.05 406.98 741.36 C 408.02 740.71 409.73 740.24 409.51 738.73 L 408.33 739.88 C 379.47 744.72 354.06 761.26 332.96 780.89 C 338.70 764.12 343.86 747.11 350.85 730.79 C 365.30 693.77 385.20 658.90 409.73 627.63 C 431.80 599.56 457.52 574.10 487.28 554.22 Z" />
<path fill="#fefefe" opacity="1.00" d=" M 450.02 808.57 C 460.06 805.67 470.45 803.36 480.97 804.31 C 495.32 805.37 509.57 808.62 522.59 814.85 C 535.20 809.19 549.71 809.27 563.03 812.12 C 567.67 812.94 571.83 815.19 575.93 817.41 C 590.29 814.48 605.20 817.74 618.30 823.82 C 620.90 825.03 623.16 826.86 625.01 829.05 C 636.70 828.44 650.78 830.79 657.84 841.19 C 667.55 839.23 677.74 840.43 686.92 844.09 C 689.94 845.17 692.58 847.38 693.84 850.39 C 693.55 850.92 692.98 851.97 692.70 852.50 C 696.97 854.19 701.43 855.42 705.59 857.40 C 713.69 861.77 719.79 870.61 719.09 880.06 C 719.40 885.73 716.40 891.53 711.21 894.05 C 722.75 903.96 726.01 923.57 715.76 935.54 C 707.93 944.38 696.50 949.22 685.18 951.76 C 672.66 954.64 659.74 954.06 647.00 953.91 C 644.21 953.84 641.52 953.06 638.79 952.65 C 647.97 952.03 656.88 949.30 665.55 946.34 C 670.21 944.53 674.91 942.41 678.70 939.08 C 673.79 936.25 668.15 935.40 662.90 933.46 C 609.13 917.60 553.79 907.14 497.98 901.94 C 470.07 899.02 442.03 897.43 413.98 896.85 C 402.61 896.56 391.28 897.52 379.96 898.19 C 374.58 899.03 369.00 898.61 363.79 900.33 C 376.47 901.35 388.87 904.41 401.37 906.66 C 380.08 908.70 358.29 910.84 338.42 919.38 C 332.81 922.10 326.27 925.25 323.48 931.03 C 325.85 935.43 330.74 937.80 335.11 939.83 C 360.64 949.49 388.24 952.03 415.34 952.40 C 409.38 954.11 403.16 953.93 397.07 954.79 C 381.24 955.76 365.26 955.91 349.53 953.67 C 338.24 952.14 326.85 949.66 316.60 944.51 C 309.61 940.54 302.05 934.79 301.32 926.12 C 299.80 916.55 304.12 907.55 308.25 899.24 C 310.88 893.83 314.08 888.69 318.04 884.15 C 313.56 886.91 310.18 891.01 306.47 894.66 C 300.98 900.47 297.68 908.03 296.25 915.85 C 287.89 903.84 289.68 887.26 296.19 874.81 C 291.13 870.56 289.48 863.27 290.89 856.99 C 291.97 850.04 297.34 844.60 303.39 841.48 C 309.49 837.94 316.84 837.52 323.68 838.60 C 322.02 834.63 324.59 830.03 328.33 828.40 C 335.52 824.79 344.25 826.10 351.18 829.71 C 358.69 821.23 369.98 817.29 380.97 816.02 C 388.41 814.86 395.88 816.28 403.25 817.19 C 408.70 813.72 414.49 810.59 420.87 809.26 C 430.39 806.66 440.35 807.63 450.02 808.57 Z" />
</g>
</svg>
