<?xml version="1.0" encoding="UTF-8" ?>
<!DOCTYPE svg PUBLIC "-//W3C//DTD SVG 1.1//EN" "http://www.w3.org/Graphics/SVG/1.1/DTD/svg11.dtd">
<svg width="345pt" height="298pt" viewBox="0 0 345 298" version="1.1" xmlns="http://www.w3.org/2000/svg">
<g id="#fefefefe">
<path fill="#fefefe" opacity="1.00" d=" M 131.85 4.92 C 136.15 3.37 140.70 2.73 145.21 2.16 C 150.31 0.96 155.60 1.82 160.67 2.77 C 161.02 3.09 161.73 3.72 162.09 4.04 C 165.31 1.00 169.85 0.60 174.05 0.27 C 178.22 0.05 182.53 0.97 185.96 3.43 C 193.25 -0.90 202.50 1.21 209.75 4.62 C 212.27 2.98 215.20 2.29 218.19 2.15 C 219.72 1.81 221.29 1.90 222.83 2.15 C 229.74 2.08 237.41 5.21 240.42 11.82 C 241.65 14.09 241.63 16.73 241.70 19.24 C 247.10 19.53 251.47 24.73 251.64 30.03 C 252.04 34.28 249.75 39.05 245.46 40.33 C 243.14 41.26 240.83 39.98 238.66 39.28 C 237.93 44.29 236.82 49.57 233.54 53.59 C 230.88 56.00 227.10 56.60 223.62 56.28 C 223.39 61.39 219.80 65.30 215.33 67.34 C 213.30 67.59 211.26 67.78 209.22 67.79 C 210.80 72.88 211.13 78.88 208.34 83.62 C 206.83 85.96 203.73 86.34 201.27 85.50 C 206.58 94.89 206.25 107.50 199.38 116.02 C 199.83 120.70 203.75 124.22 203.78 128.97 C 203.73 133.96 204.57 139.36 201.90 143.87 C 201.32 145.27 200.67 146.64 200.23 148.09 C 201.33 152.75 203.89 157.13 203.79 162.04 C 204.21 165.78 200.12 168.22 200.65 171.99 C 201.43 175.20 203.03 178.16 203.62 181.43 C 201.50 181.71 199.34 181.78 197.31 181.06 C 192.89 179.72 187.94 180.51 183.85 178.15 L 185.76 177.28 C 182.39 169.13 184.97 160.37 185.69 151.99 C 185.50 146.34 184.57 140.71 183.74 135.13 C 183.73 132.73 183.81 130.33 183.93 127.93 C 184.96 121.62 183.79 115.28 183.38 108.98 C 183.13 105.80 182.06 102.77 180.92 99.82 C 178.70 92.99 182.18 85.50 179.05 78.85 C 177.94 76.20 178.81 73.28 178.13 70.55 C 176.85 66.08 178.11 61.26 180.17 57.22 C 181.49 54.37 184.78 52.89 185.82 49.94 C 185.60 46.11 184.16 41.84 186.42 38.33 C 189.42 33.48 195.42 32.13 200.71 31.62 C 200.33 24.00 205.38 17.33 212.02 14.06 C 192.72 12.70 173.34 12.16 154.02 13.35 C 146.88 13.85 139.67 13.21 132.60 14.56 C 134.53 15.87 136.77 16.62 138.69 17.95 C 141.21 20.03 142.62 23.06 144.36 25.77 C 144.98 27.80 145.03 30.07 146.08 31.93 C 148.68 32.67 151.32 33.25 153.90 34.04 C 159.88 37.17 161.28 44.53 159.48 50.56 L 160.21 50.47 C 162.44 53.14 165.83 54.71 167.38 57.97 C 170.13 62.28 168.41 67.45 168.01 72.10 C 169.52 74.77 171.90 77.01 172.55 80.12 C 173.37 86.94 173.08 94.58 168.51 100.12 C 168.58 100.59 168.71 101.53 168.78 102.00 C 172.84 105.50 176.76 110.28 176.35 115.99 C 176.72 120.91 174.36 125.25 172.22 129.44 C 172.70 129.83 173.67 130.60 174.15 130.99 C 176.22 135.16 174.78 139.83 175.63 144.20 C 177.06 147.43 178.81 150.57 179.31 154.12 C 178.02 155.81 179.04 158.23 177.69 159.86 C 176.31 162.59 177.97 165.20 179.33 167.53 C 181.11 170.21 180.16 173.48 180.28 176.48 C 166.71 178.73 152.10 176.42 139.36 182.59 C 139.54 182.22 139.89 181.48 140.07 181.11 C 140.59 177.32 142.76 174.06 143.56 170.35 C 140.17 167.27 139.44 162.15 141.03 157.98 C 141.99 154.26 145.14 151.69 146.44 148.13 C 141.39 143.80 139.46 136.53 141.40 130.21 C 142.18 125.48 145.61 121.95 147.69 117.79 C 142.37 112.41 138.37 104.82 140.17 97.08 C 140.70 92.66 144.01 89.43 145.17 85.22 C 142.20 85.81 138.26 86.62 136.26 83.62 C 132.41 79.23 132.85 73.10 133.90 67.76 C 130.70 67.83 127.00 68.00 124.81 65.21 C 122.26 63.46 122.22 59.87 120.21 57.89 C 116.23 57.77 112.43 56.09 109.42 53.52 C 105.81 50.23 104.91 45.15 104.60 40.51 C 99.61 41.40 93.24 39.39 91.79 34.01 C 89.78 27.10 95.42 19.91 102.34 19.13 C 102.43 17.92 102.51 16.72 102.58 15.51 L 103.17 15.33 C 104.42 9.99 108.70 5.69 113.89 4.05 C 119.62 1.66 126.46 1.59 131.85 4.92 Z" />
<path fill="#fefefe" opacity="1.00" d=" M 81.09 48.57 C 83.98 48.13 87.42 46.69 90.05 48.59 C 92.01 52.23 93.44 56.35 96.71 59.10 C 99.80 62.05 104.18 63.03 107.33 65.88 C 108.87 67.59 109.37 69.95 109.94 72.11 C 111.23 72.81 112.53 73.50 113.84 74.16 C 116.17 75.37 118.48 76.80 120.13 78.88 C 121.72 81.28 121.93 84.21 122.40 86.97 C 126.50 89.96 129.18 94.88 128.10 100.05 C 126.85 102.88 128.84 105.78 129.27 108.57 C 130.61 112.36 129.30 116.26 128.72 120.04 C 128.17 123.20 130.70 125.85 130.61 128.97 C 130.91 132.21 128.10 134.92 128.97 138.18 C 130.11 143.11 129.66 148.25 127.71 152.93 C 127.72 154.30 127.76 155.68 127.86 157.05 C 129.10 160.92 128.72 165.03 128.78 169.03 C 128.74 172.36 129.81 175.59 129.63 178.93 C 129.53 181.46 131.23 183.83 130.40 186.37 C 118.81 186.44 106.97 186.10 95.84 182.54 C 91.58 181.12 87.24 178.58 86.10 173.92 C 84.65 169.22 83.54 164.37 83.41 159.44 C 89.06 161.80 94.60 164.45 100.38 166.50 C 98.26 164.92 96.32 163.15 94.56 161.19 L 94.49 160.45 L 93.70 160.53 C 93.47 160.21 92.99 159.56 92.75 159.24 C 84.82 151.47 82.02 140.36 79.71 129.88 C 76.39 116.66 75.03 103.06 73.42 89.56 C 72.80 101.71 73.78 113.89 72.80 126.03 C 72.58 144.36 73.29 162.73 71.75 181.01 C 70.77 190.06 69.77 199.11 68.34 208.11 C 67.92 210.32 67.17 213.09 64.40 213.19 C 58.21 213.49 52.10 211.89 45.97 211.14 C 36.85 208.77 27.43 207.04 18.94 202.80 C 17.57 202.00 18.58 200.07 18.53 198.84 C 20.73 189.53 22.77 180.19 24.56 170.80 C 30.17 147.29 36.81 124.01 44.58 101.11 C 48.90 87.64 53.45 74.19 59.59 61.42 C 63.71 53.49 72.89 50.31 81.09 48.57 Z" />
<path fill="#fefefe" opacity="1.00" d=" M 254.09 48.43 C 262.63 47.65 271.66 49.36 278.89 54.10 C 285.78 59.82 288.08 68.91 290.89 77.02 C 295.22 88.21 298.96 99.62 303.22 110.84 C 308.36 127.28 313.83 143.62 318.55 160.19 C 321.51 171.11 323.92 182.17 326.48 193.18 C 327.21 196.54 328.98 200.45 326.55 203.51 C 314.65 207.71 302.41 211.00 289.94 212.95 C 286.20 213.94 282.30 213.85 278.47 213.64 C 275.16 205.04 274.33 195.79 272.90 186.76 C 271.78 177.15 271.16 167.47 271.22 157.79 C 270.02 144.26 270.83 130.61 270.81 117.03 C 271.92 109.11 270.22 101.13 271.35 93.23 C 271.43 92.65 271.29 92.13 270.93 91.66 C 269.26 103.84 267.97 116.11 265.09 128.10 C 263.94 136.30 260.73 144.00 257.20 151.42 C 254.69 156.25 251.65 160.90 247.43 164.42 L 247.00 166.31 C 252.34 164.54 256.98 161.37 261.43 158.01 C 261.07 163.73 260.41 169.53 258.28 174.89 C 257.62 176.85 255.89 178.04 254.45 179.39 C 253.58 179.90 252.71 180.41 251.85 180.93 C 248.18 182.79 244.09 183.55 240.10 184.43 C 231.37 185.91 222.45 188.26 213.58 186.47 C 215.15 181.84 217.34 176.97 215.96 172.00 C 215.32 168.60 214.23 164.57 216.40 161.51 C 217.14 160.04 218.83 158.72 218.31 156.90 C 216.32 151.78 213.95 146.53 214.13 140.91 C 214.09 139.20 215.93 138.03 215.67 136.29 C 213.36 131.25 213.63 125.16 215.81 120.13 C 214.09 115.98 213.65 111.35 214.93 107.00 C 217.01 104.75 219.25 101.66 216.58 98.88 C 215.88 93.68 219.22 89.44 222.78 86.17 C 222.82 83.25 222.36 79.90 224.31 77.44 C 227.27 75.66 230.12 73.71 233.04 71.86 C 233.92 66.58 238.95 63.94 243.12 61.48 C 248.17 58.48 251.01 53.20 254.09 48.43 Z" />
<path fill="#fefefe" opacity="1.00" d=" M 145.31 195.06 C 145.05 191.41 146.32 186.71 150.09 185.40 C 164.74 185.50 179.40 185.53 194.05 185.23 C 198.20 184.82 201.34 189.10 201.41 192.93 C 201.33 203.98 200.54 215.02 201.24 226.06 C 201.42 229.76 199.49 234.91 195.05 234.75 C 181.39 234.91 167.71 234.83 154.04 234.92 C 152.11 234.78 149.77 235.21 148.33 233.58 C 146.60 232.27 146.35 230.02 145.70 228.11 C 145.60 217.09 145.58 206.08 145.31 195.06 M 157.94 197.38 C 158.70 206.31 158.01 215.28 158.51 224.22 C 168.44 224.27 178.37 224.16 188.30 223.79 C 188.20 222.53 188.12 221.27 188.06 220.01 C 188.13 218.13 188.14 216.25 188.15 214.37 C 185.32 214.61 182.49 214.69 179.66 214.43 C 179.40 211.87 178.99 209.26 179.57 206.72 C 182.31 206.83 185.05 206.77 187.79 206.71 C 187.72 203.37 187.91 200.04 187.82 196.71 C 177.87 197.17 167.81 196.08 157.94 197.38 Z" />
<path fill="#fefefe" opacity="1.00" d=" M 87.74 190.30 C 90.06 190.72 92.44 191.18 94.37 192.63 C 94.07 200.02 93.51 207.46 92.14 214.73 C 90.17 216.28 87.31 215.30 85.31 214.29 C 86.21 206.32 86.21 198.21 87.74 190.30 Z" />
<path fill="#fefefe" opacity="1.00" d=" M 254.09 191.11 C 255.20 190.83 256.32 190.66 257.45 190.49 C 258.46 194.61 258.58 198.85 258.90 203.06 C 259.74 206.84 259.60 210.74 259.28 214.57 C 257.10 215.21 254.86 215.65 252.57 215.59 C 252.36 207.60 249.97 199.77 250.41 191.76 C 251.64 191.55 252.86 191.33 254.09 191.11 Z" />
<path fill="#fefefe" opacity="1.00" d=" M 5.10 213.66 C 6.71 210.31 10.74 208.97 14.24 209.52 C 16.55 210.42 18.26 212.22 19.19 214.51 C 21.11 214.38 23.03 214.25 24.93 213.93 C 29.37 213.65 33.13 216.50 34.75 220.53 C 37.28 219.69 39.83 218.67 42.54 218.76 C 46.44 219.28 49.67 221.32 52.90 223.39 C 55.97 223.03 58.82 221.37 62.03 221.70 C 63.21 222.44 65.76 222.06 65.72 223.99 C 64.48 230.80 62.25 237.40 60.13 243.99 C 58.23 248.44 56.37 253.25 52.53 256.42 C 47.27 259.67 38.98 257.34 37.23 251.06 C 30.19 256.86 16.74 253.86 14.93 244.25 C 10.97 245.08 6.48 244.41 3.81 241.10 C -1.26 236.06 1.19 226.77 7.65 224.12 C 6.61 223.45 5.58 222.77 4.55 222.10 C 4.08 219.31 3.62 216.24 5.10 213.66 Z" />
<path fill="#fefefe" opacity="1.00" d=" M 325.19 215.25 C 326.72 213.66 328.14 211.86 330.14 210.83 C 333.40 209.80 337.12 210.22 339.45 212.92 C 340.44 216.57 341.47 220.77 338.60 223.89 C 342.62 225.82 345.08 230.16 344.49 234.71 L 345.00 230.67 L 345.00 236.46 L 344.28 232.52 C 345.26 239.37 337.68 246.18 331.07 243.72 C 329.67 253.45 315.81 258.39 308.69 251.57 C 306.88 253.98 304.90 256.62 301.85 257.49 C 298.38 258.53 293.87 258.69 291.32 255.66 C 285.32 248.38 283.08 239.00 280.24 230.21 C 279.45 227.78 279.26 225.22 279.02 222.70 C 282.33 222.18 285.65 221.59 288.99 221.27 C 289.96 221.98 290.93 222.68 291.90 223.38 C 297.09 219.50 303.81 219.03 309.88 220.82 C 313.47 216.43 319.57 213.89 325.19 215.25 Z" />
<path fill="#fefefe" opacity="1.00" d=" M 81.88 220.62 C 86.02 220.85 89.97 222.24 94.08 222.74 C 107.44 224.92 121.03 224.82 134.46 226.30 C 135.01 227.81 135.39 229.40 135.03 231.01 C 134.32 235.90 135.12 241.00 133.52 245.75 C 122.05 244.70 110.47 244.30 99.16 241.87 C 97.44 241.65 95.71 241.44 94.03 240.99 C 89.44 239.86 83.95 239.86 80.53 236.13 C 79.60 232.43 80.57 228.59 80.78 224.85 C 81.18 223.45 81.53 222.03 81.88 220.62 Z" />
<path fill="#fefefe" opacity="1.00" d=" M 213.74 226.24 C 230.01 224.60 246.53 224.08 262.48 220.18 C 263.43 225.75 265.09 231.47 264.30 237.12 C 261.29 238.41 258.17 239.41 254.95 239.99 C 245.67 241.70 236.41 243.59 227.02 244.59 C 221.96 245.31 216.82 246.12 211.71 245.56 C 210.52 239.54 209.67 233.38 210.34 227.24 C 210.86 225.91 212.64 226.48 213.74 226.24 Z" />
<path fill="#fefefe" opacity="1.00" d=" M 148.36 243.48 C 153.01 242.60 158.07 243.47 161.90 246.35 C 165.38 244.21 169.61 244.63 173.39 245.55 C 178.43 247.83 176.40 254.68 173.52 257.95 C 173.11 261.30 176.34 263.62 176.62 266.87 C 177.24 273.45 176.95 280.38 174.25 286.51 C 172.21 290.80 168.26 295.30 163.02 294.69 C 160.18 295.00 157.65 293.54 155.90 291.40 C 153.96 296.88 146.92 297.60 142.07 295.97 C 139.02 294.99 136.32 293.25 133.86 291.24 C 131.28 290.98 129.84 293.96 127.54 294.75 C 122.84 296.57 117.70 294.29 113.67 291.86 C 111.57 290.49 109.83 286.74 106.99 288.81 C 100.60 291.83 92.92 291.15 87.12 287.15 C 85.69 284.85 83.48 282.90 83.12 280.10 C 82.71 280.70 82.29 281.30 81.87 281.91 C 74.62 284.80 64.78 278.04 66.36 269.93 C 66.84 266.77 69.31 264.43 71.33 262.15 C 68.77 259.87 69.40 256.17 69.70 253.15 C 70.69 248.60 75.30 245.76 79.75 245.73 C 82.34 245.93 84.83 246.74 87.22 247.71 C 88.43 249.29 89.70 250.82 90.90 252.41 C 97.85 248.62 106.53 250.50 112.69 254.98 C 113.02 255.39 113.67 256.23 114.00 256.64 C 117.24 255.46 120.36 253.75 123.86 253.50 C 129.99 252.55 135.46 256.04 141.18 257.56 C 142.19 257.85 144.22 258.44 145.23 258.73 L 145.05 255.28 L 143.82 255.54 C 145.24 253.34 142.78 250.72 143.82 248.37 C 144.72 246.29 146.36 244.53 148.36 243.48 Z" />
<path fill="#fefefe" opacity="1.00" d=" M 184.72 247.52 C 187.19 241.39 195.73 242.44 199.88 246.12 C 203.12 249.75 202.88 254.83 202.77 259.36 C 207.44 253.47 215.70 253.21 222.46 254.78 C 224.44 255.34 225.97 257.08 228.06 257.29 C 232.41 254.84 236.85 251.97 242.00 251.80 C 245.75 251.87 249.42 252.78 253.16 252.99 C 256.79 247.48 264.30 244.87 270.49 247.29 C 273.15 248.56 273.96 251.62 274.98 254.14 C 275.92 256.60 275.61 259.55 273.14 260.99 C 277.83 262.76 280.00 268.38 279.00 273.06 C 278.67 277.16 274.71 279.36 271.74 281.55 C 267.99 282.96 263.95 282.78 260.03 282.44 C 258.96 287.13 254.55 290.25 249.99 290.98 C 244.89 292.16 239.58 290.81 235.21 288.08 C 234.96 288.64 234.44 289.77 234.18 290.33 C 230.55 293.94 225.23 296.06 220.11 295.34 C 216.80 294.68 214.52 292.32 212.15 290.18 C 211.11 293.07 207.74 293.89 205.23 295.11 C 200.30 297.24 193.31 297.73 190.06 292.57 C 188.32 293.39 185.31 295.60 184.15 293.00 C 181.70 290.04 183.28 286.18 183.69 282.84 C 184.49 278.31 183.12 273.67 184.17 269.19 C 184.54 261.97 183.81 254.69 184.72 247.52 Z" />
</g>
</svg>
