<?xml version="1.0" encoding="UTF-8" ?>
<!DOCTYPE svg PUBLIC "-//W3C//DTD SVG 1.1//EN" "http://www.w3.org/Graphics/SVG/1.1/DTD/svg11.dtd">
<svg viewBox="-7.7 -41 285.34 285.34" version="1.1" xmlns="http://www.w3.org/2000/svg">
<g id="#fdfdfdfe">
<path fill="#fdfdfd" opacity="1.00" d=" M 72.14 3.50 C 76.10 3.20 80.01 2.54 83.90 1.77 C 87.58 1.16 91.79 0.49 94.98 2.93 C 100.29 1.27 105.91 0.48 111.47 0.57 L 111.47 1.41 C 112.99 1.43 114.51 1.48 116.03 1.54 C 116.96 2.15 117.92 2.73 118.89 3.31 C 122.00 1.65 125.61 1.73 129.03 1.80 C 130.66 1.48 131.74 2.81 132.82 3.75 C 131.86 6.40 130.55 8.89 129.00 11.24 C 118.96 10.79 108.90 10.28 98.85 10.81 C 94.12 11.34 89.44 12.19 84.74 12.88 C 84.22 13.15 83.19 13.71 82.67 13.99 C 84.41 14.16 86.03 14.79 87.58 15.57 L 87.35 16.49 C 91.84 16.55 96.74 14.38 100.80 17.29 C 102.50 18.27 104.28 19.08 106.06 19.88 C 108.90 18.79 111.89 17.87 114.97 18.17 C 118.79 18.64 123.19 17.66 126.39 20.33 C 128.98 23.48 126.01 27.03 125.14 30.21 C 125.59 32.87 127.60 35.10 127.81 37.85 C 128.31 41.67 126.19 45.21 126.58 49.03 C 126.59 51.91 127.89 55.83 124.62 57.46 C 119.96 58.99 115.59 55.74 112.71 52.40 C 108.36 57.40 100.56 56.05 95.55 52.76 C 95.27 52.06 94.71 50.65 94.42 49.94 C 88.84 57.20 76.71 53.11 73.51 45.50 C 70.87 47.55 66.75 47.18 64.43 44.79 C 59.97 41.38 58.27 35.16 59.94 29.87 C 60.74 27.29 63.19 25.83 65.15 24.19 C 57.80 18.01 62.99 4.55 72.14 3.50 Z" />
<path fill="#fdfdfd" opacity="1.00" d=" M 200.02 4.14 C 203.02 3.52 205.77 1.84 208.85 1.45 C 214.07 0.96 219.31 2.09 224.14 4.04 C 231.15 0.87 239.29 1.81 246.09 5.09 C 252.93 3.52 261.59 5.05 265.53 11.44 C 268.07 15.11 268.01 19.86 267.54 24.11 C 267.33 26.74 265.18 28.51 263.35 30.11 C 270.42 33.54 271.87 44.81 265.54 49.65 C 263.49 51.71 260.51 52.08 257.77 51.66 C 257.04 55.77 254.05 59.36 249.96 60.42 C 245.18 62.42 239.69 61.87 235.29 59.19 C 230.06 63.18 223.67 66.26 216.93 65.62 C 213.22 65.80 210.00 63.75 207.01 61.83 C 203.69 66.91 196.97 67.35 191.55 66.35 C 187.96 65.20 183.91 63.63 182.37 59.87 C 177.76 64.75 169.46 65.52 163.70 62.29 C 160.26 60.75 158.62 57.13 156.54 54.22 C 153.64 56.02 150.11 56.17 146.86 55.42 C 137.89 51.48 136.90 36.79 145.47 31.90 C 142.24 29.93 138.64 27.05 138.44 22.97 C 138.10 20.61 138.80 18.29 139.32 16.01 C 141.75 12.59 144.93 9.47 149.07 8.29 C 154.20 6.52 159.65 7.69 164.93 7.73 C 167.26 7.27 169.48 6.25 171.91 6.32 C 177.09 6.25 181.88 3.80 187.06 3.76 C 191.38 3.80 195.74 3.32 200.02 4.14 M 163.14 18.39 C 161.42 18.94 158.74 18.52 158.14 20.78 C 158.82 21.16 160.16 21.91 160.84 22.29 C 164.90 23.19 169.02 22.03 173.13 22.40 C 177.20 22.43 180.95 24.15 184.87 25.03 C 189.66 24.59 194.14 22.07 199.04 22.42 C 201.85 22.47 204.35 24.06 207.13 24.22 C 216.63 19.46 227.70 20.27 238.00 20.73 C 240.63 21.05 242.76 19.06 245.02 18.05 C 243.22 15.96 240.36 15.84 237.91 15.13 C 229.64 13.77 221.25 13.51 212.91 12.89 C 196.23 13.60 179.45 14.58 163.14 18.39 Z" />
<path fill="#fdfdfd" opacity="1.00" d=" M 68.52 82.99 C 69.24 79.05 68.50 73.63 72.78 71.51 C 80.24 70.59 87.72 72.15 95.15 72.67 C 98.82 73.20 102.59 73.29 106.14 74.47 C 106.82 75.37 107.55 76.25 108.33 77.09 C 109.30 86.71 107.51 96.35 107.13 105.97 C 106.90 109.12 105.69 113.42 101.86 113.52 C 92.51 113.53 83.35 111.07 74.02 110.64 C 70.73 110.84 68.28 108.27 66.26 106.02 C 67.24 98.37 68.24 90.71 68.52 82.99 M 79.94 81.46 C 79.79 88.15 78.22 94.70 78.05 101.39 C 84.22 102.12 90.31 103.75 96.56 103.73 C 96.85 101.44 97.44 99.16 97.24 96.84 C 96.01 95.34 93.96 95.74 92.25 95.49 C 92.34 93.14 92.34 90.79 92.49 88.45 C 94.36 89.05 96.28 89.48 98.26 89.47 C 98.37 87.44 98.55 85.42 98.76 83.40 C 94.67 81.96 90.28 82.74 86.11 81.88 C 84.07 81.53 82.00 81.54 79.94 81.46 Z" />
<path fill="#fdfdfd" opacity="1.00" d=" M 117.09 85.69 C 113.94 85.47 113.84 79.64 117.00 79.22 C 119.33 79.48 121.66 79.90 124.02 79.86 C 129.27 80.31 134.27 81.96 139.46 82.85 C 139.44 84.18 139.34 85.50 139.05 86.80 C 131.73 86.69 124.33 86.82 117.09 85.69 Z" />
<path fill="#fdfdfd" opacity="1.00" d=" M 233.56 81.81 C 239.67 80.88 245.99 81.20 252.01 79.92 C 252.73 80.21 253.46 80.51 254.18 80.82 C 254.85 92.27 254.64 103.77 254.88 115.24 C 257.14 125.05 259.10 135.03 259.16 145.14 C 258.77 151.32 257.43 159.03 250.84 161.53 C 241.83 164.48 232.19 164.13 222.97 166.04 C 211.27 168.86 200.14 173.70 188.28 175.84 C 181.29 177.72 174.07 178.50 166.86 178.81 C 157.61 180.09 148.24 179.32 138.98 178.62 C 129.95 178.04 120.96 176.23 112.58 172.79 C 108.10 170.85 102.98 167.45 103.12 161.95 C 102.18 154.77 107.40 148.74 112.57 144.50 C 124.47 135.40 139.71 133.68 153.70 129.77 C 157.32 128.94 159.72 125.75 160.87 122.40 C 164.18 124.98 167.97 126.83 171.92 128.21 C 178.87 129.54 185.97 129.57 193.02 129.86 C 199.39 130.34 205.95 130.49 212.16 128.78 C 216.44 127.50 217.09 122.51 220.04 119.83 C 227.62 118.48 235.52 118.88 243.08 117.13 C 245.25 116.38 247.99 117.26 249.76 115.54 C 246.65 115.66 243.60 115.31 240.67 114.27 C 240.27 112.40 240.20 110.50 240.23 108.60 C 241.75 108.16 243.28 107.72 244.82 107.32 C 245.01 102.22 244.57 97.12 244.75 92.02 C 235.97 92.56 227.25 93.88 218.44 93.72 C 218.29 92.50 218.10 91.29 217.87 90.09 C 217.78 88.00 216.67 85.63 217.73 83.71 C 222.83 82.09 228.31 82.62 233.56 81.81 Z" />
<path fill="#fdfdfd" opacity="1.00" d=" M 179.09 80.16 C 185.38 79.40 191.73 79.52 198.05 79.38 C 200.99 79.33 204.03 78.74 206.91 79.56 C 208.58 81.13 210.13 83.10 210.08 85.52 C 210.40 95.69 210.89 105.86 210.91 116.04 C 211.08 118.84 208.81 121.89 205.85 121.88 C 201.63 122.40 197.27 122.59 193.07 121.86 C 189.71 121.81 186.30 121.49 182.99 122.14 C 179.07 121.32 175.03 122.27 171.12 121.42 C 169.07 120.74 167.85 118.80 166.52 117.24 C 165.71 106.15 165.05 95.00 165.43 83.89 C 168.43 79.03 174.35 80.54 179.09 80.16 M 177.31 90.61 C 176.47 91.96 176.68 93.58 176.83 95.08 C 177.48 100.48 177.25 105.92 177.56 111.34 C 177.84 111.55 178.41 111.97 178.69 112.19 C 185.57 112.80 192.50 112.37 199.40 112.33 C 199.33 109.76 199.31 107.20 199.40 104.64 C 196.77 104.08 194.11 104.61 191.46 104.48 C 190.65 102.62 190.75 100.58 190.78 98.60 C 192.20 98.45 193.62 98.34 195.05 98.26 C 196.00 98.07 197.90 97.68 198.85 97.49 C 198.78 94.82 198.69 92.16 198.65 89.49 C 191.55 89.99 184.44 90.64 177.31 90.61 Z" />
<path fill="#fdfdfd" opacity="1.00" d=" M 114.13 113.62 C 114.35 112.17 114.64 110.73 115.03 109.31 C 120.45 109.24 125.81 110.13 131.21 110.47 C 132.45 110.45 133.59 110.92 134.70 111.45 L 134.34 112.63 C 134.71 112.60 135.43 112.54 135.79 112.50 C 134.83 113.42 133.87 114.35 132.92 115.28 C 126.83 113.51 120.32 114.99 114.13 113.62 Z" />
<path fill="#fdfdfd" opacity="1.00" d=" M 58.83 115.92 C 60.52 115.03 61.01 113.02 61.92 111.50 C 64.61 113.43 66.92 116.11 70.22 117.02 C 77.75 119.14 85.91 119.17 92.84 123.15 C 95.78 124.98 99.31 125.94 101.83 128.39 L 102.21 128.44 C 103.62 130.25 106.39 131.20 105.89 134.00 C 104.74 137.66 101.52 140.10 98.75 142.54 C 93.38 147.97 92.17 155.78 89.56 162.62 C 86.66 164.18 83.42 164.81 80.20 165.28 C 70.52 166.56 60.75 166.85 51.01 167.20 C 41.36 167.18 31.76 165.99 22.15 165.29 C 16.42 163.72 10.17 163.27 5.09 159.95 C 0.30 156.56 -0.82 149.65 1.63 144.50 C 4.75 136.45 11.80 130.52 19.62 127.25 C 28.42 123.71 37.70 121.50 47.08 120.10 C 51.14 119.17 55.38 118.45 58.83 115.92 Z" />
<path fill="#fdfdfd" opacity="1.00" d=" M 1.66 168.59 C 3.55 168.12 5.36 168.69 7.08 169.45 C 21.27 173.98 36.32 174.00 51.03 175.18 C 64.52 175.53 78.30 175.56 91.42 172.03 C 91.76 176.85 91.97 181.70 91.47 186.52 C 87.11 187.87 82.47 188.10 77.94 188.44 C 75.71 188.79 73.97 187.31 72.24 186.20 C 69.74 187.91 67.05 189.79 63.87 189.64 C 58.26 189.84 51.43 190.81 47.36 185.99 C 45.59 186.83 44.03 188.19 42.10 188.66 C 37.36 188.92 32.67 187.79 28.13 186.56 C 26.02 186.07 24.36 184.65 22.88 183.15 C 22.25 185.54 19.06 184.68 17.19 184.73 C 12.20 183.11 6.83 182.40 2.37 179.43 C 2.48 175.80 2.12 172.19 1.66 168.59 Z" />
<path fill="#fdfdfd" opacity="1.00" d=" M 237.19 172.15 C 245.17 171.34 252.93 169.35 260.51 166.80 C 261.53 172.13 261.73 177.59 261.48 182.99 C 259.74 188.06 253.56 189.34 248.85 189.73 C 248.54 189.38 247.91 188.66 247.60 188.31 C 246.92 186.69 246.23 185.09 245.65 183.44 C 245.33 186.36 245.75 190.05 242.99 191.95 C 240.60 194.28 237.05 193.60 234.04 193.77 C 230.62 193.83 226.48 193.78 224.55 190.40 C 224.40 188.63 224.23 186.85 224.10 185.08 C 216.92 187.50 209.43 188.98 202.39 191.83 C 199.23 198.27 191.69 200.42 185.03 200.38 C 182.59 200.73 180.65 199.01 178.59 198.07 C 176.51 202.38 171.11 202.52 166.97 202.77 C 162.12 202.74 156.12 202.84 153.00 198.40 C 151.70 201.64 148.10 202.41 144.97 202.40 C 141.01 202.36 136.92 202.38 133.17 200.94 C 130.76 199.77 128.45 198.20 127.21 195.75 C 124.69 198.91 120.36 197.62 117.04 196.76 C 112.04 195.18 106.37 193.31 103.73 188.37 C 103.10 184.63 103.58 180.79 103.40 177.01 C 105.59 177.53 107.51 178.74 109.56 179.61 C 125.62 185.69 143.00 186.64 160.01 186.70 C 170.58 186.62 181.15 185.57 191.44 183.11 C 196.80 181.83 201.90 179.71 207.17 178.15 C 216.77 174.58 226.93 172.41 237.19 172.15 Z" />
</g>
</svg>
