<?xml version="1.0" encoding="UTF-8" standalone="no"?>
<!-- Created with Inkscape (http://www.inkscape.org/) -->

<svg
   width="196.464"
   height="196.464"
   viewBox="0 -8 51.981 51.981"
   version="1.1"
   id="svg1"
   xml:space="preserve"
   sodipodi:docname="Shork.svg"
   inkscape:version="1.4.3 (0d15f75, 2025-12-25)"
   xmlns:inkscape="http://www.inkscape.org/namespaces/inkscape"
   xmlns:sodipodi="http://sodipodi.sourceforge.net/DTD/sodipodi-0.dtd"
   xmlns="http://www.w3.org/2000/svg"
   xmlns:svg="http://www.w3.org/2000/svg"><sodipodi:namedview
     id="namedview1"
     pagecolor="#505050"
     bordercolor="#ffffff"
     borderopacity="1"
     inkscape:showpageshadow="0"
     inkscape:pageopacity="0"
     inkscape:pagecheckerboard="1"
     inkscape:deskcolor="#505050"
     inkscape:document-units="mm"
     inkscape:zoom="2.6547419"
     inkscape:cx="91.722666"
     inkscape:cy="79.292079"
     inkscape:window-width="1920"
     inkscape:window-height="996"
     inkscape:window-x="-9"
     inkscape:window-y="-9"
     inkscape:window-maximized="1"
     inkscape:current-layer="layer1" /><defs
     id="defs1" /><g
     inkscape:label="Layer 1"
     inkscape:groupmode="layer"
     id="layer1"
     transform="translate(-79.048893,-132.04896)"><ellipse
       style="fill:#c2c2c2;fill-opacity:1;stroke:#ffffff;stroke-width:0.264583"
       id="path3"
       cx="119.37561"
       cy="148.18214"
       rx="2.2549076"
       ry="2.2299917" /><path
       style="fill:#ffffff;fill-opacity:1;stroke:none"
       d="m 95.048918,156.22057 c -1.26236,1.59043 -2.668579,2.91763 -4.445001,3.91904 -0.503501,0.28383 -1.858543,0.56321 -1.884911,1.24563 -0.02237,0.57889 0.569252,0.63503 0.995911,0.635 1.053313,-7e-5 2.115698,-0.2484 3.132667,-0.50265 2.149228,-0.5373 4.19723,-1.38318 6.223001,-2.26698 0.598839,-0.26126 1.193675,-0.54699 1.777995,-0.83915 0.26844,-0.13422 0.5904,-0.37003 0.889,-0.41599 0.39275,-0.0605 0.92,0.13595 1.31234,0.19681 0.99487,0.15429 2.0401,0.35596 3.048,0.35663 0,2.07775 -0.59567,3.58336 -1.82693,5.24933 -0.2202,0.29794 -0.22712,0.74992 0.13529,0.94943 0.23117,0.12727 0.51947,0.053 0.76031,-1.3e-4 0.57408,-0.12658 1.13617,-0.28201 1.69333,-0.46956 1.83318,-0.61706 3.43988,-1.75336 4.68045,-3.23141 0.40801,-0.48612 0.79,-0.99941 1.14698,-1.524 0.18669,-0.27434 0.35751,-0.65773 0.61504,-0.87064 0.27649,-0.22858 0.95396,-0.16847 1.30453,-0.21856 1.06567,-0.15226 2.12897,-0.32374 3.175,-0.58189 4.02123,-0.99238 7.85025,-2.86291 10.79497,-5.82191 0.67896,-0.68224 1.30452,-1.42883 1.87838,-2.20133 0.20363,-0.27412 0.54194,-0.61932 0.57237,-0.97367 0.0493,-0.5743 -0.6807,-0.88384 -1.09605,-1.12503 -1.25097,-0.72644 -2.53779,-1.33344 -3.85234,-1.93273 -5.58726,-2.54722 -12.07118,-3.5039 -18.161,-3.5039 -0.0751,-0.86045 -0.58143,-1.83303 -0.91337,-2.62467 -0.85516,-2.03947 -1.8376,-4.05101 -3.26721,-5.75733 -0.47352,-0.56518 -1.01768,-1.09862 -1.61909,-1.52783 -0.26232,-0.18721 -0.54963,-0.38934 -0.889,-0.32027 -0.65504,0.13331 -0.40929,0.93468 -0.33526,1.38243 0.24016,1.45274 0.43249,2.9699 0.33148,4.445 -0.0595,0.86858 -0.19666,1.76421 -0.50693,2.58233 -0.955501,2.51952 -3.232235,4.01062 -5.542952,5.16598 -1.851208,0.9256 -3.807678,1.73083 -5.757334,2.42472 -0.473116,0.16839 -0.953513,0.32996 -1.439334,0.45754 -0.144738,0.038 -0.39497,0.14372 -0.532629,0.047 -0.189841,-0.13339 -0.3061,-0.56546 -0.409156,-0.77157 -0.317453,-0.6349 -0.649353,-1.25879 -1.023513,-1.86267 -1.060716,-1.71194 -2.375048,-3.37481 -4.046035,-4.52858 -0.534831,-0.36929 -1.095736,-0.68856 -1.693334,-0.94428 -0.256727,-0.10985 -0.56688,-0.26081 -0.846634,-0.1512 -0.332466,0.13027 -0.439282,0.47374 -0.34765,0.79806 0.223518,0.79111 0.650595,1.54408 0.912062,2.32834 1.038319,3.11436 1.952243,6.60979 1.019724,9.86366 -0.181642,0.63382 -0.484595,1.25088 -0.880377,1.778 -0.232185,0.30924 -0.642281,0.61487 -0.782186,0.97367 -0.126659,0.32484 0.06585,0.6218 0.332427,0.79989 1.665272,1.11251 3.838945,-0.58921 5.037635,-1.62859 0.282176,-0.24467 0.540939,-0.51533 0.804301,-0.77997 0.333991,-0.3356 0.648489,-0.69791 0.955602,-1.05833 0.101554,-0.11918 0.228505,-0.34774 0.400763,-0.36454 0.20335,-0.0198 0.489947,0.16326 0.675667,0.23754 l 1.566334,0.62654 c 1.283074,0.51325 2.568709,1.02065 3.852333,1.53246 0.673466,0.26853 1.36878,0.63713 2.074334,0.80433 m 24.045332,-9.51275 c 1.92068,-0.24946 2.3048,2.74582 0.381,3.02305 -1.9784,0.28509 -2.37777,-2.7637 -0.381,-3.02305 m -0.0423,0.43088 v 0"
       id="path1"
       sodipodi:nodetypes="csssssscscsscssssssssssccsssssssssssssssssssssssssscssccsccc"
       inkscape:highlight-color="#ffffff" /><path
       style="fill:#c2c2c2;fill-opacity:1"
       d="m 109.81659,162.66322 c 0.0526,-0.0671 0.0512,-0.0686 -0.016,-0.016 -0.0705,0.0553 -0.0929,0.0901 -0.0581,0.0901 0.009,0 0.0421,-0.0333 0.0741,-0.0741 z m -8.61825,-8.98525 c 0.25943,0 0.7556,-0.8961 1.04309,-1.88384 0.4753,-1.63299 0.22917,-3.44259 -0.64428,-4.73679 -0.21543,-0.3192 -0.5097,-0.42316 -0.81526,-0.28799 -0.38776,0.17152 -0.47904,0.59593 -0.21196,0.98547 0.55525,0.80985 0.80136,2.00164 0.62918,3.0469 -0.093,0.56465 -0.26508,1.08255 -0.55544,1.67181 -0.25328,0.514 -0.28659,0.71633 -0.15163,0.92102 0.13115,0.1989 0.42692,0.34903 0.59136,0.30017 0.031,-0.009 0.0827,-0.0168 0.11494,-0.0168 z m 3.59842,-0.1033 c 0.13293,-0.0871 0.43939,-0.6436 0.64625,-1.17354 0.49251,-1.26171 0.5873,-2.49981 0.28253,-3.69036 -0.17899,-0.69918 -0.5535,-1.49147 -0.8589,-1.81699 -0.35282,-0.37606 -1.03151,-0.10602 -1.03151,0.41043 0,0.15571 0.0362,0.25748 0.171,0.48104 0.24563,0.40729 0.4045,0.77913 0.51906,1.21488 0.0879,0.33451 0.1,0.47399 0.0985,1.143 -0.002,0.97116 -0.0945,1.35207 -0.56005,2.30717 -0.25549,0.52419 -0.28426,0.68716 -0.16277,0.9221 0.16364,0.31645 0.5786,0.41014 0.89585,0.20227 z m 3.39349,0.008 c 0.10016,-0.0676 0.20828,-0.22602 0.37236,-0.54561 0.48862,-0.95171 0.69039,-1.7032 0.72586,-2.70348 0.0258,-0.72842 -0.0268,-1.17351 -0.21797,-1.842 -0.13454,-0.47057 -0.56152,-1.35601 -0.75055,-1.55644 -0.31255,-0.3314 -0.83864,-0.27461 -1.02127,0.11025 -0.097,0.2045 -0.0861,0.4012 0.0332,0.60003 0.26648,0.44383 0.31129,0.52923 0.41961,0.79981 0.49729,1.24222 0.41094,2.61116 -0.24884,3.94463 -0.29488,0.59598 -0.32409,0.74266 -0.1958,0.98325 0.16292,0.30555 0.59074,0.40704 0.88336,0.20956 z m 17.33336,-0.0557 c 0.69057,-0.0334 1.29205,-0.0607 1.33662,-0.0607 0.0863,0 0.60628,-0.42878 1.19625,-0.98651 l 0.35945,-0.33982 -0.52879,0.0277 c -3.30345,0.17294 -6.89704,0.13393 -9.14362,-0.0992 -0.76615,-0.0795 -1.6495,-0.20508 -2.26802,-0.32236 -0.35269,-0.0669 -0.64291,-0.10117 -0.71115,-0.084 -0.0634,0.0159 -0.1858,0.0936 -0.27198,0.17253 -0.14994,0.13741 -0.15668,0.15544 -0.15668,0.41923 0,0.24575 0.0132,0.28937 0.12139,0.40234 0.15476,0.16154 0.23126,0.18959 0.87344,0.3203 1.64088,0.33396 3.49161,0.5461 5.35908,0.61429 1.06374,0.0388 2.05182,0.0224 3.83401,-0.0637 z M 83.733853,143.07864 c 0,-0.009 -0.03334,-0.0421 -0.07408,-0.0741 -0.06714,-0.0527 -0.06864,-0.0512 -0.01598,0.016 0.0553,0.0705 0.09007,0.0929 0.09007,0.0581 z"
       id="path2"
       sodipodi:nodetypes="ccsccsscccscccccssssccccscccsccsccssccccssccscccscccccccccc" /></g></svg>
