<?xml version="1.0" encoding="UTF-8" ?>
<!DOCTYPE svg PUBLIC "-//W3C//DTD SVG 1.1//EN" "http://www.w3.org/Graphics/SVG/1.1/DTD/svg11.dtd">
<svg width="1024pt" height="1024pt" viewBox="0 0 1024 1024" version="1.1" xmlns="http://www.w3.org/2000/svg">
<g id="#fefefeff">
<path fill="#fefefe" opacity="1.00" d=" M 607.17 251.22 C 623.53 244.70 641.52 242.98 658.96 244.79 C 678.64 246.45 697.37 253.50 715.18 261.66 C 734.16 270.73 752.29 281.50 771.45 290.20 C 782.33 294.65 793.53 299.28 805.41 299.90 C 792.46 313.38 773.39 319.24 755.04 319.09 C 737.33 319.64 720.44 313.52 703.24 310.36 C 692.05 308.27 679.66 307.69 669.55 313.74 C 658.85 319.74 652.73 331.28 649.96 342.86 C 644.84 363.81 644.53 385.53 643.91 406.98 C 644.02 453.45 649.58 499.79 658.19 545.41 C 628.68 553.71 597.98 556.69 567.42 557.52 C 566.95 551.44 565.09 544.91 559.96 541.13 C 552.93 535.39 543.29 536.59 534.87 535.27 C 513.26 533.67 491.64 532.13 470.05 530.25 C 464.10 529.62 457.50 530.67 453.13 535.08 C 449.75 537.99 448.04 542.17 445.79 545.90 C 435.34 541.65 424.81 537.41 415.04 531.69 C 420.08 520.83 426.61 510.71 432.04 500.04 C 452.49 463.40 472.88 426.74 493.10 389.97 C 512.97 354.37 532.32 318.03 558.80 286.78 C 572.10 271.66 588.00 258.12 607.17 251.22 Z" />
<path fill="#fefefe" opacity="1.00" d=" M 466.50 543.69 C 469.55 542.61 472.86 543.15 476.03 543.25 C 492.70 544.52 509.40 545.39 526.07 546.69 C 532.32 547.34 538.71 546.94 544.86 548.40 C 550.78 549.88 554.91 555.87 554.30 561.94 C 553.15 581.08 552.80 600.27 551.52 619.40 C 551.22 623.34 550.68 627.73 547.69 630.63 C 545.00 633.51 540.84 634.42 537.04 634.22 C 511.95 632.94 486.93 630.66 461.90 628.64 C 458.36 627.95 454.81 626.31 452.85 623.16 C 450.64 619.80 451.01 615.58 451.50 611.79 C 453.64 593.38 455.15 574.89 457.83 556.54 C 458.35 551.21 461.17 545.56 466.50 543.69 M 475.78 609.78 C 493.37 611.06 510.97 612.24 528.58 613.19 C 529.27 597.93 530.09 582.68 530.98 567.44 C 513.95 566.12 496.92 564.83 479.90 563.42 C 478.39 578.86 477.12 594.33 475.78 609.78 Z" />
<path fill="#fefefe" opacity="1.00" d=" M 347.15 592.15 C 352.35 591.35 357.76 588.13 362.91 590.74 C 386.98 600.49 411.99 607.52 436.87 614.80 C 436.38 621.51 438.41 628.79 443.59 633.36 C 448.62 638.47 456.05 639.67 462.86 640.53 C 480.90 642.49 498.98 644.20 517.11 645.23 C 526.03 646.10 535.01 646.42 543.97 646.33 C 550.79 646.31 557.85 643.60 561.85 637.84 C 564.09 634.85 564.98 631.16 566.43 627.77 C 585.32 627.92 604.27 627.18 623.05 625.00 C 641.86 623.02 660.57 619.30 678.28 612.54 C 687.43 617.17 695.86 623.10 704.79 628.14 C 733.87 644.97 765.16 657.62 797.03 668.10 C 806.81 670.98 816.63 673.75 826.63 675.81 C 821.31 683.62 814.10 689.87 806.52 695.41 C 784.00 711.20 757.55 720.27 731.07 726.92 C 691.08 736.62 649.58 740.28 608.52 737.27 C 572.14 735.14 536.28 727.65 501.26 717.76 C 458.13 705.88 416.40 689.65 374.20 674.93 C 339.30 662.84 304.05 650.32 267.11 646.38 C 258.41 645.37 249.61 645.42 240.88 645.94 C 233.32 646.69 225.52 647.99 218.88 651.89 C 216.53 653.59 213.81 655.83 213.61 658.94 C 213.87 664.40 217.69 668.94 221.98 671.97 C 236.15 683.17 253.35 689.41 270.11 695.56 C 278.90 698.53 287.76 701.36 296.83 703.33 C 284.76 702.95 272.92 699.80 261.37 696.42 C 244.21 690.83 226.87 683.90 213.35 671.58 C 207.82 666.31 202.58 659.11 203.64 651.07 C 206.12 641.31 214.94 635.10 223.01 630.04 C 241.03 619.60 261.00 613.05 281.02 607.64 C 302.85 601.58 325.30 598.13 347.15 592.15 Z" />
</g>
</svg>
