<?xml version="1.0" encoding="UTF-8" ?>
<!DOCTYPE svg PUBLIC "-//W3C//DTD SVG 1.1//EN" "http://www.w3.org/Graphics/SVG/1.1/DTD/svg11.dtd">
<svg width="1024pt" height="1024pt" viewBox="0 0 1024 1024" version="1.1" xmlns="http://www.w3.org/2000/svg">
<g id="#feffffff">
<path fill="#feffff" opacity="1.00" d=" M 616.54 206.71 C 620.47 203.85 625.07 206.28 628.80 208.17 C 637.56 213.51 645.26 220.35 653.38 226.59 C 667.91 238.13 681.41 250.93 696.50 261.77 C 709.81 270.74 723.94 278.49 738.56 285.13 C 754.04 292.14 770.00 298.42 786.77 301.53 C 786.91 302.51 786.57 303.25 785.77 303.73 C 779.29 308.06 771.52 309.66 764.09 311.55 C 751.99 313.97 739.35 315.32 727.21 312.38 C 706.61 307.52 687.38 298.43 668.11 289.93 C 666.39 289.45 664.66 288.38 662.84 288.77 C 654.91 294.71 647.72 301.58 639.66 307.36 C 638.66 308.25 637.37 308.62 636.08 308.82 C 641.94 293.23 643.70 276.21 642.59 259.67 C 638.91 285.54 629.29 310.78 613.11 331.45 C 612.97 328.55 613.77 325.77 614.37 322.97 C 616.09 314.21 616.81 305.26 616.40 296.34 C 615.15 287.06 614.29 277.59 610.81 268.80 C 610.70 273.20 611.58 277.54 611.72 281.92 C 611.60 295.52 608.48 308.82 605.88 322.10 C 600.56 314.93 597.37 306.26 591.05 299.84 C 596.40 312.85 598.19 327.02 602.35 340.44 C 608.05 361.86 614.48 383.10 622.26 403.87 C 626.15 414.55 630.58 425.04 635.91 435.08 C 625.46 430.97 615.57 425.39 605.79 419.86 C 576.02 403.45 547.09 385.56 519.16 366.19 C 519.39 368.73 521.97 369.79 523.48 371.52 C 538.15 386.36 554.86 398.87 571.25 411.71 C 597.50 430.90 624.02 449.90 652.47 465.75 C 656.52 468.12 660.74 470.20 664.78 472.61 C 665.37 476.93 663.43 480.95 662.03 484.92 C 659.17 492.05 656.20 499.23 654.88 506.84 C 654.06 512.15 656.11 517.23 658.10 522.02 C 664.30 536.07 672.62 549.09 678.72 563.21 C 681.40 569.64 685.00 576.35 683.46 583.57 C 681.26 584.11 679.13 583.49 677.17 582.53 C 653.31 572.12 627.58 566.95 601.90 563.44 C 610.47 566.42 618.42 570.92 626.81 574.33 C 646.56 583.49 667.27 590.32 688.14 596.40 C 693.07 598.11 699.04 599.68 701.52 604.78 C 703.26 607.82 703.47 611.39 703.80 614.80 C 699.82 614.95 695.98 613.66 692.06 613.23 C 676.37 611.06 660.69 608.74 644.89 607.53 C 630.02 605.61 615.02 605.23 600.08 604.05 C 561.78 601.58 523.40 600.71 485.07 598.81 C 472.03 598.61 459.01 597.76 445.97 597.61 C 431.65 596.63 417.29 596.51 402.95 596.89 C 398.75 597.40 394.51 597.22 390.29 597.30 C 394.45 592.10 400.20 588.48 404.46 583.37 C 408.65 578.64 405.38 571.30 409.32 566.42 C 414.21 560.12 421.32 556.11 427.93 551.87 C 442.71 541.92 458.38 533.37 474.36 525.53 C 488.10 519.00 501.63 511.97 515.81 506.43 C 515.05 506.37 513.52 506.23 512.76 506.17 C 509.69 507.29 506.41 507.48 503.25 508.15 C 483.89 511.37 464.74 516.59 446.90 524.86 C 443.76 526.15 440.61 527.40 437.37 528.41 C 441.42 522.24 446.61 516.83 449.99 510.22 C 453.29 504.37 454.27 497.51 457.80 491.77 C 462.46 484.42 466.87 476.94 471.35 469.49 C 476.71 460.21 482.74 451.12 485.94 440.80 C 489.16 429.25 490.97 417.24 490.24 405.23 C 508.26 425.44 530.14 441.88 553.51 455.40 C 558.31 458.31 562.86 461.69 568.02 463.98 C 547.51 447.69 527.92 429.92 511.82 409.16 C 498.66 392.84 487.31 375.12 477.52 356.60 C 475.65 352.86 473.27 349.27 472.47 345.11 C 472.37 342.53 473.88 340.31 475.06 338.14 C 481.30 328.30 490.26 320.67 498.27 312.33 C 526.82 285.14 556.22 258.86 585.75 232.73 C 596.20 224.28 605.73 214.72 616.54 206.71 Z" />
<path fill="#feffff" opacity="1.00" d=" M 379.98 612.54 C 397.25 610.63 414.66 611.19 432.00 611.17 C 468.03 611.69 504.00 613.86 539.95 616.08 C 562.33 617.22 584.65 619.08 606.99 620.85 C 630.37 622.42 653.68 624.59 677.05 626.40 C 689.26 627.56 701.52 628.32 713.67 630.02 C 713.53 631.91 714.92 635.36 712.12 635.82 C 694.02 640.98 675.24 643.21 656.55 644.95 L 656.02 646.59 C 676.97 648.23 697.98 649.34 719.00 648.68 C 722.74 648.72 726.56 647.91 730.25 648.72 C 756.38 658.55 782.65 668.07 809.55 675.58 C 824.25 679.67 839.00 683.67 854.06 686.22 C 866.12 689.22 878.75 689.85 890.58 693.76 C 894.23 694.59 892.89 699.30 891.23 701.47 C 885.57 709.08 877.29 714.15 869.29 718.96 C 845.64 731.97 819.77 740.24 793.85 747.36 C 766.30 753.76 738.40 759.67 710.03 760.40 C 704.20 760.73 698.70 758.62 693.08 757.50 C 675.42 752.53 657.25 749.78 639.16 746.95 C 627.17 745.72 615.25 743.68 603.19 743.47 C 611.12 745.40 619.04 747.45 626.90 749.71 C 633.53 752.02 639.98 754.79 646.33 757.79 C 647.97 758.67 650.00 759.04 651.27 760.53 C 636.94 762.20 622.48 762.76 608.06 762.86 C 586.03 763.69 563.97 762.97 541.96 762.03 C 505.37 760.68 468.91 756.61 432.87 750.14 C 395.34 742.85 357.43 737.71 319.90 730.37 C 279.20 722.46 238.72 712.78 199.64 698.78 C 192.35 695.89 184.79 693.19 178.60 688.22 C 178.57 687.83 178.51 687.06 178.48 686.67 C 189.87 681.64 202.02 678.69 213.94 675.23 C 253.86 664.53 294.33 656.01 334.92 648.23 C 338.72 647.27 342.80 646.71 346.42 648.58 C 373.21 656.17 400.47 662.30 428.14 665.58 C 450.32 668.47 472.64 669.96 494.96 671.23 C 550.34 672.83 605.83 670.98 660.95 665.63 C 685.27 663.49 709.45 660.09 733.56 656.28 L 734.48 657.01 C 734.62 656.46 734.46 656.01 733.83 656.01 C 727.88 655.46 721.90 656.02 715.99 656.64 C 678.35 658.65 640.69 660.54 602.99 660.99 C 563.99 662.56 524.91 661.67 486.00 658.73 C 451.76 656.24 417.61 651.81 384.06 644.47 C 376.64 642.59 368.98 641.36 361.97 638.19 C 367.27 631.63 372.99 625.26 376.74 617.62 C 377.76 615.91 378.41 613.84 379.98 612.54 Z" />
</g>
</svg>
